<?xml version="1.0" encoding="utf-8"?>
<!-- Generator: Adobe Illustrator 16.0.3, SVG Export Plug-In . SVG Version: 6.00 Build 0)  -->
<!DOCTYPE svg PUBLIC "-//W3C//DTD SVG 1.1//EN" "http://www.w3.org/Graphics/SVG/1.1/DTD/svg11.dtd">
<svg version="1.1" id="Layer_1" xmlns="http://www.w3.org/2000/svg" xmlns:xlink="http://www.w3.org/1999/xlink" x="0px" y="0px"
	 width="184px" height="13.5px" viewBox="0 0 184 13.5" enable-background="new 0 0 184 13.5" xml:space="preserve">
<g>
	<g>
		<path fill="#FFFFFF" d="M33.265,2.31c-0.112-0.57-0.57-0.858-1.129-0.858c-0.96,0-1.366,0.791-1.366,1.631
			c0,0.92,0.406,1.688,1.372,1.688c0.705,0,1.112-0.497,1.163-1.163h0.536c-0.102,1.005-0.729,1.615-1.745,1.615
			c-1.253,0-1.862-0.926-1.862-2.101C30.233,1.954,30.899,1,32.142,1c0.841,0,1.535,0.452,1.659,1.31H33.265z"/>
		<path fill="#FFFFFF" d="M35.627,2.14c0.926,0,1.417,0.672,1.417,1.53c0,0.853-0.491,1.524-1.417,1.524S34.21,4.523,34.21,3.67
			C34.21,2.812,34.701,2.14,35.627,2.14z M35.627,4.771c0.503,0,0.909-0.396,0.909-1.101c0-0.711-0.406-1.106-0.909-1.106
			c-0.502,0-0.909,0.395-0.909,1.106C34.718,4.376,35.125,4.771,35.627,4.771z"/>
		<path fill="#FFFFFF" d="M37.55,2.208h0.452v0.429h0.011c0.215-0.328,0.542-0.497,0.943-0.497c0.355,0,0.683,0.141,0.801,0.497
			c0.198-0.311,0.542-0.497,0.915-0.497c0.582,0,0.971,0.243,0.971,0.847v2.14h-0.479V3.213c0-0.361-0.096-0.649-0.564-0.649
			c-0.463,0-0.763,0.293-0.763,0.745v1.818h-0.479V3.213c0-0.378-0.118-0.649-0.548-0.649c-0.57,0-0.779,0.525-0.779,0.745v1.818
			H37.55V2.208z"/>
		<path fill="#FFFFFF" d="M42.306,2.208h0.452v0.429h0.011c0.215-0.328,0.542-0.497,0.943-0.497c0.355,0,0.683,0.141,0.801,0.497
			c0.198-0.311,0.542-0.497,0.915-0.497c0.582,0,0.971,0.243,0.971,0.847v2.14h-0.479V3.213c0-0.361-0.096-0.649-0.564-0.649
			c-0.463,0-0.763,0.293-0.763,0.745v1.818h-0.479V3.213c0-0.378-0.118-0.649-0.548-0.649c-0.57,0-0.779,0.525-0.779,0.745v1.818
			h-0.479V2.208z"/>
		<path fill="#FFFFFF" d="M49.478,5.127h-0.451V4.664h-0.012c-0.203,0.361-0.53,0.531-0.948,0.531c-0.768,0-1.005-0.44-1.005-1.067
			V2.208h0.479v1.976c0,0.356,0.227,0.587,0.593,0.587c0.582,0,0.864-0.39,0.864-0.915V2.208h0.479V5.127z"/>
		<path fill="#FFFFFF" d="M50.142,2.208h0.452v0.463h0.011c0.203-0.361,0.53-0.531,0.948-0.531c0.769,0,1.005,0.44,1.005,1.067
			v1.919h-0.479V3.151c0-0.355-0.226-0.587-0.593-0.587c-0.582,0-0.864,0.389-0.864,0.915v1.648h-0.479V2.208z"/>
		<path fill="#FFFFFF" d="M53.73,1.683h-0.479V1.096h0.479V1.683z M53.251,2.208h0.479v2.919h-0.479V2.208z"/>
		<path fill="#FFFFFF" d="M56.399,3.146c-0.073-0.367-0.327-0.582-0.723-0.582c-0.694,0-0.909,0.547-0.909,1.14
			c0,0.537,0.243,1.067,0.853,1.067c0.463,0,0.74-0.271,0.802-0.711h0.491c-0.107,0.711-0.553,1.135-1.287,1.135
			c-0.892,0-1.366-0.621-1.366-1.491c0-0.875,0.452-1.564,1.378-1.564c0.66,0,1.191,0.311,1.259,1.005H56.399z"/>
		<path fill="#FFFFFF" d="M59.978,5.116c-0.085,0.051-0.192,0.079-0.345,0.079c-0.248,0-0.406-0.136-0.406-0.452
			c-0.266,0.311-0.621,0.452-1.027,0.452c-0.531,0-0.966-0.237-0.966-0.819c0-0.661,0.491-0.802,0.988-0.897
			c0.53-0.102,0.982-0.068,0.982-0.429c0-0.418-0.345-0.485-0.649-0.485c-0.406,0-0.706,0.124-0.729,0.553h-0.479
			c0.028-0.723,0.587-0.977,1.236-0.977c0.524,0,1.095,0.119,1.095,0.802v1.502c0,0.226,0,0.328,0.152,0.328
			c0.04,0,0.085-0.006,0.147-0.028V5.116z M59.198,3.62c-0.187,0.135-0.548,0.141-0.869,0.198c-0.316,0.056-0.588,0.169-0.588,0.525
			c0,0.316,0.271,0.429,0.565,0.429c0.632,0,0.892-0.396,0.892-0.661V3.62z"/>
		<path fill="#FFFFFF" d="M61.03,2.208h0.582v0.423H61.03v1.813c0,0.22,0.063,0.26,0.361,0.26h0.221v0.423h-0.367
			c-0.497,0-0.694-0.102-0.694-0.638V2.631h-0.497V2.208h0.497V1.333h0.479V2.208z"/>
		<path fill="#FFFFFF" d="M62.599,1.683h-0.479V1.096h0.479V1.683z M62.119,2.208h0.479v2.919h-0.479V2.208z"/>
		<path fill="#FFFFFF" d="M64.545,2.14c0.926,0,1.417,0.672,1.417,1.53c0,0.853-0.491,1.524-1.417,1.524s-1.417-0.672-1.417-1.524
			C63.128,2.812,63.619,2.14,64.545,2.14z M64.545,4.771c0.503,0,0.909-0.396,0.909-1.101c0-0.711-0.406-1.106-0.909-1.106
			c-0.502,0-0.909,0.395-0.909,1.106C63.636,4.376,64.043,4.771,64.545,4.771z"/>
		<path fill="#FFFFFF" d="M66.468,2.208h0.452v0.463h0.011c0.203-0.361,0.53-0.531,0.948-0.531c0.769,0,1.005,0.44,1.005,1.067
			v1.919h-0.479V3.151c0-0.355-0.226-0.587-0.593-0.587c-0.582,0-0.864,0.389-0.864,0.915v1.648h-0.479V2.208z"/>
		<path fill="#FFFFFF" d="M69.843,4.207c0.017,0.429,0.39,0.565,0.784,0.565c0.3,0,0.706-0.068,0.706-0.435
			c0-0.373-0.475-0.435-0.954-0.542c-0.475-0.107-0.954-0.265-0.954-0.824c0-0.587,0.581-0.83,1.09-0.83
			c0.644,0,1.157,0.204,1.196,0.915h-0.479c-0.034-0.373-0.361-0.491-0.678-0.491c-0.288,0-0.621,0.079-0.621,0.373
			c0,0.344,0.508,0.401,0.954,0.508c0.48,0.107,0.954,0.266,0.954,0.83c0,0.694-0.649,0.92-1.242,0.92
			c-0.654,0-1.208-0.266-1.236-0.988H69.843z"/>
		<path fill="#FFFFFF" d="M76.241,2.276c-0.063-0.576-0.446-0.824-1-0.824c-0.451,0-0.903,0.164-0.903,0.688
			c0,0.497,0.644,0.57,1.293,0.717c0.644,0.146,1.287,0.373,1.287,1.163c0,0.858-0.841,1.203-1.575,1.203
			c-0.903,0-1.665-0.44-1.665-1.423h0.508c0,0.677,0.564,0.971,1.175,0.971c0.485,0,1.021-0.153,1.021-0.734
			c0-0.553-0.644-0.649-1.287-0.79s-1.293-0.328-1.293-1.067c0-0.818,0.729-1.18,1.462-1.18c0.824,0,1.451,0.39,1.485,1.276H76.241z
			"/>
		<path fill="#FFFFFF" d="M79.926,4.201c-0.13,0.644-0.594,0.994-1.248,0.994c-0.932,0-1.372-0.644-1.4-1.536
			c0-0.875,0.576-1.519,1.372-1.519c1.033,0,1.35,0.966,1.321,1.671h-2.186c-0.017,0.508,0.271,0.96,0.909,0.96
			c0.396,0,0.672-0.192,0.757-0.57H79.926z M79.462,3.388c-0.022-0.458-0.366-0.824-0.841-0.824c-0.502,0-0.802,0.378-0.836,0.824
			H79.462z"/>
		<path fill="#FFFFFF" d="M82.39,3.146c-0.073-0.367-0.327-0.582-0.723-0.582c-0.694,0-0.909,0.547-0.909,1.14
			c0,0.537,0.243,1.067,0.853,1.067c0.463,0,0.74-0.271,0.802-0.711h0.491c-0.107,0.711-0.553,1.135-1.287,1.135
			c-0.892,0-1.366-0.621-1.366-1.491c0-0.875,0.452-1.564,1.378-1.564c0.66,0,1.191,0.311,1.259,1.005H82.39z"/>
		<path fill="#FFFFFF" d="M85.797,5.127h-0.451V4.664h-0.012c-0.203,0.361-0.53,0.531-0.948,0.531c-0.768,0-1.005-0.44-1.005-1.067
			V2.208h0.479v1.976c0,0.356,0.227,0.587,0.593,0.587c0.582,0,0.864-0.39,0.864-0.915V2.208h0.479V5.127z"/>
		<path fill="#FFFFFF" d="M86.445,2.208h0.451v0.615h0.012c0.231-0.468,0.553-0.7,1.072-0.683v0.508c-0.773,0-1.056,0.44-1.056,1.18
			v1.298h-0.479V2.208z"/>
		<path fill="#FFFFFF" d="M88.792,1.683h-0.479V1.096h0.479V1.683z M88.313,2.208h0.479v2.919h-0.479V2.208z"/>
		<path fill="#FFFFFF" d="M90.146,2.208h0.582v0.423h-0.582v1.813c0,0.22,0.063,0.26,0.361,0.26h0.221v0.423H90.36
			c-0.497,0-0.694-0.102-0.694-0.638V2.631h-0.497V2.208h0.497V1.333h0.479V2.208z"/>
		<path fill="#FFFFFF" d="M92.353,5.517c-0.221,0.57-0.418,0.779-0.848,0.779c-0.112,0-0.226-0.011-0.333-0.051v-0.44
			c0.091,0.028,0.187,0.067,0.282,0.067c0.198,0,0.306-0.096,0.396-0.265l0.197-0.497L90.89,2.208h0.542l0.853,2.388h0.012
			l0.818-2.388h0.508L92.353,5.517z"/>
	</g>
	<g>
		<path fill="#FFFFFF" d="M30.431,6.912h2.783v0.452h-2.247v1.281h2.095v0.451h-2.095v1.395h2.264v0.452h-2.8V6.912z"/>
		<path fill="#FFFFFF" d="M34.042,10.022c0.017,0.43,0.39,0.565,0.784,0.565c0.3,0,0.706-0.067,0.706-0.435
			c0-0.373-0.475-0.436-0.954-0.543c-0.475-0.106-0.954-0.265-0.954-0.824c0-0.586,0.581-0.83,1.09-0.83
			c0.644,0,1.157,0.204,1.196,0.916h-0.479c-0.034-0.373-0.361-0.492-0.678-0.492c-0.288,0-0.621,0.079-0.621,0.373
			c0,0.344,0.508,0.4,0.954,0.508c0.48,0.107,0.954,0.266,0.954,0.83c0,0.694-0.649,0.92-1.242,0.92
			c-0.654,0-1.208-0.266-1.236-0.988H34.042z"/>
		<path fill="#FFFFFF" d="M37.178,8.024h0.582v0.424h-0.582v1.813c0,0.22,0.063,0.26,0.361,0.26h0.221v0.423h-0.367
			c-0.497,0-0.694-0.102-0.694-0.638V8.448h-0.497V8.024h0.497V7.149h0.479V8.024z"/>
		<path fill="#FFFFFF" d="M40.824,10.933c-0.085,0.051-0.192,0.078-0.345,0.078c-0.248,0-0.406-0.135-0.406-0.451
			c-0.266,0.311-0.621,0.451-1.027,0.451c-0.531,0-0.966-0.236-0.966-0.818c0-0.66,0.491-0.802,0.988-0.897
			c0.53-0.102,0.982-0.067,0.982-0.429c0-0.418-0.345-0.486-0.649-0.486c-0.406,0-0.706,0.125-0.729,0.554h-0.479
			c0.028-0.723,0.587-0.978,1.236-0.978c0.525,0,1.095,0.119,1.095,0.803v1.502c0,0.225,0,0.327,0.153,0.327
			c0.039,0,0.084-0.006,0.146-0.028V10.933z M40.045,9.437c-0.187,0.135-0.548,0.141-0.869,0.197
			c-0.316,0.057-0.588,0.169-0.588,0.525c0,0.315,0.271,0.429,0.565,0.429c0.632,0,0.892-0.396,0.892-0.661V9.437z"/>
		<path fill="#FFFFFF" d="M41.228,6.912h0.48V8.42h0.011c0.158-0.322,0.531-0.464,0.932-0.464c0.897,0,1.344,0.712,1.344,1.536
			c0,0.825-0.44,1.519-1.332,1.519c-0.3,0-0.729-0.112-0.943-0.457h-0.011v0.39h-0.48V6.912z M42.583,8.38
			c-0.644,0-0.893,0.554-0.893,1.102c0,0.576,0.26,1.106,0.921,1.106c0.654,0,0.875-0.56,0.875-1.13
			C43.486,8.911,43.204,8.38,42.583,8.38z"/>
		<path fill="#FFFFFF" d="M44.528,6.912h0.479v4.031h-0.479V6.912z"/>
		<path fill="#FFFFFF" d="M46.204,7.499h-0.479V6.912h0.479V7.499z M45.725,8.024h0.479v2.919h-0.479V8.024z"/>
		<path fill="#FFFFFF" d="M47.187,10.022c0.017,0.43,0.39,0.565,0.784,0.565c0.3,0,0.706-0.067,0.706-0.435
			c0-0.373-0.475-0.436-0.954-0.543c-0.475-0.106-0.954-0.265-0.954-0.824c0-0.586,0.581-0.83,1.09-0.83
			c0.644,0,1.157,0.204,1.196,0.916h-0.479c-0.034-0.373-0.361-0.492-0.678-0.492c-0.288,0-0.621,0.079-0.621,0.373
			c0,0.344,0.508,0.4,0.954,0.508c0.48,0.107,0.954,0.266,0.954,0.83c0,0.694-0.649,0.92-1.242,0.92
			c-0.654,0-1.208-0.266-1.236-0.988H47.187z"/>
		<path fill="#FFFFFF" d="M49.662,6.912h0.479v1.542h0.012c0.158-0.351,0.57-0.498,0.92-0.498c0.769,0,1.005,0.441,1.005,1.068
			v1.919h-0.479V8.968c0-0.355-0.226-0.588-0.593-0.588c-0.582,0-0.864,0.39-0.864,0.915v1.648h-0.479V6.912z"/>
		<path fill="#FFFFFF" d="M52.742,8.024h0.451v0.43h0.012c0.215-0.328,0.542-0.498,0.943-0.498c0.355,0,0.683,0.142,0.801,0.498
			c0.198-0.311,0.542-0.498,0.915-0.498c0.581,0,0.971,0.244,0.971,0.848v2.14h-0.479V9.029c0-0.361-0.096-0.649-0.564-0.649
			c-0.463,0-0.763,0.294-0.763,0.746v1.817h-0.479V9.029c0-0.378-0.118-0.649-0.548-0.649c-0.57,0-0.779,0.525-0.779,0.746v1.817
			h-0.479V8.024z"/>
		<path fill="#FFFFFF" d="M59.988,10.018c-0.13,0.644-0.594,0.993-1.248,0.993c-0.932,0-1.372-0.643-1.4-1.535
			c0-0.875,0.576-1.52,1.372-1.52c1.033,0,1.35,0.967,1.321,1.672h-2.186c-0.017,0.508,0.271,0.96,0.909,0.96
			c0.396,0,0.672-0.192,0.757-0.57H59.988z M59.524,9.204c-0.022-0.457-0.366-0.824-0.841-0.824c-0.502,0-0.802,0.379-0.836,0.824
			H59.524z"/>
		<path fill="#FFFFFF" d="M60.472,8.024h0.452v0.463h0.011c0.203-0.361,0.53-0.531,0.948-0.531c0.769,0,1.005,0.441,1.005,1.068
			v1.919h-0.479V8.968c0-0.355-0.226-0.588-0.593-0.588c-0.582,0-0.864,0.39-0.864,0.915v1.648h-0.479V8.024z"/>
		<path fill="#FFFFFF" d="M64.218,8.024H64.8v0.424h-0.582v1.813c0,0.22,0.063,0.26,0.361,0.26H64.8v0.423h-0.367
			c-0.497,0-0.694-0.102-0.694-0.638V8.448h-0.497V8.024h0.497V7.149h0.479V8.024z"/>
		<path fill="#FFFFFF" d="M69.708,8.126c-0.112-0.57-0.57-0.857-1.129-0.857c-0.96,0-1.366,0.79-1.366,1.631
			c0,0.92,0.406,1.688,1.372,1.688c0.705,0,1.112-0.497,1.163-1.163h0.536c-0.102,1.005-0.729,1.615-1.745,1.615
			c-1.253,0-1.862-0.927-1.862-2.102c0-1.168,0.666-2.122,1.908-2.122c0.841,0,1.535,0.452,1.659,1.31H69.708z"/>
		<path fill="#FFFFFF" d="M73.398,10.933c-0.085,0.051-0.192,0.078-0.345,0.078c-0.248,0-0.406-0.135-0.406-0.451
			c-0.266,0.311-0.621,0.451-1.027,0.451c-0.531,0-0.966-0.236-0.966-0.818c0-0.66,0.491-0.802,0.988-0.897
			c0.53-0.102,0.982-0.067,0.982-0.429c0-0.418-0.345-0.486-0.649-0.486c-0.406,0-0.706,0.125-0.729,0.554h-0.479
			c0.028-0.723,0.587-0.978,1.236-0.978c0.525,0,1.095,0.119,1.095,0.803v1.502c0,0.225,0,0.327,0.153,0.327
			c0.039,0,0.084-0.006,0.146-0.028V10.933z M72.619,9.437c-0.187,0.135-0.548,0.141-0.869,0.197
			c-0.316,0.057-0.588,0.169-0.588,0.525c0,0.315,0.271,0.429,0.565,0.429c0.632,0,0.892-0.396,0.892-0.661V9.437z"/>
		<path fill="#FFFFFF" d="M73.785,8.024h0.451v0.463h0.012c0.203-0.361,0.531-0.531,0.948-0.531c0.769,0,1.005,0.441,1.005,1.068
			v1.919h-0.479V8.968c0-0.355-0.226-0.588-0.593-0.588c-0.582,0-0.864,0.39-0.864,0.915v1.648h-0.479V8.024z"/>
		<path fill="#FFFFFF" d="M79.451,10.933c-0.085,0.051-0.192,0.078-0.345,0.078c-0.248,0-0.406-0.135-0.406-0.451
			c-0.266,0.311-0.621,0.451-1.027,0.451c-0.531,0-0.966-0.236-0.966-0.818c0-0.66,0.491-0.802,0.988-0.897
			c0.53-0.102,0.982-0.067,0.982-0.429c0-0.418-0.345-0.486-0.649-0.486c-0.406,0-0.706,0.125-0.729,0.554H76.82
			c0.028-0.723,0.587-0.978,1.236-0.978c0.525,0,1.095,0.119,1.095,0.803v1.502c0,0.225,0,0.327,0.153,0.327
			c0.039,0,0.084-0.006,0.146-0.028V10.933z M78.672,9.437c-0.187,0.135-0.548,0.141-0.869,0.197
			c-0.316,0.057-0.588,0.169-0.588,0.525c0,0.315,0.271,0.429,0.565,0.429c0.632,0,0.892-0.396,0.892-0.661V9.437z"/>
		<path fill="#FFFFFF" d="M82.446,10.943h-0.479v-0.396h-0.012c-0.158,0.322-0.53,0.463-0.932,0.463
			c-0.897,0-1.344-0.711-1.344-1.535s0.44-1.52,1.332-1.52c0.3,0,0.729,0.113,0.943,0.458h0.012V6.912h0.479V10.943z M81.091,10.588
			c0.644,0,0.893-0.554,0.893-1.101c0-0.576-0.26-1.107-0.92-1.107c-0.655,0-0.876,0.559-0.876,1.129
			C80.188,10.058,80.471,10.588,81.091,10.588z"/>
		<path fill="#FFFFFF" d="M85.713,10.933c-0.085,0.051-0.192,0.078-0.345,0.078c-0.248,0-0.406-0.135-0.406-0.451
			c-0.266,0.311-0.621,0.451-1.027,0.451c-0.531,0-0.966-0.236-0.966-0.818c0-0.66,0.491-0.802,0.988-0.897
			c0.53-0.102,0.982-0.067,0.982-0.429c0-0.418-0.345-0.486-0.649-0.486c-0.406,0-0.706,0.125-0.729,0.554h-0.479
			c0.028-0.723,0.587-0.978,1.236-0.978c0.525,0,1.095,0.119,1.095,0.803v1.502c0,0.225,0,0.327,0.153,0.327
			c0.039,0,0.084-0.006,0.146-0.028V10.933z M84.934,9.437c-0.187,0.135-0.548,0.141-0.869,0.197
			c-0.316,0.057-0.588,0.169-0.588,0.525c0,0.315,0.271,0.429,0.565,0.429c0.632,0,0.892-0.396,0.892-0.661V9.437z"/>
	</g>
	<g>
		<path fill="#FFFFFF" d="M104.567,2.31c-0.112-0.57-0.57-0.858-1.129-0.858c-0.96,0-1.366,0.791-1.366,1.631
			c0,0.92,0.406,1.688,1.372,1.688c0.705,0,1.112-0.497,1.163-1.163h0.536c-0.102,1.005-0.729,1.615-1.745,1.615
			c-1.253,0-1.862-0.926-1.862-2.101c0-1.168,0.666-2.123,1.908-2.123c0.841,0,1.535,0.452,1.659,1.31H104.567z"/>
		<path fill="#FFFFFF" d="M108.161,4.201c-0.13,0.644-0.593,0.994-1.248,0.994c-0.932,0-1.372-0.644-1.4-1.536
			c0-0.875,0.576-1.519,1.372-1.519c1.033,0,1.35,0.966,1.321,1.671h-2.186c-0.017,0.508,0.271,0.96,0.909,0.96
			c0.396,0,0.672-0.192,0.757-0.57H108.161z M107.697,3.388c-0.022-0.458-0.366-0.824-0.841-0.824c-0.502,0-0.802,0.378-0.836,0.824
			H107.697z"/>
		<path fill="#FFFFFF" d="M108.644,2.208h0.452v0.463h0.011c0.203-0.361,0.53-0.531,0.948-0.531c0.769,0,1.005,0.44,1.005,1.067
			v1.919h-0.479V3.151c0-0.355-0.226-0.587-0.593-0.587c-0.582,0-0.864,0.389-0.864,0.915v1.648h-0.479V2.208z"/>
		<path fill="#FFFFFF" d="M112.391,2.208h0.582v0.423h-0.582v1.813c0,0.22,0.063,0.26,0.361,0.26h0.221v0.423h-0.367
			c-0.497,0-0.694-0.102-0.694-0.638V2.631h-0.497V2.208h0.497V1.333h0.479V2.208z"/>
		<path fill="#FFFFFF" d="M113.434,2.208h0.451v0.615h0.012c0.231-0.468,0.553-0.7,1.072-0.683v0.508
			c-0.773,0-1.056,0.44-1.056,1.18v1.298h-0.479V2.208z"/>
		<path fill="#FFFFFF" d="M117.763,4.201c-0.13,0.644-0.593,0.994-1.248,0.994c-0.932,0-1.372-0.644-1.4-1.536
			c0-0.875,0.576-1.519,1.372-1.519c1.033,0,1.35,0.966,1.321,1.671h-2.186c-0.017,0.508,0.271,0.96,0.909,0.96
			c0.396,0,0.672-0.192,0.757-0.57H117.763z M117.299,3.388c-0.022-0.458-0.366-0.824-0.841-0.824c-0.502,0-0.802,0.378-0.836,0.824
			H117.299z"/>
		<path fill="#FFFFFF" d="M122.372,5.127h-0.479V4.732h-0.012c-0.158,0.322-0.53,0.463-0.932,0.463
			c-0.897,0-1.344-0.711-1.344-1.536s0.44-1.519,1.332-1.519c0.3,0,0.729,0.113,0.943,0.458h0.012V1.096h0.479V5.127z
			 M121.017,4.771c0.644,0,0.893-0.554,0.893-1.101c0-0.576-0.26-1.106-0.92-1.106c-0.655,0-0.876,0.559-0.876,1.129
			C120.113,4.241,120.396,4.771,121.017,4.771z"/>
		<path fill="#FFFFFF" d="M125.542,4.201c-0.13,0.644-0.593,0.994-1.248,0.994c-0.932,0-1.372-0.644-1.4-1.536
			c0-0.875,0.576-1.519,1.372-1.519c1.033,0,1.35,0.966,1.321,1.671h-2.186c-0.017,0.508,0.271,0.96,0.909,0.96
			c0.396,0,0.672-0.192,0.757-0.57H125.542z M125.078,3.388c-0.022-0.458-0.366-0.824-0.841-0.824c-0.502,0-0.802,0.378-0.836,0.824
			H125.078z"/>
		<path fill="#FFFFFF" d="M127.571,1.096h0.479v4.031h-0.479V1.096z"/>
		<path fill="#FFFFFF" d="M131.324,5.116c-0.085,0.051-0.192,0.079-0.345,0.079c-0.248,0-0.406-0.136-0.406-0.452
			c-0.266,0.311-0.621,0.452-1.027,0.452c-0.531,0-0.966-0.237-0.966-0.819c0-0.661,0.491-0.802,0.988-0.897
			c0.53-0.102,0.982-0.068,0.982-0.429c0-0.418-0.345-0.485-0.649-0.485c-0.406,0-0.706,0.124-0.729,0.553h-0.479
			c0.028-0.723,0.587-0.977,1.236-0.977c0.525,0,1.095,0.119,1.095,0.802v1.502c0,0.226,0,0.328,0.153,0.328
			c0.039,0,0.084-0.006,0.146-0.028V5.116z M130.545,3.62c-0.187,0.135-0.548,0.141-0.869,0.198
			c-0.316,0.056-0.588,0.169-0.588,0.525c0,0.316,0.271,0.429,0.565,0.429c0.632,0,0.892-0.396,0.892-0.661V3.62z"/>
		<path fill="#FFFFFF" d="M133.523,4.207c0.017,0.429,0.39,0.565,0.784,0.565c0.3,0,0.706-0.068,0.706-0.435
			c0-0.373-0.475-0.435-0.954-0.542c-0.475-0.107-0.954-0.265-0.954-0.824c0-0.587,0.581-0.83,1.09-0.83
			c0.644,0,1.157,0.204,1.196,0.915h-0.479c-0.034-0.373-0.361-0.491-0.678-0.491c-0.288,0-0.621,0.079-0.621,0.373
			c0,0.344,0.508,0.401,0.954,0.508c0.48,0.107,0.954,0.266,0.954,0.83c0,0.694-0.649,0.92-1.242,0.92
			c-0.654,0-1.208-0.266-1.236-0.988H133.523z"/>
		<path fill="#FFFFFF" d="M138.489,4.201c-0.13,0.644-0.593,0.994-1.248,0.994c-0.932,0-1.372-0.644-1.4-1.536
			c0-0.875,0.576-1.519,1.372-1.519c1.033,0,1.35,0.966,1.321,1.671h-2.186c-0.017,0.508,0.271,0.96,0.909,0.96
			c0.396,0,0.672-0.192,0.757-0.57H138.489z M138.025,3.388c-0.022-0.458-0.366-0.824-0.841-0.824c-0.502,0-0.802,0.378-0.836,0.824
			H138.025z M137.298,1h0.615l-0.739,0.807h-0.361L137.298,1z"/>
		<path fill="#FFFFFF" d="M140.954,3.146c-0.073-0.367-0.327-0.582-0.723-0.582c-0.694,0-0.909,0.547-0.909,1.14
			c0,0.537,0.243,1.067,0.853,1.067c0.463,0,0.74-0.271,0.802-0.711h0.491c-0.107,0.711-0.553,1.135-1.287,1.135
			c-0.892,0-1.366-0.621-1.366-1.491c0-0.875,0.452-1.564,1.378-1.564c0.66,0,1.191,0.311,1.259,1.005H140.954z"/>
		<path fill="#FFFFFF" d="M144.361,5.127h-0.451V4.664h-0.012c-0.203,0.361-0.53,0.531-0.948,0.531c-0.768,0-1.005-0.44-1.005-1.067
			V2.208h0.479v1.976c0,0.356,0.227,0.587,0.593,0.587c0.582,0,0.864-0.39,0.864-0.915V2.208h0.479V5.127z"/>
		<path fill="#FFFFFF" d="M145.009,2.208h0.451v0.615h0.012c0.231-0.468,0.553-0.7,1.072-0.683v0.508
			c-0.773,0-1.056,0.44-1.056,1.18v1.298h-0.479V2.208z"/>
		<path fill="#FFFFFF" d="M147.355,1.683h-0.479V1.096h0.479V1.683z M146.876,2.208h0.479v2.919h-0.479V2.208z"/>
		<path fill="#FFFFFF" d="M148.71,2.208h0.582v0.423h-0.582v1.813c0,0.22,0.063,0.26,0.361,0.26h0.221v0.423h-0.367
			c-0.497,0-0.694-0.102-0.694-0.638V2.631h-0.497V2.208h0.497V1.333h0.479V2.208z"/>
		<path fill="#FFFFFF" d="M152.26,4.201c-0.13,0.644-0.594,0.994-1.248,0.994c-0.932,0-1.372-0.644-1.4-1.536
			c0-0.875,0.576-1.519,1.372-1.519c1.033,0,1.35,0.966,1.321,1.671h-2.186c-0.017,0.508,0.271,0.96,0.909,0.96
			c0.396,0,0.672-0.192,0.757-0.57H152.26z M151.796,3.388c-0.022-0.458-0.366-0.824-0.841-0.824c-0.502,0-0.802,0.378-0.836,0.824
			H151.796z M151.068,1h0.615l-0.74,0.807h-0.361L151.068,1z"/>
	</g>
	<g>
		<path fill="#FFFFFF" d="M104.263,10.943h-0.479v-0.396h-0.012c-0.158,0.322-0.53,0.463-0.932,0.463
			c-0.897,0-1.344-0.711-1.344-1.535s0.44-1.52,1.332-1.52c0.3,0,0.729,0.113,0.943,0.458h0.012V6.912h0.479V10.943z
			 M102.907,10.588c0.644,0,0.893-0.554,0.893-1.101c0-0.576-0.26-1.107-0.92-1.107c-0.655,0-0.876,0.559-0.876,1.129
			C102.004,10.058,102.287,10.588,102.907,10.588z"/>
		<path fill="#FFFFFF" d="M107.434,10.018c-0.13,0.644-0.594,0.993-1.248,0.993c-0.932,0-1.372-0.643-1.4-1.535
			c0-0.875,0.576-1.52,1.372-1.52c1.033,0,1.35,0.967,1.321,1.672h-2.186c-0.017,0.508,0.271,0.96,0.909,0.96
			c0.396,0,0.672-0.192,0.757-0.57H107.434z M106.97,9.204c-0.022-0.457-0.366-0.824-0.841-0.824c-0.502,0-0.802,0.379-0.836,0.824
			H106.97z"/>
		<path fill="#FFFFFF" d="M108.21,10.022c0.017,0.43,0.39,0.565,0.784,0.565c0.3,0,0.706-0.067,0.706-0.435
			c0-0.373-0.475-0.436-0.954-0.543c-0.475-0.106-0.954-0.265-0.954-0.824c0-0.586,0.581-0.83,1.09-0.83
			c0.644,0,1.157,0.204,1.196,0.916h-0.479c-0.034-0.373-0.361-0.492-0.678-0.492c-0.288,0-0.621,0.079-0.621,0.373
			c0,0.344,0.508,0.4,0.954,0.508c0.48,0.107,0.954,0.266,0.954,0.83c0,0.694-0.649,0.92-1.242,0.92
			c-0.654,0-1.208-0.266-1.236-0.988H108.21z"/>
		<path fill="#FFFFFF" d="M112.87,8.024h0.582v0.424h-0.582v1.813c0,0.22,0.063,0.26,0.361,0.26h0.221v0.423h-0.367
			c-0.497,0-0.694-0.102-0.694-0.638V8.448h-0.497V8.024h0.497V7.149h0.479V8.024z"/>
		<path fill="#FFFFFF" d="M116.42,10.018c-0.13,0.644-0.594,0.993-1.248,0.993c-0.932,0-1.372-0.643-1.4-1.535
			c0-0.875,0.576-1.52,1.372-1.52c1.033,0,1.35,0.967,1.321,1.672h-2.186c-0.017,0.508,0.271,0.96,0.909,0.96
			c0.396,0,0.672-0.192,0.757-0.57H116.42z M115.956,9.204c-0.022-0.457-0.366-0.824-0.841-0.824c-0.502,0-0.802,0.379-0.836,0.824
			H115.956z M115.229,6.816h0.615l-0.74,0.808h-0.361L115.229,6.816z"/>
		<path fill="#FFFFFF" d="M116.932,6.912h0.479v4.031h-0.479V6.912z"/>
		<path fill="#FFFFFF" d="M120.589,10.018c-0.13,0.644-0.593,0.993-1.248,0.993c-0.932,0-1.372-0.643-1.4-1.535
			c0-0.875,0.576-1.52,1.372-1.52c1.033,0,1.35,0.967,1.321,1.672h-2.186c-0.017,0.508,0.271,0.96,0.909,0.96
			c0.396,0,0.672-0.192,0.757-0.57H120.589z M120.125,9.204c-0.022-0.457-0.366-0.824-0.841-0.824c-0.502,0-0.802,0.379-0.836,0.824
			H120.125z M119.397,6.816h0.615l-0.739,0.808h-0.361L119.397,6.816z"/>
		<path fill="#FFFFFF" d="M123.054,8.962c-0.073-0.367-0.327-0.582-0.723-0.582c-0.694,0-0.909,0.548-0.909,1.141
			c0,0.537,0.243,1.067,0.853,1.067c0.463,0,0.74-0.271,0.802-0.712h0.491c-0.107,0.712-0.553,1.135-1.287,1.135
			c-0.892,0-1.366-0.621-1.366-1.49c0-0.875,0.452-1.564,1.378-1.564c0.66,0,1.191,0.311,1.259,1.006H123.054z"/>
		<path fill="#FFFFFF" d="M125.31,7.956c0.926,0,1.417,0.672,1.417,1.531c0,0.852-0.491,1.523-1.417,1.523s-1.417-0.672-1.417-1.523
			C123.893,8.628,124.384,7.956,125.31,7.956z M125.31,10.588c0.503,0,0.909-0.396,0.909-1.101c0-0.712-0.406-1.107-0.909-1.107
			c-0.502,0-0.909,0.396-0.909,1.107C124.4,10.192,124.808,10.588,125.31,10.588z"/>
		<path fill="#FFFFFF" d="M127.232,8.024h0.451v0.43h0.012c0.215-0.328,0.542-0.498,0.943-0.498c0.355,0,0.683,0.142,0.801,0.498
			c0.198-0.311,0.542-0.498,0.915-0.498c0.581,0,0.971,0.244,0.971,0.848v2.14h-0.479V9.029c0-0.361-0.096-0.649-0.564-0.649
			c-0.463,0-0.763,0.294-0.763,0.746v1.817h-0.479V9.029c0-0.378-0.118-0.649-0.548-0.649c-0.57,0-0.779,0.525-0.779,0.746v1.817
			h-0.479V8.024z"/>
		<path fill="#FFFFFF" d="M131.988,8.024h0.451v0.43h0.012c0.215-0.328,0.542-0.498,0.943-0.498c0.355,0,0.683,0.142,0.801,0.498
			c0.198-0.311,0.542-0.498,0.915-0.498c0.581,0,0.971,0.244,0.971,0.848v2.14h-0.479V9.029c0-0.361-0.096-0.649-0.564-0.649
			c-0.463,0-0.763,0.294-0.763,0.746v1.817h-0.479V9.029c0-0.378-0.118-0.649-0.548-0.649c-0.57,0-0.779,0.525-0.779,0.746v1.817
			h-0.479V8.024z"/>
		<path fill="#FFFFFF" d="M139.16,10.943h-0.451V10.48h-0.012c-0.203,0.361-0.53,0.53-0.948,0.53c-0.768,0-1.005-0.439-1.005-1.066
			v-1.92h0.479v1.977c0,0.355,0.227,0.587,0.593,0.587c0.582,0,0.864-0.39,0.864-0.915V8.024h0.479V10.943z"/>
		<path fill="#FFFFFF" d="M139.824,8.024h0.451v0.463h0.012c0.203-0.361,0.531-0.531,0.948-0.531c0.769,0,1.005,0.441,1.005,1.068
			v1.919h-0.479V8.968c0-0.355-0.226-0.588-0.593-0.588c-0.582,0-0.864,0.39-0.864,0.915v1.648h-0.479V8.024z"/>
		<path fill="#FFFFFF" d="M143.412,7.499h-0.479V6.912h0.479V7.499z M142.933,8.024h0.479v2.919h-0.479V8.024z"/>
		<path fill="#FFFFFF" d="M146.082,8.962c-0.073-0.367-0.327-0.582-0.723-0.582c-0.694,0-0.909,0.548-0.909,1.141
			c0,0.537,0.243,1.067,0.853,1.067c0.463,0,0.74-0.271,0.802-0.712h0.491c-0.107,0.712-0.553,1.135-1.287,1.135
			c-0.892,0-1.366-0.621-1.366-1.49c0-0.875,0.452-1.564,1.378-1.564c0.66,0,1.191,0.311,1.259,1.006H146.082z"/>
		<path fill="#FFFFFF" d="M149.665,10.933c-0.085,0.051-0.192,0.078-0.345,0.078c-0.248,0-0.406-0.135-0.406-0.451
			c-0.266,0.311-0.621,0.451-1.027,0.451c-0.531,0-0.966-0.236-0.966-0.818c0-0.66,0.491-0.802,0.988-0.897
			c0.53-0.102,0.982-0.067,0.982-0.429c0-0.418-0.345-0.486-0.649-0.486c-0.406,0-0.706,0.125-0.729,0.554h-0.479
			c0.028-0.723,0.587-0.978,1.236-0.978c0.524,0,1.095,0.119,1.095,0.803v1.502c0,0.225,0,0.327,0.152,0.327
			c0.04,0,0.085-0.006,0.147-0.028V10.933z M148.886,9.437c-0.187,0.135-0.548,0.141-0.869,0.197
			c-0.316,0.057-0.588,0.169-0.588,0.525c0,0.315,0.271,0.429,0.565,0.429c0.632,0,0.892-0.396,0.892-0.661V9.437z"/>
		<path fill="#FFFFFF" d="M150.719,8.024h0.582v0.424h-0.582v1.813c0,0.22,0.063,0.26,0.361,0.26h0.221v0.423h-0.367
			c-0.497,0-0.694-0.102-0.694-0.638V8.448h-0.497V8.024h0.497V7.149h0.479V8.024z"/>
		<path fill="#FFFFFF" d="M152.286,7.499h-0.479V6.912h0.479V7.499z M151.807,8.024h0.479v2.919h-0.479V8.024z"/>
		<path fill="#FFFFFF" d="M154.233,7.956c0.926,0,1.417,0.672,1.417,1.531c0,0.852-0.491,1.523-1.417,1.523
			s-1.417-0.672-1.417-1.523C152.816,8.628,153.308,7.956,154.233,7.956z M154.233,10.588c0.503,0,0.909-0.396,0.909-1.101
			c0-0.712-0.406-1.107-0.909-1.107c-0.502,0-0.909,0.396-0.909,1.107C153.324,10.192,153.731,10.588,154.233,10.588z"/>
		<path fill="#FFFFFF" d="M156.156,8.024h0.451v0.463h0.012c0.203-0.361,0.531-0.531,0.948-0.531c0.769,0,1.005,0.441,1.005,1.068
			v1.919h-0.479V8.968c0-0.355-0.226-0.588-0.593-0.588c-0.582,0-0.864,0.39-0.864,0.915v1.648h-0.479V8.024z"/>
		<path fill="#FFFFFF" d="M159.53,10.022c0.017,0.43,0.39,0.565,0.784,0.565c0.3,0,0.706-0.067,0.706-0.435
			c0-0.373-0.475-0.436-0.954-0.543c-0.475-0.106-0.954-0.265-0.954-0.824c0-0.586,0.581-0.83,1.09-0.83
			c0.644,0,1.157,0.204,1.196,0.916h-0.479c-0.034-0.373-0.361-0.492-0.678-0.492c-0.288,0-0.621,0.079-0.621,0.373
			c0,0.344,0.508,0.4,0.954,0.508c0.48,0.107,0.954,0.266,0.954,0.83c0,0.694-0.649,0.92-1.242,0.92
			c-0.654,0-1.208-0.266-1.236-0.988H159.53z"/>
		<path fill="#FFFFFF" d="M166.438,8.126c-0.113-0.57-0.57-0.857-1.129-0.857c-0.96,0-1.366,0.79-1.366,1.631
			c0,0.92,0.406,1.688,1.372,1.688c0.705,0,1.112-0.497,1.163-1.163h0.536c-0.102,1.005-0.729,1.615-1.745,1.615
			c-1.253,0-1.862-0.927-1.862-2.102c0-1.168,0.666-2.122,1.908-2.122c0.841,0,1.535,0.452,1.659,1.31H166.438z"/>
		<path fill="#FFFFFF" d="M170.127,10.933c-0.085,0.051-0.192,0.078-0.345,0.078c-0.248,0-0.406-0.135-0.406-0.451
			c-0.266,0.311-0.621,0.451-1.027,0.451c-0.531,0-0.966-0.236-0.966-0.818c0-0.66,0.491-0.802,0.988-0.897
			c0.53-0.102,0.982-0.067,0.982-0.429c0-0.418-0.345-0.486-0.649-0.486c-0.406,0-0.706,0.125-0.729,0.554h-0.479
			c0.028-0.723,0.587-0.978,1.236-0.978c0.525,0,1.095,0.119,1.095,0.803v1.502c0,0.225,0,0.327,0.153,0.327
			c0.039,0,0.084-0.006,0.146-0.028V10.933z M169.348,9.437c-0.187,0.135-0.548,0.141-0.869,0.197
			c-0.316,0.057-0.588,0.169-0.588,0.525c0,0.315,0.271,0.429,0.565,0.429c0.632,0,0.892-0.396,0.892-0.661V9.437z"/>
		<path fill="#FFFFFF" d="M170.514,8.024h0.451v0.463h0.012c0.203-0.361,0.531-0.531,0.948-0.531c0.769,0,1.005,0.441,1.005,1.068
			v1.919h-0.479V8.968c0-0.355-0.226-0.588-0.593-0.588c-0.582,0-0.864,0.39-0.864,0.915v1.648h-0.479V8.024z"/>
		<path fill="#FFFFFF" d="M176.18,10.933c-0.085,0.051-0.192,0.078-0.345,0.078c-0.248,0-0.406-0.135-0.406-0.451
			c-0.266,0.311-0.621,0.451-1.027,0.451c-0.531,0-0.966-0.236-0.966-0.818c0-0.66,0.491-0.802,0.988-0.897
			c0.53-0.102,0.982-0.067,0.982-0.429c0-0.418-0.345-0.486-0.649-0.486c-0.406,0-0.706,0.125-0.729,0.554h-0.479
			c0.028-0.723,0.587-0.978,1.236-0.978c0.525,0,1.095,0.119,1.095,0.803v1.502c0,0.225,0,0.327,0.153,0.327
			c0.039,0,0.084-0.006,0.146-0.028V10.933z M175.4,9.437c-0.187,0.135-0.548,0.141-0.869,0.197
			c-0.316,0.057-0.588,0.169-0.588,0.525c0,0.315,0.271,0.429,0.565,0.429c0.632,0,0.892-0.396,0.892-0.661V9.437z"/>
		<path fill="#FFFFFF" d="M179.176,10.943h-0.479v-0.396h-0.012c-0.158,0.322-0.53,0.463-0.932,0.463
			c-0.897,0-1.344-0.711-1.344-1.535s0.44-1.52,1.333-1.52c0.299,0,0.728,0.113,0.942,0.458h0.012V6.912h0.479V10.943z
			 M177.82,10.588c0.645,0,0.893-0.554,0.893-1.101c0-0.576-0.26-1.107-0.92-1.107c-0.655,0-0.876,0.559-0.876,1.129
			C176.917,10.058,177.199,10.588,177.82,10.588z"/>
		<path fill="#FFFFFF" d="M182.442,10.933c-0.085,0.051-0.192,0.078-0.345,0.078c-0.248,0-0.406-0.135-0.406-0.451
			c-0.266,0.311-0.621,0.451-1.027,0.451c-0.531,0-0.966-0.236-0.966-0.818c0-0.66,0.491-0.802,0.988-0.897
			c0.53-0.102,0.982-0.067,0.982-0.429c0-0.418-0.345-0.486-0.649-0.486c-0.406,0-0.706,0.125-0.729,0.554h-0.479
			c0.028-0.723,0.587-0.978,1.236-0.978c0.524,0,1.095,0.119,1.095,0.803v1.502c0,0.225,0,0.327,0.152,0.327
			c0.04,0,0.085-0.006,0.147-0.028V10.933z M181.663,9.437c-0.187,0.135-0.548,0.141-0.869,0.197
			c-0.316,0.057-0.588,0.169-0.588,0.525c0,0.315,0.271,0.429,0.565,0.429c0.632,0,0.892-0.396,0.892-0.661V9.437z"/>
	</g>
	<rect x="1" y="1.071" fill="#EE4042" width="4.846" height="9.867"/>
	<rect x="16.6" y="1.071" fill="#EE4042" width="4.846" height="9.867"/>
	<path fill="#EE4042" d="M10.551,3.119l0.693-1.408l0.686,1.359c0.087,0.143,0.156,0.131,0.293,0.063l0.592-0.294l-0.387,1.9
		c-0.08,0.37,0.135,0.48,0.363,0.228l0.841-0.902l0.223,0.512c0.077,0.152,0.19,0.131,0.339,0.103l0.867-0.185l-0.289,1.1
		l-0.007,0.024c-0.031,0.144-0.101,0.265,0.056,0.331l0.313,0.155l-1.792,1.519c-0.186,0.188-0.123,0.247-0.051,0.456l0.165,0.511
		l-1.673-0.303c-0.207-0.053-0.348-0.053-0.355,0.113l0.069,1.922h-0.505l0.066-1.912c0-0.193-0.142-0.186-0.479-0.117L9.035,8.591
		L9.23,8.08c0.071-0.193,0.088-0.327-0.066-0.456L7.332,6.128l0.336-0.206c0.097-0.077,0.105-0.154,0.051-0.322l-0.34-1.115
		l0.879,0.188c0.248,0.055,0.316,0,0.378-0.137l0.245-0.506l0.872,0.986c0.155,0.185,0.372,0.063,0.307-0.201L9.639,2.762
		l0.649,0.372c0.103,0.063,0.214,0.081,0.271-0.041L10.551,3.119z"/>
</g>
</svg>
