<?xml version="1.0" encoding="utf-8"?>
<!-- Generator: Adobe Illustrator 16.0.3, SVG Export Plug-In . SVG Version: 6.00 Build 0)  -->
<!DOCTYPE svg PUBLIC "-//W3C//DTD SVG 1.1//EN" "http://www.w3.org/Graphics/SVG/1.1/DTD/svg11.dtd">
<svg version="1.1" id="Layer_1" xmlns="http://www.w3.org/2000/svg" xmlns:xlink="http://www.w3.org/1999/xlink" x="0px" y="0px"
	 width="115.087px" height="27.34px" viewBox="0 0 115.087 27.34" enable-background="new 0 0 115.087 27.34" xml:space="preserve">
<g>
	<path fill="#FFFFFF" d="M22.936,9.194l-0.565-8.82c-0.07-0.212-0.418-0.214-0.424,0c-0.035,1.905-3.394,0.307-4.587,0.036
		C6.986-1.954,0,6.373,0,13.289l0,0c0,8.96,5.927,13.832,13.549,13.832c6.069,0,9.14-3.881,10.127-8.08
		c0.124-0.527-0.469-0.418-0.601,0c-1.834,5.857-6.386,7.336-8.644,7.303c-4.905-0.07-9.467-4.023-9.634-13.054
		C4.585,1.785,17.578-5.744,22.512,9.054C22.616,9.371,22.864,9.442,22.936,9.194z"/>
</g>
<path fill="#FFFFFF" d="M27.17,10.607c2.682-1.129,9.95-0.777,9.95,2.54v10.195c0,2.789,2.752,3.742,3.527,1.871
	c0.247-0.248,0.672-0.07,0.46,0.354c-0.494,1.975-5.363,2.293-7.057-0.354c-9.351,6.811-15.315-6.598-4.129-6.811
	c3.492-0.529,3.881-2.539,3.881-3.953c0-3.491-1.835-3.809-2.929-3.809c-1.165,0-2.116,0.353-2.753,2.153
	C27.135,16.392,21.736,13.182,27.17,10.607z M29.568,26.308c2.223,0.283,4.199-1.729,4.199-3.705v-4.799
	C24.276,21.298,27.24,26.167,29.568,26.308z"/>
<g>
	<path fill="#FFFFFF" d="M46.046,10.254l-4.552,0.599c-0.281,0.071-0.281,0.213,0.247,0.354c0.989,0.036,1.625,0.705,1.625,2.153
		v10.621c0,1.271-1.783,2.385-2.153,2.539c-0.848,0.354,0.424,0.283,0.424,0.283h7.444c0.246,0,1.022,0.07,0.035-0.387
		c-1.128-0.424-2.363-1.342-2.363-2.436s0-7.975,0-7.975c0-3.352,2.188-5.187,4.34-5.187c2.258,0,4.13,0.493,4.13,5.151v8.01
		c0,1.164-1.52,2.223-2.33,2.506c-0.529,0.141-0.742,0.316-0.282,0.316h7.939c0.424,0.035,0.6-0.105,0.211-0.211
		c-1.904-0.742-2.15-2.152-2.15-2.611v-9.316c0-5.327-5.119-4.621-6.917-4.621c-2.259,0.035-4.658,1.445-4.905,2.081
		C46.716,10.396,46.507,10.219,46.046,10.254z"/>
</g>
<path fill="#FFFFFF" d="M91.319,25.497c-0.775,1.34-2.682,1.658-5.045,1.658c-4.484,0-8.154-3.459-8.154-8.188
	c0-4.197,2.367-8.926,8.4-8.926c5.434,0,5.398,3.633,5.398,0.6V5.313c0-2.752-1.094-3.563-1.941-3.811
	c-1.234-0.423-2.824-0.494-0.281-0.494l4.729-0.104c-0.285,0.07,0.316,0.07,0.316,0.493v20.816c0,1.447,0.531,3.67,2.859,4.305
	c0.211,0.037,0.457,0.178,0.211,0.248l-5.152,0.564c-0.74,0.072-1.059-0.283-1.375-1.729 M86.731,26.308
	c2.811,0,4.693-1.094,4.693-7.656c0-6.245-1.883-7.763-4.693-7.763s-5.09,3.644-5.09,7.833S83.92,26.308,86.731,26.308z"/>
<path fill="#FFFFFF" d="M64.43,10.588c2.682-1.127,9.951-0.775,9.951,2.541v10.196c0,2.787,2.752,3.74,3.527,1.871
	c0.248-0.248,0.672-0.07,0.459,0.352c-0.494,1.979-5.361,2.295-7.057-0.352c-9.352,6.811-15.313-6.598-4.127-6.811
	c3.492-0.527,3.879-2.539,3.879-3.953c0-3.491-1.834-3.809-2.928-3.809c-1.164,0-2.117,0.353-2.752,2.152
	C64.395,16.374,58.997,13.165,64.43,10.588z M66.831,26.29c2.223,0.283,4.197-1.73,4.197-3.705v-4.799
	C61.538,21.28,64.5,26.149,66.831,26.29z"/>
<path fill="#FFFFFF" d="M101.092,10.624c2.682-1.128,9.949-0.775,9.949,2.541V23.36c0,2.789,2.754,3.742,3.529,1.873
	c0.246-0.248,0.672-0.072,0.459,0.352c-0.494,1.977-5.361,2.293-7.057-0.352c-9.35,6.809-15.314-6.6-4.129-6.811
	c3.494-0.531,3.883-2.541,3.883-3.953c0-3.493-1.836-3.812-2.93-3.812c-1.164,0-2.117,0.354-2.752,2.153
	C101.057,16.411,95.659,13.2,101.092,10.624z M103.491,26.325c2.225,0.283,4.201-1.729,4.201-3.705v-4.797
	C98.2,21.315,101.163,26.185,103.491,26.325z"/>
<g>
	<g>
		<rect x="96.963" y="0.904" fill="#EF3E42" width="3.881" height="7.902"/>
	</g>
	<g>
		<rect x="109.456" y="0.904" fill="#EF3E42" width="3.881" height="7.902"/>
	</g>
	<g>
		<path fill="#EF3E42" d="M104.612,2.546l0.555-1.129l0.551,1.089c0.068,0.114,0.123,0.104,0.234,0.05l0.473-0.234l-0.309,1.52
			c-0.064,0.297,0.105,0.385,0.289,0.183l0.674-0.721l0.178,0.408c0.063,0.124,0.152,0.106,0.271,0.083l0.697-0.147l-0.232,0.881
			l-0.006,0.019c-0.027,0.115-0.082,0.212,0.045,0.266l0.25,0.124l-1.436,1.216c-0.148,0.151-0.098,0.198-0.041,0.367l0.133,0.408
			l-1.34-0.243c-0.166-0.041-0.279-0.041-0.285,0.092l0.057,1.537h-0.404l0.053-1.531c0-0.153-0.113-0.148-0.385-0.094l-1.236,0.239
			l0.158-0.408c0.057-0.156,0.07-0.262-0.055-0.367l-1.467-1.197l0.27-0.165c0.078-0.06,0.084-0.123,0.041-0.257l-0.273-0.894
			l0.705,0.151c0.199,0.045,0.252,0,0.303-0.11l0.197-0.404l0.697,0.79c0.125,0.146,0.299,0.049,0.244-0.162l-0.336-1.646
			l0.52,0.298c0.082,0.05,0.17,0.064,0.219-0.032L104.612,2.546z"/>
	</g>
</g>
</svg>
