<?xml version="1.0" encoding="utf-8"?>
<!-- Generator: Adobe Illustrator 16.0.4, SVG Export Plug-In . SVG Version: 6.00 Build 0)  -->
<!DOCTYPE svg PUBLIC "-//W3C//DTD SVG 1.1//EN" "http://www.w3.org/Graphics/SVG/1.1/DTD/svg11.dtd">
<svg version="1.1" id="Layer_1" xmlns="http://www.w3.org/2000/svg" xmlns:xlink="http://www.w3.org/1999/xlink" x="0px" y="0px"
	 width="519px" height="499.784px" viewBox="0 0 519 499.784" enable-background="new 0 0 519 499.784" xml:space="preserve">
<g>
	<g>
		<g>
			<path fill="#24336B" d="M13.188,152.067l-3.604-9.122c0,0,6.479-5.762,64.195-29.229
				c57.726-23.465,232.467-95.735,232.467-95.735S331.471,5.3,343.915,5.852c12.44,0.558,54.864,8.613,64.806,40.342
				c9.044,28.867,22.866,198.158,22.866,198.158s0.538,13.7-13.822,20.208c-14.361,6.501-278.487,155.066-278.487,155.066
				s-8.749,9.416-19.801,5.3C108.438,420.803,13.188,152.067,13.188,152.067z"/>
			<path opacity="0.3" fill="#A8DBE9" d="M408.721,46.194c-3.758-11.989-6-15.121-13.306-21.531
				C326.744,54.957,76.761,163.513,76.761,163.513l18.195,98.228l322.488-161.633C414.443,75.263,411.375,54.667,408.721,46.194z"/>
			<path opacity="0.3" fill="#A8DBE9" d="M95.929,201.044L411.26,57.165c-0.875-4.636-1.731-8.376-2.54-10.971
				c-2.079-6.631-3.695-10.547-5.964-13.812L81.497,170.809L95.929,201.044z"/>
			<path fill="#1E1E4E" d="M91.54,122.8c0,0,13.507,10.769,25.07,7.103c11.568-3.663,34.909-8.862,28.549-19.011"/>
			<path fill="#1E1E4E" d="M290.749,39.11c0,0,12.433,9.939,23.076,6.557c10.642-3.376,32.13-8.163,26.272-17.532"/>
			<path fill="#1E1E4E" d="M244.309,60.452c0,0,10.295,8.284,19.096,5.476c8.797-2.808,26.576-6.786,21.72-14.583"/>
			<path fill="#1E1E4E" d="M168.239,94.665c0,0,10.292,8.285,19.097,5.477c8.801-2.802,26.576-6.783,21.72-14.585"/>
			<path fill="#1E1E4E" d="M69.248,133.915c0,0,28.363,8.948,39.433,30.26c11.069,21.311,15.831,45.793,21.724,98.11
				c5.895,52.314,12.488,107.144,12.488,107.144l3.361,23.754c0,0-0.564-30.89-7.069-84.87
				c-6.511-53.979-8.636-104.066-19.89-135.681C108.037,141.026,69.248,133.915,69.248,133.915z"/>
			<path fill="#1E1E4E" d="M83.041,126.174c0,0,28.363,8.944,39.431,30.257c11.067,21.314,15.834,45.794,21.724,98.11
				c5.892,52.317,12.49,107.146,12.49,107.146l3.361,23.756c0,0-0.562-30.896-7.076-84.873
				c-6.51-53.979-8.63-104.066-19.888-135.681C121.828,133.282,83.041,126.174,83.041,126.174z"/>
			<path fill="#1E1E4E" d="M336.127,20.341c0,0,27.463,7.347,37.849,26.713c10.39,19.366,15.043,41.712,21.079,89.501
				c6.03,47.789,10.74,89.581,10.74,89.581l3.63,30.611c0,0,0.839-28.884-5.773-78.188c-6.62-49.303-9.179-95.1-19.858-123.886
				C373.11,25.884,336.127,20.341,336.127,20.341z"/>
			<path fill="#1E1E4E" d="M348.388,14.888c0,0,27.463,7.354,37.853,26.721c10.385,19.368,15.04,41.706,21.071,89.499
				c6.035,47.791,10.742,89.581,10.742,89.581l3.633,30.611c0,0,0.84-28.888-5.78-78.187c-6.618-49.304-9.175-95.096-19.856-123.889
				C385.361,20.439,348.388,14.888,348.388,14.888z"/>
			<path fill="#1E1E4E" d="M21.78,139.009c0,0,16.325-3.53,35.034,5.099c24.402,11.248,45.31,20.895,53.264,71.729
				c7.952,50.829,26.703,191.579,18.091,204.949c-8.616,13.371-96.496-148.599-98.462-148.412"/>
			<g>
				<path fill="#24336B" d="M124.008,419.562l-0.002-0.007C124.006,419.555,124.006,419.557,124.008,419.562z"/>
				<path fill="#1E1E4E" d="M431.586,244.352c0,0-4.031-49.334-9.16-99.284c3.062,50.872,4.134,93.389-0.639,100.847
					c-11.411,17.833-248.001,141.895-274.336,156.614c-25.512,14.259-27.271,5.921-27.271,5.776l3.553,17.591
					c8.957,0.812,15.543-6.27,15.543-6.27S403.404,271.061,417.765,264.56C432.124,258.052,431.586,244.352,431.586,244.352z"/>
			</g>
			<g opacity="0.3">
				<path fill="#A8DBE9" d="M177.549,86.361c0,0-11.033,4.473-9.017,6.86c2.021,2.394,12.586,6.128,16.479,5.332
					c3.901-0.794,25.407-10.975,23.426-12.938c-1.971-1.965-11.574-4.937-11.574-4.937L177.549,86.361z"/>
			</g>
			
				<linearGradient id="SVGID_1_" gradientUnits="userSpaceOnUse" x1="502.9072" y1="-208.8691" x2="539.9858" y2="-208.8691" gradientTransform="matrix(0.9686 -0.2486 0.2486 0.9686 -262.3238 423.2484)">
				<stop  offset="0" style="stop-color:#A8CDDB"/>
				<stop  offset="1" style="stop-color:#ACCED3"/>
			</linearGradient>
			<path fill="url(#SVGID_1_)" d="M202.364,82.582c3.508,3.705-4.688,7.868-12.928,11.691c-9.282,4.308-15.864,0.628-15.864,0.628
				l-0.724,0.946c4.017,1.755,9.566,3.239,12.163,2.706c3.901-0.794,25.407-10.975,23.426-12.938
				C207.511,84.685,204.879,83.538,202.364,82.582z"/>
			<g opacity="0.3">
				<path fill="#A8DBE9" d="M254.054,52.107c0,0-11.036,4.472-9.021,6.864c2.019,2.39,12.587,6.127,16.485,5.331
					c3.9-0.795,25.4-10.978,23.423-12.94c-1.971-1.97-11.567-4.936-11.567-4.936L254.054,52.107z"/>
			</g>
			
				<linearGradient id="SVGID_2_" gradientUnits="userSpaceOnUse" x1="585.959" y1="-222.958" x2="623.042" y2="-222.958" gradientTransform="matrix(0.9686 -0.2486 0.2486 0.9686 -262.3238 423.2484)">
				<stop  offset="0" style="stop-color:#A8CDDB"/>
				<stop  offset="1" style="stop-color:#ACCED3"/>
			</linearGradient>
			<path fill="url(#SVGID_2_)" d="M279.309,48.289c3.512,3.701-4.689,7.861-12.929,11.688c-9.283,4.309-15.862,0.625-15.862,0.625
				l-0.729,0.948c4.023,1.759,9.573,3.242,12.165,2.711c3.902-0.794,25.404-10.977,23.43-12.943
				C284.448,50.39,281.826,49.246,279.309,48.289z"/>
			<path fill="#1E1E4E" d="M67.576,402.28c0,0-16.661-7.031-21.666-12.578c-5-5.551-8.505-5.224-13.197-41.746
				C28.024,311.431,4.204,184.713,4.006,165.824c-0.202-18.896,4.963-28.836,24.767-25.532c19.809,3.295,59.785,13.3,71.581,58.614
				c11.803,45.322,27.327,194.3,27.953,208.854c0.637,14.557,1.435,22.224-15.226,15.189
				C96.423,415.907,67.576,402.28,67.576,402.28z"/>
			<path fill="#24336B" d="M40.578,142.75c-0.253,2.713-0.329,6.186-0.046,10.622c1.005,16.022,19.043,151.017,28.631,192.024
				c0,0-12.488-107.148-18.855-149.098c-6.363-41.955-8.605-50.779,3.301-44.803c11.898,5.98,34.193,16.138,45.229,58.303
				c8.093,30.953,20.551,120.945,26.6,166.59c-5.138-49.918-16.174-143.253-25.085-177.483
				C90.593,161.41,61.535,148.097,40.578,142.75z"/>
			<path fill="#1E1E4E" d="M178.522,91.43c0,0,2.804,1.454,4.55,1.29c1.756-0.163,12.71-5.489,13.405-7.276
				c0.695-1.782-5.555-27.845-2.622-33.707c2.924-5.862,9.753-8.224,17.46-10.665c7.711-2.44,29.563-13.52,33.679-16.481
				c4.116-2.965,8.808-0.4,9.824,9.392c1.023,9.792,1.959,23.028,1.959,23.028s2.852,1.886,4.557,1.288
				c1.709-0.586,13.313-3.825,13.267-8.552c-0.051-4.72-4.51-34.82-15.781-41.07c-11.271-6.247-37.113,0.478-56.337,11.303
				c-19.219,10.829-27.749,26.674-26.536,46.762C177.152,86.829,178.522,91.43,178.522,91.43z"/>
			<path opacity="0.3" fill="#A8DBE9" d="M264.156,13.964c-1.574-2.326-3.342-4.18-5.336-5.288
				c-11.271-6.247-37.113,0.478-56.337,11.303c-13.076,7.366-21.189,17.061-24.666,28.824c0.086,0.076,0.141,0.127,0.141,0.127
				s-2.053,28.074,4.711,24.46l-0.049-0.228c0.143-0.061,0.298-0.226,0.465-0.535c1.672-3.062-0.947-21.832,8.827-33.066
				c9.783-11.231,29.857-12.796,52.293-23.601C255.071,10.717,260.962,11.635,264.156,13.964z"/>
		</g>
		<g>
			<g>
				<path fill="#B36428" d="M369.511,238.859l-3.624-1.563l0.149,1.727l-1.826,0.842l-0.306-3.42l-2.963-1.285l0.149,1.602
					l-1.835,0.844l-0.288-3.295l-7.69-3.314l-0.141-1.612l17.72-0.273l-0.666-12.374l-5.848-1.615l-0.198-2.299l6.757-0.006
					l2.918,21.149l0.146,13.575C371.966,247.54,370.318,248.059,369.511,238.859z"/>
				<path fill="#43A5DC" d="M372.758,237.358l3.073-4.65l0.158,1.729l1.823-0.845l-0.301-3.424l2.512-3.804l0.147,1.596l1.824-0.847
					l-0.293-3.293l6.526-9.868l-0.146-1.606l-16.375,15.446l-1.489-11.999l5.124-6.665l-0.208-2.303l-6.23,5.989l3.063,34.725
					C371.966,247.54,373.566,246.563,372.758,237.358z"/>
			</g>
		</g>
		<g>
			<g>
				<polygon fill="#1E1E4E" points="196.302,261.307 196.954,267.574 218.062,254.704 217.411,248.435 				"/>
				<g>
					<line fill="#1E1E4E" x1="209.329" y1="251.404" x2="207.576" y2="252.468"/>
				</g>
			</g>
		</g>
	</g>
	<g>
		<g>
			<g>
				<path fill="#1E1E4E" d="M206.052,139.78c0,0,12.5-22.463,42.658-44.322c30.162-21.854,72.693-41.377,87.676-38.954
					c0,0,9.655,5.417,7.392,14.875c-2.263,9.461-19.361,32.403-19.361,32.403l-12.533,2.748c0,0,35.981-40.096,22.224-39.933
					c-13.756,0.163-86.09,30.111-111.522,68.027L206.052,139.78z"/>
				<path fill="#24336B" d="M324.416,103.782c0,0,17.099-22.942,19.361-32.403c2.264-9.458-7.392-14.875-7.392-14.875
					c-0.854-0.138-1.817-0.203-2.847-0.2c-26.165,5.269-84.99,48.071-101.862,60.196c-7.143,5.128-11.254,6.832-13.604,6.945
					c-8.288,9.635-12.021,16.335-12.021,16.335l16.533-5.155c25.432-37.916,97.767-67.864,111.522-68.027
					c13.757-0.163-22.224,39.933-22.224,39.933L324.416,103.782z"/>
				<g>
					<path fill="#1E1E4E" d="M206.052,139.78c0,0,12.5-22.463,42.658-44.322c30.162-21.854,72.693-41.377,87.676-38.954
						c0,0,9.655,5.417,7.392,14.875c-2.263,9.461-19.361,32.403-19.361,32.403l-12.533,2.748c0,0,35.981-40.096,22.224-39.933
						c-13.756,0.163-86.09,30.111-111.522,68.027L206.052,139.78z"/>
				</g>
			</g>
			<path fill="#43A5DC" d="M87.266,218.793c-2.81-35.155,1.442-45.676,21.356-54.903c19.915-9.224,178.162-48.761,232.938-68.219
				c32.057-11.39,62.476-19.649,81.078-14.192c13.183,3.867,93.436,25.613,91.132,47.031
				c-5.553,51.638-126.939,124.193-128.35,143.963c-1.407,19.767-128.357,197.746-167.697,216.387
				c-28.372,13.435-73.913-37.307-73.913-37.307s-29.232-20.453-37.542-39.273C101.144,400.67,90.082,253.954,87.266,218.793z"/>
			<path opacity="0.3" fill="#A8DBE9" d="M217.16,489.101c0.402-25.291-1.245-69.093-3.649-74.148
				c-3.274-6.896,0.684-187.349-43.747-190.575c-44.435-3.218-63.52-34.818-63.52-34.818s13.046,1.719-4.345-0.574
				c-5.965-0.79-10.024-3.407-12.786-6.512c-2.909,8.122-3.205,19.345-1.848,36.32c2.816,35.16,13.878,181.877,19.003,193.486
				c8.311,18.82,37.542,39.273,37.542,39.273S188.758,501.625,217.16,489.101z"/>
			<path fill="#156794" d="M427.516,82.884c-2.064-0.593-3.726-1.067-4.877-1.405c-1.224-0.361-2.503-0.652-3.824-0.895
				c-8.852,0.792-19.777,2.592-32.525,6.244c-37.002,10.597-226.546,67.684-247.722,74.588
				c-21.174,6.905-44.122,14.589-44.021,39.182c0.073,19.02,7.997,169.642,18.894,223.075c1.676,2.113,3.487,4.192,5.363,6.209
				c-2.723-8.171-5.862-22.549-7.306-47.261c-2.839-48.429-13.996-164.963-11.715-181.841c2.277-16.881,12.958-23.297,47.376-34.832
				c34.421-11.536,247.81-77.126,260.994-80.066C413.624,84.665,420.885,83.655,427.516,82.884z"/>
			<path fill="#156794" d="M110.878,346.991c0,0,12.197,28.394,65.052,41.233c0,0-7.109,3.994-26.958-3.468
				C129.132,377.293,113.09,359.782,110.878,346.991z"/>
			<path fill="#43A5DC" d="M166.271,265.805c-3.132-39.112,1.604-50.815,23.761-61.08c22.15-10.261,198.181-54.242,259.115-75.892
				c60.929-21.646,69.656-21.347,63.468,36.093c-6.179,57.438-13.106,138.598-14.674,160.584
				c-1.572,21.995-0.175,33.064-44.461,52.737c-44.274,19.684-226.058,107.547-226.058,107.547s-30.77,16.175-40.013-4.761
				C181.701,468.121,169.398,304.909,166.271,265.805z"/>
			<g>
				<path fill="#EE9621" d="M170.899,324.213l0.065,0.254c0,0-0.062-0.525-0.161-1.5
					C170.838,323.38,170.874,323.796,170.899,324.213z"/>
				<path fill="#156794" d="M508.131,118.575c-8.296-6.748-25.977-1.467-58.983,10.259
					c-60.934,21.649-236.965,65.631-259.115,75.892c-22.156,10.265-26.893,21.968-23.761,61.08
					c0.708,8.883,14.541,164.411,16.483,182.85c-2.868-27.259,0.612-56.026-2.07-96.723c-6.192-94.008-7.102-120.131,2.24-129.65
					c22.554-22.963,105.896-35.357,208.204-67.455C457.329,134.052,487.622,121.37,508.131,118.575z"/>
			</g>
			<path fill="#156794" d="M497.107,115.608c22.783,11.459,7.31,69.921,0.083,136.964c-8.649,80.248-10.88,95.437-32.234,108.264
				c-21.362,12.838-19.221,0.192-21.031-25.304c-1.82-25.501-5.616-147.083-3.926-159.108c1.689-12.024-12.155-22.885-12.155-22.885
				c12.739,11.457,7.128,23.134,7.128,23.134s-2.45,49.94-3.923,96.526c-1.474,46.578-1.858,86.409-8.476,102.292
				c-6.612,15.887-63.129,35.992-79.914,42.193c-16.79,6.211-14.747-31.028-14.543-64.932c0.2-33.908-3.685-145.957-3.685-145.957
				c3.775-22.76-15.407-23.423-15.407-23.423c17.995,10.792,11.404,25.829,11.404,25.829l-2.631,27.886
				c0,0,6.539,179.971,1.806,191.676c-4.741,11.708-56.839,30.265-93.984,45.104c-21.419,8.551-35.131,6.425-42.945-22.674
				c0.815,5.098,4.074,28.344,4.736,29.84c9.243,20.936,40.013,4.761,40.013,4.761s181.784-87.863,226.058-107.547
				c44.286-19.673,42.889-30.742,44.461-52.737c1.567-21.986,8.495-103.146,14.674-160.584
				C516.524,128.664,514.475,115.181,497.107,115.608z"/>
			<g>
				<path fill="#1E1E4E" d="M299.396,211.66c0,0-0.767-17.195,9.205-21.942c9.975-4.742,20.237,1.968,17.919,13.332
					c0,0,0.65,0.02-2.087,3.746c0,0,7.438-7.377,2.487-16.449c-4.953-9.072-24.001-7.18-27.638,4.141
					C295.649,205.808,295.487,210.891,299.396,211.66z"/>
			</g>
			<g>
				<path fill="#1E1E4E" d="M414.958,181.29c0,0-0.762-17.199,9.206-21.94c9.974-4.741,20.248,1.964,17.923,13.33
					c0,0,0.652,0.021-2.088,3.744c0,0,7.437-7.374,2.484-16.443c-4.957-9.078-24.004-7.187-27.633,4.136
					C411.215,175.436,411.057,180.516,414.958,181.29z"/>
			</g>
			<g>
				<g>
					<path fill="#1E1E4E" d="M302.352,449.582c0,0-1.772-89.086-2.72-141.896c-0.947-52.815-5.45-96.841-2.75-99.294
						c2.692-2.447,31.045-8.471,29.638-5.342c-1.414,3.133-3.576,9.414-3.775,15.767c-0.199,6.354,0.1,100.475,0.496,150.089
						c0.398,49.613,1.178,66.17,1.083,69.35C324.221,441.428,304.256,451.55,302.352,449.582z"/>
				</g>
				<path fill="#24336B" d="M324.323,438.254c0.096-3.18-0.684-19.736-1.083-69.35c-0.396-49.614-0.695-143.734-0.496-150.089
					c0.028-0.936,0.107-1.864,0.211-2.792c-2.271,4.924-4.271,11.723-5.157,21.063c-2.624,27.893,4.45,183.923,0.757,197.149
					c-2.563,9.186-11.216,11.416-16.274,11.921c0.047,2.206,0.071,3.424,0.071,3.424
					C304.256,451.55,324.221,441.428,324.323,438.254z"/>
				<path fill="#24336B" d="M296.881,208.391c-2.699,2.453,1.803,46.479,2.75,99.294c0.711,39.428,1.877,99.07,2.421,126.763
					c3.91,35.609,3.159-84.412,2.177-127.239c-1.284-56.004-3.932-93.185,0.091-96.015c4.02-2.833,20.11-4.398,20.11-4.398
					l0.771-0.393c0.46-1.321,0.913-2.467,1.317-3.354C327.927,199.92,299.573,205.944,296.881,208.391z"/>
				<g>
					<path fill="#1E1E4E" d="M416.693,395.64c0,0-0.544-65.518-1.499-118.329c-0.946-52.81-5.45-96.843-2.749-99.29
						c2.694-2.45,31.048-8.47,29.642-5.342c-1.413,3.131-3.577,9.421-3.778,15.77c-0.201,6.35,0.101,100.468,0.497,150.082
						c0.396,49.615-0.037,42.605-0.133,45.777C438.569,387.49,418.603,397.613,416.693,395.64z"/>
				</g>
				<path fill="#24336B" d="M439.999,176.423c0,0-6.007,3.609-5.723,36.049c0.284,32.44,3.55,157.183-1.312,165.922
					c-3.336,5.987-11.508,9.42-16.322,10.981c0.043,4.008,0.051,6.265,0.051,6.265c1.909,1.973,21.876-8.15,21.979-11.332
					c0.096-3.172,0.529,3.838,0.133-45.777c-0.396-49.614-0.698-143.732-0.497-150.082c0.144-4.477,1.261-8.915,2.402-12.24
					L439.999,176.423z"/>
				<path fill="#24336B" d="M420.023,342.341c0.532-44.494-2.006-140.285-2.004-154.274c0.009-11.896,12.974-9.833,23.205-13.304
					c0.299-0.791,0.592-1.493,0.863-2.084c1.406-3.128-26.947,2.892-29.642,5.342c-2.701,2.447,1.803,46.48,2.749,99.29
					c0.955,52.812,1.499,118.329,1.499,118.329c0.191,0.195,0.562,0.267,1.071,0.241C418.229,388.7,419.667,371.816,420.023,342.341
					z"/>
				<g>
					<path fill="#1E1E4E" d="M302.352,449.582c0,0-1.772-89.086-2.72-141.896c-0.947-52.815-5.45-96.841-2.75-99.294
						c2.692-2.447,31.045-8.471,29.638-5.342c-1.414,3.133-3.576,9.414-3.775,15.767c-0.199,6.354,0.1,100.475,0.496,150.089
						c0.398,49.613,1.178,66.17,1.083,69.35C324.221,441.428,304.256,451.55,302.352,449.582z"/>
				</g>
				<g>
					<path fill="#43A5DC" d="M314.262,217.889c0,0-3.173-3.285-5.911,0.433c-2.736,3.725,1.109,6.404,5.075,5.267
						C317.386,222.452,314.262,217.889,314.262,217.889z"/>
				</g>
				<g>
					<path fill="#39A6CB" d="M429.867,186.25c0,0-3.17-3.293-5.91,0.433c-2.737,3.724,1.108,6.399,5.078,5.263
						C432.998,190.812,429.867,186.25,429.867,186.25z"/>
				</g>
				<g>
					<path fill="#1E1E4E" d="M416.693,395.64c0,0-0.544-65.518-1.499-118.329c-0.946-52.81-5.45-96.843-2.749-99.29
						c2.694-2.45,31.048-8.47,29.642-5.342c-1.413,3.131-3.577,9.421-3.778,15.77c-0.201,6.35,0.101,100.468,0.497,150.082
						c0.396,49.615-0.037,42.605-0.133,45.777C438.569,387.49,418.603,397.613,416.693,395.64z"/>
				</g>
				<g>
					<path fill="#43A5DC" d="M429.867,186.25c0,0-3.17-3.293-5.91,0.433c-2.737,3.724,1.108,6.399,5.078,5.263
						C432.998,190.812,429.867,186.25,429.867,186.25z"/>
				</g>
			</g>
			<g>
				<g>
					<path fill="#1E1E4E" d="M302.755,188.246c0,0,5.29-1.725,3.802,3.946c0,0,13.069,1.083,15.149-2.658
						c2.081-3.742,0.239-7.627-2.87-12.818c-3.111-5.195-20.737-48.4-21.818-76.42c-1.075-28.012,8.666-46.121,27.715-48.012
						c19.053-1.888,46.858,9.239,73.583,54.669c23.279,39.573,19.327,51.532,19.327,51.532s4.642-1.748,4.426,5.244
						c0,0,9.236-2.228,12.583-4.658c3.351-2.428,0.204-6.351-2.809-14.722c-3.009-8.37-34.012-63.484-62.14-85.438
						c-28.111-21.947-68.059-22.043-78.364,13.849C281.037,108.647,302.755,188.246,302.755,188.246z"/>
				</g>
				<path fill="#24336B" d="M369.704,58.912c-10.111-7.894-21.755-12.942-33-14.521c-16.924-1.137-31.598,5.559-39.257,21.583
					c-18.231,38.164,12.925,109.179,12.787,113.626c-0.094,2.903-4.896,4.827-8.229,5.82c0.474,1.817,0.75,2.825,0.75,2.825
					s4.301-1.39,4.037,2.522c4.896-1.479,11.803-3.479,15.793-4.633c-0.008-2.759-1.56-5.766-3.75-9.42
					c-3.111-5.195-20.737-48.4-21.818-76.42c-1.019-26.54,7.678-44.175,24.787-47.565c46.1-18.753,96.664,67.665,103.657,86.315
					c4.398,11.724-0.881,17.023-5.717,19.383c1.197,0.358,2.438,1.609,2.325,5.301c0,0,9.236-2.228,12.583-4.658
					c3.351-2.428,0.204-6.351-2.809-14.722C428.835,135.979,397.832,80.865,369.704,58.912z"/>
				<g>
					<path fill="#1E1E4E" d="M302.755,188.246c0,0,5.29-1.725,3.802,3.946c0,0,13.069,1.083,15.149-2.658
						c2.081-3.742,0.239-7.627-2.87-12.818c-3.111-5.195-20.737-48.4-21.818-76.42c-1.075-28.012,8.666-46.121,27.715-48.012
						c19.053-1.888,46.858,9.239,73.583,54.669c23.279,39.573,19.327,51.532,19.327,51.532s4.642-1.748,4.426,5.244
						c0,0,9.236-2.228,12.583-4.658c3.351-2.428,0.204-6.351-2.809-14.722c-3.009-8.37-34.012-63.484-62.14-85.438
						c-28.111-21.947-68.059-22.043-78.364,13.849C281.037,108.647,302.755,188.246,302.755,188.246z"/>
				</g>
			</g>
			<g>
				<g>
					<path fill="#156794" d="M98.615,223.845c0.335,10.185-8.557,21.96,1.712,28.672c18.627,11.448,1.378-22.847-0.404-28.627"/>
				</g>
				<g>
					<path fill="#156794" d="M102.929,232.258c-5.847-1.472-6.439-3.401-6.755-14.22c-0.35-12.222,14.293,3.669,6.794,12.947"/>
				</g>
			</g>
		</g>
		<g>
			<path fill="#1B8DAD" d="M187.188,294.427c-0.877-15.297,1.923-52.576,35.643-65.595c27.362-10.561,47.259-5.687,52.896,28.557
				c5.633,34.238-13.745,59.722-42.42,67.963C214.021,330.899,188.875,324.013,187.188,294.427z"/>
			<path fill="#24336B" d="M193.244,291.861c-0.755-13.207,1.666-45.397,30.778-56.627c23.615-9.118,40.787-4.905,45.657,24.65
				c4.864,29.559-11.866,51.557-36.616,58.67C216.408,323.34,194.701,317.399,193.244,291.861z"/>
			<g>
				<path fill="#43A5DC" d="M235.056,259.399l5.263,3.045l0.094-2.671l2.954-0.968l-0.185,5.3l4.301,2.49l0.087-2.473l2.961-0.962
					l-0.18,5.098l11.142,6.454l-0.089,2.494l-27.208-2.765l-1.329,19.061l8.653,3.518l-0.13,3.556l-10.361-1.201l-0.451-32.898
					l2.373-20.81C232.949,245.667,235.57,245.172,235.056,259.399z"/>
				<path fill="#43A5DC" d="M229.793,261.11l-5.596,6.566l0.094-2.669l-2.96,0.96l-0.19,5.296l-4.573,5.376l0.083-2.471l-2.964,0.96
					l-0.179,5.093l-11.875,13.941l-0.088,2.487l28.044-20.708l-0.011,18.633l-9.113,9.285l-0.125,3.557l10.688-8.042l1.922-53.708
					C232.949,245.667,230.306,246.881,229.793,261.11z"/>
			</g>
		</g>
	</g>
</g>
</svg>
