<?xml version="1.0" encoding="utf-8"?>
<!-- Generator: Adobe Illustrator 16.0.4, SVG Export Plug-In . SVG Version: 6.00 Build 0)  -->
<!DOCTYPE svg PUBLIC "-//W3C//DTD SVG 1.1//EN" "http://www.w3.org/Graphics/SVG/1.1/DTD/svg11.dtd">
<svg version="1.1" id="Layer_1" xmlns="http://www.w3.org/2000/svg" xmlns:xlink="http://www.w3.org/1999/xlink" x="0px" y="0px"
	 width="2967.376px" height="809.801px" viewBox="0 0 2967.376 809.801" enable-background="new 0 0 2967.376 809.801"
	 xml:space="preserve">
<path fill="#F7F8F9" d="M2395.797,728.497V51.255h201.365v19.012H21.715V58.329h546.703v670.168H21.715v28.19h2581.304v-28.19
	H2395.797z M1173.672,728.497H583.367V58.329h590.305V728.497z M1778.926,728.497h-590.307V40.644h590.307V728.497z
	 M2384.18,728.497h-590.309V42.411h590.309V728.497z"/>
<polygon opacity="0.2" fill="#FFFFFF" points="550.118,92.642 118.112,708.704 550.118,709.498 "/>
<polygon opacity="0.2" fill="#FFFFFF" points="1153.822,92.642 721.815,708.704 1153.822,709.498 "/>
<polygon opacity="0.2" fill="#FFFFFF" points="1757.526,92.642 1325.519,708.704 1757.526,709.498 "/>
<polygon opacity="0.2" fill="#FFFFFF" points="2363.698,92.642 1931.692,708.704 2363.698,709.498 "/>
<polygon opacity="0.2" fill="#FFFFFF" points="2931.601,92.642 2499.593,708.704 2931.601,709.498 "/>
</svg>
