<?xml version="1.0" encoding="utf-8"?>
<!-- Generator: Adobe Illustrator 16.0.4, SVG Export Plug-In . SVG Version: 6.00 Build 0)  -->
<!DOCTYPE svg PUBLIC "-//W3C//DTD SVG 1.1//EN" "http://www.w3.org/Graphics/SVG/1.1/DTD/svg11.dtd">
<svg version="1.1" id="Layer_1" xmlns="http://www.w3.org/2000/svg" xmlns:xlink="http://www.w3.org/1999/xlink" x="0px" y="0px"
	 width="2738.531px" height="364.598px" viewBox="0 0 2738.531 364.598" enable-background="new 0 0 2738.531 364.598"
	 xml:space="preserve">
<rect x="1335.274" y="322.936" transform="matrix(0.9999 0.0161 -0.0161 0.9999 18.9194 -41.9708)" fill="none" width="2565.038" height="1663.691"/>
<rect x="-2662.087" y="280.011" fill="none" width="2720.944" height="679.705"/>
<rect x="-2638.848" y="364.598" fill="none" width="2703.481" height="1688.932"/>
<g>
	<g>
		<g>
			<path fill-rule="evenodd" clip-rule="evenodd" fill="#1E1E4E" d="M658.993,163.542l-9.36,62.156
				c-1.289,11.705-2.93,19.315,12.17,19.664H845.46l1.055-10.651H670.465c-16.974-1.288-10.417-3.861-9.95-15.567l8.079-55.603
				H658.993z"/>
			<path fill-rule="evenodd" clip-rule="evenodd" fill="#353B6E" d="M665.197,173.727l-6.906,47.522
				c-1.404,10.653-2.107,13.697,10.068,15.218c-11.356,0.586-13.112,0.117-11.942-11.12l6.791-51.621H665.197z"/>
			<path fill-rule="evenodd" clip-rule="evenodd" fill="#1E1E4E" d="M1020.572,163.542l9.365,62.156
				c1.17,11.705,2.929,19.315-12.292,19.664H833.99l-1.055-10.651H1009.1c16.859-1.288,10.303-3.861,9.951-15.567l-8.078-55.603
				H1020.572z"/>
			<path fill-rule="evenodd" clip-rule="evenodd" fill="#353B6E" d="M1014.369,173.727l6.789,47.522
				c1.404,10.653,2.105,13.697-10.064,15.218c11.352,0.586,13.107,0.117,11.938-11.12l-6.788-51.621H1014.369z"/>
			<path fill-rule="evenodd" clip-rule="evenodd" fill="#1E1E4E" d="M630.434,183.676l-10.654,73.626
				c-1.52,11.121,1.055,22.124,14.047,22.708H845.46l1.055-12.174H643.659c-15.451-1.405-12.761-6.904-11.472-18.377l9.365-65.784
				H630.434z"/>
			<path fill-rule="evenodd" clip-rule="evenodd" fill="#353B6E" d="M640.5,184.027l-9.248,64.145
				c-1.991,14.749-2.926,18.845,13.579,20.837c-15.335,0.818-17.794,0.233-16.153-14.985l9.131-69.997H640.5z"/>
			<path fill-rule="evenodd" clip-rule="evenodd" fill="#1E1E4E" d="M1049.018,183.676l10.77,73.626
				c1.639,11.121-1.057,22.124-14.164,22.708h-211.52l-1.168-12.174h202.855c15.449-1.405,12.875-6.904,11.472-18.377l-9.365-65.784
				H1049.018z"/>
			<path fill-rule="evenodd" clip-rule="evenodd" fill="#353B6E" d="M1039.066,184.027l9.249,64.145
				c1.874,14.749,2.808,18.845-13.581,20.837c15.336,0.818,17.676,0.233,16.156-14.985l-9.249-69.997H1039.066z"/>
			<rect x="647.756" y="146.101" fill-rule="evenodd" clip-rule="evenodd" fill="#353B6E" width="382.885" height="6.438"/>
			<rect x="647.756" y="151.251" fill-rule="evenodd" clip-rule="evenodd" fill="#1E1E4E" width="382.885" height="6.438"/>
			<path fill-rule="evenodd" clip-rule="evenodd" fill="#0A64A3" d="M659.932,51.756h91.064c7.143,0,12.994,4.565,12.994,10.184
				v85.331c0,5.621-5.852,10.185-12.994,10.185H650.8c-7.023,0-13.46-4.564-12.872-10.185l9.129-85.331
				C647.641,56.438,652.908,51.756,659.932,51.756z"/>
			<path fill-rule="evenodd" clip-rule="evenodd" fill="#0A64A3" d="M793.723,51.756h92.473c7.023,0,12.641,4.565,12.878,10.184
				l3.86,85.331c0.352,5.621-5.735,10.185-12.877,10.185H789.862c-7.142,0-13.229-4.564-12.995-10.185l3.861-85.331
				C781.082,56.321,786.582,51.756,793.723,51.756z"/>
			<path fill-rule="evenodd" clip-rule="evenodd" fill="#0A64A3" d="M928.803,51.756h91.068c7.139,0,12.406,4.682,12.995,10.184
				l9.127,85.331c0.586,5.621-5.851,10.185-12.991,10.185h-100.2c-7.023,0-12.875-4.564-12.875-10.185V61.94
				C915.928,56.321,921.779,51.756,928.803,51.756z"/>
			<path fill-rule="evenodd" clip-rule="evenodd" fill="#0A64A3" d="M635.232,198.309h113.424c8.08,0,14.631-1.173,14.631-2.576
				v-22.006c0-1.406-6.551-2.575-14.631-2.575H635.232c-8.078,0-14.515,1.169-14.515,2.575v22.006
				C620.718,197.136,627.154,198.309,635.232,198.309z"/>
			<path fill-rule="evenodd" clip-rule="evenodd" fill="#0A64A3" d="M785.53,198.309h108.858c7.726,0,13.929-1.173,13.929-2.576
				v-22.006c0-1.406-6.203-2.575-13.929-2.575H785.53c-7.724,0-14.048,1.169-14.048,2.575v22.006
				C771.482,197.136,777.807,198.309,785.53,198.309z"/>
			<path fill-rule="evenodd" clip-rule="evenodd" fill="#0A64A3" d="M931.262,198.309h113.426c7.96,0,14.631-1.173,14.631-2.576
				v-22.006c0-1.406-6.671-2.575-14.631-2.575H931.262c-8.078,0-14.751,1.169-14.751,2.575v22.006
				C916.511,197.136,923.184,198.309,931.262,198.309z"/>
			<path fill-rule="evenodd" clip-rule="evenodd" fill="#197EBA" d="M649.278,156.52h11.59h93.642
				c6.203,3.161,7.139,4.331,8.777,15.335c0.235,6.203-4.915,5.15-9.246,5.384H626.688c-3.512,0.233-4.801-0.586-5.501-2.107
				c-1.172-2.458,0.349-6.673,3.276-9.248C630.198,160.5,642.253,157.807,649.278,156.52z"/>
			<path fill-rule="evenodd" clip-rule="evenodd" fill="#197EBA" d="M1030.641,156.52h-11.59h-93.643
				c-6.202,3.161-7.14,4.331-8.777,15.335c-0.586,5.5,4.799,5.5,9.246,5.384h127.356c3.628,0.233,4.916-0.586,5.617-2.107
				c1.055-2.458-0.467-6.673-3.275-9.248C1049.721,160.5,1037.663,157.807,1030.641,156.52z"/>
			<path fill-rule="evenodd" clip-rule="evenodd" fill="#197EBA" d="M890.174,156.52h-11.705h-93.524
				c-2.927,1.755-8.663,7.257-13.696,15.335c0,5.969,4.918,5.617,9.246,5.384h121.269c3.511,0.233,5.502-1.17,6.205-2.693
				c1.17-2.457-1.052-6.086-3.862-8.662C898.252,160.5,894.039,157.807,890.174,156.52z"/>
			<path fill-rule="evenodd" clip-rule="evenodd" fill="#197EBA" d="M755.57,136.27c1.869,10.767,3.041,14.749-8.547,17.557
				l-98.443-0.584c-7.137-0.82-8.777-0.468-11.354-7.726l10.534-79.363c5.853,22.124-1.87,45.417,15.101,62.391
				c17.557,17.44,62.037,16.737,82.756,16.27C751.471,142.239,751.938,141.77,755.57,136.27z"/>
			<path fill-rule="evenodd" clip-rule="evenodd" fill="#0A64A3" d="M650.216,156.871c-10.303-0.819-37.575,11.12-26.923,20.718
				c42.723,0,90.366,1.403,133.09-0.701c2.107-0.118,3.979-0.235,5.033-0.938c3.277-2.107,2.106-7.141,0-12.993
				c-0.586,5.501-6.787,6.906-15.334,8.897c-25.988,5.734-79.127,0.702-90.835-2.575
				C643.776,166.117,646.586,163.777,650.216,156.871z"/>
			<path fill-rule="evenodd" clip-rule="evenodd" fill="#085C8A" d="M907.617,177.94l0.351,16.856
				c-1.755,0.584-3.513,1.756-5.385,1.756c-17.207,0.351-32.542,1.054-47.991,1.169c-10.652,0-21.305-0.586-32.658-0.233
				c-7.025,0.233-14.75,0-22.591-0.118c-6.089-0.117-12.409,0-18.614,0.235c-3.393,0.116-6.203-1.054-8.311-1.755l-0.349-16.858
				c3.51,4.332,2.576,15.103,9.246,15.103c21.889-0.236,117.522,5.968,123.258-6.087
				C906.445,184.145,904.572,181.685,907.617,177.94z"/>
			<path fill-rule="evenodd" clip-rule="evenodd" fill="#197EBA" d="M1035.207,137.438c1.872,10.768,3.044,14.749-8.543,17.556
				l-98.444-0.584c-7.14-0.819-8.896-0.468-11.354-7.725l-0.115-79.363c5.736,22.124,8.779,45.417,25.635,62.392
				c17.558,17.439,62.152,16.736,82.873,16.27C1031.111,143.408,1031.578,142.939,1035.207,137.438z"/>
			<path fill-rule="evenodd" clip-rule="evenodd" fill="#0A64A3" d="M1029.703,156.871c10.301-0.819,37.69,11.12,26.922,20.718
				c-42.723,0-90.366,1.403-133.208-0.701c-2.105-0.118-3.86-0.235-4.915-0.938c-3.278-2.107-2.106-7.141,0-12.993
				c0.586,5.501,6.671,6.906,15.333,8.897c25.986,5.734,79.012,0.702,90.833-2.575
				C1036.143,166.117,1033.215,163.777,1029.703,156.871z"/>
			<path fill-rule="evenodd" clip-rule="evenodd" fill="#085C8A" d="M917.8,177.94l-0.352,16.856
				c1.872,0.584,3.628,1.756,5.62,1.756c17.791,0.351,33.593,1.054,49.629,1.169c11.004,0,22.008-0.586,33.712-0.233
				c15.685,0.584,34.062,0.467,51.271-1.638l0.352-16.858c-3.629,4.332-2.695,15.103-9.484,15.103
				c-22.705-0.236-121.615,5.968-127.586-6.087C919.089,184.145,920.96,181.685,917.8,177.94z"/>
			<path fill-rule="evenodd" clip-rule="evenodd" fill="#197EBA" d="M782.251,69.433l-3.746,77.956
				c1.054,5.385,3.746,7.142,9.482,7.142h104.178c4.33,0.233,8.662-2.576,8.895-7.843l-2.808-70.115
				c-1.405,22.591,4.212,65.549-27.393,69.529C796.182,155.468,789.159,139.546,782.251,69.433z"/>
			<path fill-rule="evenodd" clip-rule="evenodd" fill="#0A64A3" d="M894.039,174.195c6.906-2.81,9.364-2.34,7.724-10.301
				c6.555,7.726,11.591,13.812-2.926,13.578c-41.669-0.819-83.108,0.468-124.78-1.055c-3.395-5.032-2.926-3.159,0.588-9.363
				l8.311-8.663c-5.969,20.134,7.839,15.804,25.166,15.804H894.039z"/>
			<path fill-rule="evenodd" clip-rule="evenodd" fill="#085C8A" d="M761.531,177.94l0.352,16.856
				c-1.87,0.584-3.628,1.756-5.615,1.756c-17.794,0.351-33.596,1.054-49.631,1.169c-11.006,0-22.008-0.586-33.713-0.233
				c-15.568,0.584-34.064,0.467-51.154-1.638l-0.352-16.858c3.629,4.332,2.696,15.103,9.481,15.103
				c22.593-0.236,121.504,5.968,127.474-6.087C760.244,184.145,758.372,181.685,761.531,177.94z"/>
		</g>
		<g>
			<path fill-rule="evenodd" clip-rule="evenodd" fill="#1E1E4E" d="M450.523,163.542l9.363,62.156
				c1.169,11.705,2.926,19.315-12.176,19.664H263.938l-1.054-10.651h176.165c16.856-1.288,10.417-3.861,9.951-15.567l-8.077-55.603
				H450.523z"/>
			<path fill-rule="evenodd" clip-rule="evenodd" fill="#353B6E" d="M444.316,173.727l6.788,47.522
				c1.405,10.653,2.108,13.697-9.947,15.218c11.238,0.586,12.991,0.117,11.938-11.12l-6.906-51.621H444.316z"/>
			<path fill-rule="evenodd" clip-rule="evenodd" fill="#1E1E4E" d="M88.941,163.542l-9.361,62.156
				c-1.172,11.705-2.928,19.315,12.171,19.664h183.657l1.053-10.651H100.415c-16.975-1.288-10.419-3.861-9.95-15.567l8.074-55.603
				H88.941z"/>
			<path fill-rule="evenodd" clip-rule="evenodd" fill="#353B6E" d="M95.145,173.727l-6.787,47.522
				c-1.407,10.653-2.109,13.697,9.948,15.218c-11.355,0.586-12.993,0.117-11.938-11.12l6.788-51.621H95.145z"/>
			<path fill-rule="evenodd" clip-rule="evenodd" fill="#1E1E4E" d="M478.965,183.676l10.769,73.626
				c1.639,11.121-1.052,22.124-14.163,22.708H264.056l-1.172-12.174h202.853c15.452-1.405,12.874-6.904,11.472-18.377l-9.246-65.784
				H478.965z"/>
			<path fill-rule="evenodd" clip-rule="evenodd" fill="#353B6E" d="M469.016,184.027l9.246,64.145
				c1.874,14.749,2.81,18.845-13.576,20.837c15.333,0.818,17.675,0.233,16.153-14.985l-9.247-69.997H469.016z"/>
			<path fill-rule="evenodd" clip-rule="evenodd" fill="#1E1E4E" d="M60.496,183.676l-10.768,73.626
				c-1.639,11.121,1.055,22.124,14.163,22.708h211.517l1.053-12.174H73.726c-15.568-1.405-12.874-6.904-11.475-18.377l9.251-65.784
				H60.496z"/>
			<path fill-rule="evenodd" clip-rule="evenodd" fill="#353B6E" d="M70.449,184.027l-9.246,64.145
				c-1.877,14.749-2.812,18.845,13.577,20.837c-15.335,0.818-17.679,0.233-16.154-14.985l9.246-69.997H70.449z"/>
			<rect x="78.875" y="146.101" fill-rule="evenodd" clip-rule="evenodd" fill="#353B6E" width="382.884" height="6.438"/>
			<rect x="78.875" y="151.251" fill-rule="evenodd" clip-rule="evenodd" fill="#1E1E4E" width="382.884" height="6.438"/>
			<path fill-rule="evenodd" clip-rule="evenodd" fill="#0A64A3" d="M449.466,51.756h-91.064c-7.144,0-12.878,4.565-12.878,10.184
				v85.331c0,5.621,5.734,10.185,12.878,10.185h100.196c7.139,0,13.58-4.564,12.994-10.185l-9.133-85.331
				C461.876,56.438,456.608,51.756,449.466,51.756z"/>
			<path fill-rule="evenodd" clip-rule="evenodd" fill="#0A64A3" d="M315.791,51.756h-92.472c-7.14,0-12.642,4.565-12.991,10.184
				l-3.866,85.331c-0.232,5.621,5.855,10.185,12.996,10.185h100.196c7.142,0,13.112-4.564,12.876-10.185l-3.863-85.331
				C328.436,56.321,322.816,51.756,315.791,51.756z"/>
			<path fill-rule="evenodd" clip-rule="evenodd" fill="#0A64A3" d="M180.596,51.756H89.527c-7.141,0-12.289,4.682-12.875,10.184
				l-9.131,85.331c-0.588,5.621,5.735,10.185,12.877,10.185h100.197c7.139,0,12.991-4.564,12.991-10.185V61.94
				C193.586,56.321,187.734,51.756,180.596,51.756z"/>
			<path fill-rule="evenodd" clip-rule="evenodd" fill="#0A64A3" d="M474.281,198.309H360.739c-7.96,0-14.632-1.173-14.632-2.576
				v-22.006c0-1.406,6.672-2.575,14.632-2.575h113.542c7.962,0,14.633,1.169,14.633,2.575v22.006
				C488.914,197.136,482.243,198.309,474.281,198.309z"/>
			<path fill-rule="evenodd" clip-rule="evenodd" fill="#0A64A3" d="M323.867,198.309H215.126c-7.724,0-14.046-1.173-14.046-2.576
				v-22.006c0-1.406,6.322-2.575,14.046-2.575h108.741c7.728,0,14.049,1.169,14.049,2.575v22.006
				C337.916,197.136,331.595,198.309,323.867,198.309z"/>
			<path fill-rule="evenodd" clip-rule="evenodd" fill="#0A64A3" d="M178.256,198.309H64.826c-8.073,0-14.631-1.173-14.631-2.576
				v-22.006c0-1.406,6.558-2.575,14.631-2.575h113.43c8.076,0,14.631,1.169,14.631,2.575v22.006
				C192.887,197.136,186.332,198.309,178.256,198.309z"/>
			<path fill-rule="evenodd" clip-rule="evenodd" fill="#197EBA" d="M460.238,156.52h-11.709h-93.523
				c-6.205,3.161-7.141,4.331-8.898,15.335c-0.232,6.203,5.034,5.15,9.248,5.384h127.473c3.51,0.233,4.798-0.586,5.5-2.107
				c1.173-2.458-0.35-6.673-3.159-9.248C479.316,160.5,467.26,157.807,460.238,156.52z"/>
			<path fill-rule="evenodd" clip-rule="evenodd" fill="#197EBA" d="M78.875,156.52h11.59h93.524
				c6.206,3.161,7.142,4.331,8.897,15.335c0.583,5.5-4.918,5.5-9.248,5.384H56.166c-3.512,0.233-4.797-0.586-5.502-2.107
				c-1.17-2.458,0.352-6.673,3.28-9.248C59.678,160.5,71.854,157.807,78.875,156.52z"/>
			<path fill-rule="evenodd" clip-rule="evenodd" fill="#197EBA" d="M219.34,156.52h11.59h93.641
				c2.928,1.755,8.663,7.257,13.58,15.335c0,5.969-4.917,5.617-9.25,5.384H207.751c-3.628,0.233-5.617-1.17-6.32-2.693
				c-1.17-2.457,1.052-6.086,3.98-8.662C211.264,160.5,215.361,157.807,219.34,156.52z"/>
			<path fill-rule="evenodd" clip-rule="evenodd" fill="#197EBA" d="M467.143,135.685c1.758,10.768,3.045,14.749-8.662,17.556
				l-98.324-0.584c-7.143-0.819-8.898-0.468-11.355-7.725l-0.232-79.363c5.854,22.123,8.777,45.417,25.75,62.392
				c17.558,17.439,62.041,16.736,82.759,16.27C463.047,141.654,463.396,141.185,467.143,135.685z"/>
			<path fill-rule="evenodd" clip-rule="evenodd" fill="#0A64A3" d="M459.184,156.871c10.301-0.819,37.808,11.12,27.04,20.718
				c-42.726,0-90.368,1.403-133.21-0.701c-2.105-0.118-3.979-0.235-5.031-0.938c-3.16-2.107-1.988-7.141,0-12.993
				c0.701,5.501,6.789,6.906,15.449,8.897c25.988,5.734,79.014,0.702,90.717-2.575C465.736,166.117,462.812,163.777,459.184,156.871
				z"/>
			<path fill-rule="evenodd" clip-rule="evenodd" fill="#085C8A" d="M201.783,177.94l-0.352,16.856
				c1.871,0.584,3.627,1.756,5.5,1.756c17.09,0.351,32.541,1.054,47.992,1.169c10.535,0,21.189-0.586,32.542-0.233
				c7.138,0.233,14.748,0,22.708-0.118c6.087-0.117,12.291,0,18.494,0.235c3.394,0.116,6.204-1.054,8.311-1.755l0.352-16.858
				c-3.395,4.332-2.577,15.103-9.13,15.103c-22.005-0.236-117.522,5.968-123.256-6.087
				C203.069,184.145,204.944,181.685,201.783,177.94z"/>
			<path fill-rule="evenodd" clip-rule="evenodd" fill="#197EBA" d="M186.332,138.608c1.875,10.767,3.045,14.749-8.66,17.556
				l-98.322-0.583c-7.143-0.82-8.9-0.469-11.357-7.726l9.246-79.363c5.855,22.124-0.582,45.417,16.273,62.392
				c17.558,17.44,62.154,16.737,82.871,16.27C182.236,144.577,182.707,144.108,186.332,138.608z"/>
			<path fill-rule="evenodd" clip-rule="evenodd" fill="#0A64A3" d="M79.812,156.871c-10.302-0.819-37.807,11.12-27.041,20.718
				c42.84,0,90.483,1.403,133.207-0.701c2.109-0.118,3.982-0.235,5.035-0.938c3.278-2.107,1.987-7.141,0-12.993
				c-0.586,5.501-6.788,6.906-15.451,8.897c-25.869,5.734-79.012,0.702-90.717-2.575C73.372,166.117,76.184,163.777,79.812,156.871z
				"/>
			<path fill-rule="evenodd" clip-rule="evenodd" fill="#085C8A" d="M191.6,177.94l0.352,16.856
				c-1.875,0.584-3.629,1.756-5.619,1.756c-17.677,0.351-33.598,1.054-49.635,1.169c-10.883,0-21.886-0.586-33.591-0.233
				c-15.687,0.584-34.183,0.467-51.273-1.638l-0.349-16.858c3.512,4.332,2.692,15.103,9.48,15.103
				c22.709-0.236,121.503,5.968,127.473-6.087C190.428,184.145,188.438,181.685,191.6,177.94z"/>
			<path fill-rule="evenodd" clip-rule="evenodd" fill="#197EBA" d="M327.146,69.433l3.863,77.956
				c-1.052,5.385-3.746,7.142-9.598,7.142H217.35c-4.447,0.233-8.779-2.576-9.012-7.843l2.926-70.115
				c1.287,22.591-4.332,65.549,27.391,69.529C313.218,155.468,320.24,139.546,327.146,69.433z"/>
			<path fill-rule="evenodd" clip-rule="evenodd" fill="#0A64A3" d="M215.361,174.195c-6.91-2.81-9.248-2.34-7.61-10.301
				c-6.554,7.726-11.708,13.812,2.811,13.578c41.786-0.819,83.223,0.468,124.895-1.055c3.277-5.032,2.926-3.159-0.586-9.363
				l-8.31-8.663c5.969,20.134-7.843,15.804-25.168,15.804H215.361z"/>
			<path fill-rule="evenodd" clip-rule="evenodd" fill="#085C8A" d="M347.982,177.94l-0.352,16.856
				c1.871,0.584,3.627,1.756,5.617,1.756c17.677,0.351,33.597,1.054,49.634,1.169c10.886,0,22.007-0.586,33.708-0.233
				c15.571,0.584,34.065,0.467,51.154-1.638l0.352-16.858c-3.512,4.332-2.692,15.103-9.485,15.103
				c-22.705-0.236-121.498,5.968-127.469-6.087C349.152,184.145,351.142,181.685,347.982,177.94z"/>
		</g>
	</g>
	<g>
		<g>
			<path fill-rule="evenodd" clip-rule="evenodd" fill="#1E1E4E" d="M2253.419,162.275l-9.36,62.156
				c-1.289,11.705-2.93,19.315,12.17,19.664h183.658l1.055-10.651h-176.051c-16.974-1.288-10.417-3.861-9.95-15.567l8.079-55.603
				H2253.419z"/>
			<path fill-rule="evenodd" clip-rule="evenodd" fill="#353B6E" d="M2259.623,172.46l-6.906,47.522
				c-1.404,10.653-2.107,13.697,10.068,15.218c-11.355,0.586-13.112,0.117-11.941-11.12l6.791-51.621H2259.623z"/>
			<path fill-rule="evenodd" clip-rule="evenodd" fill="#1E1E4E" d="M2614.998,162.275l9.365,62.156
				c1.17,11.705,2.929,19.315-12.292,19.664h-183.655l-1.055-10.651h176.164c16.859-1.288,10.303-3.861,9.951-15.567l-8.078-55.603
				H2614.998z"/>
			<path fill-rule="evenodd" clip-rule="evenodd" fill="#353B6E" d="M2608.795,172.46l6.789,47.522
				c1.403,10.653,2.105,13.697-10.064,15.218c11.352,0.586,13.107,0.117,11.938-11.12l-6.789-51.621H2608.795z"/>
			<path fill-rule="evenodd" clip-rule="evenodd" fill="#1E1E4E" d="M2224.859,182.41l-10.654,73.626
				c-1.52,11.121,1.056,22.124,14.047,22.708h211.635l1.055-12.174h-202.856c-15.45-1.405-12.761-6.904-11.472-18.377l9.365-65.784
				H2224.859z"/>
			<path fill-rule="evenodd" clip-rule="evenodd" fill="#353B6E" d="M2234.927,182.761l-9.248,64.145
				c-1.991,14.749-2.927,18.845,13.578,20.837c-15.335,0.818-17.794,0.233-16.153-14.985l9.131-69.997H2234.927z"/>
			<path fill-rule="evenodd" clip-rule="evenodd" fill="#1E1E4E" d="M2643.443,182.41l10.77,73.626
				c1.639,11.121-1.058,22.124-14.164,22.708h-211.52l-1.168-12.174h202.855c15.449-1.405,12.875-6.904,11.472-18.377l-9.365-65.784
				H2643.443z"/>
			<path fill-rule="evenodd" clip-rule="evenodd" fill="#353B6E" d="M2633.492,182.761l9.249,64.145
				c1.874,14.749,2.808,18.845-13.581,20.837c15.336,0.818,17.676,0.233,16.156-14.985l-9.249-69.997H2633.492z"/>
			<rect x="2242.182" y="144.835" fill-rule="evenodd" clip-rule="evenodd" fill="#353B6E" width="382.885" height="6.438"/>
			<rect x="2242.182" y="149.985" fill-rule="evenodd" clip-rule="evenodd" fill="#1E1E4E" width="382.885" height="6.438"/>
			<path fill-rule="evenodd" clip-rule="evenodd" fill="#0A64A3" d="M2254.357,50.49h91.064c7.143,0,12.994,4.565,12.994,10.184
				v85.331c0,5.621-5.852,10.185-12.994,10.185h-100.196c-7.023,0-13.46-4.564-12.872-10.185l9.129-85.331
				C2242.066,55.172,2247.334,50.49,2254.357,50.49z"/>
			<path fill-rule="evenodd" clip-rule="evenodd" fill="#0A64A3" d="M2388.148,50.49h92.473c7.023,0,12.642,4.565,12.878,10.184
				l3.86,85.331c0.352,5.621-5.735,10.185-12.877,10.185h-100.194c-7.142,0-13.229-4.564-12.995-10.185l3.861-85.331
				C2375.508,55.055,2381.008,50.49,2388.148,50.49z"/>
			<path fill-rule="evenodd" clip-rule="evenodd" fill="#0A64A3" d="M2523.229,50.49h91.068c7.139,0,12.406,4.682,12.995,10.184
				l9.127,85.331c0.586,5.621-5.851,10.185-12.99,10.185h-100.2c-7.023,0-12.875-4.564-12.875-10.185V60.674
				C2510.354,55.055,2516.205,50.49,2523.229,50.49z"/>
			<path fill-rule="evenodd" clip-rule="evenodd" fill="#0A64A3" d="M2229.658,197.042h113.424c8.08,0,14.631-1.173,14.631-2.576
				V172.46c0-1.406-6.551-2.575-14.631-2.575h-113.424c-8.078,0-14.515,1.169-14.515,2.575v22.006
				C2215.144,195.87,2221.58,197.042,2229.658,197.042z"/>
			<path fill-rule="evenodd" clip-rule="evenodd" fill="#0A64A3" d="M2379.956,197.042h108.858c7.726,0,13.929-1.173,13.929-2.576
				V172.46c0-1.406-6.203-2.575-13.929-2.575h-108.858c-7.724,0-14.048,1.169-14.048,2.575v22.006
				C2365.908,195.87,2372.232,197.042,2379.956,197.042z"/>
			<path fill-rule="evenodd" clip-rule="evenodd" fill="#0A64A3" d="M2525.688,197.042h113.426c7.96,0,14.631-1.173,14.631-2.576
				V172.46c0-1.406-6.671-2.575-14.631-2.575h-113.426c-8.078,0-14.751,1.169-14.751,2.575v22.006
				C2510.937,195.87,2517.609,197.042,2525.688,197.042z"/>
			<path fill-rule="evenodd" clip-rule="evenodd" fill="#197EBA" d="M2243.704,155.253h11.59h93.642
				c6.203,3.161,7.139,4.331,8.777,15.335c0.235,6.203-4.915,5.15-9.246,5.384h-127.354c-3.512,0.233-4.801-0.586-5.501-2.107
				c-1.172-2.458,0.349-6.673,3.276-9.248C2224.624,159.233,2236.68,156.541,2243.704,155.253z"/>
			<path fill-rule="evenodd" clip-rule="evenodd" fill="#197EBA" d="M2625.066,155.253h-11.59h-93.643
				c-6.202,3.161-7.14,4.331-8.777,15.335c-0.586,5.5,4.799,5.5,9.246,5.384h127.355c3.628,0.233,4.915-0.586,5.617-2.107
				c1.055-2.458-0.467-6.673-3.275-9.248C2644.146,159.233,2632.089,156.541,2625.066,155.253z"/>
			<path fill-rule="evenodd" clip-rule="evenodd" fill="#197EBA" d="M2484.6,155.253h-11.705h-93.524
				c-2.927,1.755-8.663,7.257-13.696,15.335c0,5.969,4.918,5.617,9.246,5.384h121.269c3.511,0.233,5.502-1.17,6.205-2.693
				c1.17-2.457-1.052-6.086-3.862-8.662C2492.679,159.233,2488.465,156.541,2484.6,155.253z"/>
			<path fill-rule="evenodd" clip-rule="evenodd" fill="#197EBA" d="M2349.996,135.003c1.869,10.767,3.041,14.749-8.547,17.557
				l-98.443-0.584c-7.137-0.82-8.777-0.468-11.354-7.726l10.534-79.363c5.853,22.124-1.87,45.417,15.101,62.391
				c17.558,17.44,62.037,16.737,82.756,16.27C2345.896,140.973,2346.364,140.504,2349.996,135.003z"/>
			<path fill-rule="evenodd" clip-rule="evenodd" fill="#0A64A3" d="M2244.642,155.604c-10.303-0.819-37.575,11.12-26.923,20.718
				c42.723,0,90.365,1.403,133.09-0.701c2.107-0.118,3.979-0.235,5.033-0.938c3.277-2.107,2.106-7.141,0-12.993
				c-0.586,5.501-6.787,6.906-15.334,8.897c-25.988,5.734-79.127,0.702-90.835-2.575
				C2238.202,164.851,2241.012,162.511,2244.642,155.604z"/>
			<path fill-rule="evenodd" clip-rule="evenodd" fill="#085C8A" d="M2502.043,176.674l0.351,16.856
				c-1.755,0.584-3.513,1.756-5.385,1.756c-17.206,0.351-32.542,1.054-47.991,1.169c-10.652,0-21.305-0.586-32.658-0.233
				c-7.025,0.233-14.75,0-22.591-0.118c-6.089-0.117-12.409,0-18.614,0.235c-3.393,0.116-6.203-1.054-8.311-1.755l-0.35-16.858
				c3.51,4.332,2.576,15.103,9.246,15.103c21.889-0.236,117.522,5.968,123.258-6.087
				C2500.871,182.879,2498.998,180.418,2502.043,176.674z"/>
			<path fill-rule="evenodd" clip-rule="evenodd" fill="#197EBA" d="M2629.633,136.172c1.872,10.768,3.045,14.749-8.544,17.556
				l-98.443-0.584c-7.14-0.819-8.896-0.468-11.354-7.725l-0.115-79.363c5.736,22.124,8.779,45.417,25.635,62.392
				c17.558,17.439,62.152,16.736,82.873,16.27C2625.536,142.142,2626.004,141.673,2629.633,136.172z"/>
			<path fill-rule="evenodd" clip-rule="evenodd" fill="#0A64A3" d="M2624.129,155.604c10.301-0.819,37.69,11.12,26.922,20.718
				c-42.723,0-90.366,1.403-133.207-0.701c-2.105-0.118-3.86-0.235-4.915-0.938c-3.278-2.107-2.106-7.141,0-12.993
				c0.586,5.501,6.671,6.906,15.333,8.897c25.986,5.734,79.012,0.702,90.834-2.575
				C2630.568,164.851,2627.64,162.511,2624.129,155.604z"/>
			<path fill-rule="evenodd" clip-rule="evenodd" fill="#085C8A" d="M2512.226,176.674l-0.352,16.856
				c1.872,0.584,3.628,1.756,5.62,1.756c17.791,0.351,33.593,1.054,49.629,1.169c11.004,0,22.008-0.586,33.712-0.233
				c15.685,0.584,34.062,0.467,51.271-1.638l0.351-16.858c-3.628,4.332-2.694,15.103-9.483,15.103
				c-22.705-0.236-121.615,5.968-127.586-6.087C2513.515,182.879,2515.387,180.418,2512.226,176.674z"/>
			<path fill-rule="evenodd" clip-rule="evenodd" fill="#197EBA" d="M2376.678,68.167l-3.746,77.956
				c1.054,5.385,3.746,7.142,9.482,7.142h104.178c4.33,0.233,8.662-2.576,8.895-7.843l-2.808-70.115
				c-1.405,22.591,4.212,65.549-27.394,69.529C2390.607,154.202,2383.585,138.28,2376.678,68.167z"/>
			<path fill-rule="evenodd" clip-rule="evenodd" fill="#0A64A3" d="M2488.465,172.929c6.906-2.81,9.364-2.34,7.724-10.301
				c6.555,7.726,11.591,13.812-2.926,13.578c-41.669-0.819-83.108,0.468-124.78-1.055c-3.395-5.032-2.926-3.159,0.588-9.363
				l8.311-8.663c-5.969,20.134,7.84,15.804,25.166,15.804H2488.465z"/>
			<path fill-rule="evenodd" clip-rule="evenodd" fill="#085C8A" d="M2355.957,176.674l0.352,16.856
				c-1.87,0.584-3.628,1.756-5.615,1.756c-17.794,0.351-33.596,1.054-49.631,1.169c-11.006,0-22.008-0.586-33.713-0.233
				c-15.568,0.584-34.064,0.467-51.154-1.638l-0.352-16.858c3.629,4.332,2.695,15.103,9.48,15.103
				c22.593-0.236,121.504,5.968,127.474-6.087C2354.67,182.879,2352.798,180.418,2355.957,176.674z"/>
		</g>
		<g>
			<path fill-rule="evenodd" clip-rule="evenodd" fill="#1E1E4E" d="M2044.949,162.275l9.363,62.156
				c1.169,11.705,2.926,19.315-12.176,19.664h-183.773l-1.054-10.651h176.165c16.856-1.288,10.417-3.861,9.951-15.567l-8.077-55.603
				H2044.949z"/>
			<path fill-rule="evenodd" clip-rule="evenodd" fill="#353B6E" d="M2038.742,172.46l6.788,47.522
				c1.405,10.653,2.108,13.697-9.947,15.218c11.238,0.586,12.991,0.117,11.938-11.12l-6.906-51.621H2038.742z"/>
			<path fill-rule="evenodd" clip-rule="evenodd" fill="#1E1E4E" d="M1683.367,162.275l-9.361,62.156
				c-1.172,11.705-2.928,19.315,12.172,19.664h183.656l1.054-10.651h-176.047c-16.975-1.288-10.419-3.861-9.95-15.567l8.074-55.603
				H1683.367z"/>
			<path fill-rule="evenodd" clip-rule="evenodd" fill="#353B6E" d="M1689.57,172.46l-6.787,47.522
				c-1.407,10.653-2.109,13.697,9.948,15.218c-11.355,0.586-12.993,0.117-11.938-11.12l6.788-51.621H1689.57z"/>
			<path fill-rule="evenodd" clip-rule="evenodd" fill="#1E1E4E" d="M2073.391,182.41l10.769,73.626
				c1.639,11.121-1.052,22.124-14.163,22.708h-211.515l-1.172-12.174h202.853c15.452-1.405,12.874-6.904,11.473-18.377
				l-9.246-65.784H2073.391z"/>
			<path fill-rule="evenodd" clip-rule="evenodd" fill="#353B6E" d="M2063.441,182.761l9.246,64.145
				c1.874,14.749,2.81,18.845-13.576,20.837c15.333,0.818,17.675,0.233,16.153-14.985l-9.247-69.997H2063.441z"/>
			<path fill-rule="evenodd" clip-rule="evenodd" fill="#1E1E4E" d="M1654.922,182.41l-10.768,73.626
				c-1.639,11.121,1.055,22.124,14.163,22.708h211.517l1.054-12.174h-202.736c-15.568-1.405-12.874-6.904-11.475-18.377
				l9.251-65.784H1654.922z"/>
			<path fill-rule="evenodd" clip-rule="evenodd" fill="#353B6E" d="M1664.875,182.761l-9.246,64.145
				c-1.877,14.749-2.812,18.845,13.577,20.837c-15.335,0.818-17.679,0.233-16.154-14.985l9.246-69.997H1664.875z"/>
			<rect x="1673.301" y="144.835" fill-rule="evenodd" clip-rule="evenodd" fill="#353B6E" width="382.884" height="6.438"/>
			<rect x="1673.301" y="149.985" fill-rule="evenodd" clip-rule="evenodd" fill="#1E1E4E" width="382.884" height="6.438"/>
			<path fill-rule="evenodd" clip-rule="evenodd" fill="#0A64A3" d="M2043.892,50.49h-91.064c-7.144,0-12.878,4.565-12.878,10.184
				v85.331c0,5.621,5.734,10.185,12.878,10.185h100.196c7.139,0,13.58-4.564,12.994-10.185l-9.133-85.331
				C2056.302,55.172,2051.034,50.49,2043.892,50.49z"/>
			<path fill-rule="evenodd" clip-rule="evenodd" fill="#0A64A3" d="M1910.217,50.49h-92.472c-7.14,0-12.642,4.565-12.991,10.184
				l-3.865,85.331c-0.232,5.621,5.854,10.185,12.995,10.185h100.196c7.142,0,13.112-4.564,12.876-10.185l-3.862-85.331
				C1922.861,55.055,1917.242,50.49,1910.217,50.49z"/>
			<path fill-rule="evenodd" clip-rule="evenodd" fill="#0A64A3" d="M1775.021,50.49h-91.068c-7.141,0-12.289,4.682-12.875,10.184
				l-9.131,85.331c-0.588,5.621,5.735,10.185,12.877,10.185h100.197c7.139,0,12.991-4.564,12.991-10.185V60.674
				C1788.013,55.055,1782.16,50.49,1775.021,50.49z"/>
			<path fill-rule="evenodd" clip-rule="evenodd" fill="#0A64A3" d="M2068.707,197.042h-113.542c-7.96,0-14.632-1.173-14.632-2.576
				V172.46c0-1.406,6.672-2.575,14.632-2.575h113.542c7.962,0,14.633,1.169,14.633,2.575v22.006
				C2083.34,195.87,2076.669,197.042,2068.707,197.042z"/>
			<path fill-rule="evenodd" clip-rule="evenodd" fill="#0A64A3" d="M1918.293,197.042h-108.74c-7.725,0-14.047-1.173-14.047-2.576
				V172.46c0-1.406,6.322-2.575,14.047-2.575h108.74c7.728,0,14.049,1.169,14.049,2.575v22.006
				C1932.342,195.87,1926.021,197.042,1918.293,197.042z"/>
			<path fill-rule="evenodd" clip-rule="evenodd" fill="#0A64A3" d="M1772.682,197.042h-113.43c-8.072,0-14.631-1.173-14.631-2.576
				V172.46c0-1.406,6.559-2.575,14.631-2.575h113.43c8.076,0,14.631,1.169,14.631,2.575v22.006
				C1787.312,195.87,1780.758,197.042,1772.682,197.042z"/>
			<path fill-rule="evenodd" clip-rule="evenodd" fill="#197EBA" d="M2054.664,155.253h-11.709h-93.523
				c-6.205,3.161-7.141,4.331-8.898,15.335c-0.232,6.203,5.034,5.15,9.248,5.384h127.473c3.51,0.233,4.799-0.586,5.5-2.107
				c1.174-2.458-0.35-6.673-3.158-9.248C2073.742,159.233,2061.686,156.541,2054.664,155.253z"/>
			<path fill-rule="evenodd" clip-rule="evenodd" fill="#197EBA" d="M1673.301,155.253h11.59h93.524
				c6.206,3.161,7.142,4.331,8.897,15.335c0.583,5.5-4.918,5.5-9.248,5.384h-127.473c-3.512,0.233-4.797-0.586-5.502-2.107
				c-1.17-2.458,0.352-6.673,3.28-9.248C1654.104,159.233,1666.279,156.541,1673.301,155.253z"/>
			<path fill-rule="evenodd" clip-rule="evenodd" fill="#197EBA" d="M1813.766,155.253h11.59h93.641
				c2.928,1.755,8.663,7.257,13.58,15.335c0,5.969-4.917,5.617-9.25,5.384h-121.148c-3.629,0.233-5.617-1.17-6.32-2.693
				c-1.17-2.457,1.052-6.086,3.98-8.662C1805.689,159.233,1809.787,156.541,1813.766,155.253z"/>
			<path fill-rule="evenodd" clip-rule="evenodd" fill="#197EBA" d="M2061.568,134.418c1.758,10.768,3.045,14.749-8.662,17.556
				l-98.324-0.584c-7.143-0.819-8.898-0.468-11.355-7.725l-0.232-79.363c5.854,22.123,8.777,45.417,25.75,62.392
				c17.558,17.439,62.041,16.736,82.759,16.27C2057.473,140.388,2057.822,139.918,2061.568,134.418z"/>
			<path fill-rule="evenodd" clip-rule="evenodd" fill="#0A64A3" d="M2053.609,155.604c10.301-0.819,37.808,11.12,27.04,20.718
				c-42.726,0-90.368,1.403-133.21-0.701c-2.105-0.118-3.979-0.235-5.031-0.938c-3.16-2.107-1.988-7.141,0-12.993
				c0.701,5.501,6.789,6.906,15.449,8.897c25.988,5.734,79.014,0.702,90.717-2.575
				C2060.162,164.851,2057.238,162.511,2053.609,155.604z"/>
			<path fill-rule="evenodd" clip-rule="evenodd" fill="#085C8A" d="M1796.209,176.674l-0.352,16.856
				c1.871,0.584,3.627,1.756,5.5,1.756c17.09,0.351,32.541,1.054,47.992,1.169c10.535,0,21.189-0.586,32.542-0.233
				c7.138,0.233,14.748,0,22.708-0.118c6.087-0.117,12.291,0,18.494,0.235c3.394,0.116,6.203-1.054,8.311-1.755l0.352-16.858
				c-3.395,4.332-2.576,15.103-9.13,15.103c-22.005-0.236-117.522,5.968-123.256-6.087
				C1797.495,182.879,1799.37,180.418,1796.209,176.674z"/>
			<path fill-rule="evenodd" clip-rule="evenodd" fill="#197EBA" d="M1780.758,137.342c1.875,10.767,3.046,14.749-8.66,17.556
				l-98.322-0.583c-7.143-0.82-8.9-0.469-11.357-7.726l9.246-79.363c5.855,22.124-0.582,45.417,16.273,62.392
				c17.558,17.44,62.154,16.737,82.871,16.27C1776.662,143.311,1777.133,142.842,1780.758,137.342z"/>
			<path fill-rule="evenodd" clip-rule="evenodd" fill="#0A64A3" d="M1674.238,155.604c-10.302-0.819-37.807,11.12-27.041,20.718
				c42.84,0,90.483,1.403,133.207-0.701c2.109-0.118,3.982-0.235,5.035-0.938c3.278-2.107,1.987-7.141,0-12.993
				c-0.586,5.501-6.788,6.906-15.451,8.897c-25.869,5.734-79.012,0.702-90.717-2.575
				C1667.798,164.851,1670.609,162.511,1674.238,155.604z"/>
			<path fill-rule="evenodd" clip-rule="evenodd" fill="#085C8A" d="M1786.025,176.674l0.352,16.856
				c-1.875,0.584-3.629,1.756-5.619,1.756c-17.677,0.351-33.598,1.054-49.635,1.169c-10.883,0-21.886-0.586-33.591-0.233
				c-15.687,0.584-34.183,0.467-51.272-1.638l-0.35-16.858c3.512,4.332,2.692,15.103,9.48,15.103
				c22.709-0.236,121.503,5.968,127.473-6.087C1784.854,182.879,1782.863,180.418,1786.025,176.674z"/>
			<path fill-rule="evenodd" clip-rule="evenodd" fill="#197EBA" d="M1921.571,68.167l3.863,77.956
				c-1.052,5.385-3.746,7.142-9.598,7.142h-104.062c-4.447,0.233-8.779-2.576-9.012-7.843l2.926-70.115
				c1.287,22.591-4.332,65.549,27.391,69.529C1907.644,154.202,1914.666,138.28,1921.571,68.167z"/>
			<path fill-rule="evenodd" clip-rule="evenodd" fill="#0A64A3" d="M1809.787,172.929c-6.91-2.81-9.248-2.34-7.609-10.301
				c-6.555,7.726-11.708,13.812,2.811,13.578c41.786-0.819,83.223,0.468,124.895-1.055c3.277-5.032,2.926-3.159-0.586-9.363
				l-8.31-8.663c5.969,20.134-7.843,15.804-25.168,15.804H1809.787z"/>
			<path fill-rule="evenodd" clip-rule="evenodd" fill="#085C8A" d="M1942.408,176.674l-0.352,16.856
				c1.871,0.584,3.627,1.756,5.617,1.756c17.677,0.351,33.597,1.054,49.634,1.169c10.886,0,22.007-0.586,33.708-0.233
				c15.571,0.584,34.065,0.467,51.154-1.638l0.352-16.858c-3.512,4.332-2.692,15.103-9.485,15.103
				c-22.705-0.236-121.498,5.968-127.469-6.087C1943.578,182.879,1945.567,180.418,1942.408,176.674z"/>
		</g>
	</g>
	<g>
		<path fill="#35377A" d="M1910.505,96.058c0,0-1.438,0.056-3.957,0.153c-2.518,0.066-6.114,0.219-10.431,0.297
			c-4.317,0.072-9.353,0.221-14.749,0.263c-5.396,0.045-11.151,0.093-16.906,0.142c-5.756-0.018-11.512-0.036-16.907-0.053
			c-5.396-0.01-10.433-0.137-14.75-0.186c-4.316-0.054-7.914-0.191-10.433-0.244c-2.519-0.084-3.957-0.133-3.957-0.133
			s1.438-0.056,3.956-0.153c2.519-0.066,6.115-0.221,10.432-0.298c4.316-0.071,9.353-0.224,14.748-0.262
			c5.396-0.045,11.151-0.093,16.907-0.141c5.756,0.018,11.512,0.037,16.907,0.054c5.396,0.014,10.433,0.137,14.749,0.186
			c4.317,0.056,7.915,0.19,10.434,0.243C1909.065,96.01,1910.505,96.058,1910.505,96.058z"/>
	</g>
	<g>
		<path fill="#35377A" d="M1021.897,96.058c0,0-1.439,0.056-3.957,0.153c-2.518,0.066-6.115,0.219-10.431,0.297
			c-4.317,0.072-9.352,0.221-14.749,0.263c-5.396,0.045-11.151,0.093-16.906,0.142c-5.756-0.018-11.512-0.036-16.908-0.053
			c-5.396-0.01-10.432-0.137-14.75-0.186c-4.316-0.054-7.914-0.191-10.433-0.244c-2.519-0.084-3.957-0.133-3.957-0.133
			s1.438-0.056,3.956-0.153c2.519-0.066,6.115-0.221,10.432-0.298c4.316-0.071,9.353-0.224,14.748-0.262
			c5.396-0.045,11.151-0.093,16.907-0.141c5.756,0.018,11.511,0.037,16.907,0.054c5.396,0.014,10.433,0.137,14.749,0.186
			c4.317,0.056,7.915,0.19,10.433,0.243C1020.458,96.01,1021.897,96.058,1021.897,96.058z"/>
	</g>
	<g>
		<path fill="#35377A" d="M887.72,96.058c0,0-1.439,0.056-3.957,0.153c-2.518,0.066-6.115,0.219-10.431,0.297
			c-4.317,0.072-9.352,0.221-14.749,0.263c-5.396,0.045-11.151,0.093-16.906,0.142c-5.756-0.018-11.512-0.036-16.908-0.053
			c-5.396-0.01-10.432-0.137-14.75-0.186c-4.316-0.054-7.914-0.191-10.433-0.244c-2.519-0.084-3.957-0.133-3.957-0.133
			s1.438-0.056,3.956-0.153c2.519-0.066,6.115-0.221,10.432-0.298c4.316-0.071,9.353-0.224,14.748-0.262
			c5.396-0.045,11.151-0.093,16.907-0.141c5.756,0.018,11.511,0.037,16.907,0.054c5.396,0.014,10.433,0.137,14.749,0.186
			c4.317,0.056,7.915,0.19,10.433,0.243C886.28,96.01,887.72,96.058,887.72,96.058z"/>
	</g>
	<g>
		<path fill="#35377A" d="M1775.062,96.058c0,0-1.438,0.056-3.957,0.153c-2.518,0.066-6.114,0.219-10.431,0.297
			c-4.317,0.072-9.353,0.221-14.749,0.263c-5.396,0.045-11.151,0.093-16.906,0.142c-5.756-0.018-11.512-0.036-16.907-0.053
			c-5.396-0.01-10.433-0.137-14.75-0.186c-4.316-0.054-7.914-0.191-10.433-0.244c-2.519-0.084-3.957-0.133-3.957-0.133
			s1.438-0.056,3.956-0.153c2.519-0.066,6.115-0.221,10.432-0.298c4.316-0.071,9.353-0.224,14.748-0.262
			c5.396-0.045,11.151-0.093,16.907-0.141c5.756,0.018,11.512,0.037,16.907,0.054c5.396,0.014,10.433,0.137,14.749,0.186
			c4.317,0.056,7.915,0.19,10.434,0.243C1773.622,96.01,1775.062,96.058,1775.062,96.058z"/>
	</g>
	<g>
		<path fill="#35377A" d="M2345.948,96.058c0,0-1.438,0.056-3.957,0.153c-2.518,0.066-6.114,0.219-10.431,0.297
			c-4.317,0.072-9.353,0.221-14.749,0.263c-5.396,0.045-11.151,0.093-16.906,0.142c-5.756-0.018-11.512-0.036-16.907-0.053
			c-5.396-0.01-10.433-0.137-14.75-0.186c-4.316-0.054-7.914-0.191-10.433-0.244c-2.519-0.084-3.957-0.133-3.957-0.133
			s1.438-0.056,3.956-0.153c2.519-0.066,6.115-0.221,10.432-0.298c4.316-0.071,9.353-0.224,14.748-0.262
			c5.396-0.045,11.151-0.093,16.907-0.141c5.756,0.018,11.512,0.037,16.907,0.054c5.396,0.014,10.433,0.137,14.749,0.186
			c4.317,0.056,7.915,0.19,10.433,0.243C2344.509,96.01,2345.948,96.058,2345.948,96.058z"/>
	</g>
	<g>
		<path fill="#35377A" d="M2482.656,96.058c0,0-1.438,0.056-3.957,0.153c-2.518,0.066-6.114,0.219-10.431,0.297
			c-4.317,0.072-9.353,0.221-14.749,0.263c-5.396,0.045-11.151,0.093-16.906,0.142c-5.756-0.018-11.512-0.036-16.907-0.053
			c-5.396-0.01-10.433-0.137-14.75-0.186c-4.316-0.054-7.914-0.191-10.433-0.244c-2.519-0.084-3.957-0.133-3.957-0.133
			s1.438-0.056,3.956-0.153c2.519-0.066,6.115-0.221,10.432-0.298c4.316-0.071,9.353-0.224,14.748-0.262
			c5.396-0.045,11.151-0.093,16.907-0.141c5.756,0.018,11.512,0.037,16.907,0.054c5.396,0.014,10.433,0.137,14.749,0.186
			c4.317,0.056,7.915,0.19,10.433,0.243C2481.217,96.01,2482.656,96.058,2482.656,96.058z"/>
	</g>
	<g>
		<path fill="#35377A" d="M751.012,96.058c0,0-1.439,0.056-3.957,0.153c-2.518,0.066-6.115,0.219-10.431,0.297
			c-4.317,0.072-9.352,0.221-14.749,0.263c-5.396,0.045-11.151,0.093-16.906,0.142c-5.756-0.018-11.512-0.036-16.908-0.053
			c-5.396-0.01-10.432-0.137-14.75-0.186c-4.316-0.054-7.914-0.191-10.433-0.244c-2.519-0.084-3.957-0.133-3.957-0.133
			s1.438-0.056,3.956-0.153c2.519-0.066,6.115-0.221,10.432-0.298c4.316-0.071,9.353-0.224,14.748-0.262
			c5.396-0.045,11.151-0.093,16.907-0.141c5.756,0.018,11.511,0.037,16.907,0.054c5.396,0.014,10.433,0.137,14.749,0.186
			c4.317,0.056,7.915,0.19,10.433,0.243C749.572,96.01,751.012,96.058,751.012,96.058z"/>
	</g>
	<g>
		<path fill="#35377A" d="M454.295,96.058c0,0-1.438,0.056-3.957,0.153c-2.518,0.066-6.115,0.219-10.431,0.297
			c-4.317,0.072-9.353,0.221-14.749,0.263c-5.396,0.045-11.151,0.093-16.907,0.142c-5.756-0.018-11.512-0.036-16.907-0.053
			c-5.396-0.01-10.433-0.137-14.75-0.186c-4.317-0.054-7.915-0.191-10.433-0.244c-2.518-0.084-3.957-0.133-3.957-0.133
			s1.438-0.056,3.957-0.153c2.518-0.066,6.115-0.221,10.431-0.298c4.317-0.071,9.353-0.224,14.749-0.262
			c5.396-0.045,11.151-0.093,16.907-0.141c5.756,0.018,11.512,0.037,16.907,0.054c5.396,0.014,10.433,0.137,14.75,0.186
			c4.317,0.056,7.915,0.19,10.433,0.243C452.856,96.01,454.295,96.058,454.295,96.058z"/>
	</g>
	<g>
		<path fill="#35377A" d="M316.834,96.058c0,0-1.439,0.056-3.957,0.153c-2.518,0.066-6.115,0.219-10.432,0.297
			c-4.316,0.072-9.352,0.221-14.748,0.263c-5.396,0.045-11.151,0.093-16.907,0.142c-5.755-0.018-11.511-0.036-16.907-0.053
			c-5.396-0.01-10.432-0.137-14.75-0.186c-4.316-0.054-7.914-0.191-10.433-0.244c-2.519-0.084-3.957-0.133-3.957-0.133
			s1.438-0.056,3.956-0.153c2.519-0.066,6.115-0.221,10.432-0.298c4.316-0.071,9.353-0.224,14.748-0.262
			c5.396-0.045,11.151-0.093,16.907-0.141c5.755,0.018,11.511,0.037,16.907,0.054c5.396,0.014,10.432,0.137,14.749,0.186
			c4.317,0.056,7.915,0.19,10.433,0.243C315.396,96.01,316.834,96.058,316.834,96.058z"/>
	</g>
	<g>
		<path fill="#35377A" d="M177.938,96.058c0,0-1.439,0.056-3.957,0.153c-2.518,0.066-6.115,0.219-10.431,0.297
			c-4.317,0.072-9.352,0.221-14.749,0.263c-5.396,0.045-11.151,0.093-16.906,0.142c-5.756-0.018-11.512-0.036-16.908-0.053
			c-5.396-0.01-10.432-0.137-14.75-0.186c-4.316-0.054-7.914-0.191-10.433-0.244c-2.519-0.084-3.957-0.133-3.957-0.133
			s1.438-0.056,3.956-0.153c2.519-0.066,6.115-0.221,10.432-0.298c4.316-0.071,9.353-0.224,14.748-0.262
			c5.396-0.045,11.151-0.093,16.907-0.141c5.756,0.018,11.511,0.037,16.907,0.054c5.396,0.014,10.433,0.137,14.749,0.186
			c4.317,0.056,7.915,0.19,10.433,0.243C176.498,96.01,177.938,96.058,177.938,96.058z"/>
	</g>
	<g>
		<path fill="#35377A" d="M2046.066,96.058c0,0-1.438,0.056-3.957,0.153c-2.518,0.066-6.114,0.219-10.431,0.297
			c-4.317,0.072-9.353,0.221-14.749,0.263c-5.396,0.045-11.151,0.093-16.906,0.142c-5.756-0.018-11.512-0.036-16.907-0.053
			c-5.396-0.01-10.433-0.137-14.75-0.186c-4.316-0.054-7.914-0.191-10.433-0.244c-2.519-0.084-3.957-0.133-3.957-0.133
			s1.438-0.056,3.956-0.153c2.519-0.066,6.115-0.221,10.432-0.298c4.316-0.071,9.353-0.224,14.748-0.262
			c5.396-0.045,11.151-0.093,16.907-0.141c5.756,0.018,11.512,0.037,16.907,0.054c5.396,0.014,10.433,0.137,14.749,0.186
			c4.317,0.056,7.915,0.19,10.433,0.243C2044.627,96.01,2046.066,96.058,2046.066,96.058z"/>
	</g>
	<g>
		<path fill="#35377A" d="M2617.914,96.058c0,0-1.438,0.056-3.956,0.153c-2.519,0.066-6.115,0.219-10.432,0.297
			c-4.316,0.072-9.353,0.221-14.748,0.263c-5.396,0.045-11.151,0.093-16.907,0.142c-5.756-0.018-11.511-0.036-16.907-0.053
			c-5.396-0.01-10.433-0.137-14.749-0.186c-4.317-0.054-7.915-0.191-10.433-0.244c-2.519-0.084-3.958-0.133-3.958-0.133
			s1.439-0.056,3.957-0.153c2.518-0.066,6.114-0.221,10.432-0.298c4.316-0.071,9.352-0.224,14.748-0.262
			c5.396-0.045,11.151-0.093,16.906-0.141c5.756,0.018,11.512,0.037,16.908,0.054c5.396,0.014,10.432,0.137,14.749,0.186
			c4.316,0.056,7.914,0.19,10.433,0.243C2616.476,96.01,2617.914,96.058,2617.914,96.058z"/>
	</g>
</g>
</svg>
