<?xml version="1.0" encoding="utf-8"?>
<!-- Generator: Adobe Illustrator 16.0.4, SVG Export Plug-In . SVG Version: 6.00 Build 0)  -->
<!DOCTYPE svg PUBLIC "-//W3C//DTD SVG 1.1//EN" "http://www.w3.org/Graphics/SVG/1.1/DTD/svg11.dtd">
<svg version="1.1" id="Layer_1" xmlns="http://www.w3.org/2000/svg" xmlns:xlink="http://www.w3.org/1999/xlink" x="0px" y="0px"
	 width="2560.927px" height="659.134px" viewBox="0 0 2560.927 659.134" enable-background="new 0 0 2560.927 659.134"
	 xml:space="preserve">
<rect x="-1897.196" y="322.936" transform="matrix(0.9999 0.0161 -0.0161 0.9999 18.5009 10.0397)" fill="none" width="2565.038" height="1663.691"/>
<rect x="1.21" y="2" fill="#CEECF7" width="2566.527" height="397.191"/>
<g>
	<rect y="412.494" fill="#6CC5DD" width="2560.927" height="246.64"/>
	<polygon fill="#6CC5DD" points="2.554,313.801 0.969,491.744 2561.208,436.215 2561.208,318.158 	"/>
</g>
<g>
	<path fill-rule="evenodd" clip-rule="evenodd" fill="#93D8EB" d="M561.722,373.578c-1.459,0-2.908,0-4.348,0
		c-14.978,3.721-36.297,8.978-68.97,17.044c-39.06,9.646-109.344,27.003-298.434,73.692v5.936
		c196.643-51.187,267.467-69.583,306.118-79.621C527.188,382.553,547.473,377.291,561.722,373.578z"/>
	<path fill-rule="evenodd" clip-rule="evenodd" fill="#93D8EB" d="M653.986,373.578c-1.487,0-2.966,0-4.435,0
		c1.144,3.738,2.747,9.059,5.259,17.231c3.942,12.828,12.168,39.331,41.723,132.334h35.381v-1.038
		c-48.379-92.185-62.2-118.527-68.896-131.288C658.726,382.637,655.941,377.327,653.986,373.578z"/>
	<path fill-rule="evenodd" clip-rule="evenodd" fill="#93D8EB" d="M328.131,523.144c12.01-6.688,23.237-12.928,32.822-18.21
		c6.607,0.053,13.351,0.105,20.098,0.16c-8.766,5.244-19.038,11.424-30.051,18.05H328.131L328.131,523.144z M605.845,374.211
		c-0.974-0.001-1.938-0.001-2.903-0.001c0.368-0.199,0.734-0.397,1.109-0.596c0.929,0,1.878,0,2.825,0
		C606.537,373.812,606.197,374.012,605.845,374.211L605.845,374.211z M603.613,375.493c-1.033-0.001-2.064-0.003-3.086-0.005
		c0.422-0.215,0.833-0.432,1.243-0.648c0.991,0.002,1.994,0.002,2.995,0.002C604.375,375.06,603.992,375.275,603.613,375.493
		L603.613,375.493z M601.087,376.92c-1.083-0.004-2.181-0.006-3.265,0.012c0.466-0.252,0.931-0.505,1.398-0.758
		c1.041,0.002,2.104,0.004,3.166,0.004C601.963,376.432,601.529,376.666,601.087,376.92L601.087,376.92z M598.246,378.545
		c-1.167-0.004-2.336-0.007-3.492-0.009c0.544-0.29,1.074-0.56,1.586-0.829c1.12,0.002,2.25,0.004,3.379-0.012
		C599.232,377.967,598.74,378.255,598.246,378.545L598.246,378.545z M595,380.386c-1.25,0.014-2.502,0.01-3.74,0.007
		c0.612-0.324,1.237-0.648,1.814-0.955c1.194,0.002,2.392-0.012,3.599-0.008C596.135,379.735,595.568,380.061,595,380.386
		L595,380.386z M591.246,382.533c-1.346-0.004-2.692-0.01-4.012-0.014c0.713-0.379,1.422-0.757,2.082-1.1
		c1.281,0.004,2.579-0.01,3.875-0.005C592.578,381.775,591.908,382.154,591.246,382.533L591.246,382.533z M586.889,385.007
		c-1.457,0.013-2.915,0.007-4.355,0c0.838-0.432,1.67-0.882,2.443-1.279c1.385-0.013,2.784-0.007,4.17-0.002
		C588.429,384.141,587.667,384.575,586.889,385.007L586.889,385.007z M581.744,387.951c-1.588-0.008-3.16,0.002-4.732-0.006
		c1.006-0.541,1.959-1.045,2.875-1.533c1.505,0.008,3.023-0.004,4.544,0.004C583.578,386.904,582.693,387.408,581.744,387.951
		L581.744,387.951z M575.596,391.472c-1.744-0.009-3.49-0.003-5.217-0.013c1.241-0.646,2.366-1.242,3.473-1.838
		c1.646,0.01,3.308,0,4.97,0.009C577.777,390.208,576.73,390.822,575.596,391.472L575.596,391.472z M568.087,395.77
		c-1.915-0.014-3.853-0.008-5.769-0.018c1.506-0.795,2.867-1.533,4.248-2.256c1.798-0.006,3.635,0.004,5.469,0.016
		C570.771,394.233,569.506,394.956,568.087,395.77L568.087,395.77z M558.764,401.113c-2.175,0.002-4.349-0.012-6.5-0.01
		c1.889-0.99,3.603-1.91,5.316-2.829c2.027-0.005,4.074,0.008,6.124,0.003C562.09,399.199,560.496,400.119,558.764,401.113
		L558.764,401.113z M546.869,407.957c-2.479-0.002-4.956-0.02-7.41-0.021c2.365-1.262,4.592-2.451,6.842-3.641
		c2.291-0.002,4.584-0.003,6.898,0.014C551.132,405.5,549.065,406.692,546.869,407.957L546.869,407.957z M531.084,417.037
		c-2.881-0.005-5.764-0.012-8.582-0.016c3.086-1.658,6.093-3.281,9.098-4.885c2.636,0.001,5.301,0.004,7.965,0.008
		C536.773,413.771,533.954,415.377,531.084,417.037L531.084,417.037z M509.192,429.711c-3.44-0.011-6.883-0.023-10.29-0.035
		c4.283-2.309,8.597-4.598,12.874-6.905c3.103,0.009,6.238,0.019,9.342,0.026C517.146,425.109,513.17,427.4,509.192,429.711
		L509.192,429.711z M476.549,448.707c-4.282-0.023-8.517-0.047-12.753-0.051c6.58-3.568,13.156-7.139,19.432-10.545
		c3.775,0.017,7.592,0.033,11.406,0.051C488.807,441.575,482.658,445.132,476.549,448.707L476.549,448.707z M423.151,480.104
		c-5.657-0.04-11.312-0.079-16.909-0.12c11.383-6.217,22.814-12.455,32.793-17.898c4.82,0.029,9.692,0.061,14.513,0.072
		C444.282,467.629,433.719,473.859,423.151,480.104z"/>
	<path fill-rule="evenodd" clip-rule="evenodd" fill="#93D8EB" d="M296.996,523.144v-20.595
		c20.231-8.925,37.809-16.652,54.082-23.795c12.152,0.07,24.361,0.16,36.572,0.232c-23.93,12.077-51.087,25.812-87.069,44.157
		H296.996L296.996,523.144z M296.996,498.646c17.078-7.33,32.314-13.854,46.572-19.95c-12.096-0.072-24.248-0.16-36.343-0.23
		l-10.229,3.885V498.646L296.996,498.646z M296.996,479.475l2.834-1.051l-2.834-0.021V479.475z M296.996,478.402v1.072
		c-13.551,5.025-27.9,10.35-43.593,16.186v-14.01l10.372-3.472C274.867,478.259,285.91,478.324,296.996,478.402L296.996,478.402z
		 M296.996,482.35c-13.485,5.123-27.844,10.58-43.593,16.576v18.469c15.915-6.857,30.312-13.047,43.593-18.749V482.35
		L296.996,482.35z M296.996,502.549v20.595h-43.593v-1.319C269.328,514.77,283.734,508.401,296.996,502.549L296.996,502.549z
		 M253.403,479.115l2.978-0.977l-2.978-0.02V479.115z M201.678,477.782c3.896,0.024,7.797,0.05,11.709,0.073l-11.709,3.436V477.782
		L201.678,477.782z M253.403,478.119c-10.931-0.066-21.856-0.145-32.733-0.207l-18.992,5.674v12.507
		c18.713-6.146,35.713-11.724,51.726-16.978V478.119L253.403,478.119z M253.403,481.65v14.01
		c-15.713,5.842-32.771,12.194-51.726,19.27v-15.955C220.452,492.682,237.465,486.985,253.403,481.65L253.403,481.65z
		 M253.403,498.926c-15.687,5.973-32.755,12.482-51.726,19.736v4.481h38.389c4.564-1.97,9.008-3.884,13.337-5.749V498.926
		L253.403,498.926z M253.403,521.824v1.319h-2.976L253.403,521.824z M189.971,477.705l11.707,0.077v3.509l-11.707,3.437V477.705
		L189.971,477.705z M201.678,483.586l-11.707,3.498v12.854l11.707-3.846V483.586L201.678,483.586z M201.678,498.975v15.955
		l-11.707,4.374v-16.401L201.678,498.975L201.678,498.975z M201.678,518.662l-11.707,4.48v0.001h11.707V518.662z"/>
	<path fill-rule="evenodd" clip-rule="evenodd" fill="#93D8EB" d="M592.226,374.797v-0.245c0.625-0.27,1.243-0.532,1.843-0.794
		c2.094,0.002,4.187,0.002,6.281,0.002c-0.682,0.342-1.398,0.682-2.117,1.043L592.226,374.797L592.226,374.797z M592.226,373.996
		l0.566-0.238l-0.566-0.002V373.996z M592.226,373.756v0.24c-0.622,0.262-1.259,0.525-1.904,0.801l-5.832-0.004v-0.271
		c0.689-0.255,1.368-0.514,2.03-0.766H592.226L592.226,373.756z M592.226,374.552l-0.567,0.245h0.567V374.552L592.226,374.552z
		 M584.489,374.031l0.744-0.275h-0.744V374.031z M584.489,373.756v0.275c-0.684,0.254-1.378,0.512-2.079,0.76
		c-1.881,0-3.761,0.01-5.641,0.014v-0.308l2.201-0.741H584.489L584.489,373.756z M584.489,374.521
		c-0.245,0.09-0.493,0.182-0.742,0.271h0.742V374.521L584.489,374.521z M576.77,374.057l0.914-0.301h-0.914V374.057z
		 M569.049,373.756h1.097l-1.097,0.322V373.756L569.049,373.756z M576.77,373.756h-5.339l-2.382,0.715v0.329l5.458,0.005
		c0.764-0.252,1.521-0.502,2.263-0.748V373.756L576.77,373.756z M576.77,374.497v0.308h-0.914L576.77,374.497z M563.892,373.756
		h5.157v0.322c-0.797,0.237-1.61,0.479-2.433,0.721c-2.185-0.002-4.37-0.003-6.544-0.004
		C561.367,374.441,562.652,374.09,563.892,373.756L563.892,373.756z M569.049,374.471l-1.096,0.329h1.096V374.471z"/>
	<path fill-rule="evenodd" clip-rule="evenodd" fill="#93D8EB" d="M570.961,523.144v-12.54c5.023-11.758,9.231-21.493,13.078-30.354
		c12.726,0.094,25.51,0.168,38.292,0.244c-1.673,11.787-3.539,25.11-5.861,42.649H570.961L570.961,523.144z M570.961,490.96
		c1.859-3.761,3.63-7.323,5.34-10.753l-5.34-0.037V490.96L570.961,490.96z M677.775,523.144h-50.998
		c1.295-17.517,2.375-30.832,3.351-42.589c12.839,0.076,25.681,0.17,38.635,0.246C671.209,492.514,674.037,505.751,677.775,523.144z
		 M570.961,480.17v10.79c-4.55,9.211-9.637,19.614-15.718,32.184h-37.616v-16.771c7.838-10.03,14.577-18.566,20.783-26.406
		C549.248,480.029,560.086,480.094,570.961,480.17L570.961,480.17z M570.961,510.604c-1.682,3.938-3.455,8.104-5.337,12.54h5.337
		V510.604L570.961,510.604z M517.627,495.279c4.656-5.506,8.957-10.567,13.045-15.373c-4.352-0.025-8.699-0.054-13.045-0.082
		V495.279z M464.542,479.482c6.942,0.043,13.894,0.084,20.844,0.124c-6.47,5.373-13.322,11.071-20.844,17.354V479.482
		L464.542,479.482z M517.627,479.824c-8.182-0.055-16.359-0.109-24.559-0.156c-8.562,7.48-17.824,15.594-28.526,25.029v18.446
		h29.739c8.846-10.649,16.479-19.739,23.346-27.864V479.824L517.627,479.824z M517.627,506.373v16.771h-13.041
		C509.277,517.086,513.598,511.533,517.627,506.373z M448.127,479.37c5.462,0.041,10.935,0.077,16.415,0.112v17.478
		c-9.217,7.695-19.438,16.267-31.197,26.184h-50.457C409.77,505.006,430.141,491.369,448.127,479.37L448.127,479.37z
		 M464.542,504.697c-6.386,5.629-13.28,11.729-20.845,18.446h20.845V504.697z"/>
	<path fill-rule="evenodd" clip-rule="evenodd" fill="#93D8EB" d="M610.615,373.76c2.105,0,4.2,0,6.293,0
		c-0.424,0.346-0.862,0.691-1.31,1.035c-2.194-0.001-4.4-0.002-6.595-0.004C609.555,374.447,610.094,374.104,610.615,373.76
		L610.615,373.76z M640.977,373.763c2.104,0,4.207,0.001,6.322,0.001c0.06,0.333,0.131,0.684,0.193,1.035
		c-2.216-0.002-4.43-0.004-6.637-0.005C640.898,374.444,640.938,374.094,640.977,373.763L640.977,373.763z M633.381,373.762
		c2.103,0,4.196,0.001,6.311,0.001c-0.06,0.331-0.121,0.681-0.183,1.031c-2.216-0.003-4.42-0.003-6.635,0.013
		C633.05,374.439,633.213,374.092,633.381,373.762L633.381,373.762z M625.781,373.762c2.104,0,4.209,0,6.304,0
		c-0.179,0.33-0.373,0.678-0.56,1.045c-2.205-0.002-4.411-0.004-6.615-0.006C625.201,374.438,625.496,374.09,625.781,373.762
		L625.781,373.762z M618.203,373.76c2.095,0,4.189,0.002,6.294,0.002c-0.307,0.328-0.622,0.674-0.945,1.039
		c-2.194-0.001-4.4-0.004-6.597-0.005C617.382,374.452,617.8,374.105,618.203,373.76z"/>
	<path fill="#93D8EB" d="M302.619,455.007c11.573,0.06,23.289,0.122,35.004,0.184l0,0c-1.614,0.552-0.11,1.073,4.561,1.603
		c4.73,0.533,11.947,0.807,21.383,0.854c8.956,0.045,17.234-0.139,24.804-0.615c7.512-0.473,12.063-1.051,13.762-1.787
		c2.018-0.877-0.089-1.543-6.254-2.041c-5.962-0.484-14.589-0.774-25.79-0.822c-2.002-0.01-3.962-0.021-5.92-0.021l0,0
		c2.398-0.873,4.8-1.729,7.326-2.656l0,0c2.082,0.021,4.164,0.033,6.249,0.043c15.383,0.068,24.359-0.398,26.581-1.299
		c0.873-0.354,0.352-0.619-1.636-0.84c-1.808-0.2-5.854-0.344-12.246-0.375c-9.198-0.045-15.552,0.324-18.893,1.062
		c-10.969-0.053-21.937-0.104-32.772-0.155c3.144-0.828,10.115-1.537,20.836-2.139c10.643-0.598,22.848-0.877,36.75-0.816
		c14.367,0.064,25.277,0.436,32.656,1.084c7.612,0.67,10.433,1.439,8.29,2.445c-1.949,0.916-9.278,1.779-21.851,2.408
		c19.041,0.736,26.531,2.155,22.334,4.291c-2.808,1.427-12.096,2.672-27.944,3.629c-15.916,0.965-34.061,1.359-54.094,1.258
		c-20.722-0.106-36.013-0.709-45.409-1.865C301.299,457.319,298.869,456.158,302.619,455.007L302.619,455.007z"/>
	<path fill="#93D8EB" d="M472.115,455.879c12.043,0.045,24.18,0.107,36.316,0.172l0,0c-0.472,0.381,1.672,0.88,6.537,1.479
		c5.016,0.618,13.32,0.951,24.768,1.016c10.202,0.058,18.801-0.201,25.648-0.704c6.843-0.505,10.541-1.17,11.004-1.918
		c0.49-0.788-2.479-1.504-8.928-2.111c-6.194-0.582-13.96-0.914-23.214-0.961c-10.479-0.053-19.852,0.341-28.046,1.033
		c-10.338-0.285-20.539-0.566-30.643-0.85c10.329-2.746,19.555-4.917,28.486-7.072c27.707,0.117,55.543,0.235,83.59,0.371
		c-0.335,0.715-0.668,1.447-1.029,2.126c-20.141-0.081-40.195-0.181-60.163-0.28l0,0c-2.998,0.781-5.991,1.541-9.098,2.357
		c7.36-0.295,15.783-0.363,25.414-0.324c17.362,0.071,31.728,0.699,43.218,1.87c11.889,1.209,17.761,2.527,17.375,3.979
		c-0.414,1.561-7.994,2.861-22.891,3.885c-15.163,1.039-33.147,1.418-53.721,1.31c-18.61-0.097-34.662-0.667-47.911-1.706
		C475.771,458.528,470.313,457.311,472.115,455.879L472.115,455.879z"/>
</g>
<g>
	<path fill-rule="evenodd" clip-rule="evenodd" fill="#93D8EB" d="M2157.279,338.649c1.588,0,3.162,0,4.726,0
		c16.273,4.821,39.438,11.632,74.939,22.083c42.439,12.498,118.809,34.988,324.266,95.482v7.69
		c-213.666-66.321-290.619-90.157-332.616-103.165C2194.804,350.276,2172.763,343.461,2157.279,338.649z"/>
	<path fill-rule="evenodd" clip-rule="evenodd" fill="#93D8EB" d="M2057.03,338.649c1.615,0,3.223,0,4.819,0
		c-1.243,4.844-2.987,11.736-5.715,22.325c-4.283,16.622-13.222,50.96-45.335,171.465h-38.443v-1.348
		c52.566-119.44,67.586-153.572,74.861-170.105C2051.881,350.387,2054.907,343.506,2057.03,338.649z"/>
	<path fill-rule="evenodd" clip-rule="evenodd" fill="#93D8EB" d="M2411.092,532.439h-24.85
		c-11.967-8.587-23.128-16.592-32.652-23.389c7.33-0.071,14.657-0.137,21.836-0.207
		C2385.842,515.688,2398.041,523.771,2411.092,532.439L2411.092,532.439z M2109.339,339.469c-0.383-0.258-0.753-0.516-1.12-0.773
		c1.028,0,2.06,0,3.068,0c0.408,0.258,0.807,0.514,1.207,0.772C2111.444,339.468,2110.397,339.468,2109.339,339.469
		L2109.339,339.469z M2111.763,341.131c-0.411-0.283-0.827-0.562-1.251-0.844c1.087-0.002,2.177-0.002,3.253-0.004
		c0.447,0.28,0.893,0.562,1.353,0.842C2114.006,341.127,2112.887,341.129,2111.763,341.131L2111.763,341.131z M2114.507,342.979
		c-0.479-0.328-0.949-0.633-1.41-0.961c1.152,0,2.309-0.004,3.439-0.006c0.507,0.328,1.014,0.656,1.52,0.981
		C2116.876,342.973,2115.685,342.975,2114.507,342.979L2114.507,342.979z M2117.595,345.084c-0.538-0.375-1.072-0.75-1.602-1.101
		c1.227,0.021,2.455,0.019,3.674,0.015c0.555,0.35,1.131,0.699,1.721,1.074C2120.133,345.075,2118.864,345.08,2117.595,345.084
		L2117.595,345.084z M2121.122,347.47c-0.618-0.423-1.234-0.843-1.816-1.241c1.311-0.003,2.611,0.016,3.909,0.012
		c0.628,0.396,1.306,0.816,1.97,1.238C2123.841,347.482,2122.48,347.486,2121.122,347.47L2121.122,347.47z M2125.2,350.252
		c-0.719-0.491-1.445-0.981-2.113-1.449c1.408-0.006,2.817,0.012,4.211,0.007c0.717,0.444,1.486,0.935,2.262,1.425
		C2128.126,350.24,2126.664,350.246,2125.2,350.252L2125.2,350.252z M2129.935,353.457c-0.846-0.559-1.672-1.122-2.453-1.66
		c1.507-0.006,3.026-0.015,4.532,0.002c0.839,0.516,1.743,1.1,2.654,1.658C2133.103,353.467,2131.519,353.473,2129.935,353.457
		L2129.935,353.457z M2135.525,357.27c-1.03-0.701-1.994-1.355-2.919-1.986c1.652-0.01,3.302,0.004,4.936-0.006
		c0.997,0.633,2.033,1.286,3.125,1.988C2138.959,357.275,2137.251,357.262,2135.525,357.27L2135.525,357.27z M2142.206,361.833
		c-1.232-0.841-2.371-1.637-3.506-2.386c1.808-0.012,3.612,0.001,5.402-0.012c1.201,0.771,2.424,1.543,3.771,2.382
		C2145.997,361.83,2144.103,361.82,2142.206,361.833L2142.206,361.833z M2150.363,367.401c-1.54-1.054-2.915-1.99-4.288-2.925
		c1.993-0.016,3.989-0.027,5.94-0.02c1.502,0.936,2.98,1.893,4.616,2.921C2154.552,367.391,2152.446,367.385,2150.363,367.401
		L2150.363,367.401z M2160.495,374.326c-1.883-1.287-3.614-2.48-5.367-3.675c2.226,0.007,4.45-0.011,6.652-0.004
		c1.863,1.189,3.725,2.382,5.777,3.665C2165.22,374.311,2162.858,374.328,2160.495,374.326L2160.495,374.326z M2173.42,383.192
		c-2.388-1.638-4.633-3.183-6.879-4.726c2.515-0.023,5.006-0.02,7.495-0.02c2.446,1.543,4.863,3.084,7.435,4.718
		C2178.805,383.167,2176.111,383.19,2173.42,383.192L2173.42,383.192z M2190.571,394.959c-3.119-2.152-6.184-4.232-9.215-6.34
		c2.893-0.004,5.791-0.01,8.652-0.012c3.268,2.078,6.533,4.182,9.888,6.33C2196.832,394.944,2193.701,394.952,2190.571,394.959
		L2190.571,394.959z M2214.356,411.381c-4.32-2.994-8.643-5.965-12.958-8.959c3.372-0.012,6.78-0.023,10.151-0.035
		c4.648,2.99,9.334,5.957,13.987,8.947C2221.835,411.35,2218.095,411.365,2214.356,411.381L2214.356,411.381z M2249.825,435.991
		c-6.638-4.631-13.318-9.239-19.649-13.661c4.145-0.023,8.292-0.045,12.394-0.066c6.819,4.414,13.965,9.039,21.113,13.664
		C2259.079,435.932,2254.478,435.961,2249.825,435.991L2249.825,435.991z M2274.817,453.42c5.237-0.016,10.532-0.055,15.77-0.092
		c10.841,7.053,23.262,15.135,35.631,23.191c-6.082,0.053-12.227,0.102-18.371,0.154
		C2296.364,468.58,2284.886,460.508,2274.817,453.42z"/>
	<path fill-rule="evenodd" clip-rule="evenodd" fill="#93D8EB" d="M2444.919,532.439h-3.894
		c-39.098-23.771-68.604-41.566-94.606-57.215c13.269-0.096,26.535-0.21,39.737-0.302c17.684,9.257,36.781,19.267,58.763,30.833
		V532.439L2444.919,532.439z M2444.919,500.697v-21.115l-11.115-5.034c-13.14,0.092-26.344,0.208-39.488,0.3
		C2409.81,482.747,2426.364,491.199,2444.919,500.697L2444.919,500.697z M2444.919,474.469l-3.078,0.027l3.078,1.361V474.469z
		 M2444.919,474.469c12.047-0.103,24.044-0.187,36.098-0.29l11.27,4.497v18.154c-17.051-7.562-32.641-14.461-47.367-20.973V474.469
		L2444.919,474.469z M2444.919,479.582v21.115c14.434,7.387,30.074,15.406,47.367,24.293V501.06
		C2475.174,493.29,2459.573,486.223,2444.919,479.582L2444.919,479.582z M2444.919,505.756
		c14.412,7.582,30.064,15.832,47.367,24.973v1.711h-47.367V505.756L2444.919,505.756z M2492.286,474.102l-3.234,0.025l3.234,1.264
		V474.102z M2548.489,473.665v4.546l-12.723-4.451C2540.017,473.729,2544.257,473.697,2548.489,473.665L2548.489,473.665z
		 M2492.286,474.102v1.289c17.399,6.809,35.869,14.035,56.203,21.998v-16.205l-20.635-7.35
		C2516.036,473.916,2504.165,474.016,2492.286,474.102L2492.286,474.102z M2492.286,478.676
		c17.317,6.912,35.804,14.293,56.203,22.448v20.671c-20.596-9.164-39.131-17.396-56.203-24.965V478.676L2492.286,478.676z
		 M2492.286,501.06v23.931c4.704,2.416,9.533,4.897,14.49,7.449h41.713v-5.806C2527.876,517.234,2509.331,508.798,2492.286,501.06
		L2492.286,501.06z M2495.519,532.439h-3.232v-1.711L2495.519,532.439z M2561.21,473.564v9.098l-12.721-4.451v-4.546
		L2561.21,473.564L2561.21,473.564z M2548.489,481.184v16.205l12.721,4.984v-16.656L2548.489,481.184L2548.489,481.184z
		 M2548.489,501.124l12.721,5.089v21.251l-12.721-5.669V501.124L2548.489,501.124z M2548.489,532.439h12.721v-0.002l-12.721-5.804
		V532.439z"/>
	<path fill-rule="evenodd" clip-rule="evenodd" fill="#93D8EB" d="M2124.136,340.229l-6.527,0.006
		c-0.781-0.467-1.559-0.908-2.299-1.352c2.275,0,4.551,0,6.824-0.002c0.653,0.34,1.324,0.68,2.002,1.029V340.229L2124.136,340.229z
		 M2124.136,338.881h-0.613l0.613,0.311V338.881z M2124.136,338.881h6.201c0.719,0.324,1.457,0.66,2.205,0.99v0.352l-6.336,0.006
		c-0.702-0.355-1.395-0.699-2.07-1.037V338.881L2124.136,338.881z M2124.136,339.91v0.318h0.618L2124.136,339.91L2124.136,339.91z
		 M2132.542,338.879l-0.809,0.002l0.809,0.355V338.879z M2132.542,338.879h5.997l2.392,0.96v0.397
		c-2.042-0.004-4.086-0.018-6.129-0.016c-0.762-0.321-1.518-0.656-2.26-0.984V338.879L2132.542,338.879z M2132.542,339.871v0.352
		h0.807C2133.079,340.105,2132.809,339.988,2132.542,339.871L2132.542,339.871z M2140.931,338.879h-0.992l0.992,0.391V338.879z
		 M2149.32,338.879v0.418l-1.191-0.418H2149.32L2149.32,338.879z M2140.931,338.879v0.391c0.805,0.318,1.629,0.643,2.459,0.967
		l5.931-0.004v-0.428l-2.589-0.926H2140.931L2140.931,338.879z M2141.925,340.238l-0.994-0.002v-0.397L2141.925,340.238z
		 M2154.923,338.879c1.348,0.432,2.743,0.889,4.15,1.346c-2.363,0.002-4.736,0.004-7.11,0.006c-0.894-0.314-1.778-0.627-2.643-0.934
		v-0.418H2154.923L2154.923,338.879z M2149.32,340.232h1.188l-1.188-0.428V340.232z"/>
	<path fill-rule="evenodd" clip-rule="evenodd" fill="#93D8EB" d="M2147.243,532.439h-49.449c-2.522-22.725-4.55-39.99-6.368-55.262
		c13.888-0.097,27.778-0.193,41.606-0.314c4.18,11.479,8.75,24.093,14.211,39.328V532.439L2147.243,532.439z M2147.243,490.738
		v-13.98l-5.805,0.049C2143.296,481.25,2145.222,485.868,2147.243,490.738L2147.243,490.738z M2040.974,477.576
		c14.076-0.1,28.029-0.223,41.979-0.319c1.062,15.232,2.235,32.485,3.64,55.183h-55.411
		C2035.243,509.904,2038.315,492.752,2040.974,477.576z M2147.243,476.758c11.814-0.098,23.59-0.18,35.366-0.263
		c6.745,10.159,14.067,21.218,22.582,34.216v21.729h-40.872c-6.606-16.287-12.133-29.766-17.076-41.701V476.758L2147.243,476.758z
		 M2147.243,516.191v16.248h5.799C2150.997,526.693,2149.067,521.293,2147.243,516.191L2147.243,516.191z M2205.191,476.309
		c-4.722,0.039-9.444,0.074-14.174,0.107c4.442,6.227,9.116,12.787,14.174,19.92V476.309z M2262.872,475.867v22.646
		c-8.173-8.139-15.617-15.522-22.648-22.484C2247.775,475.975,2255.329,475.924,2262.872,475.867L2262.872,475.867z
		 M2205.191,476.309v20.027c7.462,10.527,15.756,22.305,25.367,36.104h32.313v-23.9c-11.628-12.227-21.693-22.74-30.996-32.43
		C2222.966,476.169,2214.082,476.24,2205.191,476.309L2205.191,476.309z M2219.362,532.439h-14.171v-21.729
		C2209.569,517.395,2214.265,524.59,2219.362,532.439z M2280.707,475.722c19.546,15.548,41.679,33.216,70.888,56.718h-54.824
		c-12.777-12.852-23.883-23.957-33.898-33.926v-22.646C2268.826,475.821,2274.772,475.776,2280.707,475.722L2280.707,475.722z
		 M2262.872,532.439h22.648c-8.22-8.704-15.711-16.608-22.648-23.9V532.439z"/>
	<path fill-rule="evenodd" clip-rule="evenodd" fill="#93D8EB" d="M2104.153,338.883c0.568,0.445,1.154,0.891,1.753,1.338
		c-2.384,0.002-4.782,0.004-7.167,0.006c-0.485-0.447-0.961-0.895-1.422-1.342C2099.591,338.885,2101.866,338.885,2104.153,338.883
		L2104.153,338.883z M2071.165,338.889c0.043,0.428,0.086,0.883,0.133,1.336c-2.398,0.002-4.804,0.004-7.213,0.006
		c0.069-0.457,0.146-0.91,0.211-1.34C2066.595,338.891,2068.878,338.889,2071.165,338.889L2071.165,338.889z M2079.419,338.887
		c0.182,0.43,0.361,0.879,0.551,1.355c-2.407-0.023-4.801-0.021-7.209-0.018c-0.066-0.453-0.134-0.908-0.198-1.336
		C2074.859,338.889,2077.136,338.887,2079.419,338.887L2079.419,338.887z M2087.675,338.887c0.312,0.424,0.632,0.877,0.949,1.346
		c-2.396,0.004-4.793,0.006-7.188,0.008c-0.204-0.475-0.416-0.924-0.608-1.354C2083.103,338.887,2085.39,338.887,2087.675,338.887
		L2087.675,338.887z M2097.267,340.227c-2.388,0.002-4.784,0.006-7.168,0.006c-0.35-0.473-0.693-0.922-1.026-1.346
		c2.285,0,4.562-0.002,6.839-0.002C2096.35,339.332,2096.803,339.781,2097.267,340.227z"/>
</g>
</svg>
