<?xml version="1.0" encoding="utf-8"?>
<!-- Generator: Adobe Illustrator 16.0.4, SVG Export Plug-In . SVG Version: 6.00 Build 0)  -->
<!DOCTYPE svg PUBLIC "-//W3C//DTD SVG 1.1//EN" "http://www.w3.org/Graphics/SVG/1.1/DTD/svg11.dtd">
<svg version="1.1" id="Layer_1" xmlns="http://www.w3.org/2000/svg" xmlns:xlink="http://www.w3.org/1999/xlink" x="0px" y="0px"
	 width="978.786px" height="141.138px" viewBox="0 0 978.786 141.138" enable-background="new 0 0 978.786 141.138"
	 xml:space="preserve">
<g>
	<path opacity="0.6" fill-rule="evenodd" clip-rule="evenodd" fill="#1C8EAE" d="M34.184,103.845c0,0-0.084,0.19,0.145,0.389
		c0.232,0.197,2.035,1.012,3.924,1.083s5.018-0.063,5.057-0.046c0.037,0.02,0.412,0.238,0.412,0.238l-0.096,0.258l0.691,1.305
		l0.01,0.148c0,0-0.535,0.008-0.695,0.04c-0.158,0.03-0.309,0.089-0.309,0.089s-0.334,0.123-0.271,0.512s0.207,0.496,0.318,0.58
		c0.113,0.084,1.172,0.236,1.172,0.236l0.201,3.459l0.109-0.016l0.08-0.197c0,0,0.207,0.111,0.508,0.154
		c0.301,0.044,0.811-0.084,0.811-0.084l-0.104-0.109l0.615-1.743l0.146-0.023l0.164-0.377l0.686-0.058l-0.576-0.317l0.262-0.915
		c0,0,1.182-0.146,1.734-0.26c0.553-0.113,0.543-0.331,0.543-0.331l0.363-0.132l-0.334-0.193c0,0-0.049-0.105-0.176-0.215
		c-0.129-0.107-1.572-0.312-1.572-0.312s0-0.18,0.086-0.234c0.088-0.053,0.24-0.122,0.24-0.122l0.791-1.075
		c0,0,0.34-0.068,0.59-0.205c0.248-0.138,0.354-0.211,0.354-0.211l0.576-0.172c0,0,2.9-0.336,4.277-0.732
		c1.375-0.396,2.217-0.748,2.217-0.748l0.377,1.235c0,0,0.084,0.067,0.594,0.006c0.508-0.061,0.666-0.159,0.666-0.159l0.861-2.144
		l0.645-0.335c0,0,0.094-0.168,0.049-0.337s-0.199-0.415-0.199-0.415l2.934-4.078l-1.148,0.049L58.906,99.8l-0.752-3.482
		l-1.225,0.052c0,0-1.438,3.216-1.561,3.513c-0.121,0.299-0.449,0.623-0.449,0.623l-0.346,0.215l-0.941-0.02l-0.072-0.17
		l0.172-0.106c0,0-0.564-0.101-0.777-0.097c-0.211,0.004-0.594-0.006-0.594-0.006l-0.34-0.053l-0.137-0.248l0.242-0.229l0.152-0.001
		l0.334-0.49l0.801-0.114l-0.551-0.265l0.08-0.16l1.152-1.523l0.961-0.145l-0.67-0.283l0.764-1.075l-0.113-0.101l2.32-3.062
		c0,0-0.729,0.078-0.965,0.113c-0.234,0.035-0.607,0.258-0.607,0.258l-7.135,7.21c0,0-0.625,0.091-0.916,0.134
		c-0.289,0.045-0.74,0.232-0.74,0.232s-0.166,0.273-0.15,0.402c0.01,0.129,0.01,0.129,0.01,0.129s-5.512,0.15-7.164,0.377
		s-2.75,0.55-3.049,0.617c-0.301,0.067-1.256,0.852-1.256,0.852S34.193,103.519,34.184,103.845z"/>
	<polygon opacity="0.6" fill-rule="evenodd" clip-rule="evenodd" fill="#1C8EAE" points="74.176,101.912 954.293,31.882 
		952.562,25.099 	"/>
</g>
</svg>
