<?xml version="1.0" encoding="utf-8"?>
<!-- Generator: Adobe Illustrator 16.0.4, SVG Export Plug-In . SVG Version: 6.00 Build 0)  -->
<!DOCTYPE svg PUBLIC "-//W3C//DTD SVG 1.1//EN" "http://www.w3.org/Graphics/SVG/1.1/DTD/svg11.dtd">
<svg version="1.1" id="Layer_1" xmlns="http://www.w3.org/2000/svg" xmlns:xlink="http://www.w3.org/1999/xlink" x="0px" y="0px"
	 width="1933.607px" height="336.86px" viewBox="0 0 1933.607 336.86" enable-background="new 0 0 1933.607 336.86"
	 xml:space="preserve">
<rect x="-1897.196" y="-441.238" transform="matrix(0.9999 0.0161 -0.0161 0.9999 6.2053 9.9407)" fill="none" width="2565.038" height="1663.691"/>
<path fill-rule="evenodd" clip-rule="evenodd" fill="#1C1F4F" d="M1880.313,247.207l-2.77,0.408l-0.377,1.018l-0.639,0.346h-0.951
	l0.357-1.374l-9.539-1.502l0.008,0.498l-2.529,3.191l0.246,0.231h-0.953v1.04h-1.273l-0.318,1.043l-0.451,2.407l0.055-0.016
	l-0.119,0.367l0.064-0.352l-4.639,1.41l1.799,1.579l-0.609,3.265l1.035,0.019l-1.219,0.833l-0.373,1.25
	c-1.42,0.414-0.916,0.414-0.633,1.736h-0.639v0.694l0.955,0.348l-0.385,1.718l0.701,0.364h2.865l0.955,0.348v1.736l-1.09,0.476
	l-1.457,2.301l-0.318,0.693l-0.943-0.002l-0.328-1.731h-0.955c-1.098,0-1.232,0.257-2.293,0.365l0.371,1.644l-2.215,0.422v-1.39
	c-0.574,0.419-0.559,0.693-1.273,0.693l-1.15-0.25l-1.396-1.136l-1.592,0.346l-10.137-0.011l-0.363-1.032l-0.318-1.041h-0.953
	v-1.736h-1.592l0.301-1.048l-0.359-1.009l-2.168-0.027c-0.105-1.355,0.191-1.052-0.957-1.389v2.086l-0.637,0.347l-1.908,0.346
	l-0.955-1.736c-0.854,0.223-0.6,0.346-1.273,0.346c-1.371,0-1.387-1.06-2.186-1.583l-2.906,0.891v-0.697h-1.59l0.014,0.957
	l-5.105-0.608v-0.698l-2.547,0.698h-0.318l-1.273,0.348l-0.035-0.873l-3.234,0.763l0.09,0.456h-0.955
	c-0.693,0-1.99,0.748-2.229,1.39l-0.955,1.04h-0.635v-0.694h-0.957l-0.004,1.418l-2.221-0.377v0.696h-0.957v-0.696h-1.59
	l0.002-1.129l-2.549,0.088c-0.35-1.65-2.004-2.551-3.184-1.736h-0.951c-0.576-0.419-0.562-0.694-1.273-0.694h-1.273v0.694
	c-1.096-0.318-0.844-0.694-1.273-0.694c-0.867,0-1.787,1.388-2.229,1.388c-0.869,0-1.037-0.694-1.908-0.694
	c-0.025,0-1.299,0.9-2.637,1.866c-0.422-0.38-0.916-0.803-1.396-0.803c-0.432,0-0.178,0.375-1.273,0.695v-0.695h-1.275
	c-0.711,0-0.695,0.276-1.271,0.695h-0.953c-1.178-0.815-2.832,0.085-3.184,1.735l-2.547-0.088l0.002,1.129h-1.59v0.695h-0.955
	v-0.695l-2.223,0.377l-0.008-1.419h-0.953v0.695h-0.637l-0.955-1.042c-0.234-0.64-1.533-1.388-2.227-1.388h-0.955l0.092-0.456
	l-3.238-0.764l-0.035,0.873l-1.273-0.348h-0.318l-2.545-0.697v0.697l-5.105,0.609l0.014-0.957h-1.592v0.696l-2.904-0.891
	c-0.803,0.523-0.814,1.584-2.186,1.584c-0.674,0-0.422-0.124-1.273-0.346l-0.955,1.735l-1.91-0.347l-0.635-0.346v-2.084
	c-1.146,0.335-0.854,0.032-0.957,1.389l-2.168,0.025l-0.361,1.009l0.303,1.049h-1.592v1.736h-0.953l-0.17,0.552l-0.562,0.45
	l-0.979-0.336l-0.303,1.051h-1.271l-0.02,0.36l-7.516,0.007l-1.59-0.348l-1.398,1.137l-1.148,0.25c-0.715,0-0.697-0.273-1.273-0.692
	v1.389l-2.213-0.422l0.371-1.643c-1.062-0.108-1.197-0.366-2.295-0.366h-0.955l-0.33,1.733l-0.943,0.002l-0.318-0.692l-1.455-2.301
	l-1.09-0.478v-1.734l0.955-0.348h2.863l0.701-0.364l-0.383-1.718l0.955-0.348v-0.694h-0.637c0.283-1.321,0.787-1.322-0.637-1.737
	l-0.373-1.249l-1.217-0.834l1.033-0.019l-0.609-3.265l1.803-1.578l-4.641-1.41l0.064,0.35l-0.119-0.366l0.055,0.016l-0.449-2.408
	l-0.32-1.042h-1.273v-1.042h-0.953l0.244-0.229l-2.527-3.19l0.008-0.501l-9.537,1.504l0.355,1.375h-0.955l-0.635-0.346l-0.379-1.019
	l-2.801-0.414c-0.336-0.013-2.758,0.628-3.186,0.736l-0.367,2.072l-2.164,0.448l-1.197,1.104l-0.09,1.585l-1.74,0.72l0.148,0.322
	h-0.953c-0.641-1.728-3.061-0.695-4.773-0.695h-1.91l-2.131,2.526l0.221,0.251c-1.338,0.159-2.32,1.772-5.729,2.084l-2.545-1.042
	c-0.191-0.786-0.307-1.39-1.275-1.39h-0.951v-1.042h-1.275c-0.611,0-0.566,0.11-0.953,0.348v-1.041l-0.953-0.695l-0.318-2.429
	h-1.592l-0.318-0.347l-0.318-1.39h-2.545v-1.735h0.635l-0.33-1.431l-1.262,0.389l-0.01-0.737l-1.262,0.39l-1.121-1.619l-2.379,1.271
	l-0.361-1.73l-3.879-0.973l0.102-0.421h-1.908v0.695h-0.953c-0.615,0-0.568,0.108-0.955,0.347v-1.042
	c-2.031,0.516-2.611,0.596-3.502,2.432l-1.908,1.041l-0.916,0.745l-1.299-0.44c-0.639,0.404-0.951,0.737-1.924,0.737
	c-0.85,0-0.941-0.5-1.27-1.041h-0.639v1.389l0.732,1.186l0.223,1.244h-0.955l0.357,1.375l-1.002-0.314l0.309,1.029l-0.619,0.34
	l-1.271,0.348c0.73,1.977,1.369-0.828,1.592,2.082h-2.23v1.042h-0.955l0.955,0.695l2.23,0.347v1.042l-2.582-0.002l0.035,2.78h-1.137
	l-0.121,1.317l1.574,0.418v0.695h-1.271v2.78l2.629-0.649l-0.719,1.688h-0.955c-1.037,0-0.242,0.3-1.594,0.693v1.737l-0.746,0.964
	l-2.434,0.432l0.883-0.823l0.072-1.269h-0.637l-0.279-2.437l-1.312,0.006v-1.389c0-0.661-1.205-2.43-1.91-2.43h-0.955l-1.273,2.084
	l-0.955-2.432l-0.951-0.346l-1.012,1.688l0.455,2.463l-0.719,0.015l-0.316-1.389c-1.322,0.335-1.475,0.206-1.592,1.735h-0.955v1.389
	h-0.955v2.083l-1.271,0.348l-0.955,1.389l-0.271,3.824l-3.865-0.005v-0.694l0.938,0.003l-0.561-1.882l-1.014-1.94l1.547-0.009
	l0.41-1.074l-0.684-1l-2.229-1.042v-1.041l-2.498-0.846l-0.047-0.543l1.273-0.348l1.068-1.529l0.512-0.094l-1.568-2.449l-0.33,0.254
	v-1.042h1.273l-0.805-2.721l-1.668-1.543l-0.076-0.944h0.639c-0.314-1.467-1.848-3.003-3.184-3.124l-0.262-1.405l-1.955,0.416
	l0.613-1.792l-1.578,0.004l-0.066-1.233l-1.531-0.925l-2.178,0.417l-0.361-1.384l-0.945,0.396l-0.012-0.743h-0.635l-1.129,1.946
	l-3.314,0.578l-0.01,1.643h-1.912c0.145-1.87,0.639-1.018,0.639-1.737c0-0.732-0.113-0.458-0.318-1.388
	c-1.875-0.171-0.666-0.695-1.91-0.695h-0.955v-1.735l-1.449-0.756l-1.098-0.286l-4.455-0.101l-0.316,0.796v-1.042l-1.723-1.162
	l-4.961-0.573l2.795,0.715l0.385,1.34l-4.77,0.375v0.694h0.955l-0.018,0.642l-0.619,0.4l-0.947,0.395l-0.01-0.743
	c-0.838,0.454,0.264,0.348-0.953,0.348l-0.955,0.346h-1.592v-0.694h-1.59v-1.042l-2.545,0.355l-0.002-1.397h-2.545l-0.232,1.755
	l-1.521-1.272l0.143-0.837l-1.572-0.34l-1.59-0.693l-0.637-1.736h-1.271v-1.042h0.637l-0.01-0.645l-0.945-0.396l-0.01-1.345
	l-4.447-1.086v-2.083l-3.168-0.761l-0.012-0.975l-5.027-1.631l-1.268-1.225l-3.576-0.22l0.004,0.646h-2.863l-0.955-0.051v0.396
	h-0.955l0.244-0.282l-2.471-2.496h-1.592l-0.34,3.47l-0.934-1.038h-1.908v1.734l0.621,0.398l-0.303,0.644
	c-0.377,1.536-0.709,1.041-2.547,1.041c-0.574,0.42-0.559,0.696-1.271,0.696h-0.957c-1.945,0-1.715-0.588-2.863-1.042v1.388h1.273
	l-0.307,3.127l-1.906-0.433l-0.398,1.802l-1.207,0.017v0.39l-2.041-1.633l-0.504,0.938l-3.816,0.408l0.375-1.077
	c-1.047,0.227-0.451,0.261-1.334,0.323l-1.594-0.075c-0.797,0.129-1.49-0.694-1.586-1.663h-0.955l0.316,1.738l2.289,1.066
	l-0.379,1.016h-1.592c-1.129,0.653-0.916-0.062-1.271,1.389l1.354,0.12l-1.037,0.922l-0.953,0.347h-2.227v-1.042
	c-2.191,0.2-0.742,0.844-1.594,2.778l-1.59,1.042l-3.098,1.287l-4.062,2.5l-0.158-0.315v0.694l0.955,0.347l3.818-1.042
	c-0.352,1.647-0.047,1.941-1.412,2.178l-1.141,2.356l1.279,0.673l0.318,1.042h0.955l-0.955,3.126l0.357,3.809l3.455-0.72
	l-1.582,3.16l-0.002,2.429l-0.008,1.778l2.246,0.308l-0.33,1.732c-1.488,0.378-1.869,0.822-1.908,2.778l0.74-0.15l1.488-2.671
	l1.908,0.391V273l-1.592,1.389v1.388h0.953v1.39h-0.953v0.694l-0.318,2.431c-2.328,1.7-2.547-0.231-2.547,4.514
	c-2.248,0.204-0.953,1.542-0.953,3.818l-0.932,0.413l-0.023,1.671v1.042h-1.273v-0.695h-0.955c-0.775,0-1.199,1.042-3.182,1.042
	h-0.318c-0.908,0-0.582-0.11-0.955-0.694c0.365-0.545,0.061-0.695,0.955-0.695h0.955l-0.74-2.386l-0.85-0.044v-0.695l1.148-1.245
	l-0.377,0.068l-1.316-1.333l-0.125-0.453l-0.807,1.813l-1.219,0.899l-0.805,0.25l-0.396-2.066l-0.879-1.059l0.379-1.016
	l-0.695-0.026l0.316-1.735v-0.696h-1.592l-0.617,0.377l-1.594-0.445l-1.107,3.481l-1.723,0.87l-0.051,2.315h-1.271l-2.822-2.824
	l0.266-0.344l-1.25,0.432l0.385-2.805l1.184,0.375l-0.82-1.535l-1.973,1.907l-0.609-2.526l0.596-0.971l-2.537-1.222l-0.055,3.957
	h-0.955c-0.859,0-0.877-0.166-1.592-0.346v0.692h-1.592c0.211,0.986,0.32,0.594,0.32,1.39c0,0.095-0.221,0.634-0.32,1.042h-0.953
	c-1.422,0-0.902,3.129-1.273,4.859h-1.271l-2.859-0.388l-0.006,0.734l-1.26-0.387l0.314,1.773l-0.646,0.005l0.998,0.979
	l-13.09,0.222v0.534h-1.91c-0.613,0-0.566,0.111-0.953,0.348l-0.318-0.695l-0.637-2.778l-1.578,0.426l-0.014,0.616h1.271v1.39
	l-2.5-0.85l-0.043-0.54h-0.637v-1.389h-2.545l-1.098,1.584l-0.176-1.237h-1.91l-0.635-1.734c-1.875,0.17-0.666,0.695-1.91,0.695
	h-1.273l-0.502-1.137l-0.135,1.137h-1.91l-0.318-0.695l-4.148-0.066l0.012-0.976h0.637l-0.316-0.694v-1.736h-1.275v-0.695
	l-1.266-0.395l-0.961-0.994l-1.596-0.042l0.004-1.346c-1.572,0.458-1.992,2.936-3.18,4.167h-0.957l0.385,1.716l-1.021,0.366
	l-0.635,0.348h-0.957c-0.125-0.514-0.055-1.042-0.635-1.042c-0.568,0-0.523,0.521-0.637,1.042h-0.953
	c-0.617,0-0.568,0.108-0.957,0.347l-0.318-0.347l-0.225-3.482l-1.684,0.009v-0.694c-0.561-0.581-0.955-0.841-0.955-2.083v-1.042
	l-2.17,0.863l-0.375-1.559c-1.492-0.134-1.574-0.695-3.184-0.695c-0.996,0-3.125,1.577-3.818,2.084
	c-0.854,0.223-0.6,0.348-1.271,0.348c-0.678,0-0.896-2.004-0.955-2.779l-0.998-0.02l0.678-2.063h-1.59l-0.055-1.233l-2.174-0.851
	v-1.388h-1.271l-0.01-1.756l-1.264,0.713c-0.449-0.242-0.527-0.346-1.271-0.346h-2.229c-1.055,0-0.664,0.693-1.271,0.693
	c-1.309,0-1.508-0.652-3.184-0.693v-1.389h-0.635l-0.623,0.377l-0.314-1.079l-1.611,0.008l-2.545,0.697l-0.637-0.352l-3.184,0.69
	l0.004-0.69h-1.273v1.39l-1.912,1.042l-0.014,2.154l-1.576-0.417v0.694h-1.59v0.694l-0.779,0.066l-1.133,3.405l-0.617,0.4
	l-0.018,1.336c-0.242,0.187-0.637,0.189-0.637,0.696c0,2.898-0.064,1.133-0.635,3.472h-1.273l-1.59-0.36l-0.066,2.442h-0.891v1.389
	l-1.271,0.349h-0.639v1.387h-1.271c-0.963,0-0.881-0.408-0.955-1.387h-0.955l-1.592-1.39l0.32-2.777h-0.955l-0.662-2.769
	l-0.932-0.01l-0.787-1.289l-3.338-0.524l-1.602,0.078l0.211,0.375l-1.957,1.302l0.107-0.583l-2.816-2.832l-2.225,0.03l-0.959-0.03
	l-0.355,1.376l-1.551-0.347c-0.189,0.786-0.076,1.055-0.957,1.055h-0.955v1.388h-0.635l-0.619-0.376l-0.18-3.434l-0.557-0.006
	l-0.867-0.401l0.008-0.296h-1.285v-0.694l-1.262,0.389l-0.896-0.857l-0.07-1.268h-1.271l-0.303-1.048l-0.977,0.335l-0.91-0.726
	l-1.945,0.442l-4.459,1.691l-0.955,0.694h-1.271c-0.371-0.766-0.277-1.389-1.273-1.389c-0.686,0-1.188,0.87-1.273,1.736l-1.898,0.4
	l-0.012,0.988l-6.043-0.717l-2.865-1.364l0.363-1.032l1.227-0.01v-0.694c-0.994,0.09-1.129,0.346-2.227,0.346h-0.955v-0.694h-1.273
	l-0.303,2.085l-1.686-0.423l0.326-0.003l1.275-1.389l-0.248-0.271h-0.957c-1.031,0-0.238,0.3-1.59,0.694v1.39l0.637,0.347
	l-0.955,0.347l-7.32-0.043v-0.999h-1.271v1.39h-3.182l-2.215,0.421l-0.012-2.158h-1.594v2.083h-2.227v-0.694h-0.955l-0.398-2.417
	l-0.666-1.326l-1.164-0.076l0.639-1.39c-0.328-0.338-5.674-4.165-5.729-4.165c-0.873,0-1.039,0.693-1.91,0.693
	c-0.438,0-1.357-1.389-2.227-1.389c-0.432,0-0.178,0.376-1.271,0.696v-0.696h-1.275c-0.711,0-0.699,0.276-1.271,0.696h-0.955
	c-1.178-0.816-2.83,0.085-3.184,1.735l-2.547-0.088l0.002,1.128h-1.59v0.696h-0.955v-0.696l-2.225,0.378l-0.004-1.419h-0.955v0.695
	h-0.635l-0.955-1.042c-0.238-0.64-1.535-1.388-2.229-1.388h-0.957l0.092-0.456l-3.236-0.764l-0.035,0.872l-1.273-0.348h-0.318
	l-2.545-0.697l-0.002,0.697l-5.104,0.61l0.012-0.958h-1.59v0.696l-2.906-0.891c-0.799,0.524-0.812,1.585-2.184,1.585
	c-0.674,0-0.42-0.125-1.273-0.346l-0.955,1.735l-1.91-0.347l-0.637-0.347v-2.084c-1.146,0.335-0.852,0.032-0.953,1.39l-2.168,0.024
	l-0.361,1.01l0.301,1.05h-1.592v1.735h-0.953l-0.318,1.042l-0.363,1.032l-10.137,0.011l-1.594-0.348l-1.396,1.136l-1.148,0.251
	c-0.713,0-0.699-0.274-1.271-0.694v1.389l-2.215-0.422l0.369-1.643c-1.061-0.107-1.195-0.364-2.293-0.364h-0.955l-0.328,1.732
	l-0.943,0.002l-0.318-0.694l-1.455-2.3l-1.09-0.478v-1.735l0.953-0.348h2.863l0.701-0.365l-0.383-1.718l0.955-0.348v-0.693h-0.637
	c0.281-1.321,0.787-1.322-0.637-1.737l-0.371-1.249l-1.221-0.833l1.037-0.019l-0.611-3.267l1.803-1.577l-4.643-1.409l0.066,0.35
	l-0.119-0.367l0.053,0.017l-0.447-2.41l-0.318-1.041h-1.273v-1.042h-0.955l0.244-0.229l-2.527-3.19l0.008-0.501l-9.537,1.504
	l0.357,1.375h-0.955l-0.635-0.347l-0.381-1.018l-2.799-0.414c-0.34-0.013-2.76,0.627-3.188,0.736l-0.367,2.072l-2.164,0.448
	l-1.195,1.104l-0.092,1.585l-1.74,0.719l0.148,0.322h-0.955c-0.639-1.728-3.057-0.694-4.771-0.694h-1.91l-2.131,2.526l0.221,0.252
	c-1.338,0.159-2.318,1.773-5.727,2.084l-2.547-1.042c-0.191-0.786-0.305-1.39-1.271-1.39h-0.955v-1.042h-1.273
	c-0.613,0-0.566,0.109-0.955,0.348v-1.042l-0.955-0.694l-0.316-2.429h-1.592l-0.318-0.348l-0.318-1.389h-2.547v-1.735h0.637
	l-0.33-1.432l-1.262,0.39l-0.01-0.738l-1.262,0.391l-1.125-1.619l-2.375,1.271l-0.359-1.731l-3.883-0.973l0.105-0.42h-1.91v0.694
	h-0.955c-0.613,0-0.566,0.11-0.955,0.348v-1.042c-2.027,0.516-2.609,0.596-3.5,2.431l-1.908,1.042l-0.918,0.744l-1.299-0.44
	c-0.637,0.404-0.949,0.737-1.92,0.737c-0.852,0-0.941-0.501-1.273-1.041h-0.637v1.389l0.734,1.186l0.221,1.244h-0.955l0.357,1.375
	l-1.002-0.314l0.309,1.028l-0.617,0.341l-1.275,0.348c0.732,1.977,1.369-0.829,1.592,2.082h-2.229v1.042h-0.953l0.953,0.695
	l2.229,0.347v1.042l-2.578-0.002l0.033,2.78h-1.139l-0.119,1.317l1.574,0.418v0.694h-1.273l0.002,2.781l2.629-0.649l-0.721,1.687
	h-0.953c-1.035,0-0.242,0.3-1.592,0.694v1.737l-0.748,0.965l-2.432,0.431l0.881-0.823l0.072-1.269h-0.639l-0.277-2.436l-1.312,0.006
	v-1.39c0-0.66-1.205-2.429-1.908-2.429h-0.955l-1.271,2.084l-0.957-2.432l-0.953-0.346l-1.016,1.688l0.459,2.464l-0.719,0.015
	l-0.318-1.389c-1.318,0.335-1.471,0.205-1.59,1.735h-0.955v1.389h-0.955v2.083l-1.271,0.347l-0.955,1.39l-0.273,3.823l-3.863-0.004
	v-0.694l0.938,0.002l-0.561-1.881l-1.014-1.94l1.547-0.008l0.408-1.074l-0.684-1.001l-2.227-1.041v-1.042l-2.498-0.846l-0.047-0.543
	l1.271-0.348l1.072-1.53l0.512-0.094l-1.568-2.448l-0.332,0.254v-1.041h1.271l-0.803-2.721l-1.668-1.544l-0.074-0.943h0.635
	c-0.312-1.467-1.846-3.003-3.182-3.124l-0.262-1.405l-1.953,0.416l0.611-1.794l-1.58,0.006l-0.064-1.233l-1.533-0.926l-2.176,0.417
	l-0.361-1.383l-0.947,0.396l-0.008-0.743h-0.635l-1.129,1.946l-3.318,0.578l-0.01,1.642h-1.908c0.141-1.87,0.635-1.018,0.635-1.737
	c0-0.733-0.111-0.458-0.316-1.388c-1.875-0.171-0.666-0.695-1.912-0.695h-0.953v-1.734l-1.449-0.756l-1.096-0.288l-4.457-0.101
	l-0.316,0.796v-1.042l-1.721-1.162l-4.963-0.574l2.795,0.715l0.385,1.341l-4.771,0.375v0.696h0.955l-0.016,0.642l-0.621,0.399
	l-0.943,0.396l-0.01-0.744c-0.838,0.455,0.264,0.348-0.955,0.348l-0.955,0.347h-1.59v-0.695h-1.592v-1.041l-2.545,0.354v-1.396
	h-2.547l-0.232,1.754l-1.521-1.271l0.145-0.837l-1.572-0.34l-1.594-0.694l-0.635-1.736h-1.271v-1.042h0.635l-0.008-0.644
	l-0.945-0.397l-0.012-1.344l-4.445-1.087v-2.083l-3.168-0.759l-0.014-0.976l-5.023-1.631l-1.27-1.226l-3.576-0.22l0.004,0.647
	h-2.863l-0.957-0.052v0.397h-0.953l0.244-0.282l-2.471-2.496h-1.59l-0.342,3.47l-0.934-1.038h-1.908v1.734l0.619,0.398l-0.301,0.643
	c-0.377,1.536-0.711,1.042-2.547,1.042c-0.574,0.419-0.561,0.696-1.271,0.696h-0.955c-1.949,0-1.717-0.59-2.865-1.042v1.388h1.273
	l-0.305,3.126l-1.908-0.432l-0.396,1.801l-1.209,0.018v62.841h540.025v0.305h385.088v-1.757h0.143V247.207z"/>
<path fill-rule="evenodd" clip-rule="evenodd" fill="#0A64A3" d="M978.896,284.108l2.77,0.138l0.379,0.342l0.637,0.117h0.951
	l-0.355-0.463l9.537-0.506l-0.008,0.168l2.529,1.073l-0.246,0.079h0.955v0.35h1.273l0.318,0.352l0.451,0.81l-0.055-0.005
	l0.117,0.123l-0.062-0.117l4.639,0.474l-1.801,0.531l0.609,1.1l-1.033,0.004l1.215,0.282l0.377,0.419
	c1.42,0.14,0.916,0.14,0.633,0.585h0.637v0.233l-0.957,0.117l0.389,0.579l-0.701,0.122h-2.867l-0.953,0.118v0.584l1.09,0.16
	l1.455,0.775l0.318,0.233l0.943-0.002l0.326-0.583h0.957c1.098,0,1.234,0.087,2.293,0.124l-0.371,0.552l2.217,0.143v-0.467
	c0.576,0.141,0.559,0.233,1.271,0.233l1.15-0.085l1.398-0.382l1.592,0.116l10.135-0.002l0.363-0.348l0.318-0.35h0.953v-0.584h1.592
	l-0.299-0.354l0.359-0.34l2.168-0.008c0.105-0.457-0.191-0.354,0.955-0.467v0.701l0.637,0.117l1.91,0.116l0.955-0.583
	c0.852,0.075,0.598,0.116,1.271,0.116c1.373,0,1.387-0.357,2.188-0.533l2.904,0.3v-0.234h1.59l-0.012,0.322l5.105-0.205v-0.234
	l2.545,0.234h0.318l1.271,0.117l0.037-0.293l3.236,0.255l-0.092,0.155h0.955c0.693,0,1.99,0.25,2.229,0.467l0.955,0.351h0.637
	v-0.234h0.955l0.006,0.477l2.221-0.126v0.234h0.957v-0.234h1.588v-0.379l2.547,0.029c0.352-0.556,2.006-0.858,3.184-0.583h0.953
	c0.574-0.142,0.561-0.234,1.271-0.234h1.275v0.234c1.096-0.108,0.842-0.234,1.271-0.234c0.869,0,1.789,0.466,2.229,0.466
	c0.869,0,1.037-0.231,1.91-0.231c0.025,0,1.299,0.303,2.635,0.627c0.422-0.128,0.916-0.271,1.398-0.271
	c0.432,0,0.178,0.127,1.273,0.234v-0.234h1.271c0.715,0,0.699,0.093,1.273,0.234h0.955c1.176-0.274,2.832,0.029,3.182,0.583
	l2.547-0.029l-0.002,0.38h1.59v0.234h0.955v-0.234l2.225,0.126l0.006-0.478h0.955v0.235h0.637l0.955-0.352
	c0.234-0.216,1.533-0.467,2.227-0.467h0.953l-0.09-0.153l3.236-0.258l0.037,0.296l1.273-0.119h0.318l2.545-0.234v0.234l5.104,0.207
	l-0.014-0.323h1.592v0.234l2.908-0.301c0.799,0.176,0.812,0.534,2.184,0.534c0.672,0,0.42-0.042,1.271-0.117l0.955,0.583l1.91-0.117
	l0.637-0.115v-0.702c1.146,0.111,0.854,0.009,0.955,0.467l2.168,0.008l0.361,0.34l-0.303,0.354h1.592v0.583h0.953l0.172,0.186
	l0.562,0.152l0.977-0.113l0.303,0.353h1.273l0.021,0.122l7.514,0.003l1.59-0.118l1.398,0.384l1.148,0.083
	c0.713,0,0.697-0.091,1.273-0.233v0.467l2.213-0.142l-0.371-0.553c1.062-0.037,1.195-0.123,2.295-0.123h0.953l0.33,0.582
	l0.943,0.001l0.316-0.233l1.457-0.774l1.09-0.161v-0.583l-0.953-0.118h-2.865l-0.701-0.123l0.383-0.577l-0.953-0.119v-0.233h0.635
	c-0.281-0.445-0.785-0.445,0.637-0.584l0.373-0.421l1.219-0.28l-1.035-0.006l0.611-1.099l-1.805-0.531l4.643-0.475l-0.066,0.118
	l0.121-0.124l-0.055,0.005l0.449-0.811l0.318-0.351h1.273v-0.349h0.953l-0.242-0.077l2.527-1.074l-0.01-0.168l9.537,0.506
	l-0.355,0.464h0.955l0.637-0.119l0.379-0.341l2.797-0.14c0.342-0.004,2.76,0.21,3.189,0.249l0.365,0.698l2.166,0.148l1.197,0.373
	l0.09,0.532l1.738,0.244l-0.146,0.107h0.955c0.639-0.581,3.057-0.233,4.771-0.233h1.908l2.131,0.85l-0.221,0.085
	c1.34,0.054,2.32,0.596,5.729,0.701l2.547-0.352c0.191-0.264,0.303-0.467,1.271-0.467h0.955v-0.35h1.273
	c0.613,0,0.566,0.036,0.953,0.116v-0.35l0.955-0.233l0.316-0.819h1.592l0.32-0.116l0.318-0.467h2.545v-0.584h-0.637l0.332-0.481
	l1.262,0.131l0.01-0.248l1.26,0.131l1.123-0.544l2.377,0.427l0.361-0.583l3.881-0.327l-0.104-0.141h1.912v0.234h0.951
	c0.615,0,0.566,0.037,0.955,0.116v-0.35c2.029,0.173,2.611,0.201,3.502,0.817l1.908,0.352l0.916,0.25l1.299-0.149
	c0.637,0.136,0.951,0.249,1.922,0.249c0.85,0,0.941-0.167,1.271-0.35h0.637v0.467l-0.732,0.399l-0.223,0.419h0.955l-0.355,0.462
	l1-0.104l-0.307,0.344l0.617,0.116l1.273,0.117c-0.73,0.665-1.369-0.279-1.592,0.702h2.229v0.35h0.955l-0.955,0.232l-2.229,0.119
	v0.35l2.582-0.001l-0.035,0.936h1.137l0.119,0.443l-1.574,0.14v0.234h1.273l-0.002,0.937l-2.627-0.218l0.719,0.568h0.955
	c1.033,0,0.24,0.101,1.592,0.232v0.585l0.748,0.324l2.432,0.145l-0.881-0.276l-0.072-0.427h0.637l0.279-0.821l1.311,0.003v-0.467
	c0-0.224,1.205-0.82,1.91-0.82h0.955l1.273,0.703l0.955-0.818l0.953-0.117l1.012,0.568l-0.457,0.829l0.719,0.005l0.318-0.467
	c1.32,0.113,1.473,0.068,1.59,0.584h0.955v0.466h0.955v0.701l1.273,0.117l0.953,0.468l0.273,1.286l3.863-0.001v-0.233h-0.938
	l0.562-0.632l1.012-0.653l-1.545-0.003l-0.41-0.362l0.684-0.336l2.227-0.351v-0.35l2.5-0.285l0.047-0.183l-1.273-0.116l-1.07-0.516
	l-0.512-0.032l1.568-0.824l0.332,0.084v-0.35h-1.273l0.805-0.915l1.666-0.52l0.076-0.316h-0.637
	c0.312-0.495,1.846-1.011,3.184-1.053l0.262-0.472l1.953,0.139l-0.615-0.604l1.582,0.003l0.064-0.417l1.533-0.312l2.176,0.141
	l0.361-0.466l0.947,0.134l0.008-0.25h0.637l1.129,0.654l3.314,0.194l0.012,0.553h1.91c-0.141-0.629-0.637-0.344-0.637-0.584
	c0-0.248,0.111-0.153,0.318-0.467c1.875-0.059,0.666-0.234,1.91-0.234h0.955v-0.584l1.447-0.253l1.098-0.098l4.453-0.033l0.32,0.267
	v-0.35l1.721-0.391l4.963-0.194l-2.797,0.242l-0.385,0.451l4.771,0.127v0.233h-0.955l0.016,0.216l0.621,0.134l0.945,0.134
	l0.008-0.25c0.84,0.152-0.262,0.116,0.955,0.116l0.955,0.119h1.592v-0.234h1.59v-0.352l2.547,0.12v-0.47h2.547l0.232,0.59
	l1.52-0.428l-0.145-0.281l1.574-0.115l1.592-0.233l0.635-0.584h1.271v-0.352h-0.637l0.012-0.216l0.945-0.135l0.01-0.452l4.445-0.365
	v-0.703l3.168-0.254l0.016-0.329l5.023-0.549l1.27-0.412l3.574-0.073l-0.004,0.217h2.865l0.953-0.018v0.133h0.957l-0.246-0.094
	l2.473-0.84h1.59l0.34,1.167l0.934-0.348h1.908v0.583l-0.617,0.135l0.301,0.217c0.375,0.518,0.709,0.35,2.545,0.35
	c0.574,0.142,0.561,0.234,1.273,0.234h0.953c1.947,0,1.719-0.198,2.865-0.35v0.466h-1.273l0.307,1.053l1.906-0.145l0.398,0.604
	l1.209,0.006v0.131l2.039-0.55l0.504,0.318l3.816,0.136l-0.373-0.362c1.047,0.075,0.451,0.088,1.332,0.107l1.596-0.024
	c0.795,0.044,1.488-0.234,1.586-0.56h0.955l-0.318,0.584l-2.287,0.36l0.377,0.341h1.592c1.129,0.22,0.918-0.02,1.273,0.467
	l-1.354,0.04l1.035,0.311l0.953,0.118h2.229v-0.351c2.191,0.067,0.742,0.284,1.59,0.935l1.592,0.351l3.096,0.433l4.066,0.842
	l0.158-0.106v0.234l-0.955,0.117l-3.818-0.351c0.352,0.556,0.045,0.653,1.412,0.733l1.141,0.794l-1.281,0.227l-0.318,0.35h-0.953
	l0.953,1.052l-0.355,1.282l-3.457-0.243l1.584,1.063l0.002,0.817l0.006,0.6l-2.244,0.103l0.33,0.584
	c1.486,0.127,1.869,0.275,1.908,0.934l-0.74-0.05l-1.49-0.899l-1.906,0.133v0.116l1.592,0.467v0.468h-0.955v0.467h0.955v0.234
	l0.316,0.818c2.328,0.571,2.549-0.079,2.549,1.519c2.248,0.069,0.953,0.519,0.953,1.285l0.932,0.139l0.021,0.563v0.35h1.275v-0.234
	h0.953c0.777,0,1.203,0.352,3.182,0.352h0.318c0.91,0,0.582-0.037,0.955-0.233c-0.365-0.184-0.059-0.234-0.955-0.234h-0.955
	l0.74-0.804l0.85-0.014v-0.234l-1.146-0.419l0.375,0.023l1.32-0.447l0.121-0.153l0.807,0.609l1.221,0.303l0.805,0.084l0.395-0.694
	l0.879-0.358l-0.377-0.342l0.695-0.008l-0.318-0.584v-0.235h1.592l0.619,0.127l1.592-0.15l1.109,1.172l1.721,0.292l0.051,0.779
	h1.271l2.82-0.95l-0.262-0.117l1.25,0.146l-0.387-0.944l-1.182,0.126l0.818-0.518l1.975,0.644l0.609-0.852l-0.598-0.327l2.537-0.411
	l0.057,1.333h0.953c0.861,0,0.879-0.057,1.592-0.117v0.232h1.592c-0.211,0.333-0.318,0.201-0.318,0.468
	c0,0.034,0.221,0.214,0.318,0.352h0.953c1.424,0,0.904,1.053,1.273,1.636h1.273l2.857-0.131l0.008,0.248l1.258-0.131l-0.316,0.599
	l0.648,0.001l-0.998,0.328l13.092,0.075v0.179h1.908c0.615,0,0.566,0.038,0.955,0.119l0.318-0.234l0.635-0.936l1.578,0.144
	l0.014,0.206h-1.273v0.469l2.502-0.287l0.045-0.183h0.635v-0.466h2.547l1.098,0.533l0.174-0.417h1.912l0.635-0.583
	c1.873,0.057,0.664,0.234,1.912,0.234h1.27l0.502-0.383l0.135,0.383h1.91l0.318-0.234l4.15-0.022l-0.014-0.329h-0.637l0.32-0.233
	v-0.584h1.271v-0.234l1.266-0.132l0.961-0.335l1.596-0.014l-0.004-0.453c1.574,0.153,1.994,0.988,3.184,1.402h0.953l-0.385,0.577
	l1.021,0.123l0.635,0.118h0.957c0.125-0.173,0.055-0.351,0.635-0.351c0.568,0,0.525,0.175,0.637,0.351h0.955
	c0.615,0,0.566,0.036,0.957,0.117l0.316-0.117l0.225-1.172l1.684,0.002v-0.233c0.561-0.194,0.955-0.283,0.955-0.7v-0.351
	l2.172,0.291l0.375-0.525c1.49-0.045,1.574-0.233,3.182-0.233c0.996,0,3.125,0.531,3.818,0.702c0.852,0.075,0.6,0.117,1.273,0.117
	c0.676,0,0.895-0.674,0.955-0.936l0.998-0.006l-0.68-0.694h1.59l0.055-0.416l2.174-0.286v-0.467h1.273l0.008-0.591l1.264,0.241
	c0.449-0.082,0.529-0.118,1.273-0.118h2.227c1.057,0,0.664,0.234,1.273,0.234c1.309,0,1.506-0.221,3.184-0.234v-0.467h0.635
	l0.621,0.126l0.316-0.363l1.609,0.003l2.545,0.234l0.637-0.117l3.184,0.231v-0.231h1.271v0.467l1.91,0.351l0.016,0.725l1.576-0.142
	v0.234h1.592v0.234l0.775,0.023l1.133,1.146l0.619,0.134l0.018,0.449c0.244,0.062,0.635,0.064,0.635,0.235
	c0,0.975,0.064,0.381,0.637,1.167h1.273l1.588-0.12l0.066,0.822h0.891v0.467l1.273,0.118h0.637v0.467h1.273
	c0.961,0,0.879-0.138,0.955-0.467h0.953l1.592-0.469l-0.318-0.934h0.955l0.66-0.931l0.932-0.004l0.789-0.434l3.338-0.177l1.6,0.027
	l-0.211,0.127l1.957,0.437l-0.107-0.195l2.816-0.954l2.225,0.011l0.957-0.011l0.357,0.463l1.551-0.117
	c0.189,0.265,0.074,0.355,0.955,0.355h0.955v0.468h0.637l0.619-0.127l0.184-1.156l0.553-0.001l0.869-0.136l-0.012-0.099h1.289
	v-0.233l1.26,0.131l0.898-0.289l0.068-0.428h1.271l0.303-0.352l0.979,0.114l0.91-0.245l1.943,0.148l4.459,0.569l0.955,0.233h1.271
	c0.371-0.256,0.277-0.467,1.275-0.467c0.684,0,1.184,0.293,1.271,0.585l1.9,0.134l0.01,0.333l6.043-0.242l2.867-0.46l-0.363-0.347
	l-1.229-0.004v-0.234c0.996,0.032,1.129,0.119,2.227,0.119h0.957v-0.234h1.271l0.305,0.702l1.684-0.141l-0.326-0.002l-1.273-0.467
	l0.246-0.091h0.957c1.033,0,0.238,0.101,1.59,0.234v0.467l-0.635,0.116l0.951,0.118l7.322-0.016v-0.336h1.273v0.467h3.18
	l2.215,0.142l0.014-0.726h1.592v0.702h2.229v-0.233h0.953l0.4-0.814l0.666-0.445l1.162-0.027l-0.637-0.466
	c0.326-0.114,5.672-1.403,5.727-1.403c0.871,0,1.039,0.234,1.91,0.234c0.439,0,1.359-0.468,2.227-0.468
	c0.432,0,0.18,0.126,1.273,0.233v-0.233h1.273c0.715,0,0.697,0.091,1.273,0.233h0.955c1.176-0.275,2.83,0.03,3.182,0.584
	l2.547-0.029l-0.002,0.38h1.592v0.233h0.955v-0.233l2.221,0.127l0.008-0.478h0.953v0.234h0.639l0.951-0.351
	c0.238-0.215,1.535-0.468,2.229-0.468h0.955l-0.09-0.153l3.236-0.257l0.035,0.293l1.273-0.116h0.32l2.543-0.235v0.235l5.105,0.204
	l-0.014-0.322h1.594v0.234l2.904-0.3c0.801,0.176,0.812,0.534,2.184,0.534c0.676,0,0.422-0.041,1.273-0.117l0.957,0.584l1.908-0.117
	l0.637-0.118v-0.702c1.146,0.113,0.852,0.012,0.955,0.468l2.168,0.009l0.361,0.339l-0.303,0.354h1.592v0.584h0.953l0.318,0.351
	l0.363,0.346l10.139,0.004l1.592-0.117l1.395,0.381l1.15,0.086c0.715,0,0.699-0.093,1.273-0.234v0.467l2.215-0.142l-0.371-0.554
	c1.061-0.036,1.195-0.123,2.293-0.123h0.955l0.33,0.584l0.943,0.001l0.316-0.234l1.457-0.773l1.09-0.162v-0.584l-0.953-0.117h-2.865
	l-0.701-0.123l0.383-0.579l-0.955-0.116v-0.234h0.637c-0.281-0.444-0.787-0.445,0.637-0.583l0.373-0.422l1.219-0.279l-1.037-0.006
	l0.611-1.099l-1.803-0.532l4.641-0.474l-0.064,0.119l0.119-0.125l-0.055,0.006l0.451-0.811l0.318-0.351h1.273v-0.35h0.953
	l-0.244-0.078l2.529-1.073l-0.01-0.169l9.537,0.506l-0.355,0.463h0.955l0.637-0.117l0.377-0.342l2.801-0.139
	c0.34-0.006,2.756,0.21,3.186,0.247l0.367,0.696l2.166,0.152l1.193,0.372l0.094,0.533l1.738,0.241l-0.148,0.11h0.953
	c0.641-0.582,3.059-0.234,4.773-0.234h1.91l2.129,0.85l-0.221,0.085c1.34,0.054,2.322,0.598,5.73,0.702l2.545-0.35
	c0.193-0.266,0.307-0.469,1.271-0.469h0.955v-0.351h1.273c0.613,0,0.568,0.037,0.955,0.118v-0.35l0.953-0.234l0.318-0.818h1.592
	l0.32-0.116l0.318-0.468h2.543v-0.584h-0.635l0.33-0.481l1.26,0.131l0.012-0.248l1.262,0.131l1.123-0.545l2.377,0.427l0.359-0.583
	l3.883-0.328l-0.105-0.141h1.91v0.233h0.955c0.615,0,0.566,0.038,0.957,0.116v-0.35c2.025,0.173,2.607,0.2,3.498,0.817l1.91,0.351
	l0.916,0.25l1.299-0.147c0.637,0.135,0.949,0.248,1.922,0.248c0.85,0,0.941-0.17,1.271-0.351h0.637v0.466l-0.734,0.4l-0.221,0.418
	h0.955l-0.357,0.463l1-0.107l-0.307,0.347l0.619,0.115l1.273,0.118c-0.732,0.665-1.369-0.279-1.592,0.699h2.229v0.351h0.953
	l-0.953,0.234l-2.229,0.116v0.352h2.58l-0.033,0.936h1.137l0.119,0.442l-1.574,0.141v0.234h1.271v0.935l-2.629-0.219l0.721,0.568
	h0.955c1.035,0,0.24,0.101,1.59,0.234v0.584l0.748,0.325l2.434,0.145l-0.885-0.277l-0.07-0.426h0.639l0.277-0.821l1.312,0.002
	v-0.468c0-0.221,1.205-0.817,1.912-0.817h0.953l1.271,0.701l0.955-0.817l0.955-0.117l1.012,0.568l-0.457,0.829l0.719,0.004
	l0.318-0.467c1.32,0.113,1.473,0.068,1.59,0.584h0.955v0.468h0.955v0.701l1.271,0.117l0.955,0.466l0.271,1.288l3.865-0.001v-0.234
	l-0.938,0.001l0.562-0.633l1.012-0.652l-1.547-0.004l-0.408-0.361l0.684-0.336l2.227-0.351v-0.35l2.498-0.285l0.049-0.183
	l-1.275-0.118l-1.068-0.515l-0.512-0.03l1.568-0.825l0.33,0.085v-0.351h-1.271l0.803-0.916l1.67-0.519l0.074-0.319h-0.637
	c0.312-0.493,1.846-1.01,3.182-1.05l0.262-0.474l1.955,0.139l-0.613-0.602l1.58,0.001l0.064-0.415l1.533-0.311l2.176,0.14
	l0.361-0.466l0.947,0.133l0.008-0.25h0.637l1.129,0.654l3.316,0.196l0.008,0.552h1.91c-0.141-0.628-0.637-0.343-0.637-0.584
	c0-0.247,0.113-0.154,0.32-0.467c1.875-0.058,0.662-0.234,1.91-0.234h0.953v-0.583l1.449-0.255l1.096-0.095l4.457-0.035l0.316,0.268
	v-0.35l1.723-0.392l4.961-0.193l-2.795,0.24l-0.385,0.452l4.771,0.126v0.234h-0.955l0.016,0.216l0.619,0.134l0.945,0.133l0.01-0.25
	c0.84,0.154-0.262,0.117,0.955,0.117l0.953,0.117h1.594v-0.234h1.592v-0.351l2.543,0.12v-0.47h2.549l0.232,0.59l1.52-0.429
	l-0.145-0.281l1.572-0.114l1.592-0.234l0.637-0.584h1.271v-0.351h-0.635l0.008-0.217l0.947-0.133l0.008-0.453l4.445-0.365v-0.7
	l3.17-0.257l0.016-0.328l5.023-0.55l1.268-0.412l3.576-0.075l-0.004,0.218h2.863l0.955-0.018v0.135h0.955l-0.244-0.096l2.471-0.84
	h1.592l0.34,1.167l0.934-0.348h1.908V279l-0.619,0.134l0.301,0.217c0.377,0.517,0.711,0.351,2.547,0.351
	c0.574,0.141,0.557,0.233,1.271,0.233h0.955c1.947,0,1.717-0.198,2.865-0.351v0.47h-1.273l0.307,1.05l1.906-0.146l0.398,0.608
	l1.207,0.007v21.15h-540.023v0.103h-385.09v-0.592h-0.143V284.108z"/>
<path fill-rule="evenodd" clip-rule="evenodd" fill="#1C1F4F" d="M955.464,247.207l-2.768,0.408l-0.379,1.018l-0.635,0.346h-0.955
	l0.359-1.374l-9.541-1.502l0.008,0.498l-2.527,3.191l0.244,0.231h-0.955v1.04h-1.271l-0.318,1.043l-0.451,2.407l0.055-0.016
	l-0.119,0.367l0.064-0.352l-4.639,1.41l1.801,1.579l-0.611,3.265l1.035,0.019l-1.215,0.833l-0.377,1.25
	c-1.42,0.414-0.916,0.414-0.633,1.736h-0.639v0.694l0.957,0.348l-0.387,1.718l0.701,0.364h2.865l0.955,0.348v1.736l-1.09,0.476
	l-1.457,2.301l-0.318,0.693l-0.941-0.002l-0.328-1.731h-0.957c-1.098,0-1.232,0.257-2.293,0.365l0.371,1.644l-2.215,0.422v-1.39
	c-0.574,0.419-0.559,0.693-1.273,0.693l-1.148-0.25l-1.398-1.136l-1.59,0.346l-10.139-0.011l-0.361-1.032l-0.32-1.041h-0.953v-1.736
	h-1.592l0.301-1.048l-0.361-1.009l-2.168-0.027c-0.104-1.355,0.193-1.052-0.955-1.389v2.086l-0.637,0.347l-1.908,0.346l-0.955-1.736
	c-0.852,0.223-0.598,0.346-1.273,0.346c-1.371,0-1.385-1.06-2.186-1.583l-2.904,0.891v-0.697h-1.592l0.012,0.957l-5.104-0.608
	v-0.698l-2.545,0.698h-0.32l-1.271,0.348l-0.035-0.873l-3.236,0.763l0.09,0.456h-0.955c-0.693,0-1.99,0.748-2.229,1.39l-0.953,1.04
	h-0.637v-0.694h-0.957l-0.004,1.418l-2.221-0.377v0.696h-0.957v-0.696h-1.588v-1.129l-2.549,0.088
	c-0.35-1.65-2.006-2.551-3.182-1.736h-0.953c-0.576-0.419-0.561-0.694-1.273-0.694h-1.271v0.694
	c-1.098-0.318-0.844-0.694-1.275-0.694c-0.867,0-1.789,1.388-2.227,1.388c-0.871,0-1.039-0.694-1.91-0.694
	c-0.027,0-1.297,0.9-2.637,1.866c-0.422-0.38-0.916-0.803-1.396-0.803c-0.432,0-0.178,0.375-1.273,0.695v-0.695h-1.273
	c-0.713,0-0.697,0.276-1.271,0.695h-0.955c-1.178-0.815-2.832,0.085-3.184,1.735l-2.547-0.088l0.002,1.129h-1.59v0.695h-0.955
	v-0.695l-2.223,0.377l-0.006-1.419h-0.955v0.695h-0.637l-0.955-1.042c-0.236-0.64-1.533-1.388-2.227-1.388h-0.955l0.092-0.456
	l-3.238-0.764l-0.037,0.873l-1.271-0.348h-0.318l-2.545-0.697v0.697l-5.105,0.609l0.014-0.957h-1.592v0.696l-2.904-0.891
	c-0.801,0.523-0.814,1.584-2.186,1.584c-0.674,0-0.42-0.124-1.273-0.346l-0.955,1.735l-1.91-0.347l-0.637-0.346v-2.084
	c-1.146,0.335-0.852,0.032-0.955,1.389l-2.168,0.025l-0.359,1.009l0.303,1.049h-1.594v1.736h-0.953l-0.17,0.552l-0.561,0.45
	l-0.982-0.336l-0.301,1.051h-1.273l-0.02,0.36L790.444,274l-1.59-0.348l-1.398,1.137l-1.148,0.25c-0.715,0-0.697-0.273-1.273-0.692
	v1.389l-2.213-0.422l0.369-1.643c-1.061-0.108-1.193-0.366-2.291-0.366h-0.955l-0.332,1.733l-0.943,0.002l-0.318-0.692l-1.455-2.301
	l-1.09-0.478v-1.734l0.953-0.348h2.867l0.699-0.364l-0.381-1.718l0.955-0.348v-0.694h-0.639c0.283-1.321,0.787-1.322-0.635-1.737
	l-0.375-1.249l-1.217-0.834l1.033-0.019l-0.609-3.265l1.803-1.578l-4.641-1.41l0.062,0.35l-0.117-0.366l0.055,0.016l-0.451-2.408
	l-0.318-1.042h-1.271v-1.042h-0.953l0.242-0.229l-2.527-3.19l0.01-0.501l-9.539,1.504l0.355,1.375h-0.955l-0.635-0.346l-0.379-1.019
	l-2.799-0.414c-0.34-0.013-2.76,0.628-3.188,0.736l-0.365,2.072l-2.166,0.448l-1.195,1.104l-0.092,1.585l-1.738,0.72l0.146,0.322
	h-0.955c-0.639-1.728-3.057-0.695-4.773-0.695h-1.908l-2.131,2.526l0.221,0.251c-1.338,0.159-2.318,1.772-5.727,2.084l-2.549-1.042
	c-0.189-0.786-0.303-1.39-1.271-1.39h-0.953v-1.042h-1.273c-0.615,0-0.566,0.11-0.955,0.348v-1.041l-0.955-0.695l-0.316-2.429
	h-1.591l-0.319-0.347l-0.319-1.39h-2.543v-1.735h0.635l-0.332-1.431l-1.26,0.389l-0.012-0.737l-1.26,0.39l-1.123-1.619l-2.377,1.271
	l-0.361-1.73l-3.879-0.973l0.102-0.421h-1.909v0.695h-0.955c-0.613,0-0.565,0.108-0.954,0.347v-1.042
	c-2.027,0.516-2.609,0.596-3.5,2.432l-1.91,1.041l-0.917,0.745l-1.299-0.44c-0.636,0.404-0.948,0.737-1.921,0.737
	c-0.85,0-0.941-0.5-1.271-1.041h-0.639v1.389l0.734,1.186l0.223,1.244h-0.957l0.359,1.375l-1.003-0.314l0.309,1.029l-0.618,0.34
	l-1.272,0.348c0.729,1.977,1.367-0.828,1.591,2.082h-2.228v1.042h-0.955l0.955,0.695l2.228,0.347v1.042l-2.58-0.002l0.033,2.78
	h-1.136l-0.12,1.317l1.575,0.418v0.695h-1.272v2.78l2.628-0.649l-0.719,1.688h-0.956c-1.034,0-0.239,0.3-1.591,0.693v1.737
	l-0.747,0.964l-2.434,0.432l0.883-0.823l0.07-1.269h-0.638l-0.276-2.437l-1.312,0.006v-1.389c0-0.661-1.206-2.43-1.91-2.43h-0.955
	l-1.272,2.084l-0.957-2.432l-0.953-0.346l-1.012,1.688l0.457,2.463l-0.718,0.015l-0.317-1.389c-1.322,0.335-1.475,0.206-1.593,1.735
	h-0.954v1.389h-0.954v2.083l-1.274,0.348l-0.953,1.389l-0.273,3.824l-3.863-0.005v-0.694l0.938,0.003l-0.561-1.882l-1.014-1.94
	l1.544-0.009l0.412-1.074l-0.686-1l-2.226-1.042v-1.041l-2.5-0.846l-0.048-0.543l1.274-0.348l1.069-1.529l0.513-0.094l-1.568-2.449
	l-0.331,0.254v-1.042h1.271l-0.803-2.721l-1.669-1.543l-0.074-0.944h0.638c-0.315-1.467-1.848-3.003-3.184-3.124l-0.263-1.405
	l-1.953,0.416l0.613-1.792l-1.58,0.004l-0.065-1.233l-1.533-0.925l-2.175,0.417l-0.362-1.384l-0.945,0.396l-0.012-0.743h-0.635
	l-1.13,1.946l-3.314,0.578l-0.011,1.643h-1.908c0.143-1.87,0.636-1.018,0.636-1.737c0-0.732-0.112-0.458-0.319-1.388
	c-1.874-0.171-0.665-0.695-1.909-0.695h-0.955v-1.735l-1.449-0.756l-1.095-0.286l-4.456-0.101l-0.317,0.796v-1.042l-1.723-1.162
	l-4.961-0.573l2.795,0.715l0.384,1.34l-4.769,0.375v0.694h0.955l-0.018,0.642l-0.62,0.4l-0.946,0.395l-0.009-0.743
	c-0.839,0.454,0.263,0.348-0.954,0.348l-0.956,0.346h-1.59v-0.694h-1.591v-1.042l-2.545,0.355l-0.002-1.397h-2.545l-0.232,1.755
	l-1.521-1.272l0.143-0.837l-1.573-0.34l-1.59-0.693l-0.637-1.736h-1.271v-1.042h0.636l-0.011-0.645l-0.943-0.396l-0.01-1.345
	l-4.447-1.086v-2.083l-3.167-0.761l-0.015-0.975l-5.025-1.631l-1.269-1.225l-3.574-0.22l0.004,0.646h-2.864l-0.956-0.051v0.396
	H587.1l0.245-0.282l-2.474-2.496h-1.59l-0.34,3.47l-0.933-1.038H580.1v1.734l0.621,0.398l-0.305,0.644
	c-0.375,1.536-0.708,1.041-2.545,1.041c-0.574,0.42-0.559,0.696-1.273,0.696h-0.954c-1.947,0-1.718-0.588-2.863-1.042v1.388h1.272
	l-0.307,3.127l-1.905-0.433l-0.399,1.802l-1.209,0.017v0.39l-2.039-1.633l-0.504,0.938l-3.816,0.408l0.375-1.077
	c-1.047,0.227-0.451,0.261-1.334,0.323l-1.594-0.075c-0.796,0.129-1.49-0.694-1.586-1.663h-0.955l0.317,1.738l2.287,1.066
	l-0.377,1.016h-1.593c-1.128,0.653-0.918-0.062-1.271,1.389l1.353,0.12l-1.036,0.922l-0.952,0.347h-2.229v-1.042
	c-2.192,0.2-0.742,0.844-1.592,2.778l-1.591,1.042l-3.097,1.287l-4.065,2.5l-0.158-0.315v0.694l0.957,0.347l3.816-1.042
	c-0.351,1.647-0.044,1.941-1.411,2.178l-1.14,2.356l1.28,0.673l0.317,1.042h0.953l-0.953,3.126l0.355,3.809l3.457-0.72l-1.584,3.16
	l-0.001,2.429l-0.007,1.778l2.245,0.308l-0.33,1.732c-1.487,0.378-1.869,0.822-1.908,2.778l0.74-0.15l1.489-2.671l1.906,0.391V273
	l-1.591,1.389v1.388h0.955v1.39h-0.955v0.694l-0.317,2.431c-2.328,1.7-2.547-0.231-2.547,4.514
	c-2.248,0.204-0.955,1.542-0.955,3.818l-0.932,0.413l-0.021,1.671v1.042h-1.272v-0.695h-0.955c-0.777,0-1.2,1.042-3.183,1.042
	h-0.317c-0.909,0-0.583-0.11-0.955-0.694c0.364-0.545,0.059-0.695,0.955-0.695h0.954l-0.74-2.386l-0.85-0.044v-0.695l1.147-1.245
	l-0.376,0.068l-1.319-1.333l-0.122-0.453l-0.807,1.813l-1.22,0.899l-0.807,0.25l-0.394-2.066l-0.879-1.059l0.379-1.016l-0.698-0.026
	l0.319-1.735v-0.696h-1.592l-0.619,0.377l-1.59-0.445l-1.11,3.481l-1.721,0.87l-0.051,2.315h-1.272l-2.821-2.824l0.265-0.344
	l-1.251,0.432l0.386-2.805l1.181,0.375l-0.817-1.535l-1.973,1.907l-0.611-2.526l0.598-0.971l-2.538-1.222l-0.056,3.957h-0.955
	c-0.858,0-0.877-0.166-1.59-0.346v0.692h-1.592c0.212,0.986,0.319,0.594,0.319,1.39c0,0.095-0.22,0.634-0.319,1.042h-0.953
	c-1.424,0-0.905,3.129-1.272,4.859h-1.273l-2.858-0.388l-0.007,0.734l-1.259-0.387l0.315,1.773l-0.646,0.005l0.997,0.979
	l-13.091,0.222v0.534h-1.909c-0.614,0-0.565,0.111-0.953,0.348l-0.318-0.695l-0.637-2.778l-1.577,0.426l-0.015,0.616h1.274v1.39
	l-2.503-0.85l-0.045-0.54h-0.635v-1.389h-2.546l-1.097,1.584l-0.176-1.237h-1.91l-0.638-1.734c-1.872,0.17-0.663,0.695-1.907,0.695
	h-1.275l-0.499-1.137l-0.136,1.137h-1.908l-0.32-0.695l-4.148-0.066l0.012-0.976h0.637l-0.317-0.694v-1.736h-1.274v-0.695
	l-1.267-0.395l-0.96-0.994l-1.596-0.042l0.004-1.346c-1.574,0.458-1.995,2.936-3.181,4.167h-0.956l0.385,1.716l-1.021,0.366
	l-0.636,0.348h-0.957c-0.125-0.514-0.055-1.042-0.635-1.042c-0.566,0-0.523,0.521-0.637,1.042h-0.954
	c-0.615,0-0.567,0.108-0.956,0.347l-0.318-0.347l-0.225-3.482l-1.684,0.009v-0.694c-0.561-0.581-0.955-0.841-0.955-2.083v-1.042
	l-2.171,0.863l-0.376-1.559c-1.49-0.134-1.573-0.695-3.18-0.695c-0.998,0-3.127,1.577-3.82,2.084
	c-0.854,0.223-0.599,0.348-1.273,0.348c-0.676,0-0.895-2.004-0.955-2.779l-0.999-0.02l0.682-2.063h-1.591l-0.055-1.233l-2.173-0.851
	v-1.388h-1.272l-0.01-1.756l-1.263,0.713c-0.451-0.242-0.528-0.346-1.273-0.346h-2.228c-1.058,0-0.663,0.693-1.274,0.693
	c-1.308,0-1.505-0.652-3.183-0.693v-1.389h-0.636l-0.619,0.377l-0.315-1.079l-1.61,0.008l-2.545,0.697l-0.638-0.352l-3.183,0.69
	l0.002-0.69h-1.274v1.39l-1.91,1.042l-0.016,2.154l-1.575-0.417v0.694h-1.59v0.694l-0.777,0.066l-1.133,3.405l-0.62,0.4
	l-0.015,1.336c-0.243,0.187-0.638,0.189-0.638,0.696c0,2.898-0.064,1.133-0.636,3.472h-1.272l-1.588-0.36l-0.068,2.442h-0.891v1.389
	l-1.271,0.349h-0.639v1.387h-1.272c-0.962,0-0.879-0.408-0.955-1.387h-0.954l-1.59-1.39l0.315-2.777h-0.954l-0.66-2.769l-0.93-0.01
	l-0.789-1.289l-3.339-0.524l-1.601,0.078l0.211,0.375l-1.957,1.302l0.107-0.583l-2.814-2.832l-2.227,0.03l-0.959-0.03l-0.354,1.376
	l-1.551-0.347c-0.19,0.786-0.077,1.055-0.957,1.055h-0.955v1.388h-0.636l-0.62-0.376l-0.179-3.434l-0.557-0.006l-0.867-0.401
	l0.006-0.296h-1.285v-0.694l-1.26,0.389l-0.896-0.857l-0.07-1.268h-1.271l-0.303-1.048l-0.979,0.335l-0.909-0.726l-1.944,0.442
	l-4.459,1.691l-0.955,0.694h-1.272c-0.37-0.766-0.276-1.389-1.272-1.389c-0.686,0-1.188,0.87-1.272,1.736l-1.901,0.4l-0.01,0.988
	l-6.042-0.717l-2.868-1.364l0.364-1.032l1.227-0.01v-0.694c-0.992,0.09-1.128,0.346-2.226,0.346h-0.955v-0.694h-1.272l-0.304,2.085
	l-1.688-0.423l0.328-0.003l1.273-1.389l-0.246-0.271h-0.955c-1.036,0-0.24,0.3-1.592,0.694v1.39l0.637,0.347l-0.957,0.347
	l-7.318-0.043v-0.999h-1.272v1.39h-3.181l-2.216,0.421l-0.013-2.158h-1.59v2.083h-2.229v-0.694h-0.955l-0.399-2.417l-0.667-1.326
	L321.064,273l0.638-1.39c-0.326-0.338-5.675-4.165-5.728-4.165c-0.872,0-1.039,0.693-1.91,0.693c-0.438,0-1.358-1.389-2.227-1.389
	c-0.432,0-0.178,0.376-1.274,0.696v-0.696h-1.272c-0.712,0-0.699,0.276-1.273,0.696h-0.954c-1.177-0.816-2.83,0.085-3.183,1.735
	l-2.548-0.088l0.003,1.128h-1.591v0.696h-0.956v-0.696l-2.222,0.378l-0.007-1.419h-0.953v0.695h-0.637l-0.953-1.042
	c-0.238-0.64-1.536-1.388-2.229-1.388h-0.954l0.09-0.456l-3.237-0.764l-0.035,0.872l-1.273-0.348h-0.317l-2.547-0.697v0.697
	l-5.104,0.61l0.014-0.958h-1.593v0.696l-2.904-0.891c-0.802,0.524-0.813,1.585-2.185,1.585c-0.674,0-0.422-0.125-1.274-0.346
	l-0.955,1.735l-1.909-0.347l-0.636-0.347v-2.084c-1.147,0.335-0.853,0.032-0.955,1.39l-2.168,0.024l-0.362,1.01l0.303,1.05h-1.592
	v1.735h-0.953l-0.318,1.042l-0.363,1.032l-10.14,0.011l-1.59-0.348l-1.397,1.136l-1.148,0.251c-0.715,0-0.698-0.274-1.274-0.694
	v1.389l-2.212-0.422l0.37-1.643c-1.062-0.107-1.198-0.364-2.294-0.364h-0.955l-0.33,1.732l-0.943,0.002l-0.316-0.694l-1.457-2.3
	l-1.091-0.478v-1.735l0.955-0.348h2.865l0.701-0.365l-0.384-1.718l0.955-0.348v-0.693h-0.637c0.282-1.321,0.787-1.322-0.636-1.737
	l-0.374-1.249l-1.219-0.833l1.036-0.019l-0.61-3.267l1.803-1.577l-4.642-1.409l0.065,0.35l-0.119-0.367l0.054,0.017l-0.449-2.41
	l-0.319-1.041h-1.273v-1.042H232.6l0.243-0.229l-2.526-3.19l0.008-0.501l-9.539,1.504l0.356,1.375h-0.954l-0.636-0.347l-0.378-1.018
	l-2.798-0.414c-0.342-0.013-2.761,0.627-3.188,0.736l-0.367,2.072l-2.164,0.448l-1.196,1.104l-0.092,1.585l-1.739,0.719l0.148,0.322
	h-0.954c-0.64-1.728-3.058-0.694-4.773-0.694h-1.909l-2.132,2.526l0.221,0.252c-1.337,0.159-2.317,1.773-5.728,2.084l-2.545-1.042
	c-0.193-0.786-0.305-1.39-1.272-1.39h-0.954v-1.042h-1.274c-0.613,0-0.567,0.109-0.954,0.348v-1.042l-0.953-0.694l-0.32-2.429
	h-1.592l-0.316-0.348l-0.319-1.389h-2.545v-1.735h0.636l-0.329-1.432l-1.262,0.39l-0.011-0.738l-1.262,0.391l-1.122-1.619
	l-2.379,1.271l-0.359-1.731l-3.88-0.973l0.102-0.42h-1.908v0.694h-0.954c-0.616,0-0.567,0.11-0.955,0.348v-1.042
	c-2.028,0.516-2.611,0.596-3.501,2.431l-1.909,1.042l-0.916,0.744l-1.299-0.44c-0.638,0.404-0.951,0.737-1.923,0.737
	c-0.851,0-0.94-0.501-1.273-1.041h-0.635v1.389l0.733,1.186l0.222,1.244h-0.955l0.356,1.375l-1.001-0.314l0.309,1.028l-0.619,0.341
	l-1.272,0.348c0.731,1.977,1.369-0.829,1.59,2.082h-2.228v1.042h-0.953l0.953,0.695l2.228,0.347v1.042l-2.578-0.002l0.033,2.78
	h-1.137l-0.12,1.317l1.574,0.418v0.694h-1.272v2.781l2.631-0.649l-0.721,1.687h-0.955c-1.034,0-0.241,0.3-1.591,0.694v1.737
	l-0.749,0.965l-2.434,0.431l0.884-0.823l0.071-1.269h-0.637l-0.278-2.436l-1.312,0.006v-1.39c0-0.66-1.205-2.429-1.91-2.429h-0.953
	l-1.274,2.084l-0.954-2.432l-0.954-0.346l-1.012,1.688l0.456,2.464l-0.719,0.015l-0.317-1.389c-1.321,0.335-1.475,0.205-1.591,1.735
	h-0.955v1.389h-0.955v2.083l-1.272,0.347l-0.955,1.39l-0.273,3.823l-3.862-0.004v-0.694l0.938,0.002l-0.563-1.881l-1.012-1.94
	l1.546-0.008l0.408-1.074l-0.682-1.001l-2.228-1.041v-1.042l-2.499-0.846l-0.047-0.543l1.273-0.348l1.069-1.53l0.512-0.094
	l-1.566-2.448l-0.333,0.254v-1.041h1.272l-0.804-2.721l-1.666-1.544l-0.077-0.943h0.639c-0.314-1.467-1.848-3.003-3.184-3.124
	l-0.263-1.405l-1.954,0.416l0.615-1.794l-1.581,0.006l-0.066-1.233l-1.532-0.926l-2.176,0.417l-0.361-1.383l-0.946,0.396
	l-0.009-0.743h-0.638l-1.126,1.946l-3.318,0.578l-0.011,1.642h-1.908c0.144-1.87,0.636-1.018,0.636-1.737
	c0-0.733-0.112-0.458-0.318-1.388c-1.875-0.171-0.663-0.695-1.908-0.695h-0.954v-1.734l-1.45-0.756l-1.096-0.288l-4.457-0.101
	l-0.317,0.796v-1.042l-1.722-1.162l-4.962-0.574l2.795,0.715l0.386,1.341l-4.771,0.375v0.696h0.955l-0.017,0.642l-0.621,0.399
	l-0.944,0.396l-0.008-0.744c-0.841,0.455,0.26,0.348-0.956,0.348l-0.954,0.347h-1.593v-0.695h-1.59v-1.041l-2.546,0.354v-1.396
	h-2.547l-0.232,1.754l-1.521-1.271l0.145-0.837l-1.572-0.34l-1.593-0.694l-0.635-1.736h-1.273v-1.042h0.636l-0.009-0.644
	l-0.944-0.397l-0.011-1.344l-4.446-1.087v-2.083l-3.168-0.759l-0.013-0.976l-5.025-1.631l-1.271-1.226l-3.574-0.22l0.004,0.647
	h-2.863l-0.954-0.052v0.397h-0.956l0.246-0.282l-2.473-2.496h-1.591l-0.342,3.47l-0.933-1.038h-1.908v1.734l0.621,0.398
	l-0.304,0.643c-0.376,1.536-0.708,1.042-2.545,1.042c-0.576,0.419-0.561,0.696-1.272,0.696h-0.955c-1.947,0-1.718-0.59-2.863-1.042
	v1.388h1.271l-0.306,3.126l-1.907-0.432l-0.398,1.801l-1.207,0.018v62.841h540.023v0.305h385.089v-1.757h0.143V247.207z"/>
<path fill-rule="evenodd" clip-rule="evenodd" fill="#0A64A3" d="M55.45,284.108l2.77,0.138l0.378,0.342l0.636,0.117h0.952
	l-0.357-0.463l9.54-0.506l-0.008,0.168l2.528,1.073l-0.247,0.079h0.955v0.35h1.273l0.319,0.352l0.451,0.81l-0.056-0.005l0.119,0.123
	l-0.063-0.117l4.64,0.474l-1.803,0.531l0.61,1.1l-1.034,0.004l1.217,0.282l0.374,0.419c1.422,0.14,0.917,0.14,0.636,0.585h0.637
	v0.233l-0.957,0.117l0.387,0.579l-0.702,0.122H75.78l-0.956,0.118v0.584l1.091,0.16l1.457,0.775l0.318,0.233l0.941-0.002
	l0.328-0.583h0.957c1.096,0,1.234,0.087,2.291,0.124l-0.37,0.552l2.217,0.143v-0.467c0.574,0.141,0.559,0.233,1.272,0.233
	l1.15-0.085l1.397-0.382l1.59,0.116l10.138-0.002l0.363-0.348l0.317-0.35h0.954v-0.584h1.592l-0.3-0.354l0.358-0.34l2.169-0.008
	c0.104-0.457-0.19-0.354,0.955-0.467v0.701l0.638,0.117l1.908,0.116l0.954-0.583c0.853,0.075,0.601,0.116,1.274,0.116
	c1.373,0,1.385-0.357,2.185-0.533l2.906,0.3v-0.234h1.591l-0.014,0.322l5.104-0.205v-0.234l2.547,0.234h0.319l1.271,0.117
	l0.035-0.293l3.238,0.255l-0.091,0.155h0.954c0.692,0,1.991,0.25,2.229,0.467l0.955,0.351h0.637v-0.234h0.953l0.005,0.477
	l2.224-0.126v0.234h0.954v-0.234h1.591l-0.003-0.379l2.55,0.029c0.352-0.556,2.005-0.858,3.183-0.583h0.953
	c0.575-0.142,0.561-0.234,1.272-0.234h1.272v0.234c1.098-0.108,0.845-0.234,1.274-0.234c0.868,0,1.788,0.466,2.229,0.466
	c0.869,0,1.036-0.231,1.907-0.231c0.026,0,1.3,0.303,2.638,0.627c0.423-0.128,0.916-0.271,1.397-0.271
	c0.43,0,0.178,0.127,1.274,0.234v-0.234h1.271c0.714,0,0.698,0.093,1.272,0.234h0.955c1.178-0.274,2.832,0.029,3.183,0.583
	l2.547-0.029l-0.002,0.38h1.59v0.234h0.955v-0.234l2.224,0.126l0.005-0.478h0.954v0.235h0.638l0.955-0.352
	c0.236-0.216,1.533-0.467,2.228-0.467h0.954l-0.091-0.153l3.235-0.258l0.037,0.296l1.272-0.119h0.32l2.544-0.234l0.001,0.234
	l5.104,0.207l-0.013-0.323h1.593v0.234l2.905-0.301c0.799,0.176,0.812,0.534,2.185,0.534c0.675,0,0.421-0.042,1.272-0.117
	l0.953,0.583l1.912-0.117l0.636-0.115v-0.702c1.147,0.111,0.852,0.009,0.955,0.467l2.17,0.008l0.359,0.34l-0.302,0.354h1.592v0.583
	h0.953l0.169,0.186l0.563,0.152l0.979-0.113l0.302,0.353h1.274l0.021,0.122l7.513,0.003l1.592-0.118l1.396,0.384l1.15,0.083
	c0.712,0,0.697-0.091,1.273-0.233v0.467l2.211-0.142l-0.37-0.553c1.062-0.037,1.196-0.123,2.294-0.123h0.954l0.329,0.582
	l0.944,0.001l0.317-0.233l1.459-0.774l1.089-0.161v-0.583l-0.955-0.118h-2.864l-0.702-0.123l0.383-0.577l-0.954-0.119v-0.233h0.635
	c-0.28-0.445-0.786-0.445,0.639-0.584l0.371-0.421l1.22-0.28l-1.035-0.006l0.61-1.099l-1.805-0.531l4.645-0.475l-0.066,0.118
	l0.118-0.124l-0.052,0.005l0.448-0.811l0.32-0.351h1.272v-0.349h0.952l-0.243-0.077l2.528-1.074l-0.009-0.168l9.539,0.506
	l-0.357,0.464h0.953l0.637-0.119l0.378-0.341l2.8-0.14c0.341-0.004,2.759,0.21,3.187,0.249l0.368,0.698l2.166,0.148l1.195,0.373
	l0.091,0.532l1.739,0.244l-0.147,0.107h0.955c0.638-0.581,3.058-0.233,4.771-0.233h1.909l2.13,0.85l-0.22,0.085
	c1.339,0.054,2.32,0.596,5.727,0.701l2.547-0.352c0.191-0.264,0.305-0.467,1.273-0.467h0.954v-0.35h1.274
	c0.611,0,0.565,0.036,0.953,0.116v-0.35l0.953-0.233l0.32-0.819h1.59l0.317-0.116l0.32-0.467h2.545v-0.584h-0.635l0.33-0.481
	l1.26,0.131l0.011-0.248l1.262,0.131l1.122-0.544l2.379,0.427l0.36-0.583l3.88-0.327l-0.104-0.141h1.91v0.234h0.953
	c0.616,0,0.567,0.037,0.955,0.116v-0.35c2.03,0.173,2.61,0.201,3.5,0.817l1.91,0.352l0.917,0.25l1.298-0.149
	c0.638,0.136,0.95,0.249,1.921,0.249c0.853,0,0.942-0.167,1.272-0.35h0.638v0.467l-0.732,0.399l-0.223,0.419h0.955l-0.357,0.462
	l1.001-0.104l-0.309,0.344l0.62,0.116l1.272,0.117c-0.729,0.665-1.369-0.279-1.59,0.702h2.228v0.35h0.955l-0.955,0.232l-2.228,0.119
	v0.35l2.58-0.001l-0.035,0.936h1.137l0.121,0.443l-1.575,0.14v0.234h1.272l-0.001,0.937l-2.628-0.218l0.719,0.568h0.955
	c1.034,0,0.241,0.101,1.593,0.232v0.585l0.747,0.324l2.433,0.145l-0.882-0.276l-0.072-0.427h0.637l0.278-0.821l1.312,0.003v-0.467
	c0-0.224,1.204-0.82,1.908-0.82h0.957l1.273,0.703l0.954-0.818l0.954-0.117l1.012,0.568l-0.459,0.829l0.719,0.005l0.319-0.467
	c1.321,0.113,1.474,0.068,1.59,0.584h0.955v0.466h0.955v0.701l1.273,0.117l0.955,0.468l0.271,1.286l3.863-0.001v-0.233h-0.938
	l0.562-0.632l1.014-0.653l-1.544-0.003l-0.411-0.362l0.683-0.336l2.228-0.351v-0.35l2.499-0.285l0.049-0.183l-1.275-0.116
	l-1.071-0.516l-0.51-0.032l1.568-0.824l0.332,0.084v-0.35h-1.274l0.806-0.915l1.666-0.52l0.074-0.316h-0.636
	c0.313-0.495,1.849-1.011,3.183-1.053l0.262-0.472l1.953,0.139l-0.613-0.604l1.581,0.003l0.066-0.417l1.533-0.312l2.175,0.141
	l0.363-0.466l0.945,0.134l0.008-0.25h0.638l1.128,0.654l3.313,0.194l0.012,0.553h1.91c-0.143-0.629-0.638-0.344-0.638-0.584
	c0-0.248,0.115-0.153,0.319-0.467c1.875-0.059,0.665-0.234,1.91-0.234h0.955v-0.584l1.448-0.253l1.098-0.098l4.455-0.033
	l0.316,0.267v-0.35l1.725-0.391l4.959-0.194l-2.795,0.242l-0.385,0.451l4.771,0.127v0.233h-0.955l0.018,0.216l0.617,0.134
	l0.949,0.134l0.007-0.25c0.838,0.152-0.26,0.116,0.956,0.116l0.954,0.119h1.592v-0.234h1.59v-0.352l2.546,0.12l0.001-0.47h2.546
	l0.233,0.59l1.52-0.428l-0.145-0.281l1.574-0.115l1.592-0.233l0.634-0.584h1.272v-0.352h-0.635l0.009-0.216l0.946-0.135l0.009-0.452
	l4.446-0.365v-0.703l3.167-0.254l0.016-0.329l5.024-0.549l1.268-0.412l3.576-0.073l-0.005,0.217h2.865l0.954-0.018v0.133h0.956
	l-0.245-0.094l2.471-0.84h1.591l0.341,1.167l0.934-0.348h1.91v0.583l-0.622,0.135l0.302,0.217c0.377,0.518,0.71,0.35,2.546,0.35
	c0.576,0.142,0.561,0.234,1.272,0.234h0.955c1.947,0,1.719-0.198,2.865-0.35v0.466h-1.272l0.306,1.053l1.906-0.145l0.398,0.604
	l1.207,0.006v0.131l2.042-0.55l0.503,0.318l3.816,0.136l-0.375-0.362c1.047,0.075,0.453,0.088,1.332,0.107l1.597-0.024
	c0.795,0.044,1.489-0.234,1.586-0.56h0.955l-0.319,0.584l-2.287,0.36l0.379,0.341h1.592c1.129,0.22,0.916-0.02,1.273,0.467
	l-1.354,0.04l1.036,0.311l0.953,0.118h2.228v-0.351c2.193,0.067,0.74,0.284,1.591,0.935l1.59,0.351l3.098,0.433l4.065,0.842
	l0.157-0.106v0.234l-0.953,0.117l-3.819-0.351c0.353,0.556,0.046,0.653,1.412,0.733l1.142,0.794l-1.281,0.227l-0.317,0.35h-0.955
	l0.955,1.052l-0.357,1.282l-3.454-0.243l1.581,1.063l0.002,0.817l0.007,0.6l-2.245,0.103l0.329,0.584
	c1.488,0.127,1.868,0.275,1.909,0.934l-0.74-0.05l-1.489-0.899l-1.908,0.133v0.116l1.593,0.467v0.468h-0.955v0.467h0.955v0.234
	l0.317,0.818c2.326,0.571,2.546-0.079,2.546,1.519c2.249,0.069,0.955,0.519,0.955,1.285l0.931,0.139l0.024,0.563v0.35h1.272v-0.234
	h0.955c0.775,0,1.2,0.352,3.183,0.352h0.317c0.909,0,0.58-0.037,0.955-0.233c-0.366-0.184-0.06-0.234-0.955-0.234h-0.955l0.74-0.804
	l0.851-0.014v-0.234l-1.149-0.419l0.376,0.023l1.32-0.447l0.123-0.153l0.806,0.609l1.221,0.303l0.804,0.084l0.396-0.694l0.879-0.358
	l-0.377-0.342l0.694-0.008l-0.317-0.584v-0.235h1.591l0.619,0.127l1.593-0.15l1.106,1.172l1.724,0.292l0.051,0.779h1.272l2.819-0.95
	l-0.262-0.117l1.247,0.146l-0.384-0.944l-1.183,0.126l0.821-0.518l1.972,0.644l0.609-0.852l-0.596-0.327l2.536-0.411l0.055,1.333
	h0.955c0.86,0,0.878-0.057,1.593-0.117v0.232h1.59c-0.21,0.333-0.317,0.201-0.317,0.468c0,0.034,0.219,0.214,0.317,0.352h0.956
	c1.421,0,0.901,1.053,1.271,1.636h1.272l2.858-0.131l0.006,0.248l1.261-0.131l-0.317,0.599l0.648,0.001l-0.997,0.328l13.09,0.075
	v0.179h1.908c0.615,0,0.565,0.038,0.955,0.119l0.319-0.234l0.636-0.936l1.577,0.144l0.013,0.206h-1.272v0.469l2.501-0.287
	l0.044-0.183h0.636v-0.466h2.547l1.098,0.533l0.176-0.417h1.909l0.638-0.583c1.873,0.057,0.664,0.234,1.909,0.234h1.271l0.502-0.383
	l0.136,0.383h1.909l0.318-0.234l4.15-0.022l-0.013-0.329h-0.638l0.317-0.233v-0.584h1.274v-0.234l1.266-0.132l0.961-0.335
	l1.597-0.014l-0.005-0.453c1.573,0.153,1.994,0.988,3.182,1.402h0.954l-0.383,0.577l1.021,0.123l0.637,0.118h0.953
	c0.127-0.173,0.058-0.351,0.638-0.351c0.567,0,0.521,0.175,0.635,0.351h0.956c0.615,0,0.566,0.036,0.954,0.117l0.318-0.117
	l0.228-1.172l1.683,0.002v-0.233c0.562-0.194,0.954-0.283,0.954-0.7v-0.351l2.171,0.291l0.375-0.525
	c1.491-0.045,1.574-0.233,3.183-0.233c0.994,0,3.123,0.531,3.817,0.702c0.854,0.075,0.601,0.117,1.273,0.117
	c0.677,0,0.897-0.674,0.955-0.936l0.998-0.006l-0.681-0.694h1.59l0.058-0.416l2.171-0.286v-0.467h1.274l0.009-0.591l1.264,0.241
	c0.449-0.082,0.528-0.118,1.272-0.118h2.228c1.056,0,0.664,0.234,1.275,0.234c1.306,0,1.504-0.221,3.181-0.234v-0.467h0.636
	l0.619,0.126l0.318-0.363l1.609,0.003l2.545,0.234l0.637-0.117l3.182,0.231v-0.231h1.272v0.467l1.91,0.351l0.017,0.725l1.573-0.142
	v0.234h1.593v0.234l0.775,0.023l1.135,1.146l0.619,0.134l0.016,0.449c0.244,0.062,0.637,0.064,0.637,0.235
	c0,0.975,0.064,0.381,0.636,1.167h1.274l1.588-0.12l0.066,0.822h0.892v0.467l1.272,0.118h0.638v0.467h1.271
	c0.964,0,0.88-0.138,0.957-0.467h0.953l1.592-0.469l-0.319-0.934h0.955l0.661-0.931l0.931-0.004l0.789-0.434l3.338-0.177l1.6,0.027
	l-0.211,0.127l1.959,0.437l-0.107-0.195l2.815-0.954l2.225,0.011l0.955-0.011l0.359,0.463l1.551-0.117
	c0.19,0.265,0.074,0.355,0.955,0.355h0.955v0.468h0.637l0.62-0.127l0.181-1.156l0.554-0.001l0.869-0.136l-0.011-0.099h1.289v-0.233
	l1.26,0.131l0.896-0.289l0.07-0.428h1.272l0.3-0.352l0.981,0.114l0.907-0.245l1.944,0.148l4.458,0.569l0.957,0.233h1.271
	c0.371-0.256,0.277-0.467,1.274-0.467c0.686,0,1.185,0.293,1.272,0.585l1.898,0.134l0.012,0.333l6.043-0.242l2.867-0.46
	l-0.363-0.347l-1.229-0.004v-0.234c0.995,0.032,1.132,0.119,2.229,0.119h0.955v-0.234h1.272l0.302,0.702l1.687-0.141l-0.328-0.002
	l-1.271-0.467l0.246-0.091h0.955c1.034,0,0.24,0.101,1.591,0.234v0.467l-0.634,0.116l0.953,0.118l7.32-0.016l-0.002-0.336h1.274
	v0.467h3.181l2.215,0.142l0.013-0.726h1.593v0.702h2.228v-0.233h0.954l0.399-0.814l0.666-0.445l1.163-0.027l-0.639-0.466
	c0.328-0.114,5.673-1.403,5.729-1.403c0.87,0,1.038,0.234,1.909,0.234c0.438,0,1.358-0.468,2.229-0.468
	c0.43,0,0.175,0.126,1.272,0.233v-0.233h1.272c0.713,0,0.697,0.091,1.272,0.233h0.954c1.176-0.275,2.831,0.03,3.182,0.584
	l2.548-0.029v0.38h1.59v0.233h0.955v-0.233l2.222,0.127l0.006-0.478h0.955v0.234h0.638l0.952-0.351
	c0.237-0.215,1.534-0.468,2.229-0.468h0.955l-0.09-0.153l3.235-0.257l0.037,0.293l1.272-0.116h0.316l2.547-0.235v0.235l5.104,0.204
	l-0.014-0.322h1.592v0.234l2.906-0.3c0.801,0.176,0.814,0.534,2.186,0.534c0.674,0,0.42-0.041,1.271-0.117l0.957,0.584l1.908-0.117
	l0.639-0.118v-0.702c1.146,0.113,0.852,0.012,0.953,0.468l2.168,0.009l0.361,0.339l-0.303,0.354h1.592v0.584h0.955l0.32,0.351
	l0.361,0.346l10.137,0.004l1.594-0.117l1.395,0.381l1.15,0.086c0.713,0,0.699-0.093,1.271-0.234v0.467l2.215-0.142l-0.369-0.554
	c1.061-0.036,1.195-0.123,2.293-0.123h0.953l0.33,0.584l0.943,0.001l0.318-0.234l1.457-0.773l1.088-0.162v-0.584l-0.953-0.117
	h-2.863l-0.701-0.123l0.381-0.579l-0.953-0.116v-0.234h0.635c-0.279-0.444-0.785-0.445,0.639-0.583l0.371-0.422l1.221-0.279
	l-1.039-0.006l0.611-1.099l-1.803-0.532l4.643-0.474l-0.066,0.119l0.121-0.125l-0.055,0.006l0.451-0.811l0.316-0.351h1.273v-0.35
	h0.955l-0.244-0.078l2.525-1.073l-0.008-0.169l9.539,0.506l-0.357,0.463h0.955l0.639-0.117l0.377-0.342l2.799-0.139
	c0.34-0.006,2.758,0.21,3.188,0.247l0.367,0.696l2.166,0.152l1.193,0.372l0.092,0.533l1.74,0.241l-0.148,0.11h0.953
	c0.641-0.582,3.059-0.234,4.771-0.234h1.912l2.129,0.85l-0.221,0.085c1.342,0.054,2.32,0.598,5.729,0.702l2.547-0.35
	c0.191-0.266,0.305-0.469,1.271-0.469h0.957v-0.351h1.271c0.613,0,0.566,0.037,0.953,0.118v-0.35l0.955-0.234l0.318-0.818h1.592
	l0.32-0.116l0.314-0.468h2.547v-0.584h-0.635l0.33-0.481l1.26,0.131l0.012-0.248l1.262,0.131l1.121-0.545l2.379,0.427l0.361-0.583
	l3.881-0.328l-0.105-0.141h1.91v0.233h0.955c0.615,0,0.566,0.038,0.955,0.116v-0.35c2.027,0.173,2.607,0.2,3.5,0.817l1.908,0.351
	l0.918,0.25l1.299-0.147c0.637,0.135,0.949,0.248,1.92,0.248c0.852,0,0.941-0.17,1.273-0.351h0.635v0.466l-0.73,0.4l-0.223,0.418
	h0.953l-0.355,0.463l1-0.107l-0.307,0.347l0.619,0.115l1.273,0.118c-0.732,0.665-1.371-0.279-1.592,0.699h2.229v0.351h0.953
	l-0.953,0.234l-2.229,0.116v0.352h2.578l-0.033,0.936h1.137l0.119,0.442l-1.572,0.141v0.234h1.27v0.935l-2.629-0.219l0.723,0.568
	h0.953c1.035,0,0.24,0.101,1.592,0.234v0.584l0.746,0.325l2.434,0.145l-0.883-0.277l-0.07-0.426h0.637l0.279-0.821l1.311,0.002
	v-0.468c0-0.221,1.207-0.817,1.912-0.817h0.955l1.271,0.701l0.953-0.817l0.957-0.117l1.012,0.568l-0.459,0.829l0.719,0.004
	l0.318-0.467c1.32,0.113,1.475,0.068,1.592,0.584h0.955v0.468h0.955v0.701l1.271,0.117l0.955,0.466l0.271,1.288l3.865-0.001v-0.234
	l-0.938,0.001l0.561-0.633l1.014-0.652l-1.549-0.004l-0.406-0.361l0.684-0.336l2.227-0.351v-0.35l2.498-0.285l0.047-0.183
	l-1.273-0.118l-1.07-0.515l-0.512-0.03l1.568-0.825l0.334,0.085v-0.351h-1.273l0.801-0.916l1.67-0.519l0.074-0.319h-0.635
	c0.311-0.493,1.844-1.01,3.182-1.05l0.262-0.474l1.953,0.139l-0.613-0.602l1.58,0.001l0.066-0.415l1.531-0.311l2.178,0.14
	l0.361-0.466l0.947,0.133l0.006-0.25h0.637l1.129,0.654l3.316,0.196l0.01,0.552h1.91c-0.141-0.628-0.637-0.343-0.637-0.584
	c0-0.247,0.113-0.154,0.318-0.467c1.875-0.058,0.664-0.234,1.912-0.234h0.953v-0.583l1.449-0.255l1.096-0.095l4.455-0.035
	l0.318,0.268v-0.35l1.723-0.392l4.959-0.193l-2.793,0.24l-0.387,0.452l4.773,0.126v0.234h-0.957l0.016,0.216l0.621,0.134
	l0.945,0.133l0.01-0.25c0.838,0.154-0.264,0.117,0.955,0.117l0.953,0.117h1.592v-0.234h1.592v-0.351l2.545,0.12l0.002-0.47h2.545
	l0.234,0.59l1.52-0.429l-0.146-0.281l1.574-0.114l1.592-0.234l0.637-0.584h1.271v-0.351h-0.637l0.008-0.217l0.947-0.133l0.01-0.453
	l4.445-0.365v-0.7l3.17-0.257l0.014-0.328l5.025-0.55l1.268-0.412l3.574-0.075l-0.002,0.218h2.863l0.955-0.018v0.135h0.955
	l-0.244-0.096l2.469-0.84h1.592l0.342,1.167l0.934-0.348h1.908V279l-0.619,0.134l0.301,0.217c0.375,0.517,0.711,0.351,2.545,0.351
	c0.574,0.141,0.559,0.233,1.273,0.233h0.955c1.945,0,1.717-0.198,2.865-0.351v0.47h-1.275l0.307,1.05l1.908-0.146l0.396,0.608
	l1.207,0.007v21.15H440.681v0.103H55.593v-0.592H55.45V284.108z"/>
<g>
	<path fill-rule="evenodd" clip-rule="evenodd" fill="#2180C4" d="M1074.337,16.135l-7.781,6.481l61.34,0.182l-7.857-7.362
		l-0.605,0.008c-2.367-1.348-11.43-2.356-22.246-2.356c-12.588,0-22.803,1.364-22.848,3.046H1074.337z"/>
	<path fill-rule="evenodd" clip-rule="evenodd" fill="#2A3C8E" d="M1066.415,23.116l-0.783,6.83l62.566,1.685l0.805-1.163
		l-1.107-7.67h-0.059c-0.975-2.714-14.34-4.868-30.682-4.868C1080.183,17.931,1066.415,20.253,1066.415,23.116z"/>
	<path fill-rule="evenodd" clip-rule="evenodd" fill="#26275F" d="M1097.237,25.284c17.541,0,31.766,2.32,31.766,5.184
		c0,0.094-0.016,0.188-0.047,0.279l-0.182,1.069l-0.576-0.185c-3.238,2.304-15.871,4.022-30.961,4.022
		c-15.205,0-27.914-1.746-31.031-4.074l-0.508,0.265l-0.18-1.099c-0.029-0.091-0.047-0.184-0.047-0.276
		C1065.472,27.604,1079.698,25.284,1097.237,25.284z"/>
	<path fill-rule="evenodd" clip-rule="evenodd" fill="#2180C4" d="M1097.233,36.854c17.381,0,31.555-2.329,31.555-5.184
		c0-2.855-14.174-5.184-31.555-5.184c-17.379,0-31.553,2.329-31.553,5.184C1065.681,34.526,1079.854,36.854,1097.233,36.854z"/>
	<path fill-rule="evenodd" clip-rule="evenodd" fill="#26275F" d="M1067.796,32.415l0.004,0.019
		c-0.002,0.027-0.004,0.053-0.004,0.081c0,0.198,0.074,0.391,0.221,0.583l4.027,12.406l27.584,0.521c0,0,22.953,1.096,23.072,0.254
		c0.119-0.839,4.039-13.887,4.039-13.887h-0.213c-0.404-2.557-13.396-4.612-29.361-4.612c-16.01,0-29.031,2.066-29.365,4.635
		H1067.796z"/>
	<path fill-rule="evenodd" clip-rule="evenodd" fill="#2A3C8E" d="M1060.925,48.301c-8.66,2.507-12.635,8.011-12.635,8.011
		l1.354,0.026c-1.08,1.162-1.354,1.938-1.354,1.938l49.373-0.983l49.369,0.983c0,0-0.271-0.776-1.357-1.938l1.357-0.026
		c0,0-3.977-5.504-12.633-8.011c-5.076-2.55-19.527-4.394-36.564-4.394h-0.172h-0.176
		C1080.45,43.907,1065.997,45.75,1060.925,48.301z"/>
	<path fill-rule="evenodd" clip-rule="evenodd" fill="#26275F" d="M1097.663,51.266c32.096,0,58.123,4.248,58.123,9.486
		c0,0.172-0.031,0.344-0.086,0.516l-0.326,1.951l-1.061-0.338c-5.922,4.211-29.041,7.358-56.65,7.358
		c-27.824,0-51.082-3.194-56.785-7.453l-0.932,0.487l-0.33-2.019c-0.053-0.165-0.082-0.333-0.082-0.502
		C1039.534,55.514,1065.565,51.266,1097.663,51.266z"/>
	<path fill-rule="evenodd" clip-rule="evenodd" fill="#2180C4" d="M1097.653,72.436c31.803,0,57.742-4.26,57.742-9.483
		c0-5.227-25.939-9.487-57.742-9.487c-31.801,0-57.74,4.261-57.74,9.487C1039.913,68.176,1065.853,72.436,1097.653,72.436z"/>
	<path fill-rule="evenodd" clip-rule="evenodd" fill="#293578" d="M1040.595,66.006l14.416,36.493h84.803l14.484-35.91
		c0.219-0.274,0.336-0.554,0.336-0.836c0-4.25-25.488-8.459-56.971-8.459c-31.488,0-57.068,6.292-57.068,8.459
		c0,2.167,0.012,0.168,0.035,0.253H1040.595z"/>
	<path fill-rule="evenodd" clip-rule="evenodd" fill="#26275F" d="M1097.413,95.399c23.412,0,42.4,3.18,42.4,7.099
		c0,0,0.16,1.541-1.156,2.377c-0.533,0.342-0.779,0.148-0.879-0.2c-5.49,2.855-21.488,4.921-40.365,4.921
		c-17.93,0-33.264-1.863-39.463-4.5l-0.736,0.347c0,0-0.303,0.047-1.285-0.968c-0.953-0.986-0.918-1.918-0.918-1.976V102.5v-0.001
		C1055.011,98.579,1074.001,95.399,1097.413,95.399z"/>
	<path fill-rule="evenodd" clip-rule="evenodd" fill="#2A3C8E" d="M1097.731,111.374c22.621,0,41.072-3.188,41.072-7.099
		c0-3.91-18.451-7.099-41.072-7.099s-41.072,3.189-41.072,7.099C1056.659,108.187,1075.11,111.374,1097.731,111.374z"/>
	<path fill-rule="evenodd" clip-rule="evenodd" fill="#293578" d="M1096.474,104.526c8.322,0,15.08,1.815,15.08,4.054
		c0,0.134-0.025,0.265-0.074,0.394V289.86h-30.084V108.581C1081.396,106.341,1088.151,104.526,1096.474,104.526z"/>
	<path fill-rule="evenodd" clip-rule="evenodd" fill="#71C9F1" d="M1090.628,107.82c2.168,0,3.928,0.722,3.928,1.612
		c0,0.054-0.006,0.107-0.018,0.158v56.262h0.035V289.86h-7.873V181.603v-15.75v-56.42
		C1086.7,108.542,1088.458,107.82,1090.628,107.82z"/>
	<path fill-rule="evenodd" clip-rule="evenodd" fill="#26275F" d="M1090.628,107.82c-2.117,0-3.842,0.687-3.928,1.548l1.176,0.78
		c0.148-0.263,0.453-0.502,0.875-0.7c0.719-0.336,1.775-0.55,2.953-0.55c1.123,0,2.135,0.194,2.852,0.503
		C1094.513,108.526,1092.771,107.82,1090.628,107.82z"/>
	<path fill-rule="evenodd" clip-rule="evenodd" fill="#2180C4" d="M1087.876,110.149l-1.176-0.78c0,0.023,0,0.043,0,0.064v1.683
		v54.738v15.75V289.86h1.076V182.682v-15.75v-55.768v-0.652C1087.776,110.387,1087.812,110.266,1087.876,110.149z"/>
	<rect x="1087.776" y="119.517" fill-rule="evenodd" clip-rule="evenodd" fill="#26275F" width="6.762" height="3.682"/>
	<rect x="1087.776" y="131.235" fill-rule="evenodd" clip-rule="evenodd" fill="#26275F" width="6.762" height="3.68"/>
	<rect x="1087.776" y="142.951" fill-rule="evenodd" clip-rule="evenodd" fill="#26275F" width="6.762" height="3.684"/>
	<rect x="1087.776" y="154.669" fill-rule="evenodd" clip-rule="evenodd" fill="#26275F" width="6.762" height="3.682"/>
	<polygon fill-rule="evenodd" clip-rule="evenodd" fill="#26275F" points="1094.573,166.388 1087.776,166.388 1087.776,166.932 
		1087.776,170.068 1094.573,170.068 	"/>
	<rect x="1087.776" y="178.104" fill-rule="evenodd" clip-rule="evenodd" fill="#26275F" width="6.797" height="3.682"/>
	<rect x="1087.776" y="189.824" fill-rule="evenodd" clip-rule="evenodd" fill="#26275F" width="6.797" height="3.678"/>
	<rect x="1087.776" y="201.54" fill-rule="evenodd" clip-rule="evenodd" fill="#26275F" width="6.797" height="3.68"/>
	<rect x="1087.776" y="213.255" fill-rule="evenodd" clip-rule="evenodd" fill="#26275F" width="6.797" height="3.683"/>
	<rect x="1087.776" y="224.976" fill-rule="evenodd" clip-rule="evenodd" fill="#26275F" width="6.797" height="3.681"/>
	<rect x="1087.776" y="236.691" fill-rule="evenodd" clip-rule="evenodd" fill="#26275F" width="6.797" height="3.683"/>
	<rect x="1087.776" y="248.409" fill-rule="evenodd" clip-rule="evenodd" fill="#26275F" width="6.797" height="3.681"/>
	<rect x="1087.776" y="260.127" fill-rule="evenodd" clip-rule="evenodd" fill="#26275F" width="6.797" height="3.68"/>
	<rect x="1087.776" y="271.845" fill-rule="evenodd" clip-rule="evenodd" fill="#26275F" width="6.797" height="3.68"/>
	
		<linearGradient id="SVGID_1_" gradientUnits="userSpaceOnUse" x1="-8028.9619" y1="284.3364" x2="-8022.165" y2="284.3364" gradientTransform="matrix(1 0 0 1 9116.7383 0)">
		<stop  offset="0" style="stop-color:#D1D2D3"/>
		<stop  offset="0.43" style="stop-color:#C6C7C9"/>
		<stop  offset="1" style="stop-color:#A6A8AC"/>
	</linearGradient>
	<rect x="1087.776" y="278.749" fill-rule="evenodd" clip-rule="evenodd" fill="url(#SVGID_1_)" width="6.797" height="11.175"/>
	<path fill-rule="evenodd" clip-rule="evenodd" fill="#2180C4" d="M1060.026,70.147l-0.584-2.251l-1.885-7.227
		c-2.598,0.459-4.949,0.935-7.018,1.41l1.375,4.524l0.695,2.283l9.068,29.792c1.588-0.417,3.43-0.802,5.488-1.153L1060.026,70.147z"
		/>
	<path fill-rule="evenodd" clip-rule="evenodd" fill="#2180C4" d="M1094.966,70.226l0.014,2.203l0.154,22.982
		c0.754-0.006,1.514-0.012,2.279-0.012c1.037,0,2.066,0.006,3.084,0.017c0.01-6.756-0.057-14.926-0.152-22.988
		c-0.006-0.734-0.018-1.469-0.025-2.2c-0.055-4.457-0.119-8.837-0.184-12.886c0-0.013,0-0.026,0-0.04
		c-0.82-0.006-1.645-0.009-2.473-0.009c-0.936,0-1.863,0.006-2.783,0.016v0.039L1094.966,70.226z"/>
	<path fill-rule="evenodd" clip-rule="evenodd" fill="#2180C4" d="M1136.255,70.006l-7.24,27.76c2.082,0.39,3.908,0.816,5.441,1.278
		l9.242-30.368l0.695-2.284l1.508-4.957c-2.047-0.483-4.414-0.943-7.055-1.366l-2.006,7.688L1136.255,70.006z"/>
	<path fill-rule="evenodd" clip-rule="evenodd" fill="#71C9F1" d="M1061.14,69.983l1.961,7.52
		c7.166-1.072,17.064-1.851,30.625-1.761l-0.023-3.634l-0.014-2.049l-0.08-11.998v-0.037c-2.135,0.026-4.24,0.082-6.303,0.163
		h-0.004c-10.998,0.436-20.857,1.62-28.465,2.969l1.756,6.731L1061.14,69.983z"/>
	<path fill-rule="evenodd" clip-rule="evenodd" fill="#71C9F1" d="M1101.45,70.11l0.023,2.07c0.014,1.246,0.029,2.497,0.043,3.742
		c14.008,0.296,24.184,1.346,31.504,2.598l2.246-8.618l0.553-2.117l1.887-7.235c-6.891-1.103-15.766-1.95-25.758-2.353
		c-3.436-0.14-7.006-0.224-10.672-0.251l0.002,0.038C1101.337,61.793,1101.396,65.918,1101.45,70.11z"/>
	<path fill-rule="evenodd" clip-rule="evenodd" fill="#71C9F1" d="M1093.524,77.287c-13.238-0.087-22.902,0.674-29.898,1.721
		l4.576,17.556c6.547-1.115,15.494-1.834,25.438-1.923L1093.524,77.287z"/>
	<path fill-rule="evenodd" clip-rule="evenodd" fill="#71C9F1" d="M1101.796,77.3c0.062,6.168,0.105,12.245,0.098,17.419
		c10.361,0.125,19.598,0.931,26.125,2.15l4.443-17.04C1125.335,78.611,1115.433,77.588,1101.796,77.3z"/>
	<path fill-rule="evenodd" clip-rule="evenodd" fill="#71C9F1" d="M1140.261,81.899l-4.908,16.12
		c2.955,0.885,4.639,1.907,4.639,2.991l6.922-17.161C1145.312,83.25,1143.146,82.572,1140.261,81.899z"/>
	<path fill-rule="evenodd" clip-rule="evenodd" fill="#71C9F1" d="M1141.003,79.403c2.928,0.681,5.129,1.371,6.756,1.982
		l5.703-14.134c0.193-0.246,0.295-0.49,0.295-0.738c0-0.267-0.113-0.535-0.338-0.8c-0.268-0.321-0.697-0.637-1.271-0.953
		c-1.305-0.712-3.373-1.403-6.068-2.041l-1.322,4.357l-0.615,2.006L1141.003,79.403z"/>
	<path fill-rule="evenodd" clip-rule="evenodd" fill="#71C9F1" d="M1041.851,66.978L1041.851,66.978L1041.851,66.978v0.072
		l5.266,13.327c1.631-0.672,4.027-1.459,7.455-2.199l-2.674-8.783l-0.582-1.916l-1.156-3.792c-2.584,0.592-4.643,1.179-6.068,1.706
		c-0.734,0.273-1.301,0.527-1.686,0.758c-0.299,0.18-0.486,0.348-0.555,0.495V66.978z M1041.849,66.979l0.002-0.001v-0.331
		c-0.02,0.041-0.027,0.083-0.027,0.12c0,0.078,0,0.147,0,0.212H1041.849c0,0.006-0.002,0.026-0.006,0.056l0.008,0.015v-0.071
		H1041.849z"/>
	<path fill-rule="evenodd" clip-rule="evenodd" fill="#71C9F1" d="M1055.595,80.929c-3.535,0.761-6.006,1.577-7.688,2.267
		l7.006,17.737c0-1.219,2.117-2.351,5.764-3.303L1055.595,80.929z"/>
	<rect x="1050.479" y="278.704" fill-rule="evenodd" clip-rule="evenodd" fill="#293578" width="367.969" height="11.156"/>
	<rect x="1054.124" y="289.86" fill-rule="evenodd" clip-rule="evenodd" fill="#93D8EB" width="362.551" height="21.298"/>
	<rect x="1111.479" y="255.38" fill-rule="evenodd" clip-rule="evenodd" fill="#93D8EB" width="292.645" height="23.324"/>
	<rect x="1149.312" y="249.482" fill-rule="evenodd" clip-rule="evenodd" fill="#293578" width="10.137" height="29.222"/>
	<rect x="1111.702" y="284.837" fill-rule="evenodd" clip-rule="evenodd" fill="#293578" width="10.137" height="29.222"/>
	<rect x="1160.052" y="284.837" fill-rule="evenodd" clip-rule="evenodd" fill="#293578" width="10.137" height="29.222"/>
	<rect x="1208.397" y="284.837" fill-rule="evenodd" clip-rule="evenodd" fill="#293578" width="10.139" height="29.222"/>
	<rect x="1256.747" y="284.837" fill-rule="evenodd" clip-rule="evenodd" fill="#293578" width="10.137" height="29.222"/>
	<rect x="1305.097" y="284.837" fill-rule="evenodd" clip-rule="evenodd" fill="#293578" width="10.137" height="29.222"/>
	<rect x="1353.442" y="284.837" fill-rule="evenodd" clip-rule="evenodd" fill="#293578" width="10.137" height="29.222"/>
	<rect x="1401.792" y="284.837" fill-rule="evenodd" clip-rule="evenodd" fill="#293578" width="10.139" height="29.222"/>
	<rect x="1197.661" y="249.482" fill-rule="evenodd" clip-rule="evenodd" fill="#293578" width="10.137" height="29.222"/>
	<rect x="1246.009" y="249.482" fill-rule="evenodd" clip-rule="evenodd" fill="#293578" width="10.137" height="29.222"/>
	<rect x="1294.358" y="249.482" fill-rule="evenodd" clip-rule="evenodd" fill="#293578" width="10.137" height="29.222"/>
	<rect x="1342.706" y="249.482" fill-rule="evenodd" clip-rule="evenodd" fill="#293578" width="10.137" height="29.222"/>
	<rect x="1391.054" y="249.482" fill-rule="evenodd" clip-rule="evenodd" fill="#293578" width="10.139" height="29.222"/>
	<rect x="1111.479" y="244.225" fill-rule="evenodd" clip-rule="evenodd" fill="#293578" width="295.434" height="11.155"/>
	<polygon fill-rule="evenodd" clip-rule="evenodd" fill="#26275F" points="1149.313,254.505 1150.333,254.505 1150.333,254.568 
		1150.333,255.38 1150.333,278.704 1149.313,278.704 1149.313,255.38 1111.101,255.38 1111.101,254.568 1149.313,254.568 	"/>
	<polygon fill-rule="evenodd" clip-rule="evenodd" fill="#26275F" points="1111.704,289.86 1112.724,289.86 1112.724,289.924 
		1112.724,290.735 1112.724,314.059 1111.704,314.059 1111.704,290.735 1073.491,290.735 1073.491,289.924 1111.704,289.924 	"/>
	<polygon fill-rule="evenodd" clip-rule="evenodd" fill="#26275F" points="1160.052,289.86 1161.073,289.86 1161.073,289.924 
		1161.073,290.735 1161.073,314.059 1160.052,314.059 1160.052,290.735 1121.839,290.735 1121.839,289.924 1160.052,289.924 	"/>
	<polygon fill-rule="evenodd" clip-rule="evenodd" fill="#26275F" points="1208.397,289.86 1209.421,289.86 1209.421,289.924 
		1209.421,290.735 1209.421,314.059 1208.397,314.059 1208.397,290.735 1170.187,290.735 1170.187,289.924 1208.397,289.924 	"/>
	<polygon fill-rule="evenodd" clip-rule="evenodd" fill="#26275F" points="1256.747,289.86 1257.769,289.86 1257.769,289.924 
		1257.769,290.735 1257.769,314.059 1256.747,314.059 1256.747,290.735 1218.536,290.735 1218.536,289.924 1256.747,289.924 	"/>
	<polygon fill-rule="evenodd" clip-rule="evenodd" fill="#26275F" points="1305.095,289.86 1306.12,289.86 1306.12,289.924 
		1306.12,290.735 1306.12,314.059 1305.095,314.059 1305.095,290.735 1266.884,290.735 1266.884,289.924 1305.095,289.924 	"/>
	<polygon fill-rule="evenodd" clip-rule="evenodd" fill="#26275F" points="1353.442,289.86 1354.466,289.86 1354.466,289.924 
		1354.466,290.735 1354.466,314.059 1353.442,314.059 1353.442,290.735 1315.231,290.735 1315.231,289.924 1353.442,289.924 	"/>
	<polygon fill-rule="evenodd" clip-rule="evenodd" fill="#26275F" points="1401.792,289.86 1402.815,289.86 1402.815,289.924 
		1402.815,290.735 1402.815,314.059 1401.792,314.059 1401.792,290.735 1363.579,290.735 1363.579,289.924 1401.792,289.924 	"/>
	<polygon fill-rule="evenodd" clip-rule="evenodd" fill="#26275F" points="1197.661,254.505 1198.685,254.505 1198.685,254.568 
		1198.685,255.38 1198.685,278.704 1197.661,278.704 1197.661,255.38 1159.448,255.38 1159.448,254.568 1197.661,254.568 	"/>
	<polygon fill-rule="evenodd" clip-rule="evenodd" fill="#26275F" points="1246.011,254.505 1247.032,254.505 1247.032,254.568 
		1247.032,255.38 1247.032,278.704 1246.011,278.704 1246.011,255.38 1207.798,255.38 1207.798,254.568 1246.011,254.568 	"/>
	<polygon fill-rule="evenodd" clip-rule="evenodd" fill="#26275F" points="1294.358,254.505 1295.38,254.505 1295.38,254.568 
		1295.38,255.38 1295.38,278.704 1294.358,278.704 1294.358,255.38 1256.146,255.38 1256.146,254.568 1294.358,254.568 	"/>
	<polygon fill-rule="evenodd" clip-rule="evenodd" fill="#26275F" points="1342.706,254.505 1343.728,254.505 1343.728,254.568 
		1343.728,255.38 1343.728,278.704 1342.706,278.704 1342.706,255.38 1304.493,255.38 1304.493,254.568 1342.706,254.568 	"/>
	<polygon fill-rule="evenodd" clip-rule="evenodd" fill="#26275F" points="1391.054,254.505 1392.073,254.505 1392.073,254.568 
		1392.073,255.38 1392.073,278.704 1391.054,278.704 1391.054,255.38 1352.843,255.38 1352.843,254.568 1391.054,254.568 	"/>
	<rect x="1111.479" y="255.38" fill-rule="evenodd" clip-rule="evenodd" fill="#71C9F1" width="37.834" height="6.268"/>
	<rect x="1073.872" y="290.735" fill-rule="evenodd" clip-rule="evenodd" fill="#71C9F1" width="37.832" height="6.267"/>
	<rect x="1122.22" y="290.735" fill-rule="evenodd" clip-rule="evenodd" fill="#71C9F1" width="37.832" height="6.267"/>
	<rect x="1170.567" y="290.735" fill-rule="evenodd" clip-rule="evenodd" fill="#71C9F1" width="37.83" height="6.267"/>
	<rect x="1218.915" y="290.735" fill-rule="evenodd" clip-rule="evenodd" fill="#71C9F1" width="37.832" height="6.267"/>
	<rect x="1267.263" y="290.735" fill-rule="evenodd" clip-rule="evenodd" fill="#71C9F1" width="37.832" height="6.267"/>
	<rect x="1315.612" y="290.735" fill-rule="evenodd" clip-rule="evenodd" fill="#71C9F1" width="37.83" height="6.267"/>
	<rect x="1363.96" y="290.735" fill-rule="evenodd" clip-rule="evenodd" fill="#71C9F1" width="37.832" height="6.267"/>
	<rect x="1159.448" y="255.38" fill-rule="evenodd" clip-rule="evenodd" fill="#71C9F1" width="38.213" height="6.268"/>
	<rect x="1207.798" y="255.38" fill-rule="evenodd" clip-rule="evenodd" fill="#71C9F1" width="38.213" height="6.268"/>
	<rect x="1256.146" y="255.38" fill-rule="evenodd" clip-rule="evenodd" fill="#71C9F1" width="38.213" height="6.268"/>
	<rect x="1304.494" y="255.38" fill-rule="evenodd" clip-rule="evenodd" fill="#71C9F1" width="38.211" height="6.268"/>
	<rect x="1352.843" y="255.38" fill-rule="evenodd" clip-rule="evenodd" fill="#71C9F1" width="34.939" height="6.268"/>
	<rect x="1050.575" y="311.158" fill-rule="evenodd" clip-rule="evenodd" fill="#293578" width="386.889" height="11.157"/>
	<rect x="1063.659" y="282.933" fill-rule="evenodd" clip-rule="evenodd" fill="#293578" width="10.137" height="29.223"/>
</g>
</svg>
