<?xml version="1.0" encoding="utf-8"?>
<!-- Generator: Adobe Illustrator 16.0.4, SVG Export Plug-In . SVG Version: 6.00 Build 0)  -->
<!DOCTYPE svg PUBLIC "-//W3C//DTD SVG 1.1//EN" "http://www.w3.org/Graphics/SVG/1.1/DTD/svg11.dtd">
<svg version="1.1" id="Layer_1" xmlns="http://www.w3.org/2000/svg" xmlns:xlink="http://www.w3.org/1999/xlink" x="0px" y="0px"
	 width="2472.689px" height="881.72px" viewBox="0 0 2472.689 881.72" enable-background="new 0 0 2472.689 881.72"
	 xml:space="preserve">
<rect x="-1898.406" y="-1149.199" transform="matrix(0.9999 0.0161 -0.0161 0.9999 -5.1859 9.8685)" fill="none" width="2565.038" height="1663.691"/>
<g>
	<path opacity="0.7" fill="#0A64A3" d="M2472.689,600.958c0,0-170.156,3.095-198.012,6.184c-27.83,3.091-383.628-6.184-392.9-3.089
		c-9.287,3.089-6.189-9.286-21.668,3.089c-15.465,12.377-225.848,3.091-225.848,3.091s0-15.466-18.559-3.091
		c-18.566,12.377-37.129,3.091-37.129,3.091h-346.491l-21.675-58.782l-219.672,49.508l-55.67-9.287l-126.843,9.287l-244.415-24.76
		l-136.129-3.086l111.368,40.219c0,0-55.677,15.472-89.718,15.472c-34.037,0-77.347,12.372-77.347,12.372l92.806,6.189
		c0,0,46.42,3.094,64.986,0c18.559-3.102,102.098-18.562,111.363-18.562c9.287,0,49.516,15.46,49.516,15.46
		s-191.829,55.69-262.975,64.977c-71.168,9.285-361.986,55.686-411.488,71.156c-49.515,15.469-201.104,46.408-241.302,55.695
		c-40.229,9.273-105.212,40.219-117.584,46.41c-12.36,6.182,15.497,12.586,43.319,9.275
		c129.936-15.467,253.699-34.025,312.476-43.316c58.78-9.271,352.7-61.879,377.444-68.064
		c24.748-6.186,504.297-108.281,519.765-117.564c15.463-9.281,293.919-15.467,293.919-15.467l-58.782,21.664
		c0,0,37.12,6.18,55.683,12.371c18.56,6.186,68.064,15.464,89.721,9.275c21.674-6.186,74.263-21.646,92.826-30.939
		c18.559-9.277,6.168-15.473,6.168-15.473l293.928-15.46c0,0,257.559-1.696,343.425-3.1
		C2157.139,623.56,2340.551,615.684,2472.689,600.958z"/>
	<g>
		<g>
			<g>
				<path fill="#1C1F4F" d="M157.185,748.371c0,18.688,6.167,34.041,29.089,33.844c16.056-0.137,29.056-15.156,29.056-33.844
					c0-18.689-11.153-35.238-29.29-35.006C169.975,713.574,157.185,729.681,157.185,748.371z"/>
				<path fill="#1C1F4F" d="M106.258,749.878c0,19.328,9.475,32.264,32.089,31.518c28.233-0.926,29.076-15.67,29.076-34.998
					c0-19.34,3.966-35.125-29.076-35.004C122.286,711.439,106.258,730.556,106.258,749.878z"/>
				<path fill="#1C1F4F" d="M186.492,713.132l-24.887-0.225l-2.324-16.053c0,0,6.508-6.738,7.449-10.008
					c0.93-3.251,3.014-11.393,0.93-12.787c-2.1-1.395-6.055-1.395-6.055-2.323c0-0.935,10.7-3.491,10.7-3.491l0.479-21.866
					l-40.711-6.037l4.414,33.487l-19.307-3.027l-6.026,9.54l-1.862,4.411l2.799,3.031l3.937,4.644c0,0,0,4.427,2.794,4.427
					c2.79,0,13.252,1.397,15.59,0.228c2.318-1.161,5.34-3.019,7.203-2.088c1.869,0.927,2.334,3.485,4.199,3.485
					c1.852,0,2.312-1.146,2.312-1.146l0.695,17.425l2.568,17.217l26.979,3.955L186.492,713.132z"/>
			</g>
			<g>
				<path fill="#1C1F4F" d="M912.08,565.271c0,13.033,11.141,23.507,19.996,23.341c12.486-0.256,16.008-10.564,16.008-23.596
					c0-13.042-7.164-23.803-16.008-23.609C913.635,541.817,912.08,552.24,912.08,565.271z"/>
				<path fill="#1C1F4F" d="M890.294,570.569c0,13.023,2.185,23.841,14.3,23.841c17.537,0,17.76-10.818,17.76-23.841
					c0-13.03-7.166-23.684-16.031-23.607C892.441,547.087,890.294,557.539,890.294,570.569z"/>
				<path fill="#1C1F4F" d="M863.744,575.838c0,13.393,3.232,24.862,16.021,24.237c15.815-0.77,16.032-10.844,16.032-24.237
					c0-13.391-7.162-24.312-16.032-24.233C865.889,551.734,863.744,562.447,863.744,575.838z"/>
				<path fill="#1C1F4F" d="M809.891,573.597c0,13.865,3.957,27.514,18.918,27c14.002-0.479,18.692-13.135,18.692-27
					c0-13.869-5.172-25.377-18.797-25.122C818.324,548.664,809.891,559.728,809.891,573.597z"/>
				<path fill="#1C1F4F" d="M837.227,571.955c0,14.829,7.309,28.642,19.43,28.642c14.01,0,18.169-13.813,18.169-28.642
					c0-14.818-5.165-27.099-18.79-26.831C845.637,545.331,837.227,557.136,837.227,571.955z"/>
				<rect x="912.331" y="533.306" fill="#1C1F4F" width="4.679" height="18.556"/>
				<rect x="907.276" y="533.306" fill="#1C1F4F" width="2.136" height="18.556"/>
				<rect x="901.225" y="534.069" fill="#1C1F4F" width="2.119" height="18.574"/>
				<rect x="891.978" y="534.586" fill="#1C1F4F" width="6.438" height="23.729"/>
				<rect x="870.054" y="522.99" fill="#1C1F4F" width="16.507" height="48.211"/>
				<rect x="860.008" y="532.266" fill="#1C1F4F" width="6.186" height="25.273"/>
				<rect x="885.785" y="543.1" fill="#1C1F4F" width="11.355" height="17.786"/>
				<path fill="#1C1F4F" d="M896.09,520.41c0,0-5.401,10.836-2.314,11.597c3.096,0.788,5.685,0.778,7.225,1.039
					c1.541,0.26,8.248-1.289,9.543-1.289c1.277,0,6.188,0.257,5.674,1.549c-0.527,1.28-1.816,3.858-1.816,3.858
					s-3.857-2.062-6.445-1.804c-2.572,0.264-5.15,0.777-5.414,2.32c-0.263,1.542-5.93,1.542-5.93,1.542l-11.859-0.25l-15.738,3.103
					l-6.943-1.563c0,0-5.158-7.467-2.062-8.247c3.092-0.771,6.963-0.509,7.203-1.793c0.277-1.297,0.775-7.742,0.775-7.742
					L896.09,520.41z"/>
			</g>
			<g>
				<path fill="#1C1F4F" d="M1310.148,577.45c-0.869,14.237,12.312,26.542,23.352,27.023c15.586,0.683,20.684-10.321,21.554-24.555
					c0.863-14.229-7.345-26.54-18.388-27.011C1313.66,551.929,1311.027,563.209,1310.148,577.45z"/>
				<path fill="#1C1F4F" d="M1282.649,581.565c-0.876,14.232,1.118,26.216,16.235,27.14c21.848,1.34,22.837-10.449,23.703-24.697
					c0.876-14.232-7.338-26.406-18.385-27.008C1286.903,556.072,1283.511,567.323,1282.649,581.565z"/>
				<path fill="#1C1F4F" d="M1249.201,585.288c-0.895,14.632,2.363,27.408,18.346,27.704c19.764,0.377,20.706-10.619,21.611-25.241
					c0.886-14.63-7.32-27.124-18.35-27.698C1253.486,559.108,1250.088,570.663,1249.201,585.288z"/>
				<path fill="#1C1F4F" d="M1182.258,578.712c-0.935,15.148,3.087,30.362,21.748,30.947c17.484,0.549,24.197-12.91,25.123-28.068
					c0.936-15.159-4.753-28.11-21.748-28.876C1194.421,552.118,1183.18,563.549,1182.258,578.712z"/>
				<path fill="#1C1F4F" d="M1216.416,579.013c-0.996,16.195,7.194,31.849,22.297,32.781c17.453,1.072,23.586-13.695,24.566-29.903
					c1.018-16.185-4.619-30.004-21.629-30.744C1228.713,550.568,1217.414,562.826,1216.416,579.013z"/>
				<polygon fill="#1C1F4F" points="1311.346,562.817 1317.174,563.175 1318.422,542.892 1312.59,542.542 				"/>
				<polygon fill="#1C1F4F" points="1305.074,562.427 1307.717,562.599 1308.964,542.31 1306.316,542.148 				"/>
				<polygon fill="#1C1F4F" points="1297.469,562.814 1300.113,562.971 1301.357,542.694 1298.705,542.542 				"/>
				<polygon fill="#1C1F4F" points="1285.554,568.306 1293.584,568.799 1295.174,542.885 1287.153,542.393 				"/>
				<polygon fill="#1C1F4F" points="1257.398,580.711 1277.949,581.973 1281.18,529.294 1260.615,528.042 				"/>
				<polygon fill="#1C1F4F" points="1245.77,565.016 1253.483,565.49 1255.176,537.873 1247.464,537.409 				"/>
				<polygon fill="#1C1F4F" points="1291.81,571.514 1277.678,570.65 1278.879,551.201 1293.002,552.083 				"/>
				<path fill="#1C1F4F" d="M1293.233,527.208c0,0-7.468,11.408-3.658,12.505c3.819,1.08,7.001,1.274,8.917,1.677
					c1.922,0.397,10.37-0.781,11.979-0.675c1.611,0.096,7.695,0.758,6.967,2.134c-0.726,1.354-2.51,4.067-2.51,4.067
					s-4.677-2.547-7.914-2.469c-3.217,0.099-6.471,0.469-6.9,2.131c-0.419,1.667-7.479,1.24-7.479,1.24l-14.771-1.185l-19.815,2.168
					l-8.56-2.224c0,0-5.935-8.573-2.025-9.17c3.919-0.622,8.702-0.029,9.122-1.417c0.408-1.392,1.48-8.396,1.48-8.396
					L1293.233,527.208z"/>
			</g>
			<g>
				<path fill="#43A5DC" d="M1428.623,293.017l23.717-260.913c0,0-5.159-3.091-9.293-5.151c-4.117-2.067-7.214-3.099-9.289,1.022
					c-2.038,4.129-63.921,202.128-65.996,210.379c-2.066,8.249-7.203,33.006-18.561,33.006
					c-11.352,0-1007.548-56.723-1007.548-56.723s-70.124,0-115.506,7.224c-45.375,7.208-97.979,18.562-124.781,25.783
					c-26.819,7.208-141.279,44.341-161.913,61.874c-20.627,17.523-28.881,26.813-36.1,34.032
					c-7.223,7.22-36.086,41.254-40.225,45.372c-11.5,5.021-28.871,18.568-42.264,30.938c-13.42,12.384-20.288,23.961-24.419,37.365
					c-4.114,13.412-5.479,37.925,12.034,55.458c17.527,17.518,72.359,59.771,221.715,85.592c16.772,2.898,57.75,7.215,64.969,8.248
					c7.222,1.03,13.426,4.121,13.426,4.121l-4.133,37.129l68.063,5.152l18.567,1.033c0,0,5.152-35.067,4.133-39.178
					c-1.049-4.137,71.146-6.2,98.985-8.258c27.858-2.07,146.442-18.568,179.456-25.776c32.988-7.23,289.764-42.285,317.631-46.419
					c27.838-4.126,41.247-5.151,59.808-5.151c18.56,0,86.62,0,112.399-2.058c25.791-2.065,145.416-19.599,175.326-25.792
					c29.897-6.182,246.906-48.86,260.924-58.768c49.482-35.068,37.115-64.981,43.297-73.23c6.186-8.246,12.378-20.63,12.378-26.811
					c0-6.186,11.349-20.623,0-29.903C1444.084,303.325,1428.623,293.017,1428.623,293.017z"/>
				<path fill="#71C9F1" d="M1445.767,327.041c0,0,282.567-34.024,295.979-31.964c13.421,2.066,11.352,0,4.134,3.089
					c-7.228,3.096-167.072,23.729-184.608,26.818c-17.524,3.095-107.248,19.6-111.373,20.623
					C1445.767,346.644,1445.767,327.041,1445.767,327.041z"/>
				<path fill="#44A6DD" d="M1343.662,379.647c0,0,219.67-22.696,328.987-33.003c109.33-10.313,274.319-22.691,410.446-34.03
					c136.135-11.353,129.156-10.321,139.465-6.19c10.312,4.122,7.227,8.248-1.027,8.248s-253.933,23.72-313.746,29.911
					c-59.821,6.187-285.67,37.129-364.04,48.466c-78.386,11.343-109.313,15.472-127.883,17.535
					C1397.291,412.648,1343.662,379.647,1343.662,379.647z"/>
				<path fill="#71C9F1" d="M1366.918,401.695c0,0,23.27,32.093,35.494,47.235c15.144,18.754,23.287,51.963,12.982,81.872
					c-10.307,29.91-46.164,58.787-81,70.563c-19.785,6.687-69.086,15.461-89.721,10.315c-20.629-5.158-56.73-23.727-68.062-52.596
					c-11.332-28.884-13.748-58.97-2.071-86.629C1218.422,368.559,1366.918,401.695,1366.918,401.695z"/>
			</g>
			<path fill-rule="evenodd" clip-rule="evenodd" fill="#71C9F1" d="M237.088,470.224c2.532,0.184,130.645-16.29,104.565-255.587
				c0,0,1055.067,56.935,1057.464,57.196c11.622,1.256,29.877,92.144,16.074,103.527"/>
		</g>
		<g>
			<g>
				<path fill="#252E66" d="M1251.725,600.921c-41.296,0-74.902-37.59-74.902-83.795c0-46.208,33.606-83.804,74.902-83.804
					c41.332,0,74.924,37.596,74.924,83.804C1326.648,563.332,1293.057,600.921,1251.725,600.921L1251.725,600.921z"/>
			</g>
			<g>
				<path fill="#71C9F1" d="M1279.379,532.233c-7.643,0-14.961-3.541-19.605-9.477c-4.361-5.586-5.783-12.616-3.994-19.796
					c2.639-10.622,10.445-16.514,23.871-17.997c11.562-1.283,18.917,9.262,21.521,18.202c2.768,9.429-0.812,19.964-8.477,25.04
					C1288.723,530.844,1284.127,532.233,1279.379,532.233L1279.379,532.233L1279.379,532.233z"/>
			</g>
		</g>
		<path fill="#1C1F4F" d="M1268.511,518.99c-4.916-3.235-7.813-10.534-2.217-13.917c3.599-2.174,6.229,1.218,6.014,3.576
			c-0.173,2.154-2.854,3.765-4.706,1.576c-0.344-0.408-0.451-1.327-0.885-1.093c-0.841,0.453-0.686,1.203-0.692,1.906
			c-0.083,4.168,5.332,4.532,8.617,2.013c2.565-1.982,2.947-7.152-0.309-10.237c-3.567-3.38-9.085-2.485-11.749,1.333
			c-2.393,3.423-3.289,8.581-1.125,12.538c0.934,1.715,2.172,3.206,3.943,4.327C1267.887,522.566,1271.857,521.192,1268.511,518.99z
			"/>
		<g>
			<g>
				<path fill="#1C1F4F" d="M422.736,375.404c1.312,6.924,0.377,13.341-6.148,13.341c-5.328,0-7.893-4.873-8.773-11.869
					c-0.988-7.876-0.85-14.32,5.791-14.128C417.965,362.891,421.307,367.728,422.736,375.404z"/>
			</g>
			<g>
				<path fill="#1C1F4F" d="M447.5,374.776c1.227,6.548,0.343,12.604-5.805,12.604c-5.037,0-7.46-4.605-8.301-11.209
					c-0.924-7.436-0.78-13.516,5.469-13.323C443.007,362.966,446.135,367.542,447.5,374.776z"/>
			</g>
			<g>
				<path fill="#1C1F4F" d="M471.583,374.176c1.188,6.491,0.354,12.49-5.61,12.49c-4.902-0.007-7.244-4.572-8.082-11.119
					c-0.902-7.387-0.778-13.423,5.303-13.234C467.195,362.456,470.254,366.992,471.583,374.176z"/>
			</g>
			<g>
				<path fill="#1C1F4F" d="M494.647,373.57c1.172,6.438,0.343,12.396-5.431,12.378c-4.748-0.012-7.033-4.544-7.846-11.037
					c-0.896-7.332-0.776-13.331,5.122-13.115C490.367,361.921,493.344,366.44,494.647,373.57z"/>
			</g>
			<g>
				<path fill="#1C1F4F" d="M515.369,372.961c1.146,6.39,0.378,12.292-5.25,12.266c-4.582-0.016-6.795-4.517-7.594-10.969
					c-0.873-7.267-0.766-13.207,4.938-12.999C511.221,361.403,514.1,365.889,515.369,372.961z"/>
			</g>
			<g>
				<path fill="#1C1F4F" d="M536.1,372.349c1.12,6.336,0.369,12.211-5.055,12.169c-4.438-0.032-6.586-4.492-7.351-10.891
					c-0.867-7.21-0.784-13.117,4.745-12.886C532.076,360.883,534.855,365.334,536.1,372.349z"/>
			</g>
			<g>
				<path fill="#1C1F4F" d="M556.814,371.731c1.08,6.304,0.367,12.112-4.863,12.076c-4.289-0.046-6.387-4.471-7.125-10.819
					c-0.85-7.159-0.775-13.005,4.543-12.772C552.891,360.353,555.59,364.775,556.814,371.731z"/>
			</g>
			<g>
				<path fill="#1C1F4F" d="M575.489,371.131c1.068,6.237,0.399,12.005-4.668,11.96c-4.138-0.055-6.149-4.453-6.88-10.743
					c-0.84-7.098-0.771-12.902,4.359-12.67C571.719,359.841,574.319,364.215,575.489,371.131z"/>
			</g>
			<g>
				<path fill="#1C1F4F" d="M595.478,370.525c1.032,6.193,0.394,11.898-4.476,11.848c-3.975-0.051-5.942-4.418-6.656-10.671
					c-0.825-7.033-0.752-12.782,4.195-12.547C591.804,359.314,594.328,363.672,595.478,370.525z"/>
			</g>
			<g>
				<path fill="#1C1F4F" d="M613.605,369.905c1.023,6.15,0.402,11.816-4.288,11.751c-3.842-0.054-5.712-4.39-6.423-10.592
					c-0.79-6.977-0.754-12.68,4.021-12.438C610.055,358.781,612.5,363.117,613.605,369.905z"/>
			</g>
			<g>
				<path fill="#1C1F4F" d="M632.276,369.299c0.994,6.104,0.417,11.72-4.085,11.637c-3.707-0.069-5.516-4.355-6.21-10.504
					c-0.776-6.937-0.747-12.59,3.843-12.331C628.843,358.268,631.207,362.567,632.276,369.299z"/>
			</g>
			<g>
				<path fill="#1C1F4F" d="M650.167,368.441c0.958,6.042,0.427,11.606-3.882,11.521c-3.543-0.064-5.311-4.335-5.977-10.431
					c-0.764-6.869-0.742-12.481,3.651-12.219C646.863,357.484,649.119,361.741,650.167,368.441z"/>
			</g>
			<g>
				<path fill="#1C1F4F" d="M667.047,368.079c0.906,5.999,0.426,11.521-3.719,11.424c-3.395-0.074-5.075-4.317-5.74-10.347
					c-0.742-6.826-0.742-12.387,3.482-12.118C663.822,357.214,666.025,361.452,667.047,368.079z"/>
			</g>
		</g>
		<g>
			<g>
				<path fill="#1C1F4F" d="M825.708,362.733c0.974,5.526-0.412,10.439-2.827,10.439c-2.429,0-3.809-4.085-4.641-9.63
					c-1.045-6.961-1.135-10.712,1.293-10.712C822.621,352.831,824.682,356.84,825.708,362.733z"/>
			</g>
			<g>
				<path fill="#1C1F4F" d="M840.486,361.97c0.977,5.481-0.403,10.351-2.8,10.351c-2.385,0-3.786-4.062-4.603-9.556
					c-1.021-6.905-1.125-10.621,1.275-10.621C837.428,352.145,839.48,356.127,840.486,361.97z"/>
			</g>
			<g>
				<path fill="#1C1F4F" d="M853.428,361.59c0.957,5.44-0.396,10.269-2.783,10.269c-2.365,0-3.732-4.017-4.533-9.469
					c-1.02-6.843-1.124-10.524,1.256-10.524C850.412,351.867,852.432,355.812,853.428,361.59z"/>
			</g>
			<g>
				<path fill="#1C1F4F" d="M867.299,362.025c0.937,5.378-0.4,10.162-2.76,10.162c-2.338,0-3.688-3.968-4.508-9.384
					c-0.997-6.784-1.086-10.437,1.264-10.437C864.286,352.366,866.293,356.282,867.299,362.025z"/>
			</g>
			<g>
				<path fill="#1C1F4F" d="M880.807,361.619c0.923,5.337-0.381,10.076-2.725,10.076c-2.332,0-3.662-3.944-4.467-9.304
					c-0.977-6.721-1.081-10.339,1.239-10.339C877.841,352.051,879.818,355.944,880.807,361.619z"/>
			</g>
			<g>
				<path fill="#1C1F4F" d="M893.317,360.554c0.924,5.285-0.384,9.979-2.695,9.979c-2.302,0-3.634-3.904-4.408-9.216
					c-0.988-6.66-1.083-10.247,1.217-10.247C890.395,351.07,892.349,354.913,893.317,360.554z"/>
			</g>
			<g>
				<path fill="#1C1F4F" d="M905.939,360.15c0.928,5.222-0.393,9.899-2.662,9.899c-2.277,0-3.592-3.876-4.374-9.141
					c-0.97-6.601-1.06-10.159,1.228-10.159C903.037,350.749,904.978,354.559,905.939,360.15z"/>
			</g>
			<g>
				<path fill="#1C1F4F" d="M918.657,360.191c0.894,5.191-0.392,9.806-2.643,9.806c-2.253,0-3.551-3.824-4.323-9.048
					c-0.967-6.54-1.059-10.06,1.197-10.06C915.781,350.889,917.707,354.657,918.657,360.191z"/>
			</g>
			<g>
				<path fill="#1C1F4F" d="M931.346,359.468c0.904,5.144-0.377,9.722-2.628,9.722c-2.205,0-3.502-3.818-4.255-8.97
					c-0.964-6.485-1.059-9.978,1.172-9.978C928.5,350.242,930.4,353.982,931.346,359.468z"/>
			</g>
			<g>
				<path fill="#1C1F4F" d="M943.093,359.104c0.868,5.099-0.391,9.623-2.607,9.623c-2.199,0-3.476-3.767-4.234-8.886
					c-0.92-6.417-1.021-9.877,1.172-9.877C940.264,349.964,942.141,353.667,943.093,359.104z"/>
			</g>
			<g>
				<path fill="#1C1F4F" d="M954.81,358.747c0.892,5.043-0.374,9.526-2.558,9.526c-2.192,0-3.439-3.728-4.185-8.793
					c-0.927-6.365-1.018-9.785,1.157-9.785C952.02,349.696,953.891,353.366,954.81,358.747z"/>
			</g>
			<g>
				<path fill="#1C1F4F" d="M976.625,359.041c0.851,4.964-0.369,9.361-2.51,9.361c-2.133,0-3.371-3.657-4.104-8.636
					c-0.911-6.234-0.984-9.599,1.151-9.599C973.881,350.167,975.719,353.756,976.625,359.041z"/>
			</g>
			<g>
				<path fill="#1C1F4F" d="M988.354,358.67c0.843,4.923-0.343,9.279-2.464,9.279c-2.111,0-3.344-3.619-4.072-8.553
					c-0.887-6.18-0.979-9.506,1.129-9.506C985.664,349.89,987.459,353.457,988.354,358.67z"/>
			</g>
			<g>
				<path fill="#1C1F4F" d="M1000.103,358.319c0.831,4.863-0.359,9.172-2.46,9.172c-2.084,0-3.294-3.59-4.012-8.468
					c-0.886-6.118-0.979-9.411,1.117-9.411C997.43,349.612,999.215,353.146,1000.103,358.319z"/>
			</g>
			<g>
				<path fill="#1C1F4F" d="M1033.082,356.127c0.793,4.716-0.363,8.902-2.385,8.902c-2.02,0-3.182-3.47-3.863-8.208
					c-0.869-5.951-0.953-9.145,1.064-9.145C1030.495,347.676,1032.201,351.112,1033.082,356.127z"/>
			</g>
			<g>
				<path fill="#1C1F4F" d="M1044.151,356.882c0.797,4.663-0.343,8.814-2.325,8.814c-2.029,0-3.172-3.452-3.846-8.134
					c-0.861-5.888-0.924-9.053,1.081-9.053C1041.588,348.509,1043.303,351.903,1044.151,356.882z"/>
			</g>
			<g>
				<path fill="#1C1F4F" d="M1054.116,356.139c0.797,4.621-0.333,8.725-2.311,8.725c-1.979,0-3.115-3.407-3.778-8.042
					c-0.846-5.831-0.931-8.954,1.051-8.954C1051.604,347.867,1053.283,351.217,1054.116,356.139z"/>
			</g>
			<g>
				<path fill="#1C1F4F" d="M1064.467,355.027c0.768,4.574-0.342,8.645-2.291,8.645s-3.074-3.385-3.754-7.973
					c-0.814-5.763-0.907-8.87,1.052-8.87C1061.975,346.829,1063.625,350.163,1064.467,355.027z"/>
			</g>
			<g>
				<path fill="#1C1F4F" d="M1074.803,354.668c0.771,4.531-0.333,8.544-2.254,8.544c-1.936,0-3.043-3.34-3.691-7.891
					c-0.832-5.689-0.915-8.762,1.027-8.762C1072.342,346.559,1073.998,349.848,1074.803,354.668z"/>
			</g>
			<g>
				<path fill="#1C1F4F" d="M1083.922,354.749c0.758,4.479-0.333,8.451-2.225,8.451c-1.9,0-3.014-3.304-3.662-7.794
					c-0.811-5.639-0.886-8.689,1.015-8.689C1081.474,346.716,1083.119,349.973,1083.922,354.749z"/>
			</g>
		</g>
		<g>
			<g>
				<path fill="#1C1F4F" d="M1138.734,352.53c0.66,4.578,0.93,8.378-0.713,8.378c-2.981,0-3.426-3.236-4.094-7.811
					c-0.663-4.565-0.951-8.18,0.668-8.419C1136.208,344.44,1138.078,347.959,1138.734,352.53z"/>
			</g>
			<g>
				<path fill="#1C1F4F" d="M1147.234,352.906c0.656,4.522,0.924,8.278-0.703,8.278c-2.945,0-3.398-3.192-4.063-7.713
					c-0.64-4.519-0.942-8.087,0.685-8.316C1144.75,344.918,1146.586,348.388,1147.234,352.906z"/>
			</g>
			<g>
				<path fill="#1C1F4F" d="M1156.127,352.169c0.656,4.468,0.898,8.184-0.722,8.184c-2.91,0-3.356-3.161-4.009-7.625
					c-0.629-4.469-0.914-8.003,0.652-8.236C1153.661,344.262,1155.472,347.7,1156.127,352.169z"/>
			</g>
			<g>
				<path fill="#1C1F4F" d="M1164.621,351.81c0.658,4.413,0.901,8.086-0.713,8.086c-2.873,0.005-3.318-3.132-3.945-7.545
					c-0.658-4.405-0.933-7.904,0.648-8.136C1162.189,343.987,1163.98,347.384,1164.621,351.81z"/>
			</g>
			<g>
				<path fill="#1C1F4F" d="M1173.504,352.177c0.637,4.373,0.881,8-0.702,8c-2.845,0-3.291-3.082-3.919-7.449
					c-0.639-4.366-0.895-7.82,0.636-8.042C1171.094,344.45,1172.867,347.809,1173.504,352.177z"/>
			</g>
			<g>
				<path fill="#1C1F4F" d="M1181.258,352.187c0.621,4.312,0.873,7.902-0.689,7.908c-2.833,0-3.258-3.056-3.878-7.367
					c-0.628-4.309-0.915-7.729,0.642-7.955C1178.896,344.561,1180.646,347.867,1181.258,352.187z"/>
			</g>
			<g>
				<path fill="#1C1F4F" d="M1189.577,350.916c0.62,4.261,0.859,7.805-0.694,7.805c-2.793,0-3.205-3.009-3.834-7.27
					c-0.619-4.261-0.887-7.635,0.639-7.851C1187.227,343.365,1188.971,346.656,1189.577,350.916z"/>
			</g>
			<g>
				<path fill="#1C1F4F" d="M1197.25,350.735c0.619,4.22,0.849,7.718-0.678,7.718c-2.772,0-3.186-2.977-3.797-7.185
					c-0.613-4.209-0.88-7.543,0.629-7.763C1194.92,343.292,1196.641,346.517,1197.25,350.735z"/>
			</g>
			<g>
				<path fill="#1C1F4F" d="M1204.918,350.554c0.607,4.164,0.841,7.627-0.668,7.627c-2.744,0.013-3.139-2.945-3.757-7.1
					c-0.603-4.151-0.867-7.45,0.618-7.658C1202.617,343.199,1204.324,346.408,1204.918,350.554z"/>
			</g>
			<g>
				<path fill="#1C1F4F" d="M1212.59,350.39c0.593,4.102,0.835,7.532-0.664,7.532c-2.719,0-3.117-2.903-3.719-7.008
					c-0.588-4.116-0.847-7.363,0.633-7.572C1210.316,343.124,1212.002,346.281,1212.59,350.39z"/>
			</g>
			<g>
				<path fill="#1C1F4F" d="M1220.26,350.212c0.595,4.064,0.814,7.436-0.65,7.436c-2.683,0.021-3.087-2.863-3.65-6.913
					c-0.607-4.061-0.872-7.278,0.586-7.487C1218.016,343.036,1219.681,346.156,1220.26,350.212z"/>
			</g>
			<g>
				<path fill="#1C1F4F" d="M1227.937,350.033c0.571,4.008,0.8,7.344-0.659,7.344c-2.645,0.006-3.041-2.825-3.629-6.834
					c-0.568-4.009-0.832-7.168,0.613-7.379C1225.717,342.958,1227.363,346.041,1227.937,350.033z"/>
			</g>
			<g>
				<path fill="#1C1F4F" d="M1234.85,350.361c0.559,3.956,0.795,7.248-0.658,7.248c-2.615,0.008-3.012-2.792-3.578-6.747
					c-0.57-3.952-0.83-7.071,0.613-7.285C1232.672,343.365,1234.275,346.416,1234.85,350.361z"/>
			</g>
			<g>
				<path fill="#1C1F4F" d="M1242.232,349.997c0.562,3.904,0.777,7.139-0.647,7.149c-2.599,0.021-2.972-2.747-3.54-6.646
					c-0.562-3.909-0.813-6.993,0.615-7.199C1240.055,343.092,1241.67,346.086,1242.232,349.997z"/>
			</g>
			<g>
				<path fill="#1C1F4F" d="M1249.618,349.632c0.565,3.85,0.778,7.057-0.639,7.057c-2.549,0.002-2.938-2.722-3.501-6.561
					c-0.548-3.862-0.796-6.898,0.609-7.106C1247.466,342.822,1249.082,345.788,1249.618,349.632z"/>
			</g>
			<g>
				<path fill="#1C1F4F" d="M1256.635,348.887c0.541,3.794,0.764,6.966-0.627,6.966c-2.524,0.013-2.906-2.674-3.463-6.471
					c-0.561-3.804-0.801-6.799,0.605-7.008C1254.523,342.178,1256.09,345.095,1256.635,348.887z"/>
			</g>
			<g>
				<path fill="#1C1F4F" d="M1264.027,348.897c0.539,3.757,0.73,6.867-0.631,6.871c-2.502,0.012-2.868-2.644-3.417-6.386
					c-0.536-3.744-0.776-6.711,0.601-6.917C1261.948,342.264,1263.479,345.154,1264.027,348.897z"/>
			</g>
			<g>
				<path fill="#1C1F4F" d="M1271.467,349.085c0.536,3.699,0.738,6.775-0.611,6.781c-2.484,0.013-2.843-2.604-3.388-6.295
					c-0.526-3.695-0.768-6.631,0.583-6.817C1269.383,342.551,1270.93,345.398,1271.467,349.085z"/>
			</g>
			<g>
				<path fill="#1C1F4F" d="M1277.688,349.28c0.525,3.65,0.746,6.672-0.609,6.681c-2.437,0.01-2.818-2.561-3.336-6.211
					c-0.525-3.634-0.759-6.52,0.57-6.716C1275.646,342.836,1277.162,345.643,1277.688,349.28z"/>
			</g>
		</g>
		<g>
			<g>
				<path fill="#1C1F4F" d="M1323.145,348.445c0.479,3.275,0.668,5.982-0.506,5.982c-2.137,0-2.453-2.308-2.902-5.562
					c-0.501-3.271-0.699-5.859,0.461-6.028C1321.348,342.671,1322.682,345.184,1323.145,348.445z"/>
			</g>
			<g>
				<path fill="#1C1F4F" d="M1329.237,348.717c0.458,3.24,0.642,5.917-0.53,5.917c-2.086,0-2.432-2.284-2.887-5.51
					c-0.467-3.232-0.684-5.783,0.479-5.949C1327.458,343.005,1328.76,345.495,1329.237,348.717z"/>
			</g>
			<g>
				<path fill="#1C1F4F" d="M1335.575,348.195c0.465,3.201,0.638,5.854-0.52,5.854c-2.067,0-2.385-2.264-2.862-5.449
					c-0.448-3.202-0.656-5.73,0.478-5.897C1333.811,342.54,1335.112,345,1335.575,348.195z"/>
			</g>
			<g>
				<path fill="#1C1F4F" d="M1341.662,347.939c0.448,3.15,0.623,5.769-0.52,5.769c-2.057,0-2.378-2.227-2.832-5.39
					c-0.453-3.143-0.654-5.638,0.461-5.806C1339.916,342.348,1341.195,344.773,1341.662,347.939z"/>
			</g>
			<g>
				<path fill="#1C1F4F" d="M1347.995,348.204c0.444,3.113,0.632,5.711-0.497,5.711c-2.055,0.01-2.349-2.195-2.807-5.314
					c-0.455-3.123-0.668-5.596,0.458-5.754C1346.278,342.684,1347.557,345.079,1347.995,348.204z"/>
			</g>
			<g>
				<path fill="#1C1F4F" d="M1353.529,348.204c0.457,3.081,0.635,5.655-0.495,5.655c-2.007,0-2.319-2.185-2.77-5.258
					c-0.451-3.086-0.632-5.525,0.456-5.686C1351.832,342.754,1353.092,345.13,1353.529,348.204z"/>
			</g>
			<g>
				<path fill="#1C1F4F" d="M1359.486,347.292c0.436,3.051,0.609,5.574-0.473,5.583c-2.016,0.004-2.332-2.158-2.76-5.189
					c-0.445-3.05-0.647-5.461,0.451-5.615C1357.801,341.914,1359.042,344.254,1359.486,347.292z"/>
			</g>
			<g>
				<path fill="#1C1F4F" d="M1364.967,347.167c0.434,3.014,0.607,5.514-0.49,5.514c-1.966,0-2.28-2.127-2.715-5.141
					c-0.427-3.007-0.621-5.369,0.457-5.535C1363.305,341.842,1364.523,344.163,1364.967,347.167z"/>
			</g>
			<g>
				<path fill="#1C1F4F" d="M1370.448,347.048c0.435,2.966,0.599,5.438-0.481,5.449c-1.951,0-2.254-2.117-2.689-5.08
					c-0.424-2.971-0.632-5.323,0.464-5.473C1368.812,341.792,1370.002,344.074,1370.448,347.048z"/>
			</g>
			<g>
				<path fill="#1C1F4F" d="M1375.93,346.924c0.426,2.938,0.595,5.386-0.482,5.386c-1.92,0-2.227-2.075-2.648-5.022
					c-0.422-2.938-0.613-5.25,0.442-5.401C1374.293,341.729,1375.503,343.984,1375.93,346.924z"/>
			</g>
			<g>
				<path fill="#1C1F4F" d="M1381.419,346.793c0.415,2.902,0.573,5.311-0.482,5.319c-1.911,0.006-2.2-2.056-2.626-4.953
					c-0.411-2.897-0.597-5.19,0.447-5.347C1379.8,341.68,1380.992,343.903,1381.419,346.793z"/>
			</g>
			<g>
				<path fill="#1C1F4F" d="M1386.898,346.674c0.411,2.854,0.564,5.235-0.479,5.245c-1.885,0.005-2.171-2.029-2.586-4.884
					c-0.414-2.867-0.604-5.121,0.43-5.272C1385.301,341.608,1386.486,343.81,1386.898,346.674z"/>
			</g>
			<g>
				<path fill="#1C1F4F" d="M1391.829,346.904c0.411,2.818,0.57,5.173-0.465,5.173c-1.87,0.015-2.157-1.983-2.56-4.812
					c-0.412-2.832-0.592-5.057,0.443-5.212C1390.253,341.914,1391.423,344.074,1391.829,346.904z"/>
			</g>
			<g>
				<path fill="#1C1F4F" d="M1397.109,346.644c0.402,2.783,0.569,5.096-0.455,5.107c-1.86,0.006-2.14-1.967-2.545-4.758
					c-0.398-2.791-0.572-4.987,0.444-5.139C1395.549,341.711,1396.707,343.853,1397.109,346.644z"/>
			</g>
			<g>
				<path fill="#1C1F4F" d="M1402.379,346.372c0.408,2.759,0.561,5.044-0.439,5.053c-1.81,0.002-2.1-1.94-2.507-4.697
					c-0.398-2.744-0.573-4.915,0.435-5.07C1400.87,341.514,1401.994,343.622,1402.379,346.372z"/>
			</g>
			<g>
				<path fill="#1C1F4F" d="M1407.398,345.848c0.4,2.713,0.543,4.983-0.433,4.983c-1.811,0.006-2.099-1.92-2.487-4.63
					c-0.385-2.723-0.555-4.851,0.437-5.009C1405.896,341.055,1407.012,343.134,1407.398,345.848z"/>
			</g>
			<g>
				<path fill="#1C1F4F" d="M1412.689,345.856c0.386,2.68,0.541,4.903-0.453,4.913c-1.785,0.002-2.053-1.89-2.445-4.569
					c-0.385-2.677-0.551-4.798,0.43-4.941C1411.188,341.12,1412.295,343.175,1412.689,345.856z"/>
			</g>
			<g>
				<path fill="#1C1F4F" d="M1418.006,345.995c0.368,2.639,0.521,4.836-0.45,4.842c-1.753,0.005-2.029-1.873-2.423-4.516
					c-0.375-2.623-0.53-4.718,0.42-4.86C1416.533,341.318,1417.612,343.346,1418.006,345.995z"/>
			</g>
			<g>
				<path fill="#1C1F4F" d="M1422.456,346.138c0.369,2.597,0.509,4.767-0.454,4.775c-1.734,0.003-2.006-1.85-2.37-4.446
					c-0.388-2.614-0.543-4.666,0.405-4.798C1420.994,341.53,1422.066,343.523,1422.456,346.138z"/>
			</g>
		</g>
		<g>
			<g>
				<path fill="#1C1F4F" d="M184.578,750c-0.165,4.219,2.178,7.723,5.169,7.816c3.014,0.121,5.577-3.219,5.729-7.422
					c0.152-4.219-2.188-7.715-5.189-7.836C187.299,742.457,184.728,745.789,184.578,750z"/>
			</g>
			<g>
				<path fill="#46A7DD" d="M189.327,766.712l-0.248-0.023c-6.104-0.674-10.186-8.514-9.313-17.846
					c0.869-9.381,7.716-15.879,13.27-15.553c6.501,0.375,10.197,8.375,9.545,17.863
					C202.004,759.451,197.206,766.355,189.327,766.712L189.327,766.712z"/>
			</g>
		</g>
		<path fill="#252E66" d="M1261.996,405.465c-17.712-0.527-39.693,11.136-52.844,22.999c-14.262,12.89-27.59,31.435-35.627,48.603
			c-1.539,3.257-2.687,6.979-2.99,10.508c-1.577-8.229-3.342-22.01-12.475-21.865c-7.582,0.117-19.107,7.808-26.838,9.82
			c-10.053,2.614-20.532,5.258-30.762,5.767c-8.986,0.431-25.975-3.336-35.105-5.606c-18.757-4.672-35.622-17.712-54.079-22.464
			c-6.876-1.778-19.669-3.516-22.296-9.334c-2.873-6.356,17.006-10.355,23.721-10.333c23.094,0.051,45.343-5.59,68.118-8.439
			c23.595-2.931,48.337-6.477,72.32-8.416C1191.918,413.558,1224.93,409.833,1261.996,405.465z"/>
		<path fill="#1C1F4F" d="M1313.22,397.329c0,0,276.716-29.519,316.033-33.031c39.317-3.502,287.946-29.496,287.946-29.496
			s-239.482,28.095-254.238,29.496c-14.75,1.408,14.059,0,17.562,1.408c3.51,1.403,4.914,4.916-12.645,6.322
			c-17.555,1.403-43.527,1.403-48.461,2.107c-4.919,0.712-2.104,5.623-6.316,7.727c-4.223,2.114-17.558,3.512-17.558,3.512
			l-179.077,28.791c0,0,2.812,7.018,1.383,11.941c-1.383,4.922-2.105,18.966-6.309,23.885c-4.215,4.906-11.25-3.523-11.25-3.523
			s-10.52-10.517-17.553-14.034c-7.021-3.522-19.66-13.352-23.884-15.462c-4.204-2.106,0-2.106,4.224-6.317
			c4.221-4.211,7.026-8.422-0.699-8.422C1354.65,402.231,1313.22,397.329,1313.22,397.329z"/>
		<path fill="#1C1F4F" d="M1732.351,297.547c-39.175,4.715-166.812,20.141-181.05,22.508c-16.861,2.818-61.818,10.537-71.641,10.537
			c-9.84,0-18.253,2.808-21.766,1.403c-3.516-1.403-11.947-2.808-11.947-2.808s-2.102,16.862,2.112,16.146
			C1452.274,344.638,1739.52,296.68,1732.351,297.547z"/>
		<g>
			<path fill="#1C1F4F" d="M732.148,313.119c-0.115,0.011,9.59,1.597,11.957,7.303c5.283,12.683,11.994,38.484,13.608,58.044
				c2.28,27.231,0.43,40.548-0.259,44.301l-31.97,0.666c0.22-6.978,0.958-34.661-1.104-53.242
				c-2.078-18.796-8.363-40.247-11.064-47.693c-1.048-2.889-2.195-4.979-3.035-6.512c-0.365-0.625-0.722-1.327-0.92-1.764
				c0.105-0.04,0.238-0.066,0.408-0.104C712.846,313.445,726.963,313.179,732.148,313.119z"/>
			<path fill="#25326B" d="M709.361,314.224c0.105-0.04,0.238-0.066,0.408-0.104c3.076-0.674,17.193-0.94,22.379-1
				c-0.115,0.011,9.59,1.597,11.957,7.303c5.283,12.683,11.994,38.484,13.608,58.044c2.28,27.231,0.43,40.548-0.259,44.301
				l-31.97,0.666c0.22-6.978,0.958-34.661-1.104-53.242c-2.078-18.796-8.363-40.247-11.064-47.693
				c-1.048-2.889-2.195-4.979-3.035-6.512C709.916,315.363,709.56,314.661,709.361,314.224z"/>
		</g>
		<g>
			<path fill="#1C1F4F" d="M1093.24,312.645c0.988,0.138,5.289,0.21,8.688,4.262c6.389,7.583,11.969,30.745,13.164,47.61
				c1.586,22.73-0.322,33.11-0.854,35.44l-18.48,1.174c0.036-4.712,0.174-28.268-1.28-43.54
				c-1.063-11.446-5.444-23.212-8.327-30.995c-0.867-2.305-1.568-4.223-2.015-5.646c-0.768-2.51-2.062-6.711-1.579-7.474
				C1086.441,312.907,1093.166,312.645,1093.24,312.645z"/>
			<path fill="#25326B" d="M1081.251,312.638c-0.736,1.169-0.274,3.317,1.408,8.781c0.429,1.437,1.153,3.375,2.052,5.708
				c2.846,7.716,7.188,19.361,8.234,30.615c1.584,16.857,1.249,43.933,1.249,44.208l-0.011,0.823l21.257-1.345l0.146-0.511
				c0.121-0.395,2.906-10.141,1.043-36.501c-1.216-17.106-6.926-40.683-13.506-48.512c-3.857-4.574-8.816-4.807-9.77-4.807
				c-0.436,0.018-7.035,0.267-10.806,0.769C1081.824,311.963,1081.455,312.339,1081.251,312.638z"/>
		</g>
		<g>
			<path fill="#1C1F4F" d="M1292.281,314.661c-0.034,0.025,3.299,0.787,5.07,3.881c4.287,7.492,9.31,22.357,10.217,35.167
				c1.277,17.975-0.531,26.164-1.072,28.128l-12.233,0.704c0.072-4.045,0.298-21.8-0.837-33.881
				c-0.857-9.039-4.018-17.543-6.32-23.744c-0.848-2.278-1.584-4.251-2.012-5.763l-0.375-1.298
				c-0.316-1.105-0.553-1.969-0.652-2.417l0.221-0.034C1287.236,315.021,1292.082,314.686,1292.281,314.661z"/>
			<path fill="#25326B" d="M1284.066,315.438l0.221-0.034c2.949-0.382,7.795-0.718,7.994-0.743c-0.034,0.025,3.299,0.787,5.07,3.881
				c4.287,7.492,9.31,22.357,10.217,35.167c1.277,17.975-0.531,26.164-1.072,28.128l-12.233,0.704
				c0.072-4.045,0.298-21.8-0.837-33.881c-0.857-9.039-4.018-17.543-6.32-23.744c-0.848-2.278-1.584-4.251-2.012-5.763l-0.375-1.298
				C1284.402,316.75,1284.166,315.886,1284.066,315.438z"/>
		</g>
	</g>
	<g>
		<path fill-rule="evenodd" clip-rule="evenodd" fill="#A8DDEA" d="M262.612,467.63c44.628,5.077,1112.589-85.559,1165.634-97.632"
			/>
	</g>
	<path fill="#127BB8" d="M-134.126,385.948c6.078,3.179,130.812,2.797,189.329,28.839c0,0,34.392,5.616,54.09,49.785l176.281,3.445
		c0,0,112.674-133.794,56.079-253.38l-142.822,11.891c0,0-182.711,12.616-271.974,89.044
		C-75.812,317.859-134.126,385.948-134.126,385.948z"/>
	<g>
		<g>
			<line opacity="0.2" fill="#FFFFFF" x1="46.486" y1="345.042" x2="86.252" y2="380.306"/>
		</g>
		<g>
			<path fill="#71C9F1" d="M76.844,345.042c6.168,4.453,15.689,24.833,13.408,36.092c-1.035,6.198-38.768,8.854-41.852,8.854
				c-3.099,0-5.594-47.009-5.594-47.009C53.649,341.202,64.916,341.565,76.844,345.042z"/>
		</g>
		<g>
			<path fill="#71C9F1" d="M34.838,342.237c0,0,2.582,38.069,3.855,45.095c0.729,4.178-16.582-5.02-29.997-6.055
				c-13.396-1.032-28.064-1.297-28.064-1.297l9.583-37.001C2.961,341.284,18.995,340.829,34.838,342.237z"/>
		</g>
		<polyline opacity="0.2" fill="#FFFFFF" points="85.182,382.571 49.742,387.562 46.486,345.042 		"/>
		<polyline opacity="0.2" fill="#FFFFFF" points="34.663,381.165 -15.711,377.505 -7.804,344.494 		"/>
	</g>
	<polygon fill-rule="evenodd" clip-rule="evenodd" fill="#25326B" points="1452.34,32.104 1438.559,44.437 1399.117,271.833 
		1428.623,293.017 	"/>
</g>
</svg>
