<?xml version="1.0" encoding="utf-8"?>
<!-- Generator: Adobe Illustrator 16.0.4, SVG Export Plug-In . SVG Version: 6.00 Build 0)  -->
<!DOCTYPE svg PUBLIC "-//W3C//DTD SVG 1.1//EN" "http://www.w3.org/Graphics/SVG/1.1/DTD/svg11.dtd">
<svg version="1.1" id="Layer_1" xmlns="http://www.w3.org/2000/svg" xmlns:xlink="http://www.w3.org/1999/xlink" x="0px" y="0px"
	 width="1446.146px" height="1413.142px" viewBox="0 0 1446.146 1413.142" enable-background="new 0 0 1446.146 1413.142"
	 xml:space="preserve">
<path fill-rule="evenodd" clip-rule="evenodd" fill="#1E76BA" d="M1059.062,1159.792c-0.147,9.251,2.564,32.428,4.53,54.041
	c-45.552,3.894-71.857,9.643-75.015,14.21c-7.122,11.453,1.271,64.788,1.271,64.788c23.896,95.983,83.302,285.064,99.192,351.625
	c14.382,64.225,36.704,114.691,78.91,126.936c31.256,22.09,55.689,37.131,55.689,37.131s74.827-2.648,92.535-1.59
	c18.478,1.838,15.043,23.365,14.895,32.617c-0.15,9.248-66.241,44.424-66.241,44.424l21.164,25.781c0,0,40.935-3.965,60.236-5.967
	c18.549-2.787,69.572-11.221,79.346,4.359c9.771,15.574-46.127,87.146-99.519,99.391c-53.379,11.477-222.696-7.432-222.696-7.432
	s-14.379,31.379-18.588,53.67c-4.987,22.273-8.171,28.395-8.171,28.395s-35.618,9.457-38.64,5.537
	c-2.247-3.885-27.126-86.781-27.126-86.781s-7.273,20.701-15.322-6.404c-7.257-27.883-30.953-136.201-21.959-168.434
	c8.229-32.254,18.196-124.611,1.005-158.033c-17.198-33.43-67.201-88.205-95.931-123.361
	c-27.975-34.373-53.473-126.533-63.894-149.828c-9.657-22.511-15.255-58.068-51.786-87.955
	c-36.534-29.113-14.416-14.107-14.416-14.107c9.046-83.119,1.305-225.105,75.562-287.902c17.751-1.255,29.327-1.837,29.327-1.837
	c19.267,0.31,100.249-1.475,145.512,12.362C1049.589,1030.12,1059.782,1115.088,1059.062,1159.792z"/>
<rect x="-143.906" y="-347.294" transform="matrix(0.9999 0.0161 -0.0161 0.9999 7.9438 -18.2575)" fill="none" width="2565.038" height="1663.691"/>
<g>
	<g>
		<path fill-rule="evenodd" clip-rule="evenodd" fill="#71C9F1" d="M1091.37,1286.608c-0.272,16.953,7.911,83.374,7.726,94.93
			c-0.198,12.328,32.403,93.784,38.198,164.786c5.781,71.77,1.022,223.525,1.022,223.525s-21.417,85.982-1.969,122.518
			c0.089,90.184,121.188,84.422,121.188,84.422s4.604,1.613,15.985,12.588c12.159,10.986,18.192,18.789,34.856,36.787
			c15.898,17.98,22.794,20.406,42.646,32.287c20.604,12.662,46.914,6.148,40.711,8.363c-6.197,2.213-37.369,23.289-65.929,25.91
			c-28.566,3.398-85.438-6.77-128.331-23.646c-42.897-16.104-70.067-4.203-70.067-4.203s-34.113,12.545-60.104-0.967
			c-25.986-13.527-21.105-77.42-21.105-77.42s3.896-98.588,1.861-115.578c-2.027-17.76-48.023-225.061-83.518-270.336
			c-36.256-46.061-32.766-119.223-30.079-142.305c2.69-23.848-9.711-67.207-22.671-75.892l-79.664-222.482
			c6.338-10.695,14.964-19.803,24.35-28.129c17.744-1.254,29.317-1.837,29.317-1.837c19.26,0.31,100.218-1.474,145.467,12.359
			C1081.899,1156.975,1092.09,1241.918,1091.37,1286.608z"/>
		<path fill-rule="evenodd" clip-rule="evenodd" fill="#5DBDE8" d="M984.726,1639.437c-6.662-17.064-13.386-30.277-20.184-38.863
			c-36.256-46.061-32.766-119.223-30.079-142.305c2.69-23.848-9.711-67.207-22.671-75.892l-79.664-222.482
			c6.338-10.695,14.964-19.803,24.35-28.129c17.744-1.254,29.317-1.837,29.317-1.837c19.26,0.31,100.218-1.474,145.467,12.359
			c14.577,4.088,25.98,14.292,34.999,28.31c-36.985-0.597-87.105,48.696-75.856,115.929c13.427,75.75,43.69,110.926,15.891,162.11
			c-27.815,51.969-115.006,106.057,21.033,129.83C1091.881,1590.292,1051.144,1631.259,984.726,1639.437z"/>
		<path fill-rule="evenodd" clip-rule="evenodd" fill="#1E1E4E" d="M564.874,1435.368c0,0,87.532,20.676,173.497-4.914
			c85.181-24.836,180.009-26.389,197.835-33.045c17.069-6.662,43.523-70.206,43.247-148.823
			c0.507-79.377-5.017-119.549-5.017-119.549s-105.483-6.316-153.268-6.317c-48.572,0.757-198.48-23.235-195.125,7.646
			c2.586,30.877,3.42,122.606-24.77,198.455C573.066,1405.444,564.874,1435.368,564.874,1435.368z"/>
		<path fill-rule="evenodd" clip-rule="evenodd" fill="#292A66" d="M939.479,1385.906c15.784-22.869,32.033-75.018,32.268-137.444
			c-0.395-23.13-0.844-43.179-1.349-59.372c-7.761,50.747-31.905,162.115-53.689,174.87c-25.694,15.768-125.905,17.24-166.286,35.86
			c-39.598,17.861-46.615,23.141-31.95,21.838c13.906-2.092,67.37-19.723,113.693-24.377
			C874.605,1394.107,915.544,1388.598,939.479,1385.906z"/>
	</g>
	<g>
		<g>
			<path fill-rule="evenodd" clip-rule="evenodd" fill="#499FD8" d="M694.763,1023.868
				c80.309-88.861,145.479-171.938,211.961-271.913l514.396-5.025l8.684,17.678l-168.122,314.719L694.763,1023.868z"/>
			<polygon fill-rule="evenodd" clip-rule="evenodd" fill="#5EB5E6" points="1260.146,1079.207 1247.793,1068.978 1420.234,748.408 
				1428.264,764.486 			"/>
			<path fill-rule="evenodd" clip-rule="evenodd" fill="#A8DBE9" d="M759.063,987.999
				c67.652-75.149,101.803-132.924,157.284-210.561l449.85,0.025l-140.053,260.494L759.063,987.999z"/>
			<path fill-rule="evenodd" clip-rule="evenodd" fill="#3B96C9" d="M709.125,1009.041c-10.051-0.001-192.419,67.671-192.419,67.671
				l409.993,75.002l320.958-81.968L709.125,1009.041z"/>
			<polygon fill-rule="evenodd" clip-rule="evenodd" fill="#F6F7F8" points="954.083,822.273 856.808,969.37 1171.334,998 
				1259.352,831.94 			"/>
			<polygon fill-rule="evenodd" clip-rule="evenodd" fill="#4B6EAB" points="992.148,850.837 931.899,949.927 1117.968,965.074 
				1174.391,858.375 			"/>
			<path fill-rule="evenodd" clip-rule="evenodd" fill="#1478A4" d="M925.847,1179.63l-110.345-22.479
				c0,0,2.614-23.808,1.965-25.403l109.232,19.966L925.847,1179.63z"/>
			<path fill-rule="evenodd" clip-rule="evenodd" fill="#5EB5E6" d="M926.699,1151.713l320.958-81.968c0,0,4.365,23.52-8.645,31.797
				c-12.232,8.327-313.166,78.088-313.166,78.088L926.699,1151.713z"/>
		</g>
		<path fill-rule="evenodd" clip-rule="evenodd" fill="#F7F8F9" d="M1032.106,937.751c-0.577-0.041-0.621-0.336-0.432-0.893
			c1.277-3.787,2.522-7.582,3.781-11.374c1.84-5.54,3.675-11.08,5.534-16.611c0.206-0.605,0.143-0.845-0.479-0.932
			c-1.526-0.22-3.021-0.535-4.544-0.766c-0.53-0.08-0.719-0.221-0.506-0.841c1.033-3.014,2.029-6.035,3.008-9.056
			c0.185-0.568,0.398-0.741,0.964-0.632c1.55,0.312,3.138,0.538,4.691,0.852c0.59,0.12,0.829-0.016,1.026-0.649
			c0.728-2.316,1.531-4.626,2.279-6.938c2.065-6.388,7.129-10.028,13.476-9.635c3.562,0.223,6.914,1.128,10.39,1.637
			c0.447,0.065,0.438,0.304,0.311,0.687c-1.008,2.99-2.011,5.983-2.992,8.976c-0.161,0.502-0.388,0.552-0.802,0.472
			c-1.816-0.337-3.645-0.638-5.466-0.972c-1.676-0.305-2.939,0.334-3.621,2.07c-0.753,1.932-1.323,3.905-2.005,5.856
			c-0.2,0.589,0.204,0.54,0.534,0.598c2.479,0.435,4.962,0.868,7.436,1.302c1.02,0.178,1.02,0.178,0.456,1.215
			c-1.2,2.785-2.435,5.559-3.584,8.352c-0.339,0.821-0.718,0.904-1.422,0.765c-2.096-0.412-4.228-0.711-6.306-1.146
			c-0.779-0.16-1.002,0.07-1.253,0.82c-3.051,9.281-6.149,18.547-9.207,27.816c-0.235,0.719-0.46,0.917-1.186,0.781
			C1038.841,938.885,1035.472,938.332,1032.106,937.751z"/>
	</g>
	<g>
		<path fill="#71C9F1" d="M474.203,268.546c-0.013,0.769,4.637,47.09-1.7,57.777c-6.312,9.152-15.07,26.733-15.881,29.032
			c-0.05,3.084,1.793,32.406-2.136,36.964l0,0l0,0c-0.786,0.759-3.183,6.114-7.905,12.206
			c-11.11,19.861-32.479,54.198-44.951,63.244c-7.802,6.043-11.793,14.457-15.784,22.869c-4.771,9.174-7.99,17.603-17.263,18.996
			l0,0c-0.765-0.012-0.765-0.012-1.537-0.024c-8.476-0.137-26.06-8.899-42.791-23.049c-15.972-13.353-30.312-32.08-33.854-51.413
			c-0.741-2.319-0.689-5.402-0.643-8.484l0,0l0,0l0,0c0.088-5.395,1.761-13.069,4.223-22.284c2.443-8.438,5.675-17.632,9.707-28.361
			c20.873-52.075,62.03-119.237,85.338-130.426c27.166-11.891,51.598,2.375,74.505,15.846c3.044,2.359,6.859,4.736,10.688,6.335
			L474.203,268.546L474.203,268.546L474.203,268.546z"/>
		<path fill-rule="evenodd" clip-rule="evenodd" fill="#71C9F1" d="M1088.359,1096.416c-2.688-3.493-44.685-12.783-54.199-22.063
			c-1.749-1.703-3.025-3.129-10.736-3.251c-8.477-0.137-28.878-3.21-28.878-3.21s-32.522-29.227-36.288-34.685
			c-3.764-5.453-10.643-9.425-22.257-5.753c-12.397,3.655-46.275,1.568-50.881,0.72c-4.614-0.841-13.852-1.761-16.953-0.274
			c-3.895,2.255-62.213,34.456-70.741,37.398c-9.306,3.713,8.789,28.663,10.206,36.396c0.646,7.713,7.979,30.96,11.006,34.089
			c3.824,2.372-3.913-5.085,4.625-8.798c8.523-2.949,19.259-5.909,46.725-21.194c18.622-10.364,26.091,6.055,71.343-0.694
			c13.505-2.019,22.169-2.777,32.958-2.604c11.56,0.185,21.189-5.297,25.031-5.628c22.227-1.92,20.352-9.378,64.725,7.071
			C1080.431,1108.802,1091.045,1099.904,1088.359,1096.416z"/>
		<path fill-rule="evenodd" clip-rule="evenodd" fill="#34489A" d="M196.415,432.098c31.643-2.57,90.96-0.848,137.049,9.142
			c46.083,9.99,60.538,21.787,61.159,31.042c1.391,9.275,0.955,36.244,0.955,36.244s78.997,24.391,86.47,39.156
			c8.228,15.547,45.241,205.741,45.241,205.741s25.769,170.753,42.386,191.828c16.619,21.08-7.875,58.454-7.875,58.454
			s-7.953,15.281,9.905,7.095c17.854-8.194,32.713-21.057,34.749-4.064c1.279,16.206-7.285,21.461,3.508,21.634
			c10.785,0.173,97.773,6.969,109.417,1.761c11.641-5.204,6.285-7.601,17.842-7.418c11.562,0.186,29.319-1.846,34.704-0.982
			c4.604,0.843,40.984,39.197,46.993,49.308c6.001,10.12,16.331,86.594,12.95,105.038c-4.153,18.427,0.138,39.309-6.931,47.671
			c-7.071,8.366-33.42,17.188-48.06,16.955c-15.413-0.251-12.193-8.676-12.193-8.676l-12.639-28.723
			c0,0-84.561,34.094-100.118,43.096c-15.56,8.994-31.05,13.374-31.05,13.374s2.178,56.293-17.842,102.99
			c-20.033,47.462-26.635,75.107-26.635,75.107s-264.701,20.398-385.043,26.943c-120.353,7.312-113.704-22.643-173.545-39.793
			c-59.849-17.145-132.226-21.393-155.69-143.546c-22.704-122.141-1.377-201.956-1.377-201.956s26.488-304.791,46.417-346.093
			c20.705-41.283,38.643-198.224,94.571-225.073c56.681-26.067,97.26-57.01,115.877-64.419
			C135.454,436.516,196.415,432.098,196.415,432.098z"/>
		<path fill-rule="evenodd" clip-rule="evenodd" fill="#293578" d="M196.415,432.098c13.893-1.319,33.171-1.778,53.968-0.675
			c-6.589,26.101-9.356,54.574,6.824,54.835c21.568,0.348,76.106,12.015,92.241,15.357c15.362,3.33,20.705,6.499,8.427,3.219
			c-13.053-3.291-103.017-16.304-126.482,4.903c-23.477,21.969-83.27,49.527-124.507,265.441
			c-39.615,210.547-77.96,438.071-26.292,484.374c52.423,47.088,36.426,35.276,50.105,95.606
			c12.915,59.554,2.286,49.367,133.16,58.408c130.116,9.029,249.485,14.807,317.317-33.425c6.242-4.527,11.673-6.751,17.862-8.194
			c-16.855,41.35-22.637,65.922-22.637,65.922s-264.701,20.398-385.043,26.943c-120.353,7.312-113.704-22.643-173.545-39.793
			c-59.849-17.145-132.226-21.393-155.69-143.546c-22.704-122.141-1.377-201.956-1.377-201.956s26.488-304.791,46.417-346.093
			c20.705-41.283,38.643-198.224,94.571-225.073c56.681-26.067,97.26-57.01,115.877-64.419
			C135.454,436.516,196.415,432.098,196.415,432.098z"/>
		<path fill-rule="evenodd" clip-rule="evenodd" fill="#242F66" d="M823.666,1111.196c-6.728-13.21-16.456-31.091-20.987-37.333
			c-8.309-10.157-46.364,7.731-46.364,7.731l-0.014,0.774l0.014-0.774c0,0,27.316-21.14,44.961-16.232
			C812.784,1068.63,820.085,1094.182,823.666,1111.196L823.666,1111.196z M731.519,1089.671
			c-11.359-12.509-21.995-21.926-21.995-21.926s-67.744-4.951-100.17-1.611c-25.468,1.898-30.462,24.939-51.587,44.635
			c0.793-1.522,1.59-3.052,2.385-4.581c12.662-20.608,25.277-38.134,43.099-44.013c15.181-4.787,107.435,0.775,107.888,0.969
			C714.981,1063.971,725.509,1080.328,731.519,1089.671L731.519,1089.671z M523.613,1125.642
			c9.503-16.038,41.797-58.683,50.444-69.333c11.007-13.692,5.664-16.86-15.262-9.489c-12.408,4.421-27.205,14.2-38.876,20.947
			c26.408-12.67,64.511-33.482,52.631-13.629C561.462,1072.457,522.232,1115.598,523.613,1125.642L523.613,1125.642z
			 M501.338,1072.876c-4.549-4.706,32.238-39.568,30.959-55.777c-1.105-12.402-21.087,2.215-28.676,9.56
			c5.511-6.846,16.479-18.233,24.198-18.878c10.031-0.609,10.673,7.111,4.291,20.882
			C526.509,1041.673,503.76,1065.965,501.338,1072.876z"/>
		<path fill-rule="evenodd" clip-rule="evenodd" fill="#242F66" d="M499.768,978.812c-7.396-54.794-7.698-54.757-75.017-367.312
			c0,0-9.157-5.54-17.581-8.76l30.011,2.959c0,0,64.492,350.794,62.613,371.573C499.781,978.046,499.781,978.046,499.768,978.812z"
			/>
		<path fill-rule="evenodd" clip-rule="evenodd" fill="#293578" d="M752.046,1203.303L752.046,1203.303
			c0,0-84.561,34.094-100.118,43.096c-15.56,8.994-31.05,13.374-31.05,13.374s1.186,22.366-3.896,50.803
			c-11.384-10.972-32.789-22.109-70.493-25.794c-80.055-6.687-117.806-7.294-143.695,20.808
			c-26.658,28.086-78.936,68.094-58.247,27.577c20.674-39.746,47.569-82.472,9.627-71.519
			c-37.943,10.951-129.823,21.028-91.51-13.035c37.547-34.082,54.63-42.284,70.155-96.756c15.52-54.473-3.157-330.701-2.734-356.898
			c0.423-26.201,23.722-85.172,23.722-85.172c24.433,14.263,23.863,49.71,13.073,49.535c-10.791-0.173-17.2,15.143-15.831,25.955
			c1.37,10.81,30.326,318.801,29.952,341.921c-0.373,23.116-6.756,36.888,5.295,54.037c12.055,17.15,29.585,29.764,29.385,42.092
			c-0.197,12.33,45.176,18.452,77.439,25.142c13.835,2.532,53.091,5.475,94.854-3.098c61.108-13.663,130.155-41.84,154.928-48.376
			C751.413,1194.814,753.67,1197.934,752.046,1203.303z"/>
		<path fill-rule="evenodd" clip-rule="evenodd" fill="#1E1E4E" d="M474.141,272.401c1.868-20.012-27.54-108.351-55.041-124.208
			c-26.712-15.844-76.031-16.636-72.729-30.457c3.31-13.819-4.422-12.401-12.124-12.525c-7.71-0.124,20.357-19.712-12.056-17.149
			C289.774,90.62,268.076,2.41,203.023,21.403C137.974,40.39,110.412,124.727,96.197,146.08
			c-14.215,21.355-5.025,24.586-21.099,65.946c-16.083,41.36-46.085,37.795-100.257,147.139
			C-79.34,469.281-56.403,481.213-69.898,505.658c-13.484,23.678-4.187,68.53,4.882,79.462c9.06,11.71-14.654-47.245,10.448-74.591
			c24.335-27.352,32.045-27.229,32.045-27.229s-49.317,46.989-32.288,90.429c17.809,42.676,10.715,52.584,14.217,74.215
			c3.513,21.638,16.657,18.767,16.657,18.767s-16.682-17.225-10.316-29.451c5.579-11.477,1.417-40.058,0.048-50.867
			c-1.366-10.82-10.327-28.688,13.236-56.054c23.544-26.594,17.93-12.813,17.93-12.813s-26.667,28.859-19.235,45.931
			c7.447,16.311,14.976,27.223,13.252,38.754c-2.515,12.291-5.097,29.205,3.988,39.369c9.844,10.954,5.107,17.813,5.107,17.813
			s5.491-6.078,3.279-12.282c-1.446-5.418-12.065-16.377-8.771-29.43c3.287-13.052,16.505-19.771,8.315-37.63
			c-8.966-17.875-6.432-31.706-0.178-36.998c5.493-6.081,10.945-9.847,10.945-9.847s-12.6,16.757-3.577,30.771
			c9.799,14.032,16.607,21.851,9.478,34.068c-7.896,11.435-13.528,25.988-6.712,33.803c6.04,7.81,11.32,14.829,8.139,20.944
			c-3.95,6.1,8.2,17.089,8.2,17.089s-9.142-6.318-3.576-17.015c6.336-10.691,3.306-13.823-2.001-19.305
			c-4.523-6.232-3.52-20.864,5.078-28.437c7.816-6.808,11.221-26.794,7.47-33.018c-2.996-5.444,4.307-28.449,4.307-28.449
			s14.199,27.973,5.45,44.791c-8.748,16.812-5.982,36.129,11.458,54.134c16.657,18.768,22.296,3.443,28.913,23.59
			c5.837,20.135,20.467,21.139,20.467,21.139s-16.887-4.126-14.319-20.275c3.346-16.126-3.403-27.793-11.042-31.77
			c-7.635-4.745-23.61-18.11-17.206-32.647c7.157-13.762,23.613-30.456,29.983-43.455c7.16-13.758,7.47-33.021,7.47-33.021
			s12.693,25.641,7.063,40.194c-6.412,15.309-27.405,26.538-20.804,47.45c5.812,21.677,27.385,22.792,20.979,37.335
			c-6.41,15.309,6.468,29.393,6.468,29.393s-4.459-10.86-0.473-18.51c3.19-6.882,11.083-18.318,0.508-31.592
			c-11.35-13.283-2.591-30.872,8.384-42.257c11.76-12.141,13.085-46.8,13.085-46.8s14.084,34.906,6.121,50.969
			c-7.201,16.067-5.323,43.072,3.85,47.847c9.163,5.541,4.153,29.354,4.153,29.354s8.032-19.913,4.301-27.676
			c-4.499-7.783-8.953-18.646,2.086-33.88c11.053-16.01,28.072-68.149,29.151-87.396c1.083-19.257,11.41,9.428,24.238,26.591
			c12.812,17.938,0.349,26.211-1.661,55.47c-2.788,29.241,17.836,41.137,17.836,41.137s-17.043-42.668-6.868-52.524
			c10.181-9.856,11.547-46.83,7.148-60.775c-4.402-13.94-5.571-37.084-5.571-37.084s-6.626-19.373-5.43-45.563
			c0.075-4.62,0.2-12.325,1.04-16.938c32.377-0.246,78.568,2.809,116.217,10.35c1.541,0.025,3.065,0.82,4.608,0.845l28.126-23.438
			c0,0-5.194-12.415-1.87-27.779c3.319-14.587,8.341-39.176,28.387-39.62c20.061-1.22-3.441,22.295-4.354,31.528
			c-1.702,9.99-2.626,19.228-2.626,19.228s2.6-17.686,13.53-26.758c10.924-8.304,21.348-33.568,24.669-48.16
			c2.546-14.607,22.26-42.033,33.135-47.254C467.17,274.604,474.141,272.401,474.141,272.401z"/>
		<path fill-rule="evenodd" clip-rule="evenodd" fill="#2C3170" d="M281.138,100.503c-31.244,25.702-39.218,90.315-45.931,124.119
			c-7.486,34.565-15.38,141.569-28.823,162.934c-13.436,20.592-13.221,103.065-20.528,126.074
			c-6.532,23.012-25.659,62.017-25.659,62.017s18.188-76.782,21.854-112.945c3.667-36.17-1.757-82.499-1.546-95.604
			c0.21-13.097-2.738-69.409-4.412-60.955c-1.679,8.448,1.357,107.15-6.747,131.685c-8.874,24.527-21.063,63.635-21.063,63.635
			s6.057-40.751,9.616-70.754c3.553-29.23,6.852-137.855,6.852-137.855s-11.563,95.389-18.12,119.943
			c-7.339,24.547-19.287,49.025-27.336,70.469c-8.816,20.672-22.52,58.218-22.52,58.218s25.97-81.281,29.188-89.707
			c3.986-8.414,19.314-50.561,19.55-65.201c0.247-15.409-3.063-49.376,2.756-75.491c5.061-26.893,5.295-41.53,5.295-41.53
			s-23.567,27.365-33.456,67.287c-10.656,39.133-23.144,96.738-26.664,124.434c-4.302,27.673-12.702,70.701-12.702,70.701
			s10.408-72.281,14.606-93.796c3.438-21.527,2.705-72.409,9.22-93.886c7.278-20.689,25.528-53.541,28.047-66.597
			c1.752-13.079,3.616-33.087,3.616-33.087s-18.939,27.439-30.931,54.222c-11.979,26.016-29.002,78.156-32.269,89.662
			c-3.273,11.508-9.22,46.094-7.917,60.761c1.309,14.661-11.21-21.762-2.202-54.762c8.998-32.223,26.053-86.67,33.282-104.284
			c6.457-18.394,16.879-42.888,25.588-57.393c7.938-14.512,20.131-53.629,27.414-75.095c6.512-21.47,8.441-46.105,27.255-65.068
			c18.04-19.75,48.298-32.369,48.298-32.369s-43.621,28.588-55.761,64.619c-12.144,36.025-12.441,54.521-12.441,54.521
			s23.886-47.4,27.924-58.897c3.268-11.509,25.108-27.34,25.108-27.34s-19.102,37.458-20.767,45.138
			c-1.678,8.453-12.465,56.063-12.465,56.063s24.309-73.6,36.052-84.974c11.741-11.367,28.27-32.683,28.27-32.683
			s-41.814,60.216-42.085,77.166c-0.262,16.181-0.61,37.756-0.61,37.756s18.398-41.327,25.561-55.852
			c6.407-14.542,18.246-32.077,18.246-32.077l-15.643,62.178l-11.574,48.37c0,0,21.958-71.326,40.009-91.075
			C273.373,104.232,281.138,100.503,281.138,100.503z"/>
		<path fill-rule="evenodd" clip-rule="evenodd" fill="#2C3170" d="M352.33,178.721c8.177,18.63,17.168,34.962,29.283,48.258
			c21.193,24.231,46.411,37.74,47.18,37.753c1.551-0.744-46.697-20.018-60.973-42.598
			C354.307,199.563,352.33,178.721,352.33,178.721z"/>
		<path fill-rule="evenodd" clip-rule="evenodd" fill="#2C3170" d="M340.684,183.928c5.088,19.353,10.964,37.173,20.736,52.744
			c18.068,26.498,40.915,43.823,41.683,43.835c1.538,0.025-43.5-26.909-53.901-50.968
			C339.58,204.723,340.684,183.928,340.684,183.928z"/>
		<path fill-rule="evenodd" clip-rule="evenodd" fill="#2C3170" d="M327.438,192.967c3.532,20.097,7.847,39.433,16.058,55.748
			c14.942,29.53,36.965,49.924,37.731,49.937c1.543,0.024-41.868-32.274-49.15-58.599
			C324.009,214.488,327.438,192.967,327.438,192.967z"/>
		<path fill-rule="evenodd" clip-rule="evenodd" fill="#2C3170" d="M322.027,193.648c-4.235,23.824-6.135,46.145-2.625,67.781
			c6.323,37.871,22.803,67.424,23.561,68.204c1.531,0.799-34.64-50.65-33.359-82.232
			C310.112,215.809,322.027,193.648,322.027,193.648z"/>
	</g>
</g>
<g>
	<rect x="-1804.54" y="1065.71" fill="none" width="2364.136" height="1657.348"/>
</g>
<g>
	<path opacity="0.7" fill="#0A64A3" d="M4227.189,1402.864c0,0-170.156,3.095-198.012,6.184c-27.83,3.091-383.628-6.184-392.9-3.089
		c-9.287,3.089-6.189-9.286-21.668,3.089c-15.465,12.377-225.848,3.091-225.848,3.091s0-15.466-18.559-3.091
		c-18.566,12.377-37.129,3.091-37.129,3.091h-346.491l-21.675-58.782l-219.672,49.508l-55.67-9.287l-126.843,9.287l-244.415-24.76
		l-136.129-3.086l111.368,40.219c0,0-55.677,15.472-89.718,15.472c-34.037,0-77.347,12.372-77.347,12.372l92.806,6.189
		c0,0,46.42,3.094,64.986,0c18.559-3.102,102.098-18.562,111.363-18.562c9.287,0,49.516,15.46,49.516,15.46
		s-191.829,55.69-262.975,64.977c-71.168,9.285-361.986,55.686-411.488,71.156c-49.515,15.469-201.104,46.408-241.302,55.695
		c-40.229,9.273-105.212,40.219-117.584,46.41c-12.36,6.182,15.497,12.586,43.319,9.275
		c129.936-15.467,253.699-34.025,312.476-43.316c58.78-9.271,352.7-61.879,377.444-68.064
		c24.748-6.186,504.297-108.281,519.765-117.564c15.463-9.281,293.919-15.467,293.919-15.467l-58.782,21.664
		c0,0,37.12,6.18,55.683,12.371c18.56,6.186,68.064,15.464,89.721,9.275c21.674-6.186,74.263-21.646,92.826-30.939
		c18.559-9.277,6.168-15.473,6.168-15.473l293.928-15.46c0,0,257.559-1.696,343.425-3.1
		C3911.639,1425.466,4095.051,1417.59,4227.189,1402.864z"/>
</g>
</svg>
