<?xml version="1.0" encoding="utf-8"?>
<!-- Generator: Adobe Illustrator 16.0.4, SVG Export Plug-In . SVG Version: 6.00 Build 0)  -->
<!DOCTYPE svg PUBLIC "-//W3C//DTD SVG 1.1//EN" "http://www.w3.org/Graphics/SVG/1.1/DTD/svg11.dtd">
<svg version="1.1" id="Layer_1" xmlns="http://www.w3.org/2000/svg" xmlns:xlink="http://www.w3.org/1999/xlink" x="0px" y="0px"
	 width="1496.683px" height="1596.229px" viewBox="0 0 1496.683 1596.229" enable-background="new 0 0 1496.683 1596.229"
	 xml:space="preserve">
<g>
	<rect x="961.747" y="1116.077" fill="none" width="2364.136" height="1657.348"/>
</g>
<path fill="#1E1E4E" d="M769.693,894.604c0,0-169.466-53.525-314.108,8.021l-0.339-18.469c0,0,133.141-66.069,314.447-4.525V894.604
	z"/>
<path fill="#1E1E4E" d="M938.123,1061.412c0,0-206.584-54.97-377.462,10.854l-0.403-19.749c0,0,163.674-72.938,377.865-7.116
	V1061.412z"/>
<rect x="-1374.98" y="-339.853" fill="none" width="2720.944" height="679.705"/>
<g>
	<path fill="#294188" d="M715.593,300.873c0,0,96.918-5.303,109.457,0.291c12.536,5.594,75.133-12.625,95.465,108.811
		c7.347,43.886,62.481,61.176,34.551,76.555c-51.068,28.115-205.584,29.254-205.584,29.254L715.593,300.873z"/>
	<path fill="#25326B" d="M867.288,325.938c0,0,41.485,44.672,40.3,88.917c0,0-7.115,0.753-9.479,4.92
		c-2.375,4.169,8.343-0.178,9.502,3.772c1.162,3.951-6.737,3.951-9.109,7.112c-2.37,3.159,6.022,10.03,6.022,10.03
		s-8.799-5.34-8.471-9.931c0.328-4.594,9.018-3.249,9.064-6.077c0.05-2.825-11.172-0.926-9.064-4.907
		c2.104-3.98,10.398-4.573,10.547-6.943S906.204,378.158,867.288,325.938z"/>
	<polygon fill="#43A5DC" points="790.578,375.926 648.06,306.848 631.853,319.282 774.372,388.359 774.389,388.512 790.593,376.045 
			"/>
	<path fill="#1E76BA" d="M791.089,358.309c-3.117-0.562,5.055-20.969,16.193-18.965c46.99,8.457,30.667,73.176,27.855,77.487
		c-2.812,4.313-35.615,4.993-39.491-5.645C791.687,400.322,802.424,360.361,791.089,358.309z"/>
	<polygon fill="#0F6292" points="987.018,746.661 790.593,376.045 774.389,388.512 970.809,759.094 	"/>
</g>
<polygon fill="#263C6A" points="631.853,319.282 814.377,638.667 970.809,759.094 774.372,387.296 "/>
<path fill="#43A5DC" d="M982.887,476.618l-168.471-85.127l-16.204,12.435l177.622,93.542l0.016,0.153
	c5.207-4.721,3.182-4.45,8.952-7.535L982.887,476.618z"/>
<polygon fill="#263C6A" points="798.212,403.926 1023.285,744.581 1179.715,865.014 975.834,497.468 "/>
<g>
	<g>
		<path fill="#158AA9" d="M1070.207,720.405c-9.048,21.006,128.896,145.876,135.415,151.76c0-9.166,0-17.66,0-26.984
			C1199.505,838.59,1076.359,706.119,1070.207,720.405z"/>
		<path fill="#292A66" d="M1205.859,845.439c0,0-0.084-0.09-0.237-0.259c0,9.324,0,17.818,0,26.984
			c0.155,0.141,0.237,0.214,0.237,0.214l204.507-131.853v-26.942L1205.859,845.439z"/>
		<path fill="#0F6292" d="M1175.733,820.883L982.887,476.618c-5.457,2.89-10.401,7.258-15.327,11.681l192.841,344.234
			L1175.733,820.883z"/>
		<polygon fill="#263C6A" points="799.529,400.509 1012.43,719.692 1160.401,832.533 967.545,488.155 		"/>
	</g>
</g>
<path fill="#252E66" d="M601.923,325.061c0,0,96.059-54.854,123.974-22.469c27.917,32.387-7.241,59.396-7.241,59.396l-124.71-33.184
	L601.923,325.061z"/>
<g>
	<polygon fill="#43A5DC" points="300.907,634.239 300.907,649.433 361.89,745.579 363.394,723.191 	"/>
	<path fill="#1E1E4E" d="M622.663,736.532c0,0-140.691-45.807-260.772,9.047l-0.28-16.46c0,0,110.531-60.781,261.053-5.928V736.532z
		"/>
	<polygon fill="#1E1E4E" points="761.359,372.045 775.107,387.021 667.464,729.119 648.901,723.191 	"/>
	<path fill="#292A66" d="M622.663,723.191c0,0-140.977-48.923-261.053,5.928l-60.703-94.88c0,0,63.767-59.373,230.804-20.755
		L622.663,723.191z"/>
	<path fill="#1E1E4E" d="M596.423,493.424h-243.04c0,0-26.438,75.361,52.375,107.687h23.574c0,0-81.834-29.941-57.832-87.016
		c0,0,214.598-0.464,214.568-0.409C586.039,513.741,596.423,493.424,596.423,493.424z"/>
</g>
<g>
	<g>
		<path fill="#156794" d="M1008.849,699.197c0,0,5.396,4.901,4.905,12.752c-0.489,7.846-0.983,13.24,4.905,17.167
			c5.887,3.923,24.036,5.885,25.996-6.866c1.962-12.756-4.415-22.565-4.415-22.565L1008.849,699.197z"/>
		<path fill="#24336B" d="M1039.259,716.035c-8.501-6.539-14.388-4.579-18.966,1.312c-2.226,2.854-4.596,4.166-6.451,4.762
			c0.562,2.773,1.911,5.072,4.817,7.008c5.887,3.923,24.036,5.885,25.996-6.866c0.114-0.743,0.197-1.479,0.261-2.201
			C1043.045,718.807,1041.122,717.468,1039.259,716.035z"/>
		<path fill="#24336B" d="M1042.204,728.135c0,6.229-5.599,11.282-12.51,11.282c-6.907,0-12.505-5.053-12.505-11.282
			c0-6.235,5.598-11.281,12.505-11.281C1036.605,716.854,1042.204,721.899,1042.204,728.135z"/>
		<ellipse fill="#1E1E4E" cx="1034.109" cy="728.135" rx="7.601" ry="6.855"/>
	</g>
	<g>
		<path fill="#156794" d="M1169.932,737.45c0,0,5.656,5.149,5.143,13.376c-0.514,8.233-1.025,13.893,5.147,18.005
			c6.173,4.116,25.203,6.177,27.268-7.199c2.053-13.374-4.634-23.661-4.634-23.661L1169.932,737.45z"/>
		<path fill="#24336B" d="M1201.827,755.119c-8.918-6.858-15.092-4.802-19.893,1.37c-2.331,2.996-4.815,4.37-6.77,4.998
			c0.593,2.905,2.01,5.316,5.058,7.344c6.173,4.116,25.203,6.177,27.268-7.199c0.118-0.783,0.199-1.545,0.264-2.307
			C1205.794,758.021,1203.777,756.619,1201.827,755.119z"/>
		<path fill="#24336B" d="M1204.914,767.807c0,6.531-5.87,11.833-13.118,11.833c-7.246,0-13.115-5.302-13.115-11.833
			c0-6.537,5.869-11.831,13.115-11.831C1199.043,755.976,1204.914,761.27,1204.914,767.807z"/>
		<ellipse fill="#1E1E4E" cx="1196.427" cy="767.807" rx="7.971" ry="7.19"/>
	</g>
	<g>
		<path fill="#24336B" d="M1247.941,734.297c0,6.079-5.463,11.001-12.197,11.001c-6.743,0-12.212-4.922-12.212-11.001
			c0-6.082,5.469-11.01,12.212-11.01C1242.478,723.287,1247.941,728.215,1247.941,734.297z"/>
		<path fill="#1E1E4E" d="M1247.469,734.297c0,3.693-3.324,6.689-7.421,6.689c-4.1,0-7.415-2.996-7.415-6.689
			c0-3.694,3.315-6.692,7.415-6.692C1244.145,727.604,1247.469,730.603,1247.469,734.297z"/>
	</g>
	<g>
		<path fill="#0965A3" d="M1065.256,499.067c0,0-0.49,88.289,0,115.268c0.492,26.979-5.394,58.863,14.223,65.239
			c19.622,6.375,88.934,60.064,101.047,60.826c7.846,0.487,55.428-30.417,78.974-50.037c10.491-8.74,9.174-16.73,9.317-25.014
			c0.494-27.957,1.472-130.966,0.979-163.339c-0.484-32.376,7.852-70.631-18.64-79.462c-26.484-8.827-110.852-10.791-138.808-11.774
			c-27.96-0.979-105.953,2.947-110.857,21.581C992.226,467.576,1065.256,499.067,1065.256,499.067z"/>
		<path opacity="0.3" fill="#A8DBE9" d="M1268.817,665.35c0.494-27.957,1.472-130.966,0.979-163.339
			c-0.417-27.614,5.572-59.493-9.088-73.755c-35.069,16.058-55.329,13.748-55.329,13.748c-1.306,3.268-6.541,2.617-6.541,2.617
			c-2.614,3.924-7.19,1.962-7.19,1.962c-5.234,3.267-9.812,1.309-9.812,1.309l-57.554,228.904c0,0,11.338,23.55,22.434,44.588
			c15.729,10.415,29.098,18.721,33.812,19.017c7.846,0.487,55.428-30.417,78.974-50.037
			C1269.991,681.623,1268.673,673.633,1268.817,665.35z"/>
		<path fill="#1E1E4E" d="M1251.156,422.549c-7.771-2.592-20.528-4.593-35.385-6.148c1.303,0.291,2.626,0.548,3.995,0.752
			c48.396,7.191,45.129,20.271,46.434,54.934c1.307,34.664,2.617,173.313,0.654,190.975c-1.959,17.657-9.155,20.928-9.155,20.928
			l3.007,5.32c9.173-8.336,7.972-16.01,8.111-23.959c0.494-27.957,1.472-130.966,0.979-163.339
			C1269.311,469.635,1277.647,431.38,1251.156,422.549z"/>
		<g>
			<g>
				<path fill="#1E1E4E" d="M1064.309,499.321c-0.159,28.715-0.26,57.432-0.206,86.147c0.033,17.936,0.137,35.828-0.21,53.762
					c-0.198,10.207-0.409,21.318,3.869,30.818c3.079,6.839,8.774,8.707,15.037,11.578c14.978,6.867,28.71,17.098,42.339,26.239
					c14.327,9.611,28.486,19.69,43.522,28.183c3.36,1.897,7.319,4.412,11.261,4.777c4.035,0.373,8.896-2.737,12.282-4.47
					c18.191-9.306,35.286-21.261,51.743-33.298c7.869-5.756,17.683-11.761,22.901-20.18c4.169-6.727,2.893-15.812,3.007-23.384
					c0.257-16.97,0.422-33.941,0.576-50.912c0.341-37.475-0.021-74.958,0.307-112.428c0.104-11.724,1.043-23.425,0.842-35.154
					c-0.167-9.692-1.144-19.989-6.248-28.46c-7.965-13.218-27.709-14.016-41.376-15.707c-37.43-4.634-75.493-5.649-113.175-6.546
					c-17.072-0.406-34.26,0.797-51.223,2.646c-16.326,1.78-33.806,3.901-48.936,10.699c-3.846,1.728-8.4,4.266-9.945,8.451
					c-2.356,6.38-0.387,14.033,2.433,19.88c7.034,14.584,21.903,25.11,35.208,33.498c8.337,5.255,17.113,10.078,26.167,13.999
					c0.452,0.196,2.187-0.511,1.543-0.789c-9.282-4.021-18.218-9.021-26.763-14.409c-13.761-8.675-28.818-19.814-35.365-35.246
					c-2.35-5.538-3.985-14.364-0.059-19.567c3.949-5.232,12.128-7.368,18.071-9.084c18.835-5.437,38.928-7.188,58.415-8.433
					c35.345-2.259,71.316,0.23,106.598,2.546c19.007,1.247,38.432,2.463,57.054,6.702c8.714,1.983,16.019,5.574,20.499,13.67
					c4.821,8.714,5.152,19.65,5.241,29.352c0.108,11.763-0.86,23.51-0.893,35.272c-0.02,7.129,0.135,14.261,0.149,21.391
					c0.043,19.641-0.072,39.282-0.206,58.923c-0.137,20.062-0.319,40.123-0.55,60.185c-0.082,7.132-0.172,14.265-0.281,21.396
					c-0.164,10.646,0.368,19.76-7.885,27.793c-7.794,7.587-17.488,13.813-26.352,20.057c-9.09,6.402-18.374,12.537-27.849,18.354
					c-6.999,4.297-14.247,8.838-21.975,11.729c-4.46,1.669-8.964-1.462-12.793-3.567c-29.545-16.242-55.179-39.32-85.45-54.278
					c-6.602-3.263-12.386-4.74-15.979-11.916c-4.589-9.163-4.023-20.876-3.869-30.818c0.276-17.934,0.246-35.826,0.209-53.762
					c-0.059-28.716,0.047-57.433,0.206-86.147C1066.207,498.42,1064.312,498.716,1064.309,499.321z"/>
			</g>
		</g>
		<g>
			<path fill="#24336B" d="M1169.735,741.377c11.784,2.91,25.515-2.766,25.996-30.41c0.486-27.74,3.921-158.143,3.421-190.895
				c-0.5-32.883,7.874-73.325-19.115-82.319c-27.012-9.001-108.412-13.507-136.901-14.47c-28.488-0.963-47.479-1.938-50.021,35.18
				C990.587,495.418,1157.949,738.474,1169.735,741.377z"/>
		</g>
	</g>
	<g>
		<path fill="#1E1E4E" d="M988.739,518.198c0,0-0.493,88.289,0,115.268c0.49,26.98-5.396,58.857,14.226,65.237
			c19.621,6.376,150.094,38.747,161.863,41.697c11.776,2.941,25.017,1.958,25.508-26.003c0.49-27.96,3.435-160.887,2.946-193.258
			c-0.493-32.373,7.851-70.638-18.642-79.462c-26.487-8.83-106.44-14.714-134.399-15.696c-27.958-0.983-46.597-1.962-49.539,34.335
			C987.757,496.614,988.739,518.198,988.739,518.198z"/>
		<path fill="#24336B" d="M1162.218,739.582c0,0-132.767-35.971-156.311-44.474c0,0-10.463-2.617-11.772-22.237
			s0.655-114.45,0.655-114.45s-1.965-49.708-1.308-70.636c0.652-20.928,0.232-56.709,24.644-61.709l0,0
			c-15.458,1.592-25.35,8.639-27.425,34.24c-2.944,36.298-1.963,57.882-1.963,57.882s-0.493,88.289,0,115.268
			c0.49,26.98-5.396,58.857,14.226,65.237c18.678,6.071,137.838,35.705,159.377,41.074L1162.218,739.582z"/>
		<path fill="#24336B" d="M985.794,561.358c0,0,5.887,4.909,13.243-3.925c7.357-8.826,8.343-33.351,8.343-33.351L985.794,561.358z"
			/>
		<path fill="#43A5DC" d="M1174.64,441.678c-26.487-8.83-106.44-14.714-134.399-15.696c-8.239-0.29-15.664-0.571-22.114,0.095
			c25.266,1.585,111.846,7.481,136.891,15.271c29.434,9.154,29.434,7.851,30.74,45.783c1.309,37.932,3.598,52.319-6.541,52.317
			c-13.733-0.003-137.344-17.658-181.158-17.004c0,0,72.591,9.811,113.144,15.041c40.543,5.235,68.015,6.543,71.939,8.504
			c3.923,1.964,2.615,82.403,1.959,120.995c-0.649,38.582,8.51,76.849-20.272,73.416c11.776,2.941,25.017,1.958,25.508-26.003
			c0.49-27.96,3.435-160.887,2.946-193.258C1192.789,488.767,1201.132,450.502,1174.64,441.678z"/>
		<path fill="#24336B" d="M1115.776,705.566l-1.957,4.417c0,0,31.389,12.59,35.97,9.319c4.577-3.269,0.651-14.388-5.891-14.388
			C1137.36,704.915,1115.776,705.566,1115.776,705.566z"/>
		<g>
			<path fill="#24336B" d="M988.739,518.198c0.49,4.41,11.774,4.902,11.774,4.902s84.364,10.792,126.546,15.206
				c42.184,4.416,56.408,8.336,66.223,3.925c0,0,0.975,7.682-27.145,4.409c-28.123-3.268-124.917-13.729-144.538-17.004
				c-19.619-3.267-30.085-3.267-32.695-7.192L988.739,518.198z"/>
		</g>
		<path fill="#156794" d="M1001.001,523.101c0,0-4.906,10.301-9.812,18.151c-4.904,7.845-11.275,17.658-5.395,20.106
			c5.887,2.456,15.207-17.167,21.586-37.275L1001.001,523.101z"/>
		<path opacity="0.3" fill="#A8DBE9" d="M1111.366,698.703c0,0-0.979,8.337,2.453,11.28c3.43,2.945,34.824,8.341,35.316,5.887
			c0.489-2.45,1.472-15.206-3.924-15.206C1139.815,700.664,1111.366,691.835,1111.366,698.703z"/>
		<path fill="#156794" d="M1145.211,700.664c-4.535,0-25.321-6.224-31.868-4.149l0.476,0.716c0,0,20.106,3.923,27.958,6.376
			c5.36,1.677,5.915,8.613,5.728,12.845c0.977-0.078,1.563-0.265,1.631-0.581C1149.625,713.42,1150.607,700.664,1145.211,700.664z"
			/>
		<g>
			<g>
				<path fill="#1E1E4E" d="M1110.421,698.832c-0.403,3.794-0.504,9.731,3.209,11.972c3.979,2.401,9.742,3.005,14.195,3.882
					c3.044,0.599,21.645,5.599,22.402,0.096c0.568-4.133,1.169-11.477-2.76-14.151c-1.1-0.748-2.984-0.545-4.252-0.748
					c-2.883-0.462-5.736-1.14-8.591-1.741C1131.259,697.431,1111.107,691.658,1110.421,698.832
					c-0.069,0.716,1.832,0.338,1.889-0.258c0.488-5.098,21.625,0.648,24.977,1.354c2.407,0.507,7.733,0.507,9.479,2.325
					c2.785,2.902,1.985,9.787,1.498,13.327c-0.273,1.979-20.029-2.015-22.305-2.493c-3.504-0.736-7.146-1.486-10.424-2.966
					c-3.729-1.684-3.583-8.162-3.225-11.548C1112.386,697.862,1110.484,698.234,1110.421,698.832z"/>
			</g>
		</g>
		<g>
			<path fill="#24336B" d="M997.567,506.425c0,0,5.885,4.904,13.246-3.927c7.356-8.83,8.336-33.354,8.336-33.354L997.567,506.425z"
				/>
			<path fill="#24336B" d="M1012.771,468.162l-0.326,8.5c0,0,55.591,11.118,140.607,8.505L1012.771,468.162z"/>
			<path fill="#156794" d="M1012.771,468.162c0,0-4.902,10.303-9.807,18.152c-4.905,7.848-11.283,17.655-5.397,20.11
				c5.885,2.454,15.204-17.17,21.582-37.28L1012.771,468.162z"/>
			<path fill="#156794" d="M1014.246,459.336l-5.396,11.281c0,0,112.816,14.225,146.173,14.225l4.416-12.264
				C1159.438,472.578,1074.575,467.182,1014.246,459.336z"/>
			<path fill="#43A5DC" d="M1159.438,472.578c0,0-0.315-0.018-0.896-0.057c-1.75,3.089-4.663,7.041-8.427,7.908
				c-6.378,1.47-130.967-9.324-130.967-9.324l0.253,0.814c28.81,3.517,108.494,12.922,135.62,12.922L1159.438,472.578z"/>
		</g>
	</g>
	<g>
		<path fill="#24336B" d="M1188.372,737.45c0,0,13.738-7.357,15.206-27.956c0,0,4.415-3.432,13.246-8.341
			c8.829-4.903,44.141-27.463,43.658-25.014c-0.494,2.451,0.977,30.411-1.474,33.354c-2.452,2.943-45.618,34.826-52.488,35.804
			c-6.863,0.983-28.934-2.939-28.934-2.939S1185.433,739.908,1188.372,737.45z"/>
		<path fill="#1E1E4E" d="M1205.04,708.43c-0.967,0.682-1.462,1.064-1.462,1.064c-1.468,20.599-15.206,27.956-15.206,27.956
			c-2.938,2.458-10.785,4.908-10.785,4.908s22.07,3.923,28.934,2.939c0.086-0.009,0.181-0.024,0.271-0.047
			C1208.361,734.999,1206.089,716.081,1205.04,708.43z"/>
	</g>
	<path fill="#24336B" d="M1198.67,423.036c0,0-11.767-1.962-18.145-1.962c0,0-12.043-22.414-19.619-23.542
		c-23.055-3.434-59.844-5.887-68.67-3.923c0,0-4.411-0.982-4.411,6.864c0,7.849,0.975,12.755,0.975,12.755l-17.166,1.471
		c0,0-1.473-17.659,5.885-24.523c7.358-6.87,30.412-5.887,48.067-5.398c17.66,0.49,44.637,2.945,52,10.793
		c4.482,4.785,11.343,13.951,16.012,20.371c1.146,1.576,19.961,3.503,20.771,4.645
		C1215.681,422.417,1198.67,423.036,1198.67,423.036z"/>
	<path fill="#156794" d="M1183.958,418.134c-4.412-1.469-10.788-17.168-16.186-22.073c-5.396-4.902-43.164-5.395-62.292-6.377
		c-19.133-0.981-24.527,4.415-24.527,4.415v7.847c0,0,2.893,1.426,6.997,3.427c-0.078-1.466-0.125-3.1-0.125-4.898
		c0-7.847,4.411-6.864,4.411-6.864c8.826-1.964,45.615,0.489,68.67,3.923c7.576,1.128,19.619,23.542,19.619,23.542
		c6.378,0,18.145,1.962,18.145,1.962s2.443-0.085,5.396-0.298C1199.818,421.877,1187.591,419.344,1183.958,418.134z"/>
	<path fill="#1E1E4E" d="M1087.826,400.474c0-7.847,4.411-6.864,4.411-6.864c4.985-1.111,26.261,0.285,43.825,1.711
		c-19.472-2.156-45.945-4.415-53.151-1.711c-11.77,4.414-11.276,21.09-11.276,21.09l17.166-1.471
		C1088.8,413.229,1087.826,408.322,1087.826,400.474z"/>
</g>
<path fill="#43A5DC" d="M1195.271,589.417l-168.018-87.646l-15.329,11.65l168.017,87.647l0.016,0.143
	c4.925-4.423,9.869-8.792,15.326-11.681L1195.271,589.417z"/>
<path fill="#0F6292" d="M1388.129,933.795l-192.847-344.264c-5.457,2.889-10.401,7.258-15.326,11.681l192.84,344.233
	L1388.129,933.795z"/>
<polygon fill="#263C6A" points="1011.924,513.422 1224.826,832.605 1372.796,945.445 1179.941,601.069 "/>
<path fill="#43A5DC" d="M1195.271,589.417l-168.018-87.646l-15.329,11.65l168.017,87.647l0.016,0.143
	c4.925-4.423,9.869-8.792,15.326-11.681L1195.271,589.417z"/>
<g>
	<polygon fill="#43A5DC" points="300.907,634.239 300.907,649.433 361.89,745.579 363.394,723.191 	"/>
	<path fill="#1E1E4E" d="M622.663,736.532c0,0-140.691-45.807-260.772,9.047l-0.28-16.46c0,0,110.531-60.781,261.053-5.928V736.532z
		"/>
	<polygon fill="#1E1E4E" points="761.359,372.045 775.107,387.021 667.464,729.119 648.901,723.191 	"/>
	<polygon fill="#0A64A3" points="614.578,334.474 761.359,372.045 648.901,723.191 540.774,608.998 	"/>
	<path fill="#0A64A3" d="M622.663,723.191c0,0-140.977-48.923-261.053,5.928l-60.703-94.88c0,0,63.767-59.373,230.804-20.755
		L622.663,723.191z"/>
</g>
<g>
	<polygon fill="#43A5DC" points="382.127,764.937 382.127,781.986 455.584,902.625 455.205,879.795 	"/>
	<polygon fill="#1E1E4E" points="958.761,477.885 975.315,494.689 823.658,886.285 801.298,879.631 	"/>
	<polygon fill="#0A64A3" points="796.436,393.104 958.761,477.885 801.298,879.631 671.053,743.233 	"/>
	<path fill="#0A64A3" d="M769.693,879.631c0,0-169.805-57.019-314.447,4.525l-73.118-119.22c0,0,76.808-51.724,278.01-8.396
		L769.693,879.631z"/>
	<path fill="#1E1E4E" d="M715.883,617.984l-270.547,0.594c0,0-31.846,84.558,63.086,120.825h28.397c0,0-98.574-33.59-69.664-97.631
		c0,0,240.609-0.524,240.575-0.463S715.883,617.984,715.883,617.984z"/>
</g>
<g>
	<polygon fill="#43A5DC" points="483.721,929.811 482.387,946.258 560.661,1072.266 561.591,1054.305 	"/>
	<path fill="#1E1E4E" d="M938.123,1061.412c0,0-206.584-54.97-377.462,10.854l0.931-17.961c0,0,162.34-74.727,376.531-8.904
		V1061.412z"/>
	<polygon fill="#1E1E4E" points="1195.534,603.192 1215.096,621.164 1001.877,1052.517 975.46,1045.4 	"/>
	<polygon fill="#0A64A3" points="1000.786,501.598 1195.534,603.192 975.46,1045.4 821.593,899.521 	"/>
	<path fill="#0A64A3" d="M939.458,1047.189c0,0-206.989-58.706-377.867,7.115l-77.87-124.494c0,0,88.616-60.61,326.311-14.267
		L939.458,1047.189z"/>
	<path fill="#1E1E4E" d="M881.199,767.674l-326.266,1.193c0,0-37.539,90.67,74.614,129.461l33.561,0.062
		c0,0-116.546-36.228-82.394-104.719c0,0,288.799-0.524,288.762-0.46C869.43,793.277,881.199,767.674,881.199,767.674z"/>
</g>
<g>
	<g>
		<path fill="#9597A2" d="M473.844,985.764c0,0,48.946,0.596,66.521-5.977c17.571-6.571-13.934-23.898-13.934-23.898"/>
		<path fill="#C4C6D1" d="M819.316,926.911c0,0-195.398-24.961-270.777,3.304c-75.381,28.269-73.93,53.756-74.694,55.549
			c-0.757,1.791,58.595-31.668,96.639,28.677l47.974,2.391c0,0,182.059-46.006,264.514-11.949
			C882.97,1004.882,847.677,937.365,819.316,926.911z"/>
		<path fill="#E0E2E9" d="M618.457,1016.831c0,0-4.542-15.533-10.424-23.302c-5.883-7.766-37.55,14.938-37.55,20.911"/>
		<path fill="#E0E2E9" d="M890.016,991.928c-23.177-7.167-266.953,12.453-266.953,12.453s-71.133-59.592-96.632-71.794
			c-25.497-12.205,250.528-28.073,268.878-21.506C804.697,929.001,913.192,999.103,890.016,991.928z"/>
		<path fill="#C8CCD5" d="M870.69,981.848c-23.178-7.17-223.221,10.947-223.221,10.947s-72.566-44.573-98.065-56.776
			c-25.497-12.202,230.638-22.028,248.99-15.457C807.781,938.48,893.866,989.017,870.69,981.848z"/>
		<path fill="#B3B7BF" d="M695.988,928.856c0,0,30.364,27.113,35.021,27.113c2.257,0-2.825-1.13,3.387-1.694
			c0,0-23.724-25.981-25.417-25.981S695.988,928.856,695.988,928.856z"/>
		<path fill="#B3B7BF" d="M643.456,928.856c0,0,30.363,27.113,35.021,27.113c2.26,0-2.825-1.13,3.39-1.694
			c0,0-23.726-25.981-25.419-25.981S643.456,928.856,643.456,928.856z"/>
		<path fill="#B3B7BF" d="M660.967,928.856c0,0,30.36,27.113,35.019,27.113c2.258,0-2.825-1.13,3.39-1.694
			c0,0-23.725-25.981-25.418-25.981C672.262,928.294,660.967,928.856,660.967,928.856z"/>
		<path fill="#B3B7BF" d="M678.476,928.856c0,0,30.363,27.113,35.021,27.113c2.258,0-2.826-1.13,3.388-1.694
			c0,0-23.725-25.981-25.418-25.981C689.772,928.294,678.476,928.856,678.476,928.856z"/>
	</g>
	<path fill="#B3B7BF" d="M663.339,957.484c0,0,27.948,23.763,32.402,23.763c2.161,0,27.003-3.24,32.942-3.78
		c0,0-21.603-22.682-23.222-22.682C703.844,954.785,663.339,957.484,663.339,957.484z"/>
	<path fill="#B3B7BF" d="M576.022,932.649c0,0,69.637,51.214,74.089,51.214c2.161,0,9.182-2.158,15.122-2.7
		c0,0-62.16-51.396-63.779-51.396C599.831,929.767,576.022,932.649,576.022,932.649z"/>
	<path fill="#B3B7BF" d="M612.612,929.405c0,0,60.839,50.501,65.293,50.501c2.158,0-2.515-0.181,3.426-0.721
		c0,0-62.591-50.322-64.209-50.322C615.502,928.863,612.612,929.405,612.612,929.405z"/>
	<path fill="#1371AB" d="M714.244,939.42l-2.11,13.323c0,0,10.886,5.36,11.699,5.522c0.811,0.163,1.137-12.021,1.137-12.021
		L714.244,939.42z"/>
	<path fill="#1371AB" d="M711.481,956.967c0,0-0.974,8.938-1.461,12.511c-0.488,3.573,3.96,3.404,7.476,4.223
		c4.873,1.136,19.33,3.413,19.33,3.413s-0.646-10.562-0.974-11.049C735.529,965.577,711.481,956.967,711.481,956.967z"/>
</g>
<g>
	<path fill="#11669F" d="M699.217,179.408"/>
	<path fill="#1A70AB" d="M358.233,311.973c0,0,9.505,31.771,28.658,54.385c19.146,22.616-56.45,54.278-56.45,54.278
		s-7.15-34.246-21.348-49.108C294.902,356.668,358.233,311.973,358.233,311.973z"/>
	<path fill="#176C9C" d="M355.712,333.717c0,0-37.678,35.189-5.932,77.633c9.073,12.128-19.426,10.896-19.384,10.09
		c0.044-0.804-6.768-29.162-16.681-44.075C303.804,362.453,355.712,333.717,355.712,333.717z"/>
	<g>
		<path fill="#2180C4" d="M261.257,341.18c-5.849-6.273-11.347-29.781-7.446-39.888c3.902-10.105,1.153-27.522-8.243-29.784
			c-9.396-2.26-41.13-7.002-51.059-18.93c-3.183-3.822-6.977-4.918-10.672-4.661c-1.159,9.04,1.168,22.489,13.598,41.421
			c1.886,4.844,2.66,6.394,5.378,7.453c4.667,1.817,9.425,10.965,10.134,15.122c1.697,9.946-1.897,9.036,2.658,23.714
			c2.965,9.546,0.889,22.512,5.319,31.229c2.279,4.486,16.56-9.09,17.375-7.236c1.55,3.516,6.795,10.729,14.648,19.779
			C264.472,370.822,266.817,347.146,261.257,341.18z"/>
	</g>
	<g>
		<path fill="#1A70AB" d="M355.712,302.254c-2.361-8.83-5.188-18.517-7.656-23.926c-40.906,40.248-48.24,28.686-41.041,55.848
			c3.773,14.238-4.506,41.301-27.677,47.383c-11.273,2.965-13.003,8.559-11.823,13.518c3.958,3.838,7.661,7.004,10.61,8.85
			C289.844,397.292,349.252,351.167,355.712,302.254z"/>
	</g>
	<g>
		<path fill="#176C9C" d="M358.649,313.612c-0.819-3.239-1.827-7.204-2.937-11.358c-6.46,48.913-68.021,94.811-77.587,101.672
			c2.242,1.4,4.054,2.041,5.202,1.625c10.224-3.696,23.396-16.642,57.442-58.52C347.145,339.186,364.301,335.184,358.649,313.612z"
			/>
	</g>
	<g>
		<path fill="#1E76BA" d="M354.95,273.691c-44.734-97.98-163.353-41.104-163.353-41.104s-6.38,4.5-7.76,15.329
			c3.695-0.257,7.489,0.839,10.672,4.661c9.929,11.928,41.307,17.335,50.702,19.595c9.397,2.262,10.992,18.57,7.093,28.677
			c-3.902,10.104,1.772,34.074,7.623,40.351c5.56,5.963,4.545,29.622-6.979,38.198c0.032,0.035,0.067,0.075,0.101,0.114
			c0.763,0.878,0.298,4.216,4.353,6.277c2.029,1.032,4.055,2.323,4.055,2.323c2.139,2.281,5.444,6.104,7.514,8.113
			c-1.181-4.96-0.372-10.602,10.903-13.562c23.168-6.083,42.746-35.548,42.016-50.259
			C321.149,317.622,304.268,318.357,354.95,273.691z"/>
	</g>
	<path fill="#2180C4" d="M300.258,273.691c0,0,3.211-36.939,27.843-25.812c24.635,11.13,14.192,57.468,5.985,60.626
		C325.876,311.663,322.072,287.65,300.258,273.691z"/>
	<g>
		<path fill="#126FA9" d="M295.053,1001.287c-5.67-0.677-11.91-1.067-18.329-1.223c-21.945,12.949-78.524,43.457-117.024,38.659
			c13.423,7.045,20.939,16.422,1.168,26.655c34.866-0.018,78.208-1.585,110.54-3.014
			C271.173,1048.912,272.548,1019.509,295.053,1001.287z"/>
		<path fill="#2B8CC5" d="M276.724,1000.064c-24.394-0.593-51.478,2.197-60.616,5.487c-16.868,6.063-30.729,26.438-68.908,27.72
			c4.315,1.602,8.649,3.433,12.5,5.452C198.2,1043.521,254.779,1013.014,276.724,1000.064z"/>
		<path fill="#00273E" d="M318.965,1058.098l1.245,14.968c0,0-17.07,0.437-41.995,0.646c-1.07,0.008-0.459-5.293-1.554-5.231
			c-9.093,0.489-9.182,5.306-13.128,5.318c-59.991,0.216-149.116-1.259-171.9-11.337c0,0-3.979-7.729,1.706-6.762
			C99.033,1056.669,318.965,1058.098,318.965,1058.098z"/>
		<path fill="#05344C" d="M147.197,1033.271c-1.271,0.044-2.563,0.065-3.886,0.065c-41.154-0.03-68.817,20.835-37.641,28.938
			c8.844,2.301,29.767,3.113,55.195,3.104C186.307,1052.213,166.572,1040.46,147.197,1033.271z"/>
		<path fill="#0A4163" d="M295.053,1001.287c-22.508,18.222-23.88,47.625-23.646,61.078c27.201-1.203,46.611-2.31,46.611-2.31
			c11.266-21.892,3.036-47.841,3.036-47.841C319.438,1006.333,308.93,1002.95,295.053,1001.287z"/>
		<path fill="#233E49" d="M166.807,1036.008c-0.094,1.509,1.432,2.836,3.411,2.959c1.98,0.125,3.663-0.996,3.757-2.506
			c0.097-1.509-1.432-2.837-3.407-2.962C168.587,1033.372,166.906,1034.496,166.807,1036.008z"/>
		<path fill="#233E49" d="M185.162,1034.428c-0.099,1.51,1.431,2.832,3.406,2.959c1.981,0.127,3.665-0.996,3.762-2.505
			c0.093-1.51-1.435-2.838-3.412-2.965C186.938,1031.792,185.253,1032.915,185.162,1034.428z"/>
		<path fill="#233E49" d="M203.92,1029.535c-0.094,1.511,1.434,2.836,3.412,2.963c1.977,0.126,3.657-0.996,3.757-2.508
			c0.096-1.509-1.433-2.836-3.412-2.964C205.699,1026.903,204.017,1028.025,203.92,1029.535z"/>
		
			<ellipse transform="matrix(-0.998 -0.063 0.063 -0.998 383.4373 2062.6841)" fill="#233E49" cx="224.214" cy="1025.301" rx="3.591" ry="2.74"/>
		<polyline fill="none" stroke="#233E49" stroke-width="1.0637" stroke-miterlimit="10" points="224.272,1024.386 202.379,1013.058 
			207.507,1029.764 189.904,1021.052 188.745,1034.652 174.493,1028.315 169.817,1036.197 		"/>
	</g>
	<g>
		<path fill="#1E76BA" d="M301.418,1031.639c-5.705-0.314-11.954-0.308-18.372-0.056c-21.077,14.31-75.618,48.344-114.337,45.995
			c13.842,6.181,21.933,15.063,2.849,26.53c34.797-2.229,77.952-6.537,110.13-10.014
			C280.603,1080.682,280.106,1051.25,301.418,1031.639z"/>
		<path fill="#499FD8" d="M283.046,1031.583c-24.383,0.953-51.236,5.454-60.145,9.315c-16.451,7.12-28.995,28.336-67.017,32.031
			c4.413,1.323,8.853,2.879,12.824,4.648C207.428,1079.927,261.969,1045.893,283.046,1031.583z"/>
		<path fill="#00273E" d="M328.879,1086.821l2.191,14.861c0,0-17.008,1.517-41.868,3.304c-1.068,0.076-0.794-5.25-1.885-5.123
			c-9.04,1.064-8.828,5.878-12.764,6.139c-59.854,4.017-148.896,8.193-172.276-0.419c0,0-4.456-7.463,1.276-6.859
			C109.296,1099.332,328.879,1086.821,328.879,1086.821z"/>
		<path fill="#0A4163" d="M155.885,1072.93c-1.266,0.127-2.554,0.229-3.878,0.313c-41.068,2.574-67.356,25.151-35.729,31.263
			c8.972,1.735,29.902,1.223,55.279-0.397C196.115,1089.354,175.677,1078.875,155.885,1072.93z"/>
		<path fill="#0A4163" d="M301.417,1031.639c-21.311,19.611-20.817,49.043-19.729,62.456c27.071-2.926,46.373-5.259,46.373-5.259
			c9.857-22.558,0-47.938,0-47.938C326.073,1035.131,315.372,1032.422,301.417,1031.639z"/>
		<ellipse fill="#233E49" cx="179.22" cy="1074.417" rx="3.591" ry="2.739"/>
		<path fill="#233E49" d="M193.844,1071.674c0,1.515,1.607,2.743,3.591,2.743c1.982,0,3.592-1.229,3.592-2.743
			c0-1.511-1.609-2.737-3.592-2.737C195.452,1068.937,193.844,1070.163,193.844,1071.674z"/>
		<ellipse fill="#233E49" cx="215.85" cy="1065.609" rx="3.592" ry="2.738"/>
		<ellipse fill="#233E49" cx="232.242" cy="1060.098" rx="3.592" ry="2.739"/>
		<polyline fill="none" stroke="#233E49" stroke-width="1.0637" stroke-miterlimit="10" points="232.243,1059.18 209.674,1049.259 
			215.849,1065.609 197.731,1058.03 197.435,1071.674 182.811,1066.256 178.642,1074.417 		"/>
	</g>
	<path fill="#1E1E4E" d="M460.079,662.89c0,0-114.866-12.305-146.595-14.537c-56.065-3.948-155.878-0.067-157.05,8.51
		c-2.912,21.293,48.484,281.77,48.484,281.77s30.779-180.851,46.88-204.112c16.098-23.26,202.184-14.011,202.184-14.011
		L460.079,662.89z"/>
	<path fill="#292A66" d="M178.843,702.124c1.917-7.954,93.885-18.255,260.794-12.691c0,0,99.233-43.411,241.93-3.614
		c0,0,11.392,22.912,21.365,46.543c-4.73-0.185-9.911,1.225-15.594,4.833c0,0-17.426,88.871-192.296,44.271
		c-10.973-2.799-236.277-10.468-232.067,7.287c14.502,61.182,27.938,231.604,2.211,271.346c-15.235-3.17-34.324-6.848-42.13-10.347
		C219.334,1048.087,175.339,716.628,178.843,702.124z"/>
	<path fill="#293578" d="M257.481,765.062c0,0,233.754,14.675,236.32,14.807c189.606,9.829,193.537-41.995,193.537-41.995
		c4.979-18.483,9.788-7.546,14.521-7.362c0,0,10.271,34.556,9.707,44.147c-1.711,29.234-10.062,58.237-13.333,60.185
		c-13.672,8.137-164.79,20.193-399.257-43.149c0,0,33.464,249.041,34.047,251.854c0,0-48.203,12.886-67.838,16.55
		C266.783,1045.951,243.971,767.103,257.481,765.062z"/>
	<path fill="#293578" d="M675.479,653.449c5.818,9.236,20.72,59.399,47.026,78.895c0,0-32.93-8.253-89.603,3.646
		c-80.312,16.868-133.174,1.258-158.374-43.971C449.331,646.785,675.479,653.449,675.479,653.449z"/>
	<g>
		<path fill="#242F66" d="M502.451,696.773c-11.779-3.963-28.774-39.72-44.57-69.725c-17.921-34.039-60.354-44.982-69.474-48.631
			c19.823,34.276,40.57,64.496,43.232,70.527c21.09,47.781-17.567,40.272,32.825,55.396c22.897,6.872,36.454,5.433,45.493-0.028
			C512.25,694.819,510.592,693.841,502.451,696.773z"/>
		<path fill="#293578" d="M436.687,461.64c-10.5-17.479-35.939-7.403-35.939-7.403c-28.994,11.813-37.366,43.087-36.405,78.2
			c6.755,14.965,15.32,30.867,24.064,45.981c9.12,3.648,56.697,20.637,69.474,48.631c14.079,30.848,32.791,65.762,44.57,69.725
			c8.142-2.933,9.799-1.954,7.507,7.539c11.467-6.932,15.276-20.589,22.439-31.495C550.316,645.539,447.185,479.123,436.687,461.64z
			"/>
	</g>
	<path fill="#1E76BA" d="M146.466,492.744c0,0-68.412-40.639-69.492-38.508c-1.369,2.689,3.996,42.406,19.58,48.254
		c16.11,6.048,40.461,19.582,42.405,18.37C149.763,514.117,152.577,494.633,146.466,492.744z"/>
	<g>
		<polygon fill="#010101" points="113.472,546.35 122.548,516.396 80.801,457.404 50.849,468.295 		"/>
		<g>
			<path fill="#0965A3" d="M113.472,546.35c0,0-3.011,3.964-3.019,3.993c-0.009,0.03-63.611-77.644-63.611-77.644l4.007-4.404
				L113.472,546.35z"/>
			<polygon fill="#C6E8F9" points="111.466,537.805 118.766,518.062 79.44,461.64 58.26,470.409 			"/>
		</g>
	</g>
	<path fill="#242F66" d="M342.374,454.236c0,0-59.27,121.214-63.478,120.516c-15.742-2.607-110.782-64.595-132.608-86.915
		c-2.585-2.641-18.183,50.091-18.183,50.091l172.613,92.06l86.173-175.751"/>
	<path fill="#2886C7" d="M138.959,580.248c0,0-60.389-12.757-60.71-24.117c-0.034-1.234,9.548-27.248,10.485-32.674
		c-52.995-79.56,2.9-10.942,31.314-10.942c10.545,7.119,35.564,29.788,35.964,32.242C158.22,558.416,144.684,584.44,138.959,580.248
		z"/>
	<path fill="#2A3C8E" d="M346.146,405.561c-2.153,1.398-26.062,139.31-49.343,175.575c-0.712,1.108-5.495,3.457-2.659,9.13
		c0.974,1.949-5.112-0.868-6.894-0.579c-2.078,0.341-0.783,11.765-1.442,11.657c-0.575-0.09-3.62-12.285-8.935-12.586
		c-32.43-1.853-127.151-50.093-127.151-50.093c-21.617,17.384-16.804,42.646-16.804,42.646
		c28.229,19.862,151.343,107.747,195.564,105.418c13.41-0.708,23.188-42.393,33.127-59.943
		c38.063-67.232,57.203-174.961,59.673-176.428"/>
	<path fill="#1E76BA" d="M111.366,486.777c0,0-20.469-1.909-28.971,4.883c-5.37,4.293,22.111,10.225,34.269,9.007"/>
	<path fill="#2A3C8E" d="M399.361,344.393c3.448,15.935,31.669,27.189,140.429,109.844
		C648.553,536.892,694.416,696.13,694.416,696.13c-122.307,25.151-152.431,29.489-229.951,8.211
		c52.407,14.008,55.819-11.587,67.933-31.523c12.116-19.935-101.569-236.88-114.343-219.229l-13.945,13.42
		c-28.988,11.811-40.728,30.315-39.767,65.429c-22.887-50.696-42.006-99.599-46.824-107.491
		C308.04,409.436,399.361,344.393,399.361,344.393z"/>
	<path fill="#293578" d="M395.48,337.93c0,0,6.403,8.184,15.448,16.803c9.052,8.615-80.709,42.656-88.441,80.568
		c0,0-4.479,18.758-5.657,15.061l-11.101-25.083C305.729,425.278,323.229,387.469,395.48,337.93z"/>
	<g>
		<path fill="#393B7D" d="M364.268,767.103l-3.743-1.465l-0.936-0.366l-0.959-0.299l-1.916-0.594
			c-1.282-0.38-2.538-0.823-3.837-1.15l-3.879-1.025c-2.573-0.726-5.202-1.248-7.803-1.863c-2.6-0.629-5.236-1.097-7.854-1.64
			c-2.617-0.551-5.255-1.001-7.888-1.472l-3.949-0.704l-3.959-0.647c-2.641-0.427-5.272-0.897-7.923-1.266l-7.938-1.154
			l-7.954-1.031c-2.653-0.331-5.312-0.604-7.968-0.908c-2.654-0.32-5.318-0.533-7.978-0.787l-3.99-0.365l-3.994-0.283
			c-2.662-0.197-5.324-0.385-7.987-0.496c-2.662-0.14-5.325-0.282-7.982-0.292l-3.988-0.068l-3.969,0.104
			c-2.663-0.006-5.244,0.35-7.853,0.572l1.125-2.137c0.205,0.315,0.369,0.644,0.594,0.956c0.255,0.303,0.456,0.624,0.745,0.916
			c0.29,0.291,0.536,0.601,0.861,0.879c0.314,0.283,0.604,0.575,0.944,0.849c1.308,1.116,2.753,2.182,4.181,3.359
			c0.717,0.588,1.425,1.214,2.116,1.878c0.336,0.351,0.679,0.691,1.007,1.054c0.314,0.386,0.637,0.762,0.938,1.159
			c0.279,0.426,0.57,0.841,0.832,1.279c0.229,0.465,0.475,0.922,0.679,1.399c0.164,0.498,0.344,0.993,0.482,1.498l0.263,1.553
			l0.246,1.45l-1.485,0.21c-0.974,0.138-1.948,0.29-2.922,0.406l-1.462,0.054c-0.486,0.01-0.978,0.051-1.46,0.032l-1.445-0.072
			c-0.479-0.033-0.968-0.031-1.439-0.094l-1.42-0.168c-0.47-0.062-0.952-0.097-1.413-0.183c-0.928-0.157-1.864-0.299-2.783-0.469
			l-2.743-0.529c-1.813-0.37-3.614-0.719-5.407-1.056l1.844-1.854c0.706,3.554,1.881,7.038,3.274,10.509
			c1.376,3.472,2.906,6.959,4.157,10.619c1.272,3.644,2.169,7.512,2.436,11.455l1.008,11.239c0.344,3.759,0.6,7.536,0.888,11.306
			l0.842,11.312l1.572,22.607c0.529,7.533,0.992,15.074,1.577,22.602l0.843,11.296c0.261,3.768,0.609,7.524,0.931,11.286
			l0.905,11.29c0.335,3.76,0.744,7.511,1.112,11.269c0.397,3.753,0.692,7.522,1.266,11.252l1.479,11.234l-1.969-11.163
			c-0.698-3.721-1.114-7.477-1.634-11.22c-0.491-3.747-1.022-7.492-1.48-11.244l-1.271-11.267c-0.396-3.758-0.82-7.516-1.156-11.278
			l-1.067-11.286c-0.735-7.522-1.348-15.052-2.026-22.577c-0.679-7.526-1.285-15.054-1.897-22.583l-0.955-11.277
			c-0.325-3.759-0.619-7.516-1-11.276l-1.053-11.329c-0.259-3.596-1.082-7.152-2.311-10.631c-1.204-3.488-2.722-6.922-4.142-10.465
			c-1.434-3.528-2.706-7.229-3.448-11.096l-0.439-2.291l2.283,0.438c1.836,0.352,3.659,0.711,5.462,1.086l2.695,0.529
			c0.896,0.169,1.784,0.305,2.677,0.46c0.447,0.085,0.888,0.115,1.332,0.177l1.331,0.162c0.443,0.062,0.881,0.057,1.322,0.09
			l1.321,0.072c0.439,0.02,0.872-0.021,1.308-0.027l1.307-0.041c0.857-0.103,1.709-0.235,2.564-0.346l-1.239,1.659l-0.185-1.107
			c-0.102-0.36-0.234-0.712-0.342-1.071c-0.149-0.347-0.335-0.684-0.495-1.029c-0.198-0.332-0.427-0.653-0.635-0.984l-0.757-0.939
			l-0.854-0.899c-0.604-0.583-1.242-1.153-1.915-1.709c-1.345-1.114-2.793-2.194-4.21-3.432c-0.357-0.294-0.702-0.642-1.053-0.965
			c-0.354-0.313-0.678-0.707-1.015-1.06c-0.339-0.354-0.63-0.793-0.942-1.188c-0.296-0.42-0.545-0.896-0.812-1.346l-1.162-1.958
			l2.286-0.179c2.73-0.214,5.472-0.551,8.174-0.519l4.064-0.064l4.045,0.109c2.701,0.038,5.387,0.21,8.072,0.378
			c1.343,0.089,2.688,0.144,4.027,0.26l4.016,0.365l4.015,0.365l4.005,0.446c2.667,0.308,5.34,0.575,7.999,0.949
			c2.66,0.358,5.324,0.685,7.98,1.069l7.962,1.192l7.94,1.315c2.649,0.421,5.282,0.945,7.921,1.426l3.955,0.743l3.938,0.834
			c2.625,0.558,5.253,1.094,7.86,1.731c2.608,0.629,5.232,1.184,7.821,1.898c2.591,0.701,5.203,1.31,7.764,2.121l3.855,1.154
			c1.288,0.371,2.539,0.883,3.808,1.317l1.896,0.679l0.945,0.341l0.919,0.406L364.268,767.103z"/>
	</g>
	<g>
		<path fill="#1E2755" d="M433.193,679.461l2.189-0.317l1.095-0.159c0.367-0.035,0.737-0.042,1.106-0.064
			c1.479-0.064,2.97-0.15,4.446-0.062l2.223,0.068c0.739,0.042,1.476,0.122,2.214,0.182l2.216,0.194l2.202,0.287
			c1.469,0.198,2.937,0.41,4.39,0.694c1.457,0.267,2.921,0.508,4.363,0.84c1.445,0.32,2.901,0.606,4.334,0.98l4.306,1.095
			l4.277,1.198l4.242,1.321c1.413,0.443,2.808,0.941,4.213,1.41c1.409,0.459,2.789,1,4.185,1.499
			c1.396,0.497,2.765,1.07,4.143,1.616c1.383,0.535,2.74,1.139,4.104,1.726c1.37,0.569,2.707,1.228,4.057,1.852
			c1.35,0.622,2.664,1.342,3.991,2.021l-0.942,1.897l-1.942-1.027l-0.967-0.521l-0.904-0.597l-1.808-1.195
			c-0.598-0.405-1.145-0.866-1.72-1.296l-1.702-1.314l-1.62-1.4l-1.617-1.403l-1.541-1.479l-1.541-1.479l-1.483-1.531
			c-0.983-1.026-1.984-2.036-2.915-3.107c-0.936-1.068-1.921-2.092-2.812-3.197l-2.706-3.283l-2.604-3.362
			c-0.854-1.132-1.667-2.294-2.493-3.444c-0.84-1.142-1.585-2.352-2.381-3.522c-0.801-1.169-1.527-2.389-2.259-3.602
			c-0.749-1.202-1.426-2.449-2.096-3.698c-0.332-0.626-0.688-1.237-1-1.874l-0.916-1.919c-0.643-1.262-1.148-2.589-1.668-3.904
			l-0.379-0.99l-0.298-1.021l-0.593-2.033l0.741,1.981l0.369,0.987l0.449,0.956c0.598,1.274,1.162,2.559,1.873,3.775l1.011,1.848
			c0.343,0.612,0.73,1.201,1.094,1.802c0.73,1.199,1.467,2.394,2.275,3.545c0.793,1.159,1.543,2.345,2.389,3.469
			c0.835,1.129,1.617,2.294,2.495,3.392l2.584,3.323l2.672,3.252l2.769,3.169c0.917,1.061,1.897,2.062,2.841,3.098
			c0.938,1.043,1.941,2.019,2.927,3.013l1.485,1.481l1.537,1.425l1.536,1.424l1.589,1.358l1.588,1.357l1.654,1.261
			c0.557,0.411,1.093,0.858,1.665,1.241l1.728,1.128l0.863,0.564l0.9,0.475l1.801,0.943l-0.942,1.897
			c-1.305-0.649-2.567-1.368-3.895-1.983c-1.323-0.621-2.629-1.274-3.979-1.845c-1.342-0.586-2.676-1.188-4.041-1.726
			c-1.358-0.55-2.71-1.117-4.086-1.627c-1.372-0.517-2.729-1.077-4.116-1.556c-1.384-0.487-2.758-1.005-4.15-1.469l-4.181-1.382
			l-4.206-1.306l-4.234-1.206c-1.409-0.418-2.844-0.725-4.262-1.106c-1.418-0.386-2.854-0.681-4.287-1.003
			c-1.43-0.34-2.872-0.604-4.317-0.861l-2.164-0.405l-2.179-0.312c-0.727-0.099-1.453-0.219-2.182-0.301L442,679.429
			c-1.465-0.17-2.924-0.162-4.393-0.184c-0.367-0.005-0.735-0.025-1.104-0.018l-1.104,0.078L433.193,679.461z"/>
	</g>
	<g>
		<path fill="#1E2755" d="M478.367,696.773c0-0.001-2.577-0.777-6.301-2.263c-1.866-0.726-4.022-1.608-6.327-2.545
			c-1.153-0.462-2.345-0.938-3.556-1.424c-1.202-0.502-2.443-0.949-3.677-1.419c-1.237-0.45-2.468-0.931-3.699-1.321
			c-0.616-0.193-1.225-0.396-1.824-0.605c-0.605-0.18-1.204-0.356-1.793-0.531c-1.177-0.367-2.332-0.604-3.423-0.895
			c-0.547-0.127-1.086-0.196-1.604-0.303c-0.519-0.091-1.021-0.229-1.507-0.26c-0.487-0.054-0.953-0.105-1.397-0.154
			c-0.446-0.073-0.869-0.093-1.267-0.088c-0.792,0.016-1.509-0.093-2.076-0.004c-1.147,0.107-1.829,0.153-1.829,0.153
			s0.624-0.218,1.764-0.571c0.566-0.205,1.284-0.251,2.106-0.392c0.826-0.17,1.758-0.121,2.786-0.163
			c1.023-0.005,2.126,0.1,3.293,0.216c1.147,0.191,2.388,0.317,3.614,0.645c1.244,0.273,2.518,0.589,3.785,0.996
			c1.276,0.381,2.542,0.844,3.815,1.286c1.249,0.502,2.508,0.982,3.718,1.514c1.224,0.504,2.389,1.079,3.526,1.611
			c1.142,0.526,2.211,1.1,3.237,1.62c1.021,0.526,1.976,1.047,2.852,1.533C476.086,695.35,478.367,696.773,478.367,696.773z"/>
	</g>
	<path fill-rule="evenodd" clip-rule="evenodd" fill="#242F66" d="M138.959,555.686c5.996-3.909,15.902-5.144,20.205-2.746
		c6.568,3.711,19.587,20.894,19.587,20.894l-0.222,0.229l0.222-0.229c0,0-17.096-19.362-22.472-18.828
		C153.145,555.507,144.766,553.798,138.959,555.686L138.959,555.686z M204.518,593.997c3.628-2.791,9.979-7.669,11.585-7.46
		c1.707-0.086,59.78,21.24,66.169,26.098c6.097,4.752,8.549,13.299,10.6,23.045c0.095,0.704,0.191,1.408,0.282,2.108
		c-5.45-10.568-4.189-20.197-13.796-24.469c-12.107-5.797-63.271-24.771-63.271-24.771S210.658,590.721,204.518,593.997
		L204.518,593.997z M311.563,635.752c0.847-4.085-14.044-23.284-18.095-31.12c-4.329-8.487,10.729,1.506,21.227,7.447
		c-4.608-3.095-10.417-7.524-15.392-9.687c-8.39-3.61-10.676-2.458-6.537,3.475C296.026,610.483,308.105,628.901,311.563,635.752
		L311.563,635.752z M310.772,595.675c-2.24-5.837-1.76-8.988,2.343-8.46c3.155,0.48,7.347,5.462,9.417,8.431
		c-3.004-3.332-10.57-10.713-11.516-4.726c-0.975,6.622,13.169,21.97,11.167,23.773
		C321.382,611.792,312.711,601.178,310.772,595.675z"/>
	<path fill="#11669F" d="M300.389,272.69c0,0,6.438-37.609,28.326-22.722c21.704,14.765,12.257,50.41,6.979,55.656
		c-6.559,6.521,4.847,1.998,7.467-12.688c2.927-16.377-2.769-49.031-21.418-47.944C297.249,246.418,300.389,272.69,300.389,272.69z"
		/>
	<path fill-rule="evenodd" clip-rule="evenodd" fill="#242F66" d="M323.681,572.56c2.997-19.794,2.909-19.809,33.321-150.735
		c0,0,3.81-2.221,7.299-3.492l-12.375,0.637c0,0-28.877,144.39-28.245,152.956C323.681,572.244,323.681,572.244,323.681,572.56z"/>
	<path fill="#46A7DD" d="M354.152,248.003c-4.572-14.775-9.88-27.663-14.907-38.262c5.448,1.969,9.364,1.669,9.364,1.669
		c-3.59-1.862-20.339-17.02-14.754-15.424c5.582,1.596,7.977,0,7.977,0c-7.168-3.451-17.876-14.07-17.916-14.107
		c-2.079-3.229-3.325-4.926-3.325-4.926s-2.956-7.826-31.941-9.422c0,0,13.827,6.119,7.977,6.383
		c-5.854,0.266-14.626-6.536-33.239-1.674c0,0,21.378,3.578,12.283,4.754c-9.097,1.176-28.041-6.094-54.829,7.932
		c0,0,21.638-3.609,12.494,2.553c-9.146,6.155-25.262,16.219-42.815,11.434c0,0,12.536,3.322,12.879,5.434
		c-1.034,0.455-2.074,0.915-3.12,1.387c-0.006,0-0.009,0-0.016,0c-10.809,1.371-38.994,7.271-41.654,18.441
		c0,0,13.901-5.506,11.996-1.695c-2.458,2.318-4.324,4.666-5.681,7.006c-4.443,5.746-9.06,14.084-6.315,25.802
		c0,0,2.113-4.046,4.748-8.194c3.667,9.389,13.894,16.059,22.074,15.578c11.938-22.312,24.297,4.328,62.187-10.93
		c2.632-1.061,4.763-5.034,5.293-6.244c2.657-6.117-2.263,6.912,2.23,2.867c6.286-5.659,33.686-2.16,45.918-3.891
		c0,0,28.342-16.34,41.13,10.992c3.073,6.568,0.83,13.398,3.899,21.095c5.847,14.671,13.974,13.483,13.966,7.674
		C360.047,277.715,360.465,268.404,354.152,248.003z"/>
	<path fill="#71C9F1" d="M187.066,228.162c0,0-10.284,2.658-26.239,17.729c0,0,24.816-14.006,21.452,13.297
		c0,0,1.504-29.461,24.464-27.479C205.501,221.604,187.066,228.162,187.066,228.162z"/>
	<path fill="#46A7DD" d="M316.829,237.736c0,0-33.865,3.318-24.724,28.383c0,0,1.508,6.137,2.274,10.408
		c1.127,6.283-13.691,9.852-14.588,2.021c-1.143-9.981-8.3-4.172-7.233-18.848c0,0-2.643,3.892-6.324,7.979
		c-2.347,2.607,2.735-12.586-8.168-21.732C247.163,236.8,313.373,235.092,316.829,237.736z"/>
	<path fill-rule="evenodd" clip-rule="evenodd" fill="#242F66" d="M415.231,370.166c0,0-38.298,25.103-39.894,37.016
		C373.743,419.096,358.854,394.631,415.231,370.166z"/>
	<path fill-rule="evenodd" clip-rule="evenodd" fill="#242F66" d="M440.2,391.491c0,0-7.473-14.765,0.168-9.872
		C630.589,503.43,656.418,585.83,692.938,692.385c0,0-29.679-30.563-44.037-23.608C648.901,668.776,660.412,542.111,440.2,391.491z"
		/>
	<path fill="#46A7DD" d="M204.083,288.276c0,0,16.223-12.113,22.204-13.842c5.983-1.729,9.804-2.257,11.969-2.262
		c6.437-0.018,5.447,3.325-4.52,6.155c-20.034,5.693-22.339,15.013-25.93,15.974C204.212,295.266,199.828,290.669,204.083,288.276z"
		/>
	<path fill="#11669F" d="M312.459,284.171c0,0,7.983,13.659,11.823,14.552c3.843,0.892,4.433-17.029,3.722-20.395
		C327.295,274.966,314.23,282.221,312.459,284.171z"/>
	<path fill="#11669F" d="M305.729,270.695c0,0,4.806-23.788,19.351-17.625c18.612,7.889,17.636,32.271,14.98,28.988
		c-3.016-3.73-4.161-12.263-9.574-16.844c-6.652-5.629-7.98,7.056-10.89,8.467c-3.736,1.816,0.183-12.66-4.977-11.658
		C309.46,263.024,304.723,280.25,305.729,270.695z"/>
	<path fill="#71C9F1" d="M258.539,233.331c0,0-31.498,10.028-46.772-7.04c0,0,1.936,10.408,9.106,15.904
		c0,0-13.568,2.709-16.938-7.952C200.57,223.581,202.963,270.182,258.539,233.331z"/>
	<path fill="#71C9F1" d="M312.459,180.118c-1.313-0.651,10.391,0.746,15.806,19.255
		C328.265,199.373,319.958,183.839,312.459,180.118z"/>
	<path fill="#71C9F1" d="M316.829,196.217c0,0,20.109,16.352,24.687,28.049c0,0-15.068-15.867-21.205-12.366
		c0,0,23.624,20.714,23.677,36.432c0,0-16.337-35.062-40.093-24.778c0,0,18.609-12.91-3.636-17.445
		C300.258,206.107,324.794,210.719,316.829,196.217z"/>
	<path fill="#71C9F1" d="M286.841,184.246c0,0-21.95,7.277-37.197-4.779c0,0,7.446,11.504,22.694,16.923
		c0,0-37.985,9.122-48.953-2.126c0,0,18.322,21.203,56.396,9.98c0,0-5.11,8.038-2.908,15.033c0,0,7.52-21.154,17.803-22.15
		C294.676,197.127,277.057,200.018,286.841,184.246z"/>
	<path fill="#71C9F1" d="M268.463,238.629c0,0,8.091,10.414,3.282,18.916c0,0,6.567-2.759,7.041-8.475
		c0.471-5.715,7.309,18.988,5.175,25.34c0,0,5.518-7.387,0.777-31.328c-3.005-15.176-10.067-18.203-10.067-18.203
		S285.858,246.031,268.463,238.629z"/>
	<path fill="#71C9F1" d="M216.849,213.161c0,0-25.267-8.666-41.75,4.896C175.099,218.057,191.322,210.924,216.849,213.161z"/>
	<path fill="#71C9F1" d="M292.902,226.069c0,0,9.839,14.062,33.505,8.475C326.407,234.544,305.665,233.549,292.902,226.069z"/>
	<path fill="#71C9F1" d="M348.51,244.967c0,0,12.201,22.569,5.287,35.99C353.797,280.957,357.313,264.959,348.51,244.967z"/>
	<path fill="#11669F" d="M237.681,359.441c0.434-0.354,7.709-6.472,7.709-6.472l-1.062,15.955L237.681,359.441z"/>
</g>
<g>
	<g>
		<path fill="#66BFE7" d="M796.476,780.436c-8.719-1.561-16.357,4.193-17.055,12.857c-0.702,8.665,5.805,16.962,14.523,18.523
			c8.721,1.57,16.36-4.187,17.055-12.852C811.702,790.301,805.195,782.006,796.476,780.436z M794.25,808.027
			c-6.612-1.183-11.545-7.48-11.016-14.048c0.531-6.573,6.324-10.937,12.934-9.747c6.616,1.186,11.543,7.478,11.01,14.049
			C806.65,804.852,800.861,809.213,794.25,808.027z"/>
		<path fill="#66BFE7" d="M932.215,804.125c-8.725-1.569-16.361,4.188-17.057,12.852c-0.701,8.663,5.802,16.962,14.522,18.525
			c8.72,1.568,16.356-4.188,17.055-12.854C947.434,813.982,940.932,805.689,932.215,804.125z M929.989,831.709
			c-6.608-1.188-11.539-7.48-11.013-14.046c0.534-6.569,6.321-10.935,12.933-9.75c6.611,1.188,11.539,7.479,11.014,14.048
			C942.39,828.534,936.601,832.896,929.989,831.709z"/>
		<path fill="#24336B" d="M787.403,781.605c0,0-2.739,3.361,1.082,4.043c3.819,0.684,11.216,0.618,14.98,1.992
			c3.76,1.376,4.511,0.809,4.342-5.865c-0.164-6.677,4.823-37.967,17.166-64.438c12.347-26.471,29.338-36.361,48.534-34.313
			c19.198,2.051,42.333,25.096,47.396,71.487c0,0,3.995,29.056,3.186,39.057c-0.808,10-4.392,10.755-2.902,14.168
			c1.486,3.418,12.951,0.931,16.743,1.962c3.785,1.027,2.814-4.39,0.555-6.898c-2.266-2.506-4.516-0.81-6.227-23.161
			c-1.721-22.346-6.438-77.421-41.063-97.633c-32.069-18.72-62.562,3.103-76.755,39.391c-14.192,36.28-16.332,54.088-19.623,55.596
			C791.526,778.499,787.403,781.605,787.403,781.605z"/>
	</g>
	<g>
		<path fill="#43A5DC" d="M695.634,844.028c0,0,2.925-12.161,4.958-19.407c2.033-7.245,15.968-14.157,26.969-20.871
			c11.004-6.715,21.018-13.967,43.868-12.02c22.848,1.957,155.077,22.576,170.241,28.948c15.168,6.359,29.606,18.759,39.071,38.591
			c9.472,19.839,9.34,16.557,9.472,19.839c0.133,3.29-3.174,17.559-3.174,17.559s-0.557-14.967-3.688-17.708
			c-3.132-2.739-8.269-4.396-8.269-4.396s-2.081,23.552,3.271,40.112c5.347,16.554,3.576,34.363,0.229,64.937
			c-3.348,30.575-2.964,54.572-15.537,55.928c-12.572,1.348-245.115-35.94-276.369-45.571c0,0-12.864-3.054-13.068-13.962
			c-0.205-10.914,13.978-87.39,21.896-105.173c7.925-17.781,14.899-34.291,13.681-39.585c-0.434-1.873-5.013,1.633-6.989,4.537
			C700.223,838.69,695.634,844.028,695.634,844.028z"/>
		<path fill="#43A5DC" d="M928.629,828.65c18.12,3.271,39.131,18.741,52.152,30.694c-0.017-0.024-0.024-0.044-0.04-0.075
			c-9.465-19.832-23.903-32.231-39.071-38.591c-15.164-6.372-147.394-26.991-170.241-28.948
			c-22.851-1.947-32.864,5.305-43.868,12.02c-11.001,6.714-24.936,13.626-26.969,20.871c-0.4,1.42-0.833,3.033-1.271,4.706
			c2.537-3.628,6.096-8.311,9.303-11.056c5.789-4.935,30.669-16.207,45.55-17.329C769.059,799.825,906.512,824.654,928.629,828.65z"
			/>
		<g>
			<path fill="#43A5DC" d="M978.583,979.611c3.228-29.488,4.984-47.099,0.308-63.17c1.166,9.701,1.095,22.147-2.408,36.686
				c-8.7,36.131-39.385,49.441-95.368,42.231c-55.977-7.211-155.505-30.262-166.298-38.738
				c-10.799-8.475-23.197-28.119-23.541-46.309c-0.281-15.112,7.304-43.302,9.877-52.413c-1.743,4.135-3.67,8.494-5.647,12.935
				c-7.919,17.783-22.102,94.259-21.896,105.173c0.204,10.908,13.068,13.962,13.068,13.962
				c31.254,9.631,263.797,46.919,276.369,45.571C975.62,1034.184,975.236,1010.187,978.583,979.611z"/>
			<path fill="#6C583A" d="M975.03,895.607l-2.318-1.895c0,0,1.315,2.468,2.796,7.02
				C975.309,899.005,975.152,897.289,975.03,895.607z"/>
		</g>
		<path fill="#43A5DC" d="M979.143,974.474c2.277-21.074,3.562-35.83,1.763-48.597l-288.872-45.031
			c-3.596,12.187-7.721,30.758-11.156,48.366L979.143,974.474z"/>
		<path fill="#3591C0" d="M981.404,949.75c0.842-14.018,0.266-24.79-3.05-35.075c-0.482-1.491-0.903-3.036-1.271-4.612
			l-279.242-44.5c-0.766,1.739-1.545,3.5-2.335,5.271c-2.447,5.494-5.49,16.59-8.527,29.621L981.404,949.75z"/>
		<path fill="#24336B" d="M885.508,818.504c52.717,10.489,65.72,8.053,93.559,37.443c-9.447-17.902-23.094-29.271-37.396-35.269
			c-15.164-6.372-147.394-26.991-170.241-28.948c-22.851-1.947-32.864,5.305-43.868,12.02c-0.872,0.535-1.771,1.07-2.676,1.61
			c7.81-2.662,19.569-5.867,31.013-5.917C775.49,799.355,826.362,806.734,885.508,818.504z"/>
		<path fill="#43A5DC" d="M694.583,873.099c3.441-4.175,7.375-9.185,11.249-15.267c9.108-14.304,16.039-36.619,10.551-38.34
			c-5.489-1.713-7.722,2.6-11.128,7.422c-2.229,3.152-6.399,10.147-9.013,14.607c-0.375,1.546-0.607,2.507-0.607,2.507
			s4.589-5.338,6.562-8.243c1.977-2.904,6.556-6.41,6.989-4.537c1.219,5.294-5.756,21.804-13.681,39.585
			C695.205,871.503,694.896,872.269,694.583,873.099z"/>
		<path fill="#43A5DC" d="M971.213,895.979c1.543,4.771,4.146,11.149,6.562,16.775c-4.613-16.396-2.692-38.191-2.692-38.191
			s5.137,1.657,8.269,4.396c2.647,2.317,3.456,13.38,3.643,16.734c0.422-7.454,0.636-15.806-1.315-19.575
			c-2.692-5.2-5.698-12.632-12.562-16.773C966.251,855.207,967.723,885.199,971.213,895.979z"/>
		<path fill="#1371AB" d="M981.739,940.998c-0.791,9.518-2.826,20.962-7.729,29.812c-10.22,18.458-27.938,40.269-88.288,31.18
			c-60.354-9.085-152.535-28.636-172.463-38.759c-19.923-10.129-21.604-28.92-24.135-36.995c-1.511-4.82-3.209-11.479-4.328-16.067
			c-5.968,27.455-11.315,59.107-11.187,65.838c0.204,10.908,13.068,13.962,13.068,13.962
			c31.254,9.631,263.797,46.919,276.369,45.571c12.573-1.355,12.189-25.353,15.537-55.928
			C980.31,963.879,981.607,951.534,981.739,940.998z"/>
	</g>
	<g>
		<path fill="#66BFE7" d="M918.439,803.785c-8.825-1.594-17.267,4.269-18.858,13.09c-1.595,8.826,4.265,17.268,13.087,18.861
			c8.823,1.594,17.267-4.266,18.858-13.089C933.12,813.822,927.26,805.38,918.439,803.785z M913.364,831.875
			c-6.692-1.209-11.136-7.611-9.925-14.302c1.206-6.687,7.609-11.133,14.301-9.924c6.688,1.208,11.133,7.614,9.923,14.3
			C926.454,828.641,920.051,833.084,913.364,831.875z"/>
		<path fill="#66BFE7" d="M781.037,779.693c-8.826-1.594-17.271,4.269-18.862,13.09c-1.596,8.824,4.266,17.26,13.089,18.855
			c8.82,1.593,17.269-4.259,18.86-13.084C795.716,789.732,789.851,781.286,781.037,779.693z M775.961,807.779
			c-6.688-1.207-11.137-7.609-9.926-14.3c1.207-6.69,7.613-11.131,14.303-9.924c6.686,1.206,11.133,7.608,9.923,14.3
			C789.052,804.546,782.647,808.988,775.961,807.779z"/>
		<path fill="#1E1E4E" d="M771.578,780.885c0,0-3.163,3.415,0.703,4.115c3.862,0.696,11.486,0.623,15.226,2.024
			c3.731,1.399,4.563,0.825,5.062-5.975c0.507-6.796,8.803-38.648,24.182-65.604c15.382-26.947,33.88-37.018,53.445-34.938
			c19.559,2.087,41.066,25.548,41.596,72.771c0,0,1.181,29.583-0.658,39.764c-1.838,10.184-5.603,10.954-4.417,14.431
			c1.182,3.476,13.246,0.942,17.04,1.991c3.803,1.045,3.349-4.474,1.271-7.023c-2.077-2.549-4.565-0.825-4.083-23.578
			c0.49-22.751,1.19-78.82-32.435-99.397c-31.143-19.05-64.746,3.171-83.015,40.11c-18.28,36.944-22.281,55.075-25.816,56.611
			C776.134,777.72,771.578,780.885,771.578,780.885z"/>
		<path fill="#24336B" d="M779.113,776.44c-2.841,1.325-6.113,3.477-7.175,4.198c7.588,0.894,15.862,3.271,20.109,4.609
			c0.229-1.014,0.391-2.375,0.521-4.198c0.055-0.731,0.209-1.771,0.443-3.054C788.643,775.906,783.086,775.983,779.113,776.44z"/>
		<path fill="#24336B" d="M925.027,802.439c-0.511-0.628-1.047-0.999-1.553-1.532c-3.972-0.556-9.342-1.261-13.732-2.479
			c-1.003,2.841-2.079,4.476-2.709,5.792c5.103-0.006,13.423-0.153,18.541-0.968C925.405,802.962,925.23,802.686,925.027,802.439z"
			/>
		<path fill="#24336B" d="M793.083,748.149c0,0,22.332-55.426,50.403-66.304c27.851-10.798,58.281-8.269,76.162,60.048
			c-2.726-23.545-10.402-49.738-31.139-62.43c-31.143-19.05-64.746,3.171-83.015,40.11c-5.405,10.92-9.552,20.18-12.818,27.873
			L793.083,748.149z"/>
	</g>
	<g>
		<path fill="#43A5DC" d="M928.102,839.61c0,0-0.544,27.097-1.941,34.818c-1.394,7.726-6.884,6.01-29.167-3.091L928.102,839.61z"/>
		<path fill="#43A5DC" d="M791.625,816.408c0,0-0.546,27.096-1.94,34.819c-1.396,7.723-6.886,6.006-29.168-3.092L791.625,816.408z"
			/>
		<path fill="#24336B" d="M767.237,810.918c0,0,0.632-7.502,1.971-6.898c1.341,0.609,11.521,2.449,15.766,1.036
			c0,0,0.736,1.946-1.329,7.374c0,0,7.336-0.489,7.051,3.087c-0.281,3.577-4.36,36.194-6.718,37.218
			c-2.363,1.022-26.685-4.822-27.423-6.766c-0.735-1.946,2.451-33.64,4.462-34.722C763.025,810.156,767.237,810.918,767.237,810.918
			z"/>
		<path fill="#24336B" d="M764.941,815.578c3.194-1.601,14.936-2.379,14.936-2.379s-6.347-1.381-12.612-2.582
			c-0.014,0.187-0.027,0.301-0.027,0.301s-4.212-0.762-6.221,0.329c-1.197,0.644-2.999,22.305-3.951,31.907
			C758.957,837.205,762.689,816.709,764.941,815.578z"/>
		<path fill="#156794" d="M782.272,844.088c-2.673,6.77-8.739,4.221-18.442,1.742c-4.293-1.095-6.325-2.919-7.258-4.613
			c-0.149,2.549-0.173,4.337-0.018,4.752c0.738,1.943,25.06,7.788,27.423,6.766c2.357-1.023,6.437-33.641,6.718-37.218
			c0.091-1.189-0.661-1.923-1.708-2.382l-0.427,0.181C788.56,813.315,784.947,837.321,782.272,844.088z"/>
		<path fill="#156794" d="M767.578,808.082c-0.228,1.5-0.341,2.836-0.341,2.836c9.83,1.775,23.458,4.599,23.458,4.599
			c0.285-3.576-7.051-3.087-7.051-3.087c0.319-0.847,0.568-1.6,0.77-2.289C779.165,809.912,772.297,808.884,767.578,808.082z"/>
		<path fill="#24336B" d="M904.644,835.006c0,0,0.626-7.49,1.965-6.889c1.344,0.602,11.526,2.443,15.768,1.034
			c0,0,0.731,1.947-1.332,7.373c0,0,7.339-0.489,7.058,3.086c-0.286,3.573-4.363,36.192-6.727,37.217
			c-2.354,1.025-27.157-4.181-27.896-6.124c-0.736-1.946,2.934-34.277,4.937-35.362
			C900.425,834.246,904.644,835.006,904.644,835.006z"/>
		<path fill="#24336B" d="M922.868,840.481c0,0-10.048-3.902-18.104-6.64c-0.084,0.695-0.12,1.164-0.12,1.164
			s-4.219-0.76-6.229,0.335c-2.003,1.085-5.673,33.416-4.937,35.362c0,0,6.48-27.836,6.989-30.646
			C900.975,837.246,922.868,840.481,922.868,840.481z"/>
		<path fill="#156794" d="M928.102,839.61c0.281-3.575-7.058-3.086-7.058-3.086c0.587-1.532,0.942-2.781,1.156-3.796
			c-5.475,0.503-12.924-0.887-16.998-1.79c-0.38,1.907-0.559,4.067-0.559,4.067s-0.525-0.088-1.284-0.161
			c7.623,2.382,17.909,4.434,19.508,5.637c2.558,1.907-1.053,25.909-4.046,30.443c-2.996,4.535-25.343-0.222-25.343-0.222
			c0.739,1.943,25.543,7.149,27.896,6.124C923.739,875.803,927.816,843.184,928.102,839.61z"/>
	</g>
</g>
<g>
	<g>
		<g>
			<path fill="#9597A2" d="M473.844,985.764c0,0,48.946,0.596,66.521-5.977c17.571-6.571-13.934-23.898-13.934-23.898"/>
			<path fill="#C4C6D1" d="M819.316,926.911c0,0-195.398-24.961-270.777,3.304c-75.381,28.269-73.93,53.756-74.694,55.549
				c-0.757,1.791,58.595-31.668,96.639,28.677l47.974,2.391c0,0,182.059-46.006,264.514-11.949
				C882.97,1004.882,847.677,937.365,819.316,926.911z"/>
			<path fill="#E0E2E9" d="M618.457,1016.831c0,0-4.542-15.533-10.424-23.302c-5.883-7.766-37.55,14.938-37.55,20.911"/>
			<path fill="#E0E2E9" d="M890.016,991.928c-23.177-7.167-266.953,12.453-266.953,12.453s-71.133-59.592-96.632-71.794
				c-25.497-12.205,250.528-28.073,268.878-21.506C804.697,929.001,913.192,999.103,890.016,991.928z"/>
			<path fill="#C8CCD5" d="M870.69,981.848c-23.178-7.17-223.221,10.947-223.221,10.947s-72.566-44.573-98.065-56.776
				c-25.497-12.202,230.638-22.028,248.99-15.457C807.781,938.48,893.866,989.017,870.69,981.848z"/>
			<path fill="#B3B7BF" d="M695.988,928.856c0,0,30.364,27.113,35.021,27.113c2.257,0-2.825-1.13,3.387-1.694
				c0,0-23.724-25.981-25.417-25.981S695.988,928.856,695.988,928.856z"/>
			<path fill="#B3B7BF" d="M643.456,928.856c0,0,30.363,27.113,35.021,27.113c2.26,0-2.825-1.13,3.39-1.694
				c0,0-23.726-25.981-25.419-25.981S643.456,928.856,643.456,928.856z"/>
			<path fill="#B3B7BF" d="M660.967,928.856c0,0,30.36,27.113,35.019,27.113c2.258,0-2.825-1.13,3.39-1.694
				c0,0-23.725-25.981-25.418-25.981C672.262,928.294,660.967,928.856,660.967,928.856z"/>
			<path fill="#B3B7BF" d="M678.476,928.856c0,0,30.363,27.113,35.021,27.113c2.258,0-2.826-1.13,3.388-1.694
				c0,0-23.725-25.981-25.418-25.981C689.772,928.294,678.476,928.856,678.476,928.856z"/>
		</g>
		<path fill="#B3B7BF" d="M663.339,957.484c0,0,27.948,23.763,32.402,23.763c2.161,0,27.003-3.24,32.942-3.78
			c0,0-21.603-22.682-23.222-22.682C703.844,954.785,663.339,957.484,663.339,957.484z"/>
		<path fill="#B3B7BF" d="M576.022,932.649c0,0,69.637,51.214,74.089,51.214c2.161,0,9.182-2.158,15.122-2.7
			c0,0-62.16-51.396-63.779-51.396C599.831,929.767,576.022,932.649,576.022,932.649z"/>
		<path fill="#B3B7BF" d="M612.612,929.405c0,0,60.839,50.501,65.293,50.501c2.158,0-2.515-0.181,3.426-0.721
			c0,0-62.591-50.322-64.209-50.322C615.502,928.863,612.612,929.405,612.612,929.405z"/>
		<path fill="#1371AB" d="M714.244,939.42l-2.11,13.323c0,0,10.886,5.36,11.699,5.522c0.811,0.163,1.137-12.021,1.137-12.021
			L714.244,939.42z"/>
		<path fill="#1371AB" d="M711.481,956.967c0,0-0.974,8.938-1.461,12.511c-0.488,3.573,3.96,3.404,7.476,4.223
			c4.873,1.136,19.33,3.413,19.33,3.413s-0.646-10.562-0.974-11.049C735.529,965.577,711.481,956.967,711.481,956.967z"/>
	</g>
	<g>
		<g>
			<path fill="#66BFE7" d="M796.476,780.436c-8.719-1.561-16.357,4.193-17.055,12.857c-0.702,8.665,5.805,16.962,14.523,18.523
				c8.721,1.57,16.36-4.187,17.055-12.852C811.702,790.301,805.195,782.006,796.476,780.436z M794.25,808.027
				c-6.612-1.183-11.545-7.48-11.016-14.048c0.531-6.573,6.324-10.937,12.934-9.747c6.616,1.186,11.543,7.478,11.01,14.049
				C806.65,804.852,800.861,809.213,794.25,808.027z"/>
			<path fill="#66BFE7" d="M932.215,804.125c-8.725-1.569-16.361,4.188-17.057,12.852c-0.701,8.663,5.802,16.962,14.522,18.525
				c8.72,1.568,16.356-4.188,17.055-12.854C947.434,813.982,940.932,805.689,932.215,804.125z M929.989,831.709
				c-6.608-1.188-11.539-7.48-11.013-14.046c0.534-6.569,6.321-10.935,12.933-9.75c6.611,1.188,11.539,7.479,11.014,14.048
				C942.39,828.534,936.601,832.896,929.989,831.709z"/>
			<path fill="#24336B" d="M787.403,781.605c0,0-2.739,3.361,1.082,4.043c3.819,0.684,11.216,0.618,14.98,1.992
				c3.76,1.376,4.511,0.809,4.342-5.865c-0.164-6.677,4.823-37.967,17.166-64.438c12.347-26.471,29.338-36.361,48.534-34.313
				c19.198,2.051,42.333,25.096,47.396,71.487c0,0,3.995,29.056,3.186,39.057c-0.808,10-4.392,10.755-2.902,14.168
				c1.486,3.418,12.951,0.931,16.743,1.962c3.785,1.027,2.814-4.39,0.555-6.898c-2.266-2.506-4.516-0.81-6.227-23.161
				c-1.721-22.346-6.438-77.421-41.063-97.633c-32.069-18.72-62.562,3.103-76.755,39.391c-14.192,36.28-16.332,54.088-19.623,55.596
				C791.526,778.499,787.403,781.605,787.403,781.605z"/>
		</g>
		<g>
			<path fill="#43A5DC" d="M695.634,844.028c0,0,2.925-12.161,4.958-19.407c2.033-7.245,15.968-14.157,26.969-20.871
				c11.004-6.715,21.018-13.967,43.868-12.02c22.848,1.957,155.077,22.576,170.241,28.948c15.168,6.359,29.606,18.759,39.071,38.591
				c9.472,19.839,9.34,16.557,9.472,19.839c0.133,3.29-3.174,17.559-3.174,17.559s-0.557-14.967-3.688-17.708
				c-3.132-2.739-8.269-4.396-8.269-4.396s-2.081,23.552,3.271,40.112c5.347,16.554,3.576,34.363,0.229,64.937
				c-3.348,30.575-2.964,54.572-15.537,55.928c-12.572,1.348-245.115-35.94-276.369-45.571c0,0-12.864-3.054-13.068-13.962
				c-0.205-10.914,13.978-87.39,21.896-105.173c7.925-17.781,14.899-34.291,13.681-39.585c-0.434-1.873-5.013,1.633-6.989,4.537
				C700.223,838.69,695.634,844.028,695.634,844.028z"/>
			<path fill="#43A5DC" d="M928.629,828.65c18.12,3.271,39.131,18.741,52.152,30.694c-0.017-0.024-0.024-0.044-0.04-0.075
				c-9.465-19.832-23.903-32.231-39.071-38.591c-15.164-6.372-147.394-26.991-170.241-28.948
				c-22.851-1.947-32.864,5.305-43.868,12.02c-11.001,6.714-24.936,13.626-26.969,20.871c-0.4,1.42-0.833,3.033-1.271,4.706
				c2.537-3.628,6.096-8.311,9.303-11.056c5.789-4.935,30.669-16.207,45.55-17.329C769.059,799.825,906.512,824.654,928.629,828.65z
				"/>
			<g>
				<path fill="#43A5DC" d="M978.583,979.611c3.228-29.488,4.984-47.099,0.308-63.17c1.166,9.701,1.095,22.147-2.408,36.686
					c-8.7,36.131-39.385,49.441-95.368,42.231c-55.977-7.211-155.505-30.262-166.298-38.738
					c-10.799-8.475-23.197-28.119-23.541-46.309c-0.281-15.112,7.304-43.302,9.877-52.413c-1.743,4.135-3.67,8.494-5.647,12.935
					c-7.919,17.783-22.102,94.259-21.896,105.173c0.204,10.908,13.068,13.962,13.068,13.962
					c31.254,9.631,263.797,46.919,276.369,45.571C975.62,1034.184,975.236,1010.187,978.583,979.611z"/>
				<path fill="#6C583A" d="M975.03,895.607l-2.318-1.895c0,0,1.315,2.468,2.796,7.02
					C975.309,899.005,975.152,897.289,975.03,895.607z"/>
			</g>
			<path fill="#43A5DC" d="M979.143,974.474c2.277-21.074,3.562-35.83,1.763-48.597l-288.872-45.031
				c-3.596,12.187-7.721,30.758-11.156,48.366L979.143,974.474z"/>
			<path fill="#3591C0" d="M981.404,949.75c0.842-14.018,0.266-24.79-3.05-35.075c-0.482-1.491-0.903-3.036-1.271-4.612
				l-279.242-44.5c-0.766,1.739-1.545,3.5-2.335,5.271c-2.447,5.494-5.49,16.59-8.527,29.621L981.404,949.75z"/>
			<path fill="#24336B" d="M885.508,818.504c52.717,10.489,65.72,8.053,93.559,37.443c-9.447-17.902-23.094-29.271-37.396-35.269
				c-15.164-6.372-147.394-26.991-170.241-28.948c-22.851-1.947-32.864,5.305-43.868,12.02c-0.872,0.535-1.771,1.07-2.676,1.61
				c7.81-2.662,19.569-5.867,31.013-5.917C775.49,799.355,826.362,806.734,885.508,818.504z"/>
			<path fill="#43A5DC" d="M694.583,873.099c3.441-4.175,7.375-9.185,11.249-15.267c9.108-14.304,16.039-36.619,10.551-38.34
				c-5.489-1.713-7.722,2.6-11.128,7.422c-2.229,3.152-6.399,10.147-9.013,14.607c-0.375,1.546-0.607,2.507-0.607,2.507
				s4.589-5.338,6.562-8.243c1.977-2.904,6.556-6.41,6.989-4.537c1.219,5.294-5.756,21.804-13.681,39.585
				C695.205,871.503,694.896,872.269,694.583,873.099z"/>
			<path fill="#43A5DC" d="M971.213,895.979c1.543,4.771,4.146,11.149,6.562,16.775c-4.613-16.396-2.692-38.191-2.692-38.191
				s5.137,1.657,8.269,4.396c2.647,2.317,3.456,13.38,3.643,16.734c0.422-7.454,0.636-15.806-1.315-19.575
				c-2.692-5.2-5.698-12.632-12.562-16.773C966.251,855.207,967.723,885.199,971.213,895.979z"/>
			<path fill="#1371AB" d="M981.739,940.998c-0.791,9.518-2.826,20.962-7.729,29.812c-10.22,18.458-27.938,40.269-88.288,31.18
				c-60.354-9.085-152.535-28.636-172.463-38.759c-19.923-10.129-21.604-28.92-24.135-36.995c-1.511-4.82-3.209-11.479-4.328-16.067
				c-5.968,27.455-11.315,59.107-11.187,65.838c0.204,10.908,13.068,13.962,13.068,13.962
				c31.254,9.631,263.797,46.919,276.369,45.571c12.573-1.355,12.189-25.353,15.537-55.928
				C980.31,963.879,981.607,951.534,981.739,940.998z"/>
		</g>
		<g>
			<path fill="#66BFE7" d="M918.439,803.785c-8.825-1.594-17.267,4.269-18.858,13.09c-1.595,8.826,4.265,17.268,13.087,18.861
				c8.823,1.594,17.267-4.266,18.858-13.089C933.12,813.822,927.26,805.38,918.439,803.785z M913.364,831.875
				c-6.692-1.209-11.136-7.611-9.925-14.302c1.206-6.687,7.609-11.133,14.301-9.924c6.688,1.208,11.133,7.614,9.923,14.3
				C926.454,828.641,920.051,833.084,913.364,831.875z"/>
			<path fill="#66BFE7" d="M781.037,779.693c-8.826-1.594-17.271,4.269-18.862,13.09c-1.596,8.824,4.266,17.26,13.089,18.855
				c8.82,1.593,17.269-4.259,18.86-13.084C795.716,789.732,789.851,781.286,781.037,779.693z M775.961,807.779
				c-6.688-1.207-11.137-7.609-9.926-14.3c1.207-6.69,7.613-11.131,14.303-9.924c6.686,1.206,11.133,7.608,9.923,14.3
				C789.052,804.546,782.647,808.988,775.961,807.779z"/>
			<path fill="#1E1E4E" d="M771.578,780.885c0,0-3.163,3.415,0.703,4.115c3.862,0.696,11.486,0.623,15.226,2.024
				c3.731,1.399,4.563,0.825,5.062-5.975c0.507-6.796,8.803-38.648,24.182-65.604c15.382-26.947,33.88-37.018,53.445-34.938
				c19.559,2.087,41.066,25.548,41.596,72.771c0,0,1.181,29.583-0.658,39.764c-1.838,10.184-5.603,10.954-4.417,14.431
				c1.182,3.476,13.246,0.942,17.04,1.991c3.803,1.045,3.349-4.474,1.271-7.023c-2.077-2.549-4.565-0.825-4.083-23.578
				c0.49-22.751,1.19-78.82-32.435-99.397c-31.143-19.05-64.746,3.171-83.015,40.11c-18.28,36.944-22.281,55.075-25.816,56.611
				C776.134,777.72,771.578,780.885,771.578,780.885z"/>
			<path fill="#24336B" d="M779.113,776.44c-2.841,1.325-6.113,3.477-7.175,4.198c7.588,0.894,15.862,3.271,20.109,4.609
				c0.229-1.014,0.391-2.375,0.521-4.198c0.055-0.731,0.209-1.771,0.443-3.054C788.643,775.906,783.086,775.983,779.113,776.44z"/>
			<path fill="#24336B" d="M925.027,802.439c-0.511-0.628-1.047-0.999-1.553-1.532c-3.972-0.556-9.342-1.261-13.732-2.479
				c-1.003,2.841-2.079,4.476-2.709,5.792c5.103-0.006,13.423-0.153,18.541-0.968C925.405,802.962,925.23,802.686,925.027,802.439z"
				/>
			<path fill="#24336B" d="M793.083,748.149c0,0,22.332-55.426,50.403-66.304c27.851-10.798,58.281-8.269,76.162,60.048
				c-2.726-23.545-10.402-49.738-31.139-62.43c-31.143-19.05-64.746,3.171-83.015,40.11c-5.405,10.92-9.552,20.18-12.818,27.873
				L793.083,748.149z"/>
		</g>
		<g>
			<path fill="#43A5DC" d="M928.102,839.61c0,0-0.544,27.097-1.941,34.818c-1.394,7.726-6.884,6.01-29.167-3.091L928.102,839.61z"/>
			<path fill="#43A5DC" d="M791.625,816.408c0,0-0.546,27.096-1.94,34.819c-1.396,7.723-6.886,6.006-29.168-3.092L791.625,816.408z"
				/>
			<path fill="#24336B" d="M767.237,810.918c0,0,0.632-7.502,1.971-6.898c1.341,0.609,11.521,2.449,15.766,1.036
				c0,0,0.736,1.946-1.329,7.374c0,0,7.336-0.489,7.051,3.087c-0.281,3.577-4.36,36.194-6.718,37.218
				c-2.363,1.022-26.685-4.822-27.423-6.766c-0.735-1.946,2.451-33.64,4.462-34.722
				C763.025,810.156,767.237,810.918,767.237,810.918z"/>
			<path fill="#24336B" d="M764.941,815.578c3.194-1.601,14.936-2.379,14.936-2.379s-6.347-1.381-12.612-2.582
				c-0.014,0.187-0.027,0.301-0.027,0.301s-4.212-0.762-6.221,0.329c-1.197,0.644-2.999,22.305-3.951,31.907
				C758.957,837.205,762.689,816.709,764.941,815.578z"/>
			<path fill="#156794" d="M782.272,844.088c-2.673,6.77-8.739,4.221-18.442,1.742c-4.293-1.095-6.325-2.919-7.258-4.613
				c-0.149,2.549-0.173,4.337-0.018,4.752c0.738,1.943,25.06,7.788,27.423,6.766c2.357-1.023,6.437-33.641,6.718-37.218
				c0.091-1.189-0.661-1.923-1.708-2.382l-0.427,0.181C788.56,813.315,784.947,837.321,782.272,844.088z"/>
			<path fill="#156794" d="M767.578,808.082c-0.228,1.5-0.341,2.836-0.341,2.836c9.83,1.775,23.458,4.599,23.458,4.599
				c0.285-3.576-7.051-3.087-7.051-3.087c0.319-0.847,0.568-1.6,0.77-2.289C779.165,809.912,772.297,808.884,767.578,808.082z"/>
			<path fill="#24336B" d="M904.644,835.006c0,0,0.626-7.49,1.965-6.889c1.344,0.602,11.526,2.443,15.768,1.034
				c0,0,0.731,1.947-1.332,7.373c0,0,7.339-0.489,7.058,3.086c-0.286,3.573-4.363,36.192-6.727,37.217
				c-2.354,1.025-27.157-4.181-27.896-6.124c-0.736-1.946,2.934-34.277,4.937-35.362
				C900.425,834.246,904.644,835.006,904.644,835.006z"/>
			<path fill="#24336B" d="M922.868,840.481c0,0-10.048-3.902-18.104-6.64c-0.084,0.695-0.12,1.164-0.12,1.164
				s-4.219-0.76-6.229,0.335c-2.003,1.085-5.673,33.416-4.937,35.362c0,0,6.48-27.836,6.989-30.646
				C900.975,837.246,922.868,840.481,922.868,840.481z"/>
			<path fill="#156794" d="M928.102,839.61c0.281-3.575-7.058-3.086-7.058-3.086c0.587-1.532,0.942-2.781,1.156-3.796
				c-5.475,0.503-12.924-0.887-16.998-1.79c-0.38,1.907-0.559,4.067-0.559,4.067s-0.525-0.088-1.284-0.161
				c7.623,2.382,17.909,4.434,19.508,5.637c2.558,1.907-1.053,25.909-4.046,30.443c-2.996,4.535-25.343-0.222-25.343-0.222
				c0.739,1.943,25.543,7.149,27.896,6.124C923.739,875.803,927.816,843.184,928.102,839.61z"/>
		</g>
	</g>
</g>
<path fill="#1E1E4E" d="M879.513,768.867h-324.58c0,0-37.621,90.432,74.532,129.223h33.548c0,0-116.451-35.927-82.299-104.418
	c0,0,284.102-0.553,284.059-0.488C864.733,793.249,879.513,768.867,879.513,768.867z"/>
<g>
	<g>
		<path fill="#9597A2" d="M473.844,985.764c0,0,48.946,0.596,66.521-5.977c17.571-6.571-13.934-23.898-13.934-23.898"/>
		<path fill="#C4C6D1" d="M819.316,926.911c0,0-195.398-24.961-270.777,3.304c-75.381,28.269-73.93,53.756-74.694,55.549
			c-0.757,1.791,58.595-31.668,96.639,28.677l47.974,2.391c0,0,182.059-46.006,264.514-11.949
			C882.97,1004.882,847.677,937.365,819.316,926.911z"/>
		<path fill="#E0E2E9" d="M618.457,1016.831c0,0-4.542-15.533-10.424-23.302c-5.883-7.766-37.55,14.938-37.55,20.911"/>
		<path fill="#E0E2E9" d="M890.016,991.928c-23.177-7.167-266.953,12.453-266.953,12.453s-71.133-59.592-96.632-71.794
			c-25.497-12.205,250.528-28.073,268.878-21.506C804.697,929.001,913.192,999.103,890.016,991.928z"/>
		<path fill="#C8CCD5" d="M870.69,981.848c-23.178-7.17-223.221,10.947-223.221,10.947s-72.566-44.573-98.065-56.776
			c-25.497-12.202,230.638-22.028,248.99-15.457C807.781,938.48,893.866,989.017,870.69,981.848z"/>
		<path fill="#B3B7BF" d="M695.988,928.856c0,0,30.364,27.113,35.021,27.113c2.257,0-2.825-1.13,3.387-1.694
			c0,0-23.724-25.981-25.417-25.981S695.988,928.856,695.988,928.856z"/>
		<path fill="#B3B7BF" d="M643.456,928.856c0,0,30.363,27.113,35.021,27.113c2.26,0-2.825-1.13,3.39-1.694
			c0,0-23.726-25.981-25.419-25.981S643.456,928.856,643.456,928.856z"/>
		<path fill="#B3B7BF" d="M660.967,928.856c0,0,30.36,27.113,35.019,27.113c2.258,0-2.825-1.13,3.39-1.694
			c0,0-23.725-25.981-25.418-25.981C672.262,928.294,660.967,928.856,660.967,928.856z"/>
		<path fill="#B3B7BF" d="M678.476,928.856c0,0,30.363,27.113,35.021,27.113c2.258,0-2.826-1.13,3.388-1.694
			c0,0-23.725-25.981-25.418-25.981C689.772,928.294,678.476,928.856,678.476,928.856z"/>
	</g>
	<path fill="#B3B7BF" d="M663.339,957.484c0,0,27.948,23.763,32.402,23.763c2.161,0,27.003-3.24,32.942-3.78
		c0,0-21.603-22.682-23.222-22.682C703.844,954.785,663.339,957.484,663.339,957.484z"/>
	<path fill="#B3B7BF" d="M576.022,932.649c0,0,69.637,51.214,74.089,51.214c2.161,0,9.182-2.158,15.122-2.7
		c0,0-62.16-51.396-63.779-51.396C599.831,929.767,576.022,932.649,576.022,932.649z"/>
	<path fill="#B3B7BF" d="M612.612,929.405c0,0,60.839,50.501,65.293,50.501c2.158,0-2.515-0.181,3.426-0.721
		c0,0-62.591-50.322-64.209-50.322C615.502,928.863,612.612,929.405,612.612,929.405z"/>
	<path fill="#1371AB" d="M714.244,939.42l-2.11,13.323c0,0,10.886,5.36,11.699,5.522c0.811,0.163,1.137-12.021,1.137-12.021
		L714.244,939.42z"/>
	<path fill="#1371AB" d="M711.481,956.967c0,0-0.974,8.938-1.461,12.511c-0.488,3.573,3.96,3.404,7.476,4.223
		c4.873,1.136,19.33,3.413,19.33,3.413s-0.646-10.562-0.974-11.049C735.529,965.577,711.481,956.967,711.481,956.967z"/>
</g>
<g>
	<g>
		<path fill="#66BFE7" d="M796.476,780.436c-8.719-1.561-16.357,4.193-17.055,12.857c-0.702,8.665,5.805,16.962,14.523,18.523
			c8.721,1.57,16.36-4.187,17.055-12.852C811.702,790.301,805.195,782.006,796.476,780.436z M794.25,808.027
			c-6.612-1.183-11.545-7.48-11.016-14.048c0.531-6.573,6.324-10.937,12.934-9.747c6.616,1.186,11.543,7.478,11.01,14.049
			C806.65,804.852,800.861,809.213,794.25,808.027z"/>
		<path fill="#66BFE7" d="M932.215,804.125c-8.725-1.569-16.361,4.188-17.057,12.852c-0.701,8.663,5.802,16.962,14.522,18.525
			c8.72,1.568,16.356-4.188,17.055-12.854C947.434,813.982,940.932,805.689,932.215,804.125z M929.989,831.709
			c-6.608-1.188-11.539-7.48-11.013-14.046c0.534-6.569,6.321-10.935,12.933-9.75c6.611,1.188,11.539,7.479,11.014,14.048
			C942.39,828.534,936.601,832.896,929.989,831.709z"/>
		<path fill="#24336B" d="M787.403,781.605c0,0-2.739,3.361,1.082,4.043c3.819,0.684,11.216,0.618,14.98,1.992
			c3.76,1.376,4.511,0.809,4.342-5.865c-0.164-6.677,4.823-37.967,17.166-64.438c12.347-26.471,29.338-36.361,48.534-34.313
			c19.198,2.051,42.333,25.096,47.396,71.487c0,0,3.995,29.056,3.186,39.057c-0.808,10-4.392,10.755-2.902,14.168
			c1.486,3.418,12.951,0.931,16.743,1.962c3.785,1.027,2.814-4.39,0.555-6.898c-2.266-2.506-4.516-0.81-6.227-23.161
			c-1.721-22.346-6.438-77.421-41.063-97.633c-32.069-18.72-62.562,3.103-76.755,39.391c-14.192,36.28-16.332,54.088-19.623,55.596
			C791.526,778.499,787.403,781.605,787.403,781.605z"/>
	</g>
	<g>
		<path fill="#43A5DC" d="M695.634,844.028c0,0,2.925-12.161,4.958-19.407c2.033-7.245,15.968-14.157,26.969-20.871
			c11.004-6.715,21.018-13.967,43.868-12.02c22.848,1.957,155.077,22.576,170.241,28.948c15.168,6.359,29.606,18.759,39.071,38.591
			c9.472,19.839,9.34,16.557,9.472,19.839c0.133,3.29-3.174,17.559-3.174,17.559s-0.557-14.967-3.688-17.708
			c-3.132-2.739-8.269-4.396-8.269-4.396s-2.081,23.552,3.271,40.112c5.347,16.554,3.576,34.363,0.229,64.937
			c-3.348,30.575-2.964,54.572-15.537,55.928c-12.572,1.348-245.115-35.94-276.369-45.571c0,0-12.864-3.054-13.068-13.962
			c-0.205-10.914,13.978-87.39,21.896-105.173c7.925-17.781,14.899-34.291,13.681-39.585c-0.434-1.873-5.013,1.633-6.989,4.537
			C700.223,838.69,695.634,844.028,695.634,844.028z"/>
		<path fill="#43A5DC" d="M928.629,828.65c18.12,3.271,39.131,18.741,52.152,30.694c-0.017-0.024-0.024-0.044-0.04-0.075
			c-9.465-19.832-23.903-32.231-39.071-38.591c-15.164-6.372-147.394-26.991-170.241-28.948
			c-22.851-1.947-32.864,5.305-43.868,12.02c-11.001,6.714-24.936,13.626-26.969,20.871c-0.4,1.42-0.833,3.033-1.271,4.706
			c2.537-3.628,6.096-8.311,9.303-11.056c5.789-4.935,30.669-16.207,45.55-17.329C769.059,799.825,906.512,824.654,928.629,828.65z"
			/>
		<g>
			<path fill="#43A5DC" d="M978.583,979.611c3.228-29.488,4.984-47.099,0.308-63.17c1.166,9.701,1.095,22.147-2.408,36.686
				c-8.7,36.131-39.385,49.441-95.368,42.231c-55.977-7.211-155.505-30.262-166.298-38.738
				c-10.799-8.475-23.197-28.119-23.541-46.309c-0.281-15.112,7.304-43.302,9.877-52.413c-1.743,4.135-3.67,8.494-5.647,12.935
				c-7.919,17.783-22.102,94.259-21.896,105.173c0.204,10.908,13.068,13.962,13.068,13.962
				c31.254,9.631,263.797,46.919,276.369,45.571C975.62,1034.184,975.236,1010.187,978.583,979.611z"/>
			<path fill="#6C583A" d="M975.03,895.607l-2.318-1.895c0,0,1.315,2.468,2.796,7.02
				C975.309,899.005,975.152,897.289,975.03,895.607z"/>
		</g>
		<path fill="#43A5DC" d="M979.143,974.474c2.277-21.074,3.562-35.83,1.763-48.597l-288.872-45.031
			c-3.596,12.187-7.721,30.758-11.156,48.366L979.143,974.474z"/>
		<path fill="#3591C0" d="M981.404,949.75c0.842-14.018,0.266-24.79-3.05-35.075c-0.482-1.491-0.903-3.036-1.271-4.612
			l-279.242-44.5c-0.766,1.739-1.545,3.5-2.335,5.271c-2.447,5.494-5.49,16.59-8.527,29.621L981.404,949.75z"/>
		<path fill="#24336B" d="M885.508,818.504c52.717,10.489,65.72,8.053,93.559,37.443c-9.447-17.902-23.094-29.271-37.396-35.269
			c-15.164-6.372-147.394-26.991-170.241-28.948c-22.851-1.947-32.864,5.305-43.868,12.02c-0.872,0.535-1.771,1.07-2.676,1.61
			c7.81-2.662,19.569-5.867,31.013-5.917C775.49,799.355,826.362,806.734,885.508,818.504z"/>
		<path fill="#43A5DC" d="M694.583,873.099c3.441-4.175,7.375-9.185,11.249-15.267c9.108-14.304,16.039-36.619,10.551-38.34
			c-5.489-1.713-7.722,2.6-11.128,7.422c-2.229,3.152-6.399,10.147-9.013,14.607c-0.375,1.546-0.607,2.507-0.607,2.507
			s4.589-5.338,6.562-8.243c1.977-2.904,6.556-6.41,6.989-4.537c1.219,5.294-5.756,21.804-13.681,39.585
			C695.205,871.503,694.896,872.269,694.583,873.099z"/>
		<path fill="#43A5DC" d="M971.213,895.979c1.543,4.771,4.146,11.149,6.562,16.775c-4.613-16.396-2.692-38.191-2.692-38.191
			s5.137,1.657,8.269,4.396c2.647,2.317,3.456,13.38,3.643,16.734c0.422-7.454,0.636-15.806-1.315-19.575
			c-2.692-5.2-5.698-12.632-12.562-16.773C966.251,855.207,967.723,885.199,971.213,895.979z"/>
		<path fill="#1371AB" d="M981.739,940.998c-0.791,9.518-2.826,20.962-7.729,29.812c-10.22,18.458-27.938,40.269-88.288,31.18
			c-60.354-9.085-152.535-28.636-172.463-38.759c-19.923-10.129-21.604-28.92-24.135-36.995c-1.511-4.82-3.209-11.479-4.328-16.067
			c-5.968,27.455-11.315,59.107-11.187,65.838c0.204,10.908,13.068,13.962,13.068,13.962
			c31.254,9.631,263.797,46.919,276.369,45.571c12.573-1.355,12.189-25.353,15.537-55.928
			C980.31,963.879,981.607,951.534,981.739,940.998z"/>
	</g>
	<g>
		<path fill="#66BFE7" d="M918.439,803.785c-8.825-1.594-17.267,4.269-18.858,13.09c-1.595,8.826,4.265,17.268,13.087,18.861
			c8.823,1.594,17.267-4.266,18.858-13.089C933.12,813.822,927.26,805.38,918.439,803.785z M913.364,831.875
			c-6.692-1.209-11.136-7.611-9.925-14.302c1.206-6.687,7.609-11.133,14.301-9.924c6.688,1.208,11.133,7.614,9.923,14.3
			C926.454,828.641,920.051,833.084,913.364,831.875z"/>
		<path fill="#66BFE7" d="M781.037,779.693c-8.826-1.594-17.271,4.269-18.862,13.09c-1.596,8.824,4.266,17.26,13.089,18.855
			c8.82,1.593,17.269-4.259,18.86-13.084C795.716,789.732,789.851,781.286,781.037,779.693z M775.961,807.779
			c-6.688-1.207-11.137-7.609-9.926-14.3c1.207-6.69,7.613-11.131,14.303-9.924c6.686,1.206,11.133,7.608,9.923,14.3
			C789.052,804.546,782.647,808.988,775.961,807.779z"/>
		<path fill="#1E1E4E" d="M771.578,780.885c0,0-3.163,3.415,0.703,4.115c3.862,0.696,11.486,0.623,15.226,2.024
			c3.731,1.399,4.563,0.825,5.062-5.975c0.507-6.796,8.803-38.648,24.182-65.604c15.382-26.947,33.88-37.018,53.445-34.938
			c19.559,2.087,41.066,25.548,41.596,72.771c0,0,1.181,29.583-0.658,39.764c-1.838,10.184-5.603,10.954-4.417,14.431
			c1.182,3.476,13.246,0.942,17.04,1.991c3.803,1.045,3.349-4.474,1.271-7.023c-2.077-2.549-4.565-0.825-4.083-23.578
			c0.49-22.751,1.19-78.82-32.435-99.397c-31.143-19.05-64.746,3.171-83.015,40.11c-18.28,36.944-22.281,55.075-25.816,56.611
			C776.134,777.72,771.578,780.885,771.578,780.885z"/>
		<path fill="#24336B" d="M779.113,776.44c-2.841,1.325-6.113,3.477-7.175,4.198c7.588,0.894,15.862,3.271,20.109,4.609
			c0.229-1.014,0.391-2.375,0.521-4.198c0.055-0.731,0.209-1.771,0.443-3.054C788.643,775.906,783.086,775.983,779.113,776.44z"/>
		<path fill="#24336B" d="M925.027,802.439c-0.511-0.628-1.047-0.999-1.553-1.532c-3.972-0.556-9.342-1.261-13.732-2.479
			c-1.003,2.841-2.079,4.476-2.709,5.792c5.103-0.006,13.423-0.153,18.541-0.968C925.405,802.962,925.23,802.686,925.027,802.439z"
			/>
		<path fill="#24336B" d="M793.083,748.149c0,0,22.332-55.426,50.403-66.304c27.851-10.798,58.281-8.269,76.162,60.048
			c-2.726-23.545-10.402-49.738-31.139-62.43c-31.143-19.05-64.746,3.171-83.015,40.11c-5.405,10.92-9.552,20.18-12.818,27.873
			L793.083,748.149z"/>
	</g>
	<g>
		<path fill="#43A5DC" d="M928.102,839.61c0,0-0.544,27.097-1.941,34.818c-1.394,7.726-6.884,6.01-29.167-3.091L928.102,839.61z"/>
		<path fill="#43A5DC" d="M791.625,816.408c0,0-0.546,27.096-1.94,34.819c-1.396,7.723-6.886,6.006-29.168-3.092L791.625,816.408z"
			/>
		<path fill="#24336B" d="M767.237,810.918c0,0,0.632-7.502,1.971-6.898c1.341,0.609,11.521,2.449,15.766,1.036
			c0,0,0.736,1.946-1.329,7.374c0,0,7.336-0.489,7.051,3.087c-0.281,3.577-4.36,36.194-6.718,37.218
			c-2.363,1.022-26.685-4.822-27.423-6.766c-0.735-1.946,2.451-33.64,4.462-34.722C763.025,810.156,767.237,810.918,767.237,810.918
			z"/>
		<path fill="#24336B" d="M764.941,815.578c3.194-1.601,14.936-2.379,14.936-2.379s-6.347-1.381-12.612-2.582
			c-0.014,0.187-0.027,0.301-0.027,0.301s-4.212-0.762-6.221,0.329c-1.197,0.644-2.999,22.305-3.951,31.907
			C758.957,837.205,762.689,816.709,764.941,815.578z"/>
		<path fill="#156794" d="M782.272,844.088c-2.673,6.77-8.739,4.221-18.442,1.742c-4.293-1.095-6.325-2.919-7.258-4.613
			c-0.149,2.549-0.173,4.337-0.018,4.752c0.738,1.943,25.06,7.788,27.423,6.766c2.357-1.023,6.437-33.641,6.718-37.218
			c0.091-1.189-0.661-1.923-1.708-2.382l-0.427,0.181C788.56,813.315,784.947,837.321,782.272,844.088z"/>
		<path fill="#156794" d="M767.578,808.082c-0.228,1.5-0.341,2.836-0.341,2.836c9.83,1.775,23.458,4.599,23.458,4.599
			c0.285-3.576-7.051-3.087-7.051-3.087c0.319-0.847,0.568-1.6,0.77-2.289C779.165,809.912,772.297,808.884,767.578,808.082z"/>
		<path fill="#24336B" d="M904.644,835.006c0,0,0.626-7.49,1.965-6.889c1.344,0.602,11.526,2.443,15.768,1.034
			c0,0,0.731,1.947-1.332,7.373c0,0,7.339-0.489,7.058,3.086c-0.286,3.573-4.363,36.192-6.727,37.217
			c-2.354,1.025-27.157-4.181-27.896-6.124c-0.736-1.946,2.934-34.277,4.937-35.362
			C900.425,834.246,904.644,835.006,904.644,835.006z"/>
		<path fill="#24336B" d="M922.868,840.481c0,0-10.048-3.902-18.104-6.64c-0.084,0.695-0.12,1.164-0.12,1.164
			s-4.219-0.76-6.229,0.335c-2.003,1.085-5.673,33.416-4.937,35.362c0,0,6.48-27.836,6.989-30.646
			C900.975,837.246,922.868,840.481,922.868,840.481z"/>
		<path fill="#156794" d="M928.102,839.61c0.281-3.575-7.058-3.086-7.058-3.086c0.587-1.532,0.942-2.781,1.156-3.796
			c-5.475,0.503-12.924-0.887-16.998-1.79c-0.38,1.907-0.559,4.067-0.559,4.067s-0.525-0.088-1.284-0.161
			c7.623,2.382,17.909,4.434,19.508,5.637c2.558,1.907-1.053,25.909-4.046,30.443c-2.996,4.535-25.343-0.222-25.343-0.222
			c0.739,1.943,25.543,7.149,27.896,6.124C923.739,875.803,927.816,843.184,928.102,839.61z"/>
	</g>
</g>
<g>
	<polygon fill="#43A5DC" points="604.111,1124.858 604.111,1144.902 683.144,1271.711 685.617,1242.185 	"/>
	<path fill="#1E1E4E" d="M1140.783,1259.781c0,0-260.129-60.418-457.639,11.93l-0.467-21.704c0,0,210.529-80.172,458.105-7.822
		V1259.781z"/>
	<polygon fill="#1E1E4E" points="1460.496,745.123 1483.106,764.871 1214.473,1250.007 1183.939,1242.185 	"/>
	<polygon fill="#0A64A3" points="1236.683,625.666 1460.496,745.123 1183.939,1242.185 1006.093,1081.841 	"/>
	<path fill="#0A64A3" d="M1140.783,1242.185c0,0-260.591-64.529-458.105,7.822l-78.566-125.148c0,0,112.333-78.31,387.077-27.374
		L1140.783,1242.185z"/>
	<path fill="#1E1E4E" d="M1078.084,939.296l-379.611-0.16c0,0-43.642,100.203,86.045,141.973l38.929-0.804
		c0,0-134.66-38.628-95.179-113.907c0,0,336.617-0.567,336.573-0.497C1064.796,965.973,1078.084,939.296,1078.084,939.296z"/>
	<path fill="#1E1E4E" d="M1295.237,1077.062h-399.76c0,0-43.485,99.397,86.148,142.036l43.406,2.442
		c0,0-139.233-41.93-99.757-117.213c0,0,352.974-0.61,352.927-0.534C1278.151,1103.862,1295.237,1077.062,1295.237,1077.062z"/>
</g>
<g>
	<polygon fill="#43A5DC" points="739.729,1355.988 739.729,1376.762 821.639,1508.186 824.202,1477.584 	"/>
	<path fill="#1E1E4E" d="M1461.2,1551.102c0,0-349.702-81.223-615.223,16.037l-0.628-29.176c0,0,283.023-107.78,615.851-10.518
		V1551.102z"/>
	<path fill="#0A64A3" d="M1462.69,1518.504c0,0-350.323-86.75-615.851,10.516l-105.62-168.244c0,0,151.015-105.274,520.364-36.8
		L1462.69,1518.504z"/>
</g>
<g>
	<path fill="#35377A" d="M786.49,484.908c0,0,1.799,1.059,4.947,2.91c3.127,1.886,7.627,4.528,12.969,7.792
		c5.35,3.249,11.567,7.078,18.204,11.22c3.313,2.078,6.738,4.225,10.218,6.406c3.47,2.197,6.994,4.43,10.519,6.662
		c3.512,2.253,7.022,4.506,10.479,6.725c3.446,2.233,6.838,4.432,10.12,6.559c6.556,4.269,12.65,8.29,17.854,11.771
		c5.213,3.464,9.506,6.432,12.535,8.471c3.007,2.074,4.726,3.259,4.726,3.259s-1.8-1.058-4.948-2.909
		c-3.128-1.886-7.629-4.526-12.97-7.79c-5.351-3.249-11.568-7.078-18.204-11.221c-3.313-2.078-6.737-4.225-10.217-6.407
		c-3.47-2.198-6.994-4.431-10.519-6.663c-3.511-2.254-7.021-4.507-10.479-6.725c-3.445-2.234-6.837-4.434-10.119-6.562
		c-6.555-4.269-12.65-8.29-17.854-11.771c-5.212-3.465-9.507-6.43-12.536-8.469C788.208,486.093,786.49,484.908,786.49,484.908z"/>
</g>
<g>
	<path fill="#35377A" d="M608.771,367.779c0,0,1.799,1.059,4.947,2.91c3.127,1.887,7.628,4.529,12.969,7.793
		c5.351,3.248,11.567,7.078,18.204,11.22c3.314,2.078,6.739,4.226,10.219,6.407c3.47,2.197,6.994,4.43,10.519,6.662
		c3.512,2.254,7.022,4.506,10.479,6.725c3.446,2.234,6.838,4.433,10.12,6.561c6.556,4.268,12.651,8.289,17.854,11.77
		c5.213,3.465,9.507,6.432,12.535,8.472c3.008,2.073,4.727,3.259,4.727,3.259s-1.8-1.059-4.948-2.91
		c-3.128-1.885-7.629-4.525-12.97-7.79c-5.351-3.249-11.568-7.077-18.204-11.221c-3.314-2.078-6.738-4.226-10.218-6.407
		c-3.47-2.198-6.994-4.432-10.519-6.664c-3.511-2.254-7.022-4.508-10.479-6.726c-3.446-2.234-6.838-4.433-10.119-6.562
		c-6.556-4.27-12.651-8.29-17.854-11.77c-5.212-3.467-9.507-6.432-12.536-8.471C610.49,368.964,608.771,367.779,608.771,367.779z"/>
</g>
<g>
	<path fill="#35377A" d="M987.018,600.431c0,0,2.219,1.285,6.102,3.535c3.858,2.288,9.416,5.483,16.005,9.449
		c3.297,1.977,6.87,4.119,10.648,6.385c3.777,2.268,7.771,4.641,11.859,7.167c8.196,5.021,16.938,10.376,25.681,15.731
		c8.692,5.438,17.385,10.874,25.533,15.972c8.153,5.089,15.675,9.982,22.167,14.104c6.487,4.128,11.825,7.68,15.593,10.114
		c3.745,2.473,5.885,3.886,5.885,3.886s-2.219-1.285-6.103-3.534c-3.858-2.288-9.418-5.481-16.006-9.448
		c-6.583-3.973-14.316-8.523-22.508-13.553c-8.195-5.021-16.938-10.377-25.68-15.732c-8.691-5.438-17.384-10.875-25.532-15.973
		c-4.084-2.532-7.989-5.051-11.703-7.42c-3.713-2.372-7.223-4.614-10.463-6.685c-6.487-4.129-11.826-7.679-15.595-10.113
		C989.158,601.844,987.018,600.431,987.018,600.431z"/>
</g>
<path fill="#156794" d="M704.022,278.556c0,0,77.82-1.454,75.923-36.433C779.945,242.123,743.237,280.033,704.022,278.556z"/>
<g>
	<path fill="#25326B" d="M785.708,321.371c0,0,23.852-0.246,41.777-10.469c7.769-4.432,26.372-7.883,34.964,4.592
		c0,0-15.111-12.475-30.521-2.862C818.814,320.817,796.777,324.234,785.708,321.371z"/>
	<path fill="#1E2755" d="M724.231,306.848c0,0-22.869,18.644,6.118,24.496c28.984,5.85,60.333-9.002,66.6-16.732
		C803.211,306.877,724.231,306.848,724.231,306.848z"/>
	<path fill="#252E66" d="M547.476,364.186c0,0,69.605-64.691,92.7-71.605c23.103-6.912,75.417,2.754,75.417,2.754
		s-3.464,14.957-2.731,13.534c0.732-1.417-100.062,63.302-120.01,66.937C572.897,379.436,547.476,364.186,547.476,364.186z"/>
	<g>
		<path fill="#28387D" d="M548.821,362.572c17.532-12.721,24.173-21.593,52.825-15.361c-0.062,0.009-50.678,30.344-37.875,52.791
			c23.151,40.592,115.672-18.889,188.413-29.824c-13.117,2.682-22.1,9.625-49.959,14.128
			c-58.132,9.396-130.333,54.234-150.846,25.985C541.929,397.275,515.747,386.566,548.821,362.572z"/>
		<path fill="#2A3C8E" d="M601.641,347.211c0.005,0,0,0,0.005,0c22.776-5.85,88.749-14.558,107.739-16.688
			c53.786-6.038,94.751,4.675,94.751,4.675c4.561,10.477,5.884,37.779-10.632,33.861c-8.676-2.057-17.978-0.6-19.665-0.414
			c-2.928,0.321-6.531,0.866-30.195,5.697c-73.904,16.607-156.703,65.325-180.858,25.914
			C547.495,375.301,601.584,347.22,601.641,347.211z"/>
		<path fill="#28387D" d="M734.514,369.037c0,0-45.218,1.836-66.462-27.676c0,0,12.067,11.068,22.401,11.574
			c10.336,0.5,16.744-2.426,24.88,0.661C723.466,356.688,703.513,357.521,734.514,369.037z"/>
	</g>
	<g>
		<path fill="#1E76BA" d="M790.593,229.479c0,0-2.544,75.63,5.396,82.786c7.939,7.157-63.005,18.083-67.979,12.622
			c-4.978-5.465-9.045-50.467-10.496-52.049C716.06,271.256,790.593,229.479,790.593,229.479z"/>
		<path fill="#2081C4" d="M773.032,258.877c0,0-58.52,41.619-0.533,63.598c0,0-37.575,7.469-44.488,2.412
			c-3.511-2.412-10.172-46.357-9.43-47.859C719.681,274.799,761.627,265.104,773.032,258.877z"/>
		<path fill="#156DA6" d="M780.586,207.947c-5.935-6.197-21.633-4.783-31.271,23.857c-8.418,25.018-29.724,42.752-47.213,46.192
			c0.903,0.228,1.835,0.341,2.794,0.323c26.715-0.476,55.652-11.057,74.744-33.448C779.987,236.051,781.968,209.389,780.586,207.947
			z"/>
		<path fill="#1E76BA" d="M794.695,138.314c0,0-9.715-40.971-48.979-51.034c-1.028-0.265-93.069,8.638-74.153,70.21
			c6.493-3.475,13.47,2.131,30.539,6.23c17.46,4.193,36.739-8.873,41.404-7.824c4.661,1.047,10.485,31.777-0.338,44.539
			c-10.823,12.764-16.069,13.536-24.866,34.546c-6.664,15.925-18.85,11.12-29.908,8.204c6.602,15.958,4.622,32.557,13.708,34.812
			c17.489-3.44,39.506-19.233,47.925-44.249c9.639-28.643,23.562-31.998,29.499-25.801c1.377,1.441,0.461,28.104,0.114,36.925
			C799.028,222.137,808.265,187.221,794.695,138.314z"/>
		<path fill="#2081C4" d="M718.953,242.914c13.467-17.355,19.451-27.518,30.275-40.279c10.823-12.764-1.061-45.691-5.722-46.738
			c-4.665-1.049-25.652,11.192-40.99,6.938c-16.918-4.693-24.46-8.818-30.953-5.344c0.427,1.379,0.884,2.771,1.422,4.203
			c2.783,7.418,5.206,14.729,0.675,28.864c-2.368,7.384,1.724,24.388,5.725,33.356c3.107,6.963,8.559,18.162,11.459,25.173
			C701.942,252.782,712.557,251.16,718.953,242.914z"/>
		<path fill="#1E1E4E" d="M741.188,137.09c0,0-28.018,30.164-53.592-1.016c-25.57-31.18-25.077-42.445-26.819-45.39
			c-1.742-2.946,9.749,10.19,20.729,8.916c10.983-1.272,8.687-13.635,2.164-23.142c-6.521-9.508,8,9.797,27.517-0.413
			c19.518-10.209,27.267,4.924,38.423-5.729c10.227-0.81,25.565,9.77,35.845,21.947c10.28,12.176,32.652,14.412,34.479,14.148
			c1.835-0.264-11.512,9.297-18.292,8.326c-6.778-0.97,20.25,30.773,17.144,70.218c-11.843-11.99-7.528,6.078-18.091,22.487
			c-10.563,16.41,4.185-10.365-4.962-29.471c-9.147-19.109-30.164-25.463-42.125-16.168c-6.687,5.195,9.497-18.205-16.063-17.402"/>
		<path fill="#1E1E4E" d="M677.484,109.14c0,0-12.071,15.763-20.259,17.263c-8.186,1.497,3.677,6.324,14.2,1.79
			c10.52-4.533-17.641-7.634-21.344,27.181c-0.536,5.033,23.275-28.333,41.646-14.803"/>
		<path fill="#11669F" d="M772.989,192.08c0,0,3.431-21.314,15.046-18.096c11.614,3.219,13.593,38.565-4.476,59.377
			c0,0,21.673-38.092,6.791-52.621C779.202,169.855,772.989,192.08,772.989,192.08z"/>
		<path fill="#1E1E4E" d="M794.141,175.092c0,0-13.948-9.938-17.493,1.682c-3.539,11.618-5.37,24.936-5.033,26.723
			c0.339,1.787-3.59-14.115-7.479-13.332c-3.889,0.787-0.486-4.658-0.486-9.568c0-4.908-2.529,0.271-2.898-5.156
			c-0.365-5.396,7.13-15.381-5.31-13.089C742.996,164.639,779.681,138.102,794.141,175.092z"/>
		<path fill="#1E1E4E" d="M674.259,160.893c0.366-0.426,15.048-6.035,20.864-3.2c2.082,0.267,1.728,5.319-0.923,5.587
			c-3.842,0.385-15.796,0.004-18.522,0.804C672.946,164.881,671.955,163.551,674.259,160.893z"/>
		<path fill="#1E1E4E" d="M747.795,161.328c-0.517-0.221-20.652-4.85-25.794-2.885c-2.042,0.136-3.57,5.809-1.033,6.342
			c3.776,0.791,23.497-0.092,26.225,0.708C749.923,166.292,753.833,163.887,747.795,161.328z"/>
		<path fill="#2C3170" d="M780.259,104.599c1.235,0,16.835,9.396,20.025,23.398c3.196,14.007-1.421-11.99-20.025-22.337"/>
		<path fill="#2C3170" d="M766.78,160.604c0,0,4.433,9.943,0,14.729c0,0,2.747-1.417,3.282-4.786
			c0.53-3.369,0.32,11.111-3.726,14.891c0,0,6.025-3.546,8.599-16.664c2.571-13.12-2.926-18.703-2.926-18.703
			S778.392,167.24,766.78,160.604z"/>
		<path fill="#2C3170" d="M791.154,140.939c-0.287-0.239,18.468,9.612,23.048,26.814c0,0-4.518-11.124-11.166-12.896
			c-6.647-1.773,2.656,14.27,0.62,29.516c0,0-3.228-31.733-12.919-32.529C790.737,151.844,802.058,149.893,791.154,140.939z"/>
		<path fill="#2C3170" d="M742.317,119.4c0,0,3.238,22.604-29.895,23.933c-16.905,0.506-14.782-10.372-28.61-11.966
			c0,0,5.229-4.257,27.396,7.712c0,0,8.503-0.179-3.993-11.435C707.215,127.645,736.446,140.18,742.317,119.4z"/>
		<path fill="#2C3170" d="M746.215,79.775c-0.53,0.355-14.938,1.279-22.516-2.303c0,0,14.183,8.015,23.222,2.677"/>
		<path fill="#2C3170" d="M750.292,78.714c0.533,0,13.894-6.579,20.688,7.878c6.791,14.46-1.718-9.119-20.155-7.878"/>
		<path fill="#2C3170" d="M748.875,91.299c0,0-31.497,10.031-46.773-7.039c0,0,1.935,10.408,9.106,15.904
			c0,0-13.571,2.709-16.939-7.951C690.901,81.551,693.298,128.15,748.875,91.299z"/>
		<path fill="#2C3170" d="M761.799,100.697c-0.327-0.693,18.986,7.977,14.73,27.123c0,0-2.659-15.777-10.193-14.713
			c0,0,9.283,6.293-10.723,33.859C755.614,146.967,770.646,119.487,761.799,100.697z"/>
		<path fill="#2C3170" d="M678.09,123.814c0,0-20.163,4.006-24.062,23.152C654.028,146.967,659.78,131.506,678.09,123.814z"/>
		<path fill="#2C3170" d="M700.121,112.043c-0.53,0.354-21.803-0.432-28.365-11.385c0,0,13.829,20.603,27.835,11.738"/>
		<polygon fill="#11669F" points="707.977,178.707 712.476,232.3 724.183,219.709 		"/>
		<path fill="#11669F" d="M721.279,210.771"/>
		<path fill="#11669F" d="M699.217,179.408"/>
		<path fill="#11669F" d="M692.499,231.709c0.532,0.176,20.443,0.118,20.443,0.118l-3.955,5.022L692.499,231.709z"/>
	</g>
</g>
<rect x="-1351.741" y="-255.266" fill="none" width="2703.481" height="1688.932"/>
</svg>
