<?xml version="1.0" encoding="utf-8"?>
<!-- Generator: Adobe Illustrator 16.0.4, SVG Export Plug-In . SVG Version: 6.00 Build 0)  -->
<!DOCTYPE svg PUBLIC "-//W3C//DTD SVG 1.1//EN" "http://www.w3.org/Graphics/SVG/1.1/DTD/svg11.dtd">
<svg version="1.1" id="Layer_1" xmlns="http://www.w3.org/2000/svg" xmlns:xlink="http://www.w3.org/1999/xlink" x="0px" y="0px"
	 width="1022.526px" height="1077.107px" viewBox="0 0 1022.526 1077.107" enable-background="new 0 0 1022.526 1077.107"
	 xml:space="preserve">
<g>
	
		<radialGradient id="SVGID_1_" cx="826.3184" cy="327.9268" r="22.6182" gradientTransform="matrix(1 0 0 1.7812 0 -243.3569)" gradientUnits="userSpaceOnUse">
		<stop  offset="0" style="stop-color:#AFA47B"/>
		<stop  offset="0.0046" style="stop-color:#AB9F77"/>
		<stop  offset="0.0456" style="stop-color:#8D7E5C"/>
		<stop  offset="0.0896" style="stop-color:#756447"/>
		<stop  offset="0.1367" style="stop-color:#635137"/>
		<stop  offset="0.1879" style="stop-color:#55442C"/>
		<stop  offset="0.2453" style="stop-color:#4C3B24"/>
		<stop  offset="0.3138" style="stop-color:#47351F"/>
		<stop  offset="0.4231" style="stop-color:#46341E"/>
		<stop  offset="0.5816" style="stop-color:#4A3322"/>
		<stop  offset="0.7308" style="stop-color:#4F3228"/>
		<stop  offset="0.7629" style="stop-color:#4C3026"/>
		<stop  offset="0.8998" style="stop-color:#412720"/>
		<stop  offset="1" style="stop-color:#3D241D"/>
	</radialGradient>
	<path fill="url(#SVGID_1_)" d="M827.446,338.753c0,4.436-4.208,8.031-9.392,8.031c-5.188,0-9.394-3.596-9.394-8.031
		c0-4.435,4.206-8.029,9.394-8.029C823.238,330.724,827.446,334.318,827.446,338.753z"/>
	<g>
		<polygon fill="#43A5DC" points="505.642,90.158 658.797,10.444 675.003,22.879 521.849,102.592 521.83,102.745 505.628,90.279 		
			"/>
		<g>
			<path fill="#158AA9" d="M456.194,318.087c9.047,21.004-128.896,145.875-135.413,151.76c0-9.166,0-17.663,0-26.988
				C326.894,436.271,450.043,303.801,456.194,318.087z"/>
			<path fill="#292A66" d="M320.542,443.119c0,0,0.082-0.092,0.239-0.261c0,9.325,0,17.822,0,26.988
				c-0.159,0.141-0.239,0.213-0.239,0.213L84.127,348.841v-26.939L320.542,443.119z"/>
			<path fill="#0A64A3" d="M320.542,443.119L147.946,321.901l242.138-123.327c0,0,88.498,117.612,84.558,112.689
				C470.701,306.34,320.542,443.119,320.542,443.119z"/>
			<polygon fill="#0F6292" points="330.477,450.259 505.628,90.279 521.83,102.745 346.685,462.691 			"/>
			<polygon fill="#263C6A" points="675.003,22.879 503.116,342.264 346.685,462.691 521.849,101.53 			"/>
		</g>
	</g>
	<g>
		<path fill="#43A5DC" d="M304.18,199.268l177.62-93.541l16.208,12.434l-177.622,93.543l-0.016,0.149
			c-5.207-4.717-10.437-9.378-16.209-12.464L304.18,199.268z"/>
		<g>
			<path fill="#158AA9" d="M247.286,424.001c9.048,21.004-128.894,145.876-135.414,151.762c0-9.166,0-17.662,0-26.984
				C117.987,542.184,241.133,409.715,247.286,424.001z"/>
			<path fill="#292A66" d="M111.634,549.035c0,0,0.083-0.09,0.238-0.257c0,9.322,0,17.818,0,26.984
				c-0.156,0.141-0.238,0.214-0.238,0.214L-92.871,444.124v-26.942L111.634,549.035z"/>
			<path fill="#0A64A3" d="M111.634,549.035L-29.048,417.182l210.222-112.689c0,0,88.498,117.61,84.56,112.689
				C261.795,412.258,111.634,549.035,111.634,549.035z"/>
			<path fill="#0F6292" d="M121.567,556.176l182.595-356.787c5.772,3.086,11.002,7.747,16.209,12.464L137.776,568.61
				L121.567,556.176z"/>
			<polygon fill="#263C6A" points="498.009,118.16 294.208,448.181 137.776,568.61 320.387,211.703 			"/>
		</g>
	</g>
	<g>
		<path fill="#43A5DC" d="M59.957,321.046l209.146-108.192l20.559,12.405L80.517,333.454l-0.021,0.149
			c-6.607-4.706-13.241-9.357-20.56-12.437L59.957,321.046z"/>
		<g>
			<path fill="#158AA9" d="M6.036,533.238c11.479,20.957-57.155,177.465-65.425,183.336c0-9.146,0-17.625,0-26.927
				C-51.633,683.071-1.771,518.982,6.036,533.238z"/>
			<path fill="#2A3C8E" d="M-59.692,689.904L-425.504,526.43l330.521-114.566c0,0,129.419,119.481,124.42,114.566
				C24.439,521.518-59.692,689.904-59.692,689.904z"/>
			<path fill="#0F6292" d="M-47.086,697.028L59.937,321.167c7.319,3.079,13.952,7.73,20.56,12.437l-107.02,375.831L-47.086,697.028z
				"/>
			<polygon fill="#263C6A" points="289.661,225.259 65.567,557.359 -26.523,709.435 80.517,333.454 			"/>
		</g>
	</g>
	<g>
		<polygon fill="#43A5DC" points="29.452,335.517 46.116,348.281 -187.423,478.041 -187.45,478.196 -211.555,456.893 		"/>
		<g>
			<polygon fill="#2A3C8E" points="45.049,347.218 -78.466,733.789 -289.901,899.963 -187.423,478.041 			"/>
		</g>
	</g>
	<g>
		<polygon fill="#43A5DC" points="1016.18,344.358 1016.18,359.552 955.2,455.698 953.695,433.311 		"/>
		<path fill="#1E1E4E" d="M694.297,446.359c0,0,140.69-45.807,260.77,9.047l0.283-16.46c0,0-110.534-60.781-261.053-5.928V446.359z"
			/>
		<polygon fill="#1E1E4E" points="534.325,85.213 520.578,100.189 649.494,431.652 668.061,425.725 		"/>
		<polygon fill="#0A64A3" points="677.827,11.622 534.237,85.288 667.974,425.801 776.1,304.23 		"/>
		<path fill="#0A64A3" d="M694.297,433.102c0,0,140.973-48.923,261.053,5.926l60.697-94.88c0,0-63.764-59.373-230.799-20.757
			L694.297,433.102z"/>
		<path fill="#1E1E4E" d="M742.188,203.345l221.387,0.039c0,0,26.436,75.361-52.376,107.687h-23.575
			c0,0,81.837-29.941,57.835-87.016c0,0-195.332-0.271-196.44-0.299C748.957,223.754,742.188,203.345,742.188,203.345z"/>
	</g>
	<g>
		<polygon fill="#43A5DC" points="934.832,474.789 934.832,491.839 861.375,612.479 859.564,587.357 		"/>
		<path fill="#1E1E4E" d="M547.262,604.748c0,0,169.466-53.525,314.113,8.022l0.342-18.47c0,0-133.146-66.068-314.455-4.524V604.748
			z"/>
		<polygon fill="#1E1E4E" points="336.924,191.059 320.363,207.86 493.297,588.818 515.657,582.164 		"/>
		<polygon fill="#0A64A3" points="498.915,106.32 336.591,191.104 515.323,582.21 645.57,445.811 		"/>
		<path fill="#0A64A3" d="M547.262,589.541c0,0,169.812-57.021,314.455,4.525l73.114-119.222c0,0-76.811-51.722-278.012-8.394
			L547.262,589.541z"/>
		<path fill="#1E1E4E" d="M590.57,323.603h281.053c0,0,25.188,89.586-69.746,125.854l-28.217,0.532
			c0,0,105.052-39.151,76.14-103.192c0,0-246.791-0.519-246.755-0.457C603.077,346.401,590.57,323.603,590.57,323.603z"/>
	</g>
	<g>
		<polygon fill="#43A5DC" points="834.571,637.931 834.254,649.109 755.983,775.116 753.842,748.251 		"/>
		<path fill="#1E1E4E" d="M378.834,763.945c0,0,206.587-54.97,377.466,10.854l0.399-19.749c0,0-163.67-72.938-377.866-7.116V763.945
			z"/>
		<polygon fill="#1E1E4E" points="100.15,316.362 80.586,334.332 315.078,755.05 341.497,747.934 		"/>
		<polygon fill="#0A64A3" points="294.896,214.77 100.15,316.362 341.497,747.934 495.365,602.054 		"/>
		<path fill="#0A64A3" d="M378.834,755.311c0,0,206.99-58.707,377.866,7.114l77.871-124.494c0,0-88.619-60.609-326.312-14.266
			L378.834,755.311z"/>
		<path fill="#1E1E4E" d="M426.936,471.4l334.081,0.111c0,0,30.059,96.163-82.092,134.954l-33.691,0.352
			c0,0,124.158-42.01,90.003-110.501c0,0-294.739-0.553-294.697-0.487C440.579,495.895,426.936,471.4,426.936,471.4z"/>
	</g>
	<g>
		<polygon fill="#43A5DC" points="712.848,827.392 712.848,847.436 633.813,974.244 631.34,944.718 		"/>
		<path fill="#1E1E4E" d="M176.173,962.314c0,0,260.131-60.418,457.641,11.93l0.466-21.704c0,0-210.529-80.172-458.107-7.822
			V962.314z"/>
		<polygon fill="#1E1E4E" points="-164.813,458.29 -187.423,478.041 102.481,952.54 133.015,944.718 		"/>
		<polygon fill="#0A64A3" points="58.998,338.838 -164.813,458.29 133.015,944.718 310.867,784.374 		"/>
		<path fill="#0A64A3" d="M176.173,944.718c0,0,260.594-64.529,458.107,7.822l78.568-125.148c0,0-112.331-78.31-387.074-27.374
			L176.173,944.718z"/>
		<path fill="#1E1E4E" d="M227.839,640.768h391.25c0,0,43.485,99.398-86.149,142.034h-38.776c0,0,134.605-39.493,95.127-114.772
			c-0.002,0-344.462-0.607-344.414-0.536C244.921,667.564,227.839,640.768,227.839,640.768z"/>
		<path fill="#1E1E4E" d="M21.722,779.596h399.76c0,0,43.483,99.397-86.148,142.036l-43.402,2.442c0,0,139.231-41.93,99.749-117.213
			c0,0-352.974-0.61-352.924-0.534C38.804,806.396,21.722,779.596,21.722,779.596z"/>
	</g>
	<g>
		<polygon fill="#43A5DC" points="587.385,1000.912 587.385,1022.863 482.708,1193.651 479.765,1161.313 		"/>
		<polygon fill="#0A64A3" points="-201.269,505.154 -467.581,635.977 -113.191,1168.688 98.43,993.09 		"/>
		<path fill="#292A66" d="M-61.845,1161.313c0,0,310.087-70.67,545.107,8.562l104.123-168.964c0,0-144.297-53.85-471.218,1.932
			L-61.845,1161.313z"/>
		<path fill="#2A3C8E" d="M-245.625,980.482h475.677c0,0,51.743,108.855-102.507,155.55l-51.647,2.674
			c0,0,165.672-45.923,118.696-128.368c0,0-420.004-0.668-419.948-0.587C-225.3,1009.83-245.625,980.482-245.625,980.482z"/>
	</g>
	<g>
		<path fill="#35377A" d="M524.525,200.206c0,0-1.719,1.185-4.726,3.258c-3.029,2.039-7.324,5.005-12.537,8.47
			c-5.203,3.48-11.298,7.501-17.854,11.77c-3.282,2.129-6.674,4.327-10.12,6.562c-3.457,2.218-6.968,4.472-10.479,6.726
			c-3.524,2.232-7.049,4.465-10.518,6.663c-3.479,2.182-6.904,4.329-10.217,6.407c-6.636,4.143-12.854,7.972-18.205,11.22
			c-5.341,3.265-9.842,5.905-12.969,7.791c-3.149,1.852-4.949,2.909-4.949,2.909s1.718-1.185,4.726-3.259
			c3.029-2.039,7.322-5.007,12.535-8.471c5.203-3.48,11.298-7.502,17.854-11.771c3.282-2.127,6.674-4.326,10.121-6.56
			c3.456-2.218,6.968-4.471,10.479-6.724c3.524-2.232,7.049-4.465,10.519-6.663c3.479-2.182,6.904-4.328,10.218-6.406
			c6.637-4.142,12.854-7.971,18.205-11.22c5.341-3.264,9.841-5.906,12.969-7.792C522.726,201.265,524.525,200.206,524.525,200.206z"
			/>
	</g>
	<g>
		<path fill="#35377A" d="M691.22,89.639c0,0-1.719,1.184-4.726,3.258c-3.029,2.039-7.324,5.004-12.536,8.47
			c-5.203,3.479-11.298,7.501-17.854,11.771c-3.282,2.128-6.673,4.326-10.119,6.561c-3.457,2.219-6.968,4.473-10.479,6.727
			c-3.524,2.232-7.049,4.465-10.518,6.663c-3.479,2.183-6.904,4.329-10.217,6.407c-6.636,4.144-12.854,7.973-18.204,11.221
			c-5.341,3.265-9.842,5.905-12.969,7.791c-3.149,1.852-4.948,2.91-4.948,2.91s1.718-1.186,4.726-3.26
			c3.029-2.039,7.322-5.006,12.535-8.471c5.203-3.48,11.297-7.502,17.854-11.771c3.282-2.128,6.674-4.326,10.12-6.56
			c3.457-2.219,6.968-4.472,10.479-6.725c3.524-2.232,7.049-4.465,10.519-6.663c3.479-2.182,6.904-4.329,10.218-6.406
			c6.636-4.142,12.854-7.972,18.204-11.221c5.341-3.264,9.841-5.906,12.968-7.792C689.42,90.696,691.22,89.639,691.22,89.639z"/>
	</g>
	<g>
		<path fill="#35377A" d="M324,315.729c0,0-2.14,1.413-5.884,3.885c-3.769,2.435-9.107,5.984-15.594,10.113
			c-3.24,2.07-6.75,4.312-10.463,6.685c-3.714,2.369-7.619,4.888-11.703,7.42c-8.148,5.098-16.84,10.535-25.532,15.973
			c-8.742,5.355-17.484,10.712-25.68,15.732c-8.19,5.029-15.924,9.58-22.508,13.553c-6.587,3.967-12.146,7.16-16.006,9.448
			c-3.883,2.249-6.102,3.534-6.102,3.534s2.14-1.413,5.884-3.886c3.769-2.435,9.105-5.986,15.594-10.114
			c6.492-4.121,14.013-9.015,22.167-14.104c8.149-5.098,16.841-10.534,25.533-15.972c8.742-5.355,17.484-10.711,25.681-15.731
			c4.088-2.526,8.083-4.899,11.859-7.167c3.779-2.266,7.351-4.408,10.648-6.385c6.589-3.966,12.146-7.161,16.005-9.449
			C321.781,317.015,324,315.729,324,315.729z"/>
	</g>
	<g>
		<path fill="#35377A" d="M116.276,466.214c0,0-2.875,1.67-7.907,4.594c-5.054,2.883-12.231,7.077-20.919,11.976
			c-4.341,2.455-9.043,5.114-14.017,7.927c-4.975,2.811-10.21,5.794-15.667,8.806c-10.896,6.058-22.519,12.519-34.141,18.979
			c-11.668,6.377-23.337,12.754-34.276,18.732c-10.935,5.987-21.222,11.427-29.998,16.165c-8.78,4.73-16.16,8.558-21.297,11.291
			c-5.158,2.692-8.106,4.231-8.106,4.231s2.875-1.671,7.906-4.595c5.054-2.883,12.23-7.08,20.918-11.977
			c8.692-4.891,18.785-10.684,29.685-16.732c10.896-6.057,22.519-12.517,34.141-18.978c11.668-6.377,23.337-12.753,34.277-18.731
			c5.46-3.006,10.778-5.84,15.812-8.545c5.034-2.703,9.793-5.26,14.187-7.619c8.781-4.729,16.16-8.559,21.296-11.292
			C113.329,467.753,116.276,466.214,116.276,466.214z"/>
	</g>
	<path fill="#2786C8" d="M80.124,449.572c-15.737-1.392-483.547,14.043-483.547,14.043l1.889,18.506l458.601-3.427l0.345,2.016
		C66.864,471.703,73.199,460.457,80.124,449.572z"/>
	<path fill="#263C6A" d="M80.466,449.618c-0.068-0.015-0.191-0.032-0.343-0.046c-6.925,10.885-13.259,22.131-22.713,31.138
		l96.611,739.146l26.43-17.023C180.452,1202.833,87.514,451.354,80.466,449.618z"/>
	<path fill="#0A64A3" d="M-415.108,480.635c0,0,467.276-7.796,474.33-6.059c7.049,1.734,94.8,745.28,94.8,745.28l-544.757-52.239
		L-415.108,480.635z"/>
	<rect x="-1.361" y="-743.471" fill="none" width="2364.136" height="1657.348"/>
</g>
</svg>
